<?xml version="1.0" encoding="UTF-8"?>
<svg width="28px" height="28px" viewBox="0 0 28 28" version="1.1" xmlns="http://www.w3.org/2000/svg" xmlns:xlink="http://www.w3.org/1999/xlink">
    <!-- Generator: Sketch 64 (93537) - https://sketch.com -->
    <title>Group 3</title>
    <desc>Created with Sketch.</desc>
    <defs>
        <polygon id="path-1" points="2.95997741e-05 0 27.9104215 0 27.9104215 27.953977 2.95997741e-05 27.953977"></polygon>
    </defs>
    <g id="payment" stroke="none" stroke-width="1" fill="none" fill-rule="evenodd">
        <g id="pay" transform="translate(-569.000000, -316.000000)">
            <g id="Group-3" transform="translate(569.000000, 316.000000)">
                <mask id="mask-2" fill="white">
                    <use xlink:href="#path-1"></use>
                </mask>
                <g id="Clip-2"></g>
                <path d="M7.34132107,10.8353563 C7.50438621,10.6218697 7.79618697,10.7023295 8.02576552,10.6830192 C9.82162759,10.7001839 11.6174897,10.657272 13.4122789,10.7055479 C12.3845395,11.8276935 11.2656123,12.8672337 10.2464552,13.9990345 C10.5532751,14.4109885 10.9555739,14.736046 11.3010146,15.1136705 C13.0936582,16.8998774 14.8604475,18.7107586 16.6467617,20.5023295 C16.6961103,20.5806437 16.8731218,20.7018697 16.7529686,20.7941303 C15.8013977,21.7220996 14.8927387,22.6961992 13.9315126,23.6145134 C10.8665318,20.5731341 7.84982682,17.4845517 4.80093793,14.4281533 C4.65932874,14.2876169 4.52630192,14.1384981 4.39434789,13.9893793 C5.31051648,12.8768889 6.37473103,11.9006437 7.34132107,10.8353563 M11.1926621,7.25221456 C12.1099034,6.24700383 13.1065318,5.31796169 14.0398651,4.32669732 C16.030869,6.30600766 17.997413,8.30999234 19.9799418,10.2978851 C21.1686008,11.5358927 22.4184092,12.7159693 23.5812138,13.9797241 C22.6898268,15.0836322 21.6190682,16.0266207 20.6611678,17.0704521 C20.4680644,17.3429425 20.1194054,17.2539004 19.8350069,17.2657011 C18.0853824,17.2581916 16.3367234,17.2689195 14.5869916,17.2624828 C15.6233134,16.1424828 16.7218575,15.079341 17.7828536,13.9807969 C16.6317425,12.7781916 15.4377195,11.6152797 14.2758805,10.4223295 C13.248141,9.36562452 12.1592521,8.36470498 11.1926621,7.25221456 M9.7808613,4.37175479 C8.36906054,5.81681226 6.93151264,7.2382682 5.51649349,8.68118008 C5.08415632,9.12102682 4.62499923,9.53941762 4.24522912,10.0275402 C4.17013333,10.2281533 4.21197241,10.4502222 4.20124444,10.6594176 C4.22699157,13.124705 4.17978851,15.5921379 4.22699157,18.0552797 C4.52093793,18.4221762 4.88461609,18.7225594 5.21611034,19.0540536 C6.69335172,20.5452414 8.208141,21.9978084 9.69396475,23.4804138 C10.0715893,23.9513716 10.7345778,23.7293027 11.2495203,23.7271571 C13.5217042,23.7089195 15.7938881,23.7260843 18.066072,23.6981916 C19.899482,21.7757395 21.7918958,19.9101456 23.6671448,18.0295326 C23.6993287,16.3602605 23.6295969,14.6877701 23.7057655,13.0206437 C23.6262713,11.9971954 23.7004015,10.9694559 23.6499801,9.94493487 C21.8958498,8.13405364 20.0592215,6.38861303 18.2924322,4.58309579 C18.1465318,4.44685057 18.0199418,4.23014559 17.7903632,4.25052874 C15.2864552,4.24301916 12.7814743,4.25481992 10.2764935,4.24623755 C10.1069916,4.25911111 9.89994176,4.21834483 9.7808613,4.37175479 M8.09227893,0.112750958 C10.2507464,0.0623295019 12.4145778,0.0988045977 14.5751908,0.0837854406 C16.0352674,-0.0685517241 17.5082176,0.0408735632 18.9758038,0.00439846743 C19.2268383,0.0290727969 19.5325854,-0.0653333333 19.7342713,0.130988506 C20.5871448,0.888383142 21.3456123,1.7434023 22.1748843,2.52654406 C23.8365395,4.18937931 25.5241563,5.82646743 27.1912828,7.4839387 C27.4250452,7.72102682 27.6954973,7.92700383 27.8809839,8.20700383 C27.9100567,8.37865134 27.9014743,8.55351724 27.9046927,8.72731034 C27.8939648,12.3748199 27.9207847,16.0223295 27.9057655,19.6687663 C27.7308996,19.987387 27.4262253,20.2105287 27.1805548,20.4744368 C24.7141946,22.9418697 22.260708,25.4221762 19.8038958,27.8992644 C17.3096429,27.9335939 14.8144245,27.8713716 12.3223172,27.953977 C11.0328153,27.9507586 9.74331341,27.9550498 8.45488429,27.9518314 C8.15986513,27.9711418 7.98178084,27.707341 7.78438621,27.5355862 C5.265459,25.0488429 2.76798774,22.5374253 0.231895785,20.0667739 C0.123543295,19.960567 0.0269915709,19.8275402 0.0441563218,19.6676935 C0.00339003831,16.0931341 0.024845977,12.5175019 2.95997741e-05,8.94294253 C0.00768122605,8.7090728 -0.0202114943,8.46876628 0.0398651341,8.23918774 C0.668524138,7.51397701 1.39588046,6.88317241 2.04921379,6.18049042 C3.6927387,4.53481992 5.31909885,2.86983908 6.96691494,1.22845977 C7.34346667,0.857272031 7.68676169,0.450681992 8.09227893,0.112750958" id="Fill-1" fill="#046B10" mask="url(#mask-2)"></path>
            </g>
        </g>
    </g>
</svg>