<?xml version="1.0" encoding="UTF-8"?>
<svg width="22px" height="28px" viewBox="0 0 22 28" version="1.1" xmlns="http://www.w3.org/2000/svg" xmlns:xlink="http://www.w3.org/1999/xlink">
    <!-- Generator: Sketch 64 (93537) - https://sketch.com -->
    <title>Group 6</title>
    <desc>Created with Sketch.</desc>
    <defs>
        <polygon id="path-1" points="0 0.0542570281 21.1587099 0.0542570281 21.1587099 27.9437541 0 27.9437541"></polygon>
    </defs>
    <g id="payment" stroke="none" stroke-width="1" fill="none" fill-rule="evenodd">
        <g id="pay" transform="translate(-1052.000000, -406.000000)">
            <g id="Group-6" transform="translate(1052.000000, 406.000000)">
                <path d="M16.5599365,12.9164772 C16.5841133,12.8474793 16.6605791,12.8331825 16.7094948,12.7921568 C16.7111253,12.9021803 16.7117438,13.0128255 16.7156795,13.1228491 C16.8629888,13.1209843 16.9129727,12.9686918 16.9647558,12.8437497 C17.1187558,12.8257233 17.274555,12.8344257 17.4263622,12.8723434 C17.2177679,12.9898262 17.017045,13.1284435 16.7982739,13.2223054 C16.6706996,13.2117382 16.4924667,13.0774721 16.5599365,12.9164772 M16.2748763,13.5275121 C16.0353582,13.1452268 16.3721454,12.4913013 16.8112618,12.580812 C16.7353582,12.7461582 16.5205791,12.6908356 16.4204988,12.8282097 C16.3411655,12.9351252 16.3603382,13.1023362 16.4255028,13.2117382 C16.5053422,13.2956545 16.620041,13.3167889 16.7196153,13.3627875 C16.6026675,13.4871079 16.4446755,13.6536973 16.2748763,13.5275121" id="Fill-1" fill="#FFFFFF"></path>
                <g id="Group-5" transform="translate(0.000000, 0.001968)">
                    <mask id="mask-2" fill="white">
                        <use xlink:href="#path-1"></use>
                    </mask>
                    <g id="Clip-4"></g>
                    <path d="M0.0730811245,27.7705518 C7.04777992,27.7666723 14.0225349,27.7689213 20.9971775,27.7699896 C20.9966715,27.8267767 20.9966715,27.8846884 20.9977398,27.9426562 C14.0225349,27.9431622 7.04777992,27.9454112 0.0730811245,27.9414755 L0.0730811245,27.7705518 Z M20.2926795,26.8485197 C20.4006313,26.8450869 20.5091454,26.8440217 20.6176594,26.8462707 C20.6159727,26.9530418 20.6120369,27.0610498 20.6064145,27.1683831 C20.5057719,27.1571944 20.3534024,27.2262948 20.3079165,27.0987205 C20.2628803,27.0227606 20.298302,26.9300458 20.2926795,26.8485197 L20.2926795,26.8485197 Z M12.6314747,26.8316522 C12.7146876,26.8327205 12.7979004,26.8332827 12.8817317,26.8344635 C12.9120932,26.9469133 12.9092257,27.0621181 12.8654265,27.1718129 C12.7905912,27.1745679 12.715812,27.1790659 12.6415952,27.1836201 C12.5617558,27.070608 12.5566956,26.9479815 12.6314747,26.8316522 L12.6314747,26.8316522 Z M11.749306,26.8445277 C11.8864948,26.8209133 12.0197478,26.8467767 12.1288241,26.9367928 C12.2227197,26.8568972 12.3908321,26.7652506 12.4796675,26.8962546 C12.5611936,26.9958289 12.4723582,27.098102 12.4038201,27.1740618 C12.30031,27.1987446 12.2125992,27.1290819 12.1265751,27.0846643 C12.015812,27.1498289 11.8921173,27.1818771 11.7633622,27.1728811 C11.756053,27.0632988 11.7509928,26.9536602 11.749306,26.8445277 L11.749306,26.8445277 Z M6.53500884,25.3798691 C6.720551,25.3681181 6.90721767,25.3675558 7.09332209,25.3731221 C7.10288032,25.7892426 7.10344257,26.2052506 7.09894458,26.6218771 C7.11018956,26.8524554 6.9212739,27.0233229 6.73010924,27.1150257 C6.53838233,27.2240458 6.30954699,27.1875558 6.10601285,27.1397084 C6.21621365,27.0520538 6.33822169,26.976094 6.42986827,26.8681422 C6.53388434,26.7343269 6.54063133,26.5578369 6.54006908,26.3964715 C6.53782008,26.0573791 6.53725783,25.7189614 6.53500884,25.3798691 L6.53500884,25.3798691 Z M0.293482731,25.3928008 C0.603844177,25.3618771 0.917016867,25.3528811 1.22737831,25.383861 C1.4325992,25.3939253 1.58271968,25.5924554 1.5979004,25.7869936 C1.61926586,26.0771141 1.6012739,26.3688651 1.60352289,26.66011 C1.23581205,26.7084635 0.864165462,26.6921582 0.494767871,26.6894032 C0.35533012,26.673604 0.196775904,26.6730418 0.0820771084,26.5837004 C-0.00226024096,26.4515157 0.0185429719,26.2867767 -1.12449799e-05,26.1383992 C0.350832129,26.24011 0.721354217,26.2109293 1.08119357,26.1906321 C1.06039036,26.1062948 1.02890442,26.0141422 0.935571084,25.989347 C0.721354217,25.941612 0.499265863,25.9775398 0.289546988,26.0298289 C0.287297992,25.817355 0.287297992,25.6053309 0.293482731,25.3928008 L0.293482731,25.3928008 Z M14.5426153,25.0369534 C14.6640048,24.8929614 14.8692257,24.9053309 15.0373382,24.8654112 C14.9457478,25.0262145 14.8720369,25.2140056 15.0137237,25.3720538 C15.6861735,25.3984795 16.3597478,25.3691863 17.0328161,25.3849293 C17.2902699,25.3793631 17.5432819,25.5283028 17.6686635,25.7521341 C17.7288803,25.8926964 17.7203904,26.0490016 17.7372578,26.1979414 C17.9379807,26.2080618 18.1392659,26.2086803 18.340551,26.1974353 C18.3461735,25.9275558 18.3473542,25.6582386 18.340551,25.388359 C18.5350892,25.3798691 18.7296273,25.3798691 18.9247277,25.3871783 C18.9213542,25.810608 18.9259084,26.2345438 18.9213542,26.6584795 C18.6289847,26.693339 18.331555,26.7140859 18.0386233,26.675853 C17.9289847,26.6635398 17.8463341,26.5859494 17.7631213,26.5217968 C17.6957076,26.6145679 17.6062538,26.7045277 17.4803663,26.6899092 C16.5987036,26.6949695 15.7170972,26.686592 14.8349285,26.6927205 C14.6493863,26.695588 14.4644064,26.6826 14.280551,26.6607285 C14.2793888,26.5201663 14.2788643,26.3801663 14.280045,26.24011 C14.858543,26.2435398 15.4370972,26.2288651 16.0156514,26.241853 C16.3862297,26.2164956 16.7583823,26.2547285 17.1272177,26.2046884 C17.1260932,26.1710096 17.1227197,26.1029775 17.1210329,26.0686241 C17.0220771,26.0157727 16.9219968,25.950608 16.805049,25.9584795 C16.1854506,25.9544876 15.56529,25.9607285 14.9457478,25.9589855 C14.7781414,25.9579173 14.5858522,25.9466723 14.4773382,25.7993068 C14.2659888,25.5867767 14.3615149,25.2359896 14.5426153,25.0369534 L14.5426153,25.0369534 Z M10.8480771,24.853604 C11.0408723,24.844608 11.2337237,24.844608 11.4266313,24.8519735 C11.4451293,25.291596 11.4333221,25.7312747 11.4333221,26.1710096 C11.8032819,26.2372988 12.1811695,26.2001904 12.5550088,26.1985036 C12.5611936,25.9291863 12.5629365,25.6598691 12.5533221,25.3911703 C12.745049,25.3809936 12.9367759,25.3798691 13.1285028,25.3877406 C13.1223181,25.8111141 13.1251855,26.2350498 13.1256916,26.6584795 C12.760792,26.7124554 12.3913944,26.6859735 12.0236835,26.6916522 C11.6880209,26.6904715 11.3428,26.7129614 11.0172578,26.6123189 C10.8710731,26.55109 10.8429606,26.3711141 10.8429606,26.2305518 C10.8395871,25.7717566 10.8390249,25.3123992 10.8480771,24.853604 L10.8480771,24.853604 Z M7.28617349,24.8564715 C7.48296064,24.8440458 7.68031004,24.8440458 7.87709719,24.8564715 C7.90183614,25.3040217 7.87203695,25.7521341 7.89621365,26.1996843 C8.01541044,26.2137406 8.13516948,26.2266161 8.25549076,26.237861 C8.28247871,25.952857 8.28304096,25.6655478 8.24818153,25.381612 C8.43541044,25.3798691 8.62263936,25.3826803 8.80986827,25.3928008 C8.89870361,25.6582386 8.89083213,25.9398691 8.89026988,26.2159896 C8.97854297,26.2187446 9.06681606,26.2238048 9.15508916,26.2300458 C9.1876996,25.9466723 9.1854506,25.6593068 9.12528996,25.3798691 C9.32039036,25.3798691 9.51605301,25.3821743 9.71171566,25.3944876 C9.77075181,25.6587446 9.7488241,25.9308731 9.75500884,26.1996843 C9.85508916,26.1996843 9.95573173,26.2001904 10.0563743,26.2001904 C10.0569365,25.9269373 10.0653703,25.6519976 10.0260129,25.3809936 C10.2126795,25.3849293 10.4055309,25.3585598 10.5871373,25.4130418 C10.6636032,25.5164956 10.6484225,25.6509293 10.6529205,25.7723189 C10.651796,26.0669373 10.649547,26.3621181 10.651796,26.6572988 C10.3054506,26.7090257 9.95460723,26.6882225 9.60601285,26.6904715 C9.02408514,26.684849 8.44159518,26.7022787 7.86022972,26.6837807 C7.65107309,26.6544876 7.32946667,26.6685438 7.29741847,26.3902305 C7.25243855,25.8813952 7.27942651,25.3669373 7.28617349,24.8564715 L7.28617349,24.8564715 Z M19.1282618,24.8434835 C19.3211133,24.8434835 19.5140209,24.8440458 19.7073783,24.8429775 C19.715812,25.2877165 19.7028803,25.7323992 19.715306,26.1777566 C19.995812,26.2642867 20.2909928,26.2524795 20.5777398,26.2091863 C20.6019165,25.9359333 20.5957317,25.6621181 20.589041,25.388359 C20.7756514,25.3809936 20.9634426,25.3804313 21.1506715,25.383861 C21.1546072,25.8100458 21.1714747,26.2372988 21.1399888,26.6635398 C20.7829606,26.7090257 20.4226153,26.686592 20.0638442,26.6921582 C19.8159486,26.695588 19.5651855,26.6831622 19.3233622,26.6253068 C19.1367518,26.5994434 19.1316353,26.3739253 19.1068964,26.2288651 C19.0855309,25.7672586 19.0821574,25.3034032 19.1282618,24.8434835 L19.1282618,24.8434835 Z M1.81886426,24.8480378 C2.00890442,24.8434835 2.19894458,24.8429775 2.38954699,24.8417968 C2.4092257,25.2950257 2.35862329,25.7521341 2.42384418,26.2030016 C2.73533012,26.253098 3.05187631,26.2496683 3.36561124,26.2249855 C4.0925992,26.239604 4.82296064,26.2659735 5.5488241,26.2176763 C5.5465751,26.1799494 5.54095261,26.1052265 5.53814137,26.0674996 C5.43918554,26.0157727 5.33910522,25.9516763 5.22271968,25.9584795 C4.60312129,25.9539253 3.98296064,25.9624153 3.3628,25.9579173 C3.19693655,25.9444233 2.98834217,25.9617968 2.88263936,25.8032988 C2.7488241,25.6047687 2.8314747,25.3545679 2.83934618,25.1347285 C2.79211727,25.1713309 2.76737831,25.2185036 2.76512932,25.2764715 C2.75613333,25.4788249 2.78255904,25.6806723 2.81685622,25.8803269 C2.380551,25.7560699 2.45476787,25.1184233 2.78818153,24.9171382 C2.97709719,24.7541422 3.23235823,24.8705277 3.44994859,24.8879012 C3.40553092,24.991355 3.35267952,25.0948088 3.34087229,25.2089454 C3.3892257,25.30509 3.4741253,25.388359 3.58994859,25.3781823 C4.22866345,25.3956683 4.86850281,25.3663751 5.50777992,25.388359 C5.74842249,25.3922386 5.97163534,25.5435398 6.09139438,25.7487044 C6.19372369,26.0388249 6.14255904,26.3548088 6.15324177,26.6567365 C5.9930008,26.675853 5.83219759,26.6939012 5.67026988,26.6927205 C4.77067149,26.6894032 3.87107309,26.69109 2.9714747,26.69109 C2.6363743,26.6899092 2.29115341,26.7147044 1.96729799,26.6100699 C1.83629398,26.5600859 1.80649478,26.407098 1.81324177,26.282841 C1.81436627,25.8043671 1.80930602,25.3259494 1.81886426,24.8480378 L1.81886426,24.8480378 Z M18.1499486,24.701853 C18.2236032,24.7085438 18.2972578,24.7152908 18.3714747,24.7215317 C18.4103261,24.8289213 18.4142056,24.9418771 18.3889044,25.0538209 C18.2865751,25.0498289 18.1842458,25.0465116 18.083041,25.0420137 C18.0448643,24.9200056 18.0757317,24.8024394 18.1499486,24.701853 L18.1499486,24.701853 Z M0.0702698795,24.2002707 C0.0966955823,24.0513309 0.272117269,24.0884394 0.38344257,24.0726402 C6.75597269,24.0737647 13.1290651,24.0726402 19.5015952,24.0732024 C20.00031,24.0861904 20.5012739,24.0417727 20.9971775,24.1053068 C20.9989205,24.1389855 21.0016755,24.2064554 21.0033622,24.2401904 C14.1113703,24.2503671 7.21926586,24.2379976 0.32777992,24.2463751 C0.242880321,24.2345679 0.13717751,24.26611 0.0702698795,24.2002707 L0.0702698795,24.2002707 Z M11.5260932,21.2265357 C12.0208723,20.9685197 12.6051052,21.1017727 13.1105108,21.2580779 C13.408559,21.3676602 13.7318522,21.3277406 14.0410892,21.375588 C14.4902699,21.4649855 14.9530008,21.4385598 15.402294,21.5312747 C15.8447277,21.5515719 16.2844064,21.6133631 16.7050249,21.7584233 C17.0248884,21.8787446 17.3684225,21.8950498 17.7068964,21.883861 C17.9739647,21.8928008 18.1696273,21.6572747 18.4333221,21.6454675 C18.6042458,21.62011 18.744808,21.764102 18.9146072,21.748359 C19.0253703,21.7516763 19.158061,21.7190659 19.2440851,21.8107124 C19.335788,21.933845 19.3840851,22.0834594 19.4734827,22.2082225 C19.62529,22.3224153 19.8456916,22.3420378 19.9553301,22.5112747 C20.0823984,22.7013711 20.187539,22.907098 20.2606313,23.1241261 C20.2117719,23.1269373 20.1144466,23.1319976 20.0655309,23.1348651 C19.8012739,22.8356924 19.5303261,22.5428169 19.2823181,22.229588 C19.2137799,22.1430016 19.1338843,22.066592 19.0484225,21.9968731 C19.0624787,22.1368731 19.1091454,22.2689454 19.16031,22.3994434 C19.0056916,22.2566321 18.8662538,22.0992024 18.7133221,21.9552104 C18.638543,21.8658129 18.5120369,21.8989855 18.4108321,21.88611 C18.3782217,22.1643671 18.6936996,22.308359 18.6818361,22.5787446 C18.4058281,22.5646884 18.1954908,22.367339 17.9424787,22.2819333 C17.6309928,22.1767928 17.2992659,22.1464313 16.9714747,22.1474996 C16.7342056,22.1554273 16.5323582,22.0131783 16.3108321,21.9529614 C15.8402859,21.8253871 15.3544466,21.7719735 14.8681574,21.748359 C14.3356514,21.6640217 13.7953863,21.7111944 13.2590008,21.6830819 C12.8771775,21.6730177 12.5235229,21.4896683 12.1423181,21.4812908 C11.9354104,21.5116522 11.7088241,21.5548892 11.5536434,21.7072586 C11.3411133,21.9434032 11.3962699,22.3229213 11.5941253,22.5500699 C11.7780369,22.7581582 12.0602297,22.8374353 12.3239807,22.884102 C12.8603663,22.9346482 13.3983823,22.8812345 13.9353301,22.8936602 C14.4807116,22.907098 15.0193462,22.8064554 15.5647277,22.8183189 C15.9509928,22.7985839 16.3373141,22.8193871 16.7235791,22.8329373 C16.7077799,22.8025759 16.6769124,22.7429213 16.6611133,22.7131783 C16.3699245,22.5849855 16.0460129,22.5691863 15.7328964,22.5596281 C14.8534827,22.5422546 13.9735631,22.5405116 13.0942056,22.5506321 C12.7962137,22.5540618 12.4352498,22.6321582 12.2058522,22.3887044 C12.0742859,22.2807526 12.0394265,22.0502867 12.1716112,21.9305277 C12.5375791,21.8090819 12.9294667,21.9052265 13.3022378,21.9423349 C13.8667357,22.058102 14.449788,21.9822546 15.0148482,22.0930177 C15.5062538,22.1430016 15.9931614,22.2290257 16.4733221,22.3437245 C17.1036032,22.4797888 17.8232819,22.3836442 18.3563502,22.8154514 C18.5103502,22.9610739 18.7060129,23.0364715 18.9191052,23.0161743 C18.9241655,22.86611 18.9348482,22.7170578 18.9517719,22.5681181 C19.1350088,22.6125357 19.3121735,22.6793871 19.4892257,22.7435398 C19.7057478,22.8193871 19.8288241,23.0342225 19.9137237,23.2338209 C17.4145831,23.2681181 14.9136434,23.2348892 12.4144466,23.2292667 C12.0079968,23.187098 11.5699486,23.1140618 11.2539647,22.8334434 C10.9605269,22.5838048 10.8553863,22.1525598 10.9621574,21.7887847 C11.0436835,21.5206482 11.2809526,21.3389855 11.5260932,21.2265357 L11.5260932,21.2265357 Z M16.8354104,15.0907124 C17.080551,14.9496442 17.3813542,14.9698289 17.6456112,15.0395478 C17.7574988,15.055347 17.6894667,15.1986643 17.6979004,15.2700699 C17.4274586,15.1368731 17.1322779,15.1053309 16.8354104,15.0907124 L16.8354104,15.0907124 Z M17.7361333,14.6274193 C18.0049446,14.5925598 18.2359727,14.4436201 18.4906715,14.3615317 C18.4007116,14.626857 18.2494667,14.8675558 18.0577398,15.0704715 C17.9576594,14.9670177 17.8750088,14.8040217 17.7075149,14.8213952 C17.3689847,14.8079012 16.9877799,14.7820378 16.6948482,14.9828169 C16.4733221,15.1615558 16.5885831,15.5349454 16.8505912,15.6007285 C17.055812,15.6400297 17.2750892,15.649588 17.4786233,15.5972988 C17.6619165,15.4831622 17.7844867,15.2920538 17.9768321,15.1874193 C17.8755711,15.4078209 17.6967759,15.5899896 17.645049,15.8329373 C17.6051293,15.9526964 17.6028803,16.0949454 17.5101092,16.1904715 C17.3881012,16.340592 17.1615711,16.315347 16.9995871,16.2546241 C16.9203663,16.1432426 16.9124386,16.0009936 16.8539647,15.8806723 C16.7044064,15.751355 16.5132418,15.6580217 16.4204707,15.4747847 C16.2990249,15.2729373 16.3300048,14.9642064 16.5509124,14.8439414 C16.9118763,14.635347 17.344302,14.7174353 17.7361333,14.6274193 L17.7361333,14.6274193 Z M17.4774988,13.6890257 C17.6737237,13.5310337 18.0065751,13.5102867 18.1786795,13.7155076 C18.3152498,13.8605679 18.3647277,14.059604 18.4058281,14.2496442 C18.1589446,14.3053068 17.9149285,14.371596 17.6737237,14.4469373 C17.3960289,14.5312747 17.1024787,14.5076602 16.8168562,14.5257084 C17.073804,14.2754514 17.1868161,13.9083028 17.4774988,13.6890257 L17.4774988,13.6890257 Z M17.6209285,13.3123751 C18.0116353,13.1566321 18.3838442,13.4393871 18.7706715,13.4725598 C18.756053,13.6502305 18.7173141,13.82509 18.6542859,13.9920779 C18.467057,13.8678209 18.3962699,13.6379173 18.2213542,13.5017968 C18.0532418,13.3612345 17.8238442,13.3606723 17.6209285,13.3123751 L17.6209285,13.3123751 Z M17.2728402,13.2066161 C17.4623181,13.1104715 17.6821574,13.1392024 17.8868161,13.1509534 C17.6608482,13.2212345 17.3931614,13.1869936 17.2081815,13.3584233 C16.9444867,13.5828169 17.0383823,13.9977566 16.7971775,14.2423349 C16.6644867,14.4070177 16.4367759,14.3935237 16.249547,14.3615317 C16.2568562,14.2344072 16.210808,14.0804072 16.3102699,13.9785839 C16.4536434,13.8200297 16.644808,13.7166321 16.8056675,13.5765759 C16.9602859,13.4529373 17.0923582,13.2954514 17.2728402,13.2066161 L17.2728402,13.2066161 Z M14.9541253,13.6328008 C15.1441655,13.3567928 15.4595871,13.1965518 15.7755711,13.11109 C15.6226956,13.8976201 15.7480209,14.7533631 16.1910731,15.4291863 C16.3581173,15.6934434 16.6082618,15.8879815 16.8281012,16.1061341 C16.6757317,16.3181582 16.4390249,16.4496683 16.1792659,16.4722145 C16.1579004,16.4552908 16.114045,16.4204876 16.0921173,16.4035639 C16.1348482,16.2709293 16.1933221,16.1444233 16.2444867,16.0150498 C15.9999647,16.0550257 15.7581414,16.1173791 15.5096273,16.1258691 C15.6327598,15.9318369 15.8233622,15.7564153 15.807057,15.5068329 C15.5950892,15.5889213 15.3623743,15.6321582 15.1391052,15.5652506 C15.3061494,15.3988249 15.5524145,15.2666964 15.5793462,15.0086803 C15.3814908,14.9873149 15.1847036,14.9602707 14.9901655,14.9197888 C15.1615952,14.6943831 15.3966153,14.4784795 15.3853703,14.1703108 C15.2060129,14.1788008 15.0244064,14.1788008 14.8489847,14.1348892 C14.858543,13.9645277 14.8473542,13.777861 14.9541253,13.6328008 L14.9541253,13.6328008 Z M16.5599084,12.8816361 C16.4924386,13.0272586 16.6706715,13.1487044 16.798302,13.1582627 C17.0170169,13.0734193 17.217796,12.9480378 17.4263904,12.8417165 C17.2745269,12.8074755 17.1187839,12.7995478 16.9647839,12.8159092 C16.9130008,12.9288651 16.8629606,13.0666161 16.7156514,13.0683028 C16.7117719,12.9687847 16.7111534,12.8687044 16.7095229,12.7691863 C16.6606072,12.806351 16.5840851,12.8192827 16.5599084,12.8816361 L16.5599084,12.8816361 Z M16.2748482,13.4343831 C16.4447036,13.5484635 16.6026394,13.3978369 16.7195871,13.2853871 C16.6200691,13.2437245 16.5053703,13.2246643 16.4255309,13.1487044 C16.3603663,13.0497486 16.3411936,12.8985036 16.4204707,12.801853 C16.520551,12.677596 16.7353863,12.7275799 16.8112337,12.5780779 C16.3721735,12.4971141 16.0353301,13.0886 16.2748482,13.4343831 L16.2748482,13.4343831 Z M16.0257719,13.238102 C16.0325751,12.8597084 16.3170169,12.3896683 16.7454506,12.4380217 C16.8792659,12.427339 16.9411133,12.5600297 17.0130811,12.6472345 C17.2818361,12.6539815 17.5770169,12.7157727 17.7170731,12.9721582 C17.4899245,12.9974594 17.2441655,13.0070177 17.0546876,13.1515157 C16.8489044,13.2825197 16.7376353,13.5164153 16.5341012,13.6486 C16.2844064,13.7390659 15.983041,13.5062948 16.0257719,13.238102 L16.0257719,13.238102 Z M16.4801253,11.8977004 C16.6279406,11.8128008 16.8168562,11.8690819 16.9309928,11.9859735 C17.2261735,12.2682225 17.6742859,12.4065357 17.8328402,12.8141663 C17.5865751,12.648359 17.337555,12.4874996 17.0816755,12.3379976 C16.8995631,12.1901261 16.642559,12.1636442 16.4249687,12.237861 C16.1309687,12.4110337 15.9999647,12.7506321 15.7469526,12.9676602 C15.5832819,13.0576201 15.3701896,13.0446884 15.1975791,12.9839655 C14.9524948,12.8467767 14.7601494,12.5819574 14.7354104,12.3003269 C14.8754667,12.1147285 15.0974988,11.961853 15.3403904,11.996094 C15.5821574,11.9904715 15.7215952,12.2193631 15.8616514,12.3795478 C16.1044867,12.268841 16.2619727,12.0433229 16.4801253,11.8977004 L16.4801253,11.8977004 Z M14.133804,11.80611 C14.6151454,11.4884394 15.2144466,11.4079815 15.7778201,11.4721341 C15.9881574,11.4973791 16.1860129,11.580592 16.3603663,11.6992827 C16.1950088,11.7914353 16.0853703,11.9438048 15.9841655,12.0990418 C15.7721976,12.1389052 15.7457719,11.8224153 15.5551695,11.7847446 C15.3032819,11.7430819 15.0513944,11.831355 14.8259888,11.9364956 C14.6595631,12.0214514 14.4812739,12.1771944 14.5110731,12.3835398 C14.5549285,12.66011 14.7320369,12.9125598 14.9799888,13.0441823 C15.0480209,13.0756683 15.1548482,13.1621984 15.0525189,13.2251703 C14.7803904,13.4765518 14.5279406,13.829588 14.6398281,14.220351 C14.6881815,14.4008329 14.9063341,14.3704715 15.0502699,14.4037004 C15.0435229,14.4491863 15.0373382,14.4947847 15.0311534,14.5408329 C14.9085831,14.6027365 14.7921976,14.6740859 14.6769365,14.7488651 C14.7331614,14.9822546 14.9310731,15.1165759 15.1228,15.2346482 C14.9969124,15.2476361 14.8709124,15.2582627 14.7455309,15.2695076 C14.7601494,15.3960137 14.7573382,15.5405116 14.8557317,15.6372185 C14.969306,15.7879574 15.1638442,15.8221984 15.3387036,15.8497486 C15.2476755,15.9211542 15.0924386,15.9621984 15.0963743,16.1016361 C15.2128161,16.3681422 15.5506715,16.2860538 15.7834426,16.3086 C15.7266554,16.3951863 15.6709928,16.4822787 15.6175791,16.5711703 C15.8301092,16.6323992 16.0516353,16.6437004 16.269788,16.6745679 C16.4221574,17.9261341 16.50031,19.1850659 16.6453703,20.4371382 C16.6729205,20.81109 16.689788,21.188359 16.7724386,21.5560699 C16.4289044,21.4283831 16.0724948,21.3316763 15.7058522,21.3081181 C15.3285831,21.2232185 14.9423181,21.218102 14.5577398,21.2040458 C14.6797478,20.8037807 14.7545269,20.370849 14.6280209,19.9609695 C14.5043261,19.5415317 14.2063341,19.1833791 13.8330008,18.9601663 C13.2038442,18.5654112 12.4032016,18.4423349 11.8876193,17.873339 C11.5457719,17.5274996 11.4434426,17.0254675 11.4350088,16.5559333 C11.464808,15.4685438 11.8724386,14.4188249 12.4712337,13.520351 C12.9187839,12.8592024 13.4602859,12.244102 14.133804,11.80611 L14.133804,11.80611 Z M7.62633414,21.9484635 C7.32328193,22.0727205 7.52850281,22.5461341 7.80850281,22.5445078 C7.91026988,22.5422546 8.00641446,22.5045839 8.10312129,22.4764715 C8.50794056,22.3414755 8.93018956,22.2599494 9.3254506,22.0952667 C9.12472771,21.9838851 9.04263936,21.7736602 9.03251888,21.5543269 C8.55910522,21.6685197 8.0974988,21.8270177 7.62633414,21.9484635 L7.62633414,21.9484635 Z M9.41203695,21.4171382 C9.15227791,21.5290257 9.30071165,21.9102867 9.51549076,21.9895639 C9.69765944,22.0339815 9.87533012,21.9456522 10.0440048,21.8894273 C10.1176594,21.8568169 10.2188643,21.8309534 10.2351695,21.7381823 C10.2829606,21.5324554 10.3155711,21.3226803 10.3881012,21.1231382 C10.0687438,21.2400859 9.72802088,21.2928811 9.41203695,21.4171382 L9.41203695,21.4171382 Z M8.05814137,21.0230016 C7.84448675,21.0849052 7.62239839,21.1253871 7.42842249,21.2395237 C7.44360321,21.3705277 7.41043052,21.5257084 7.50994859,21.6314112 C7.5925992,21.7140056 7.70954699,21.7950257 7.83155502,21.748359 C8.32689639,21.6066161 8.820551,21.4599253 9.31420562,21.3120538 C9.23211727,21.2552104 9.13765944,21.2102305 9.0752498,21.1309534 C9.01396466,21.0185036 9.00946667,20.8864313 8.98247871,20.7644233 C8.66874378,20.8307124 8.36681606,20.939845 8.05814137,21.0230016 L8.05814137,21.0230016 Z M9.39292048,20.6159333 C9.06063133,20.7238851 9.29227791,21.2810739 9.6043261,21.220351 C9.86633414,21.1613149 10.1125992,21.0438048 10.371796,20.9730177 C10.3791052,20.7548651 10.380792,20.5372747 10.376294,20.3191221 C10.0479406,20.4152667 9.71508916,20.50011 9.39292048,20.6159333 L9.39292048,20.6159333 Z M7.64376386,20.3348088 C7.5341253,20.3747285 7.34745863,20.3977807 7.35701687,20.5513309 C7.32328193,20.7318129 7.45091245,20.8999253 7.60553092,20.9775157 C7.73934618,20.9966321 7.86641446,20.937596 7.99235823,20.9015558 C8.39267952,20.7711703 8.80255904,20.673845 9.20119357,20.5389614 C9.00946667,20.4107687 8.91444659,20.2021743 8.9076996,19.9750257 C8.47982811,20.070608 8.07051084,20.2325357 7.64376386,20.3348088 L7.64376386,20.3348088 Z M9.36874378,19.8080378 C9.28215743,19.8462707 9.15452691,19.8743831 9.16239839,19.9935799 C9.1028,20.2330418 9.34625382,20.50011 9.59251888,20.4180217 C9.85565141,20.3460538 10.109788,20.244343 10.3712337,20.1650096 C10.3498683,19.9530418 10.3166956,19.7428169 10.2812739,19.533604 C9.98159518,19.6399253 9.67292048,19.7163349 9.36874378,19.8080378 L9.36874378,19.8080378 Z M7.4239245,19.5937647 C7.33059116,19.6348651 7.19002892,19.6421743 7.17372369,19.7674996 C7.12818153,19.9559092 7.25131406,20.2240458 7.47002892,20.217861 C7.66344257,20.2134193 7.84448675,20.1346482 8.02946667,20.0862948 C8.33926586,19.9845839 8.66143454,19.9182386 8.9616755,19.7883028 C8.81380402,19.6281181 8.71765944,19.4290819 8.72440643,19.2074996 C8.29428594,19.3474996 7.85910522,19.4700699 7.4239245,19.5937647 L7.4239245,19.5937647 Z M9.02296064,19.1226 C8.86440643,19.3306884 9.0465751,19.7197647 9.3243261,19.664608 C9.65324177,19.6246884 9.95629398,19.4690016 10.2795871,19.3987205 C10.2503502,19.1856281 10.202559,18.975853 10.1587036,18.7656281 C9.78424578,18.8965759 9.39348273,18.9797888 9.02296064,19.1226 L9.02296064,19.1226 Z M7.09051084,18.8735799 C6.84143454,18.9359333 6.90103293,19.3166321 7.0865751,19.4217727 C7.23950683,19.4936843 7.41155502,19.4413952 7.56617349,19.4042867 C7.97211727,19.278343 8.38143454,19.1625197 8.78906506,19.0428169 C8.70304096,18.9674755 8.60464739,18.9010739 8.54223775,18.8032988 C8.49669558,18.7020378 8.49500884,18.5879574 8.47589237,18.4800056 C8.00866345,18.5930177 7.55492851,18.7521341 7.09051084,18.8735799 L7.09051084,18.8735799 Z M8.9903502,18.2966562 C8.8767759,18.3276361 8.71372369,18.3736843 8.72609317,18.5227365 C8.68448675,18.7695076 8.95661526,19.0247687 9.19613333,18.9145679 C9.49918554,18.815612 9.80223775,18.718343 10.1064145,18.6216361 C10.078302,18.4152908 10.0187036,18.2151863 9.93211727,18.0257084 C9.61107309,18.0909293 9.30633414,18.2134996 8.9903502,18.2966562 L8.9903502,18.2966562 Z M6.86786024,18.1369775 C6.7767759,18.1730177 6.65701687,18.1864554 6.61203695,18.287098 C6.53725783,18.4423349 6.63846265,18.6244474 6.76553092,18.7195237 C6.88528996,18.7931221 7.0314747,18.7487044 7.15741847,18.7177807 C7.57516948,18.5902064 7.99573173,18.4704474 8.41629398,18.3512506 C8.26561124,18.1819574 8.1514747,17.9784795 8.16553092,17.7445839 C7.73990843,17.8969534 7.30135422,18.0094032 6.86786024,18.1369775 L6.86786024,18.1369775 Z M8.50681606,17.6484394 C8.29091245,17.7625197 8.40111325,18.0588811 8.55798072,18.1740859 C8.73002892,18.2544876 8.92231807,18.1915719 9.09043052,18.1319173 C9.32207711,18.0481422 9.56271968,17.993098 9.79605301,17.9165759 C9.80842249,17.8980217 9.83372369,17.860351 9.84609317,17.8417968 C9.79830201,17.6472586 9.68585221,17.4780217 9.59364337,17.3026 C9.23436627,17.429106 8.86215743,17.5146241 8.50681606,17.6484394 L8.50681606,17.6484394 Z M6.25163534,17.5348088 C6.15436627,17.7220378 6.2179004,17.9772988 6.4163743,18.0683831 C6.60585221,18.1128008 6.78914538,18.0183992 6.96906506,17.9717325 C7.31091245,17.8570337 7.66794056,17.7883831 8.00135422,17.6489454 C7.84729799,17.4920779 7.76464739,17.2897245 7.77926586,17.0687044 C7.27380402,17.2357486 6.7503502,17.3487606 6.25163534,17.5348088 L6.25163534,17.5348088 Z M8.0412739,16.9703108 C7.98898474,17.1547285 7.99179598,17.3768731 8.16609317,17.4966321 C8.33982811,17.5606723 8.52818153,17.5123751 8.69460723,17.4482225 C8.96448675,17.3453309 9.25404498,17.302094 9.51436627,17.175588 C9.41934618,16.9843671 9.30464739,16.8044474 9.18207711,16.6301502 C8.80031004,16.738102 8.42528996,16.869106 8.0412739,16.9703108 L8.0412739,16.9703108 Z M5.75685622,16.870849 C5.75348273,17.0159092 5.70288032,17.1907124 5.81364337,17.3099092 C5.92047068,17.4561502 6.12512932,17.4117325 6.27693655,17.3807526 C6.70930602,17.2609936 7.13436627,17.1159333 7.56954699,17.0069133 C7.40368353,16.8562305 7.29460723,16.6600056 7.19565141,16.4620378 C6.71099277,16.5801663 6.23533012,16.731355 5.75685622,16.870849 L5.75685622,16.870849 Z M7.58079197,16.3310337 C7.48183614,16.5031382 7.54424578,16.7774594 7.74328193,16.8500458 C7.88271968,16.9017165 8.03059116,16.8409936 8.16665542,16.8050659 C8.46970763,16.7021743 8.78512932,16.6363912 9.08031004,16.5109534 C8.94986827,16.3339012 8.80424578,16.169106 8.65243855,16.0111703 C8.28978795,16.0932586 7.92488835,16.1899092 7.58079197,16.3310337 L7.58079197,16.3310337 Z M5.39982811,16.1680378 C5.16986827,16.2039655 5.18448675,16.5008892 5.30031004,16.6442064 C5.40601285,16.8016361 5.62135422,16.7617165 5.77653494,16.72011 C6.19934618,16.598102 6.62047068,16.4705277 7.04328193,16.3479574 C6.89878394,16.1944072 6.79645462,16.0099896 6.7239245,15.8132024 C6.2730008,15.8891622 5.84006908,16.0476602 5.39982811,16.1680378 L5.39982811,16.1680378 Z M7.11806104,15.6417165 C6.94151486,15.7722145 7.02022972,16.0634032 7.18440643,16.1685438 C7.34352289,16.2315719 7.51894458,16.1837245 7.67806104,16.1444233 C7.97267952,16.0527767 8.26842249,15.9639414 8.56528996,15.877861 C8.44665542,15.6861341 8.29484819,15.5192024 8.12954699,15.3684635 C7.79388434,15.4657325 7.45372369,15.5473149 7.11806104,15.6417165 L7.11806104,15.6417165 Z M5.13444659,15.4426803 C4.98039036,15.4899092 4.79541044,15.4944072 4.68633414,15.6304715 C4.59581205,15.8739253 4.83083213,16.184343 5.09115341,16.1078209 C5.5763743,15.9740056 6.06159518,15.8379976 6.53894458,15.6777004 C6.33653494,15.5709293 6.24601285,15.360592 6.21171566,15.1452506 C5.84737831,15.2262707 5.49316145,15.3420378 5.13444659,15.4426803 L5.13444659,15.4426803 Z M6.75709719,14.9411542 C6.64408514,14.9793871 6.46978795,15.0181823 6.47484819,15.1688651 C6.4439245,15.353845 6.59854297,15.5186402 6.75990843,15.5815558 C6.92352289,15.5860538 7.07476787,15.5079012 7.23163534,15.4725357 C7.50151486,15.3892667 7.7854506,15.3510337 8.04239839,15.2279012 C7.88665542,15.0744072 7.77026988,14.8669373 7.57460723,14.7624153 C7.29460723,14.7769775 7.02697671,14.8731221 6.75709719,14.9411542 L6.75709719,14.9411542 Z M4.52496867,14.7455478 C4.37878394,14.7944072 4.18986827,14.7955317 4.09934618,14.9400859 C4.06786024,15.1256281 4.18368353,15.315612 4.340551,15.4084394 C4.47605301,15.5096442 4.63910522,15.4072586 4.78135422,15.3780779 C5.18561124,15.2453309 5.59773976,15.1391221 6.00537028,15.0159333 C5.8288241,14.8804313 5.69500884,14.6994434 5.63484819,14.4835398 C5.25814137,14.5385839 4.89773976,14.6690257 4.52496867,14.7455478 L4.52496867,14.7455478 Z M6.08689639,14.2822546 C5.99918554,14.3103671 5.87661526,14.360351 5.89741847,14.4745438 C5.90697671,14.7269936 6.17010924,14.9765759 6.42986827,14.8899896 C6.76777992,14.800592 7.11187631,14.7298048 7.43629398,14.5976201 C7.31091245,14.4245036 7.1725992,14.2613952 7.02416546,14.107339 C6.70761928,14.1433791 6.39894458,14.2209695 6.08689639,14.2822546 L6.08689639,14.2822546 Z M4.31693655,13.901612 C4.09203695,13.9217968 3.85364337,13.9128008 3.64842249,14.0213149 C3.54834217,14.0516763 3.55846265,14.1653068 3.57364337,14.2462145 C3.61806104,14.4233229 3.74288032,14.5717566 3.8941253,14.669588 C4.46199679,14.626857 5.0163743,14.4694835 5.56175582,14.3081181 C5.42456707,14.1506884 5.320551,13.9701502 5.20416546,13.7986643 C4.90448675,13.7919173 4.61436627,13.8813149 4.31693655,13.901612 L4.31693655,13.901612 Z M5.56006908,13.5816924 C5.35597269,13.8318369 5.66633414,14.240592 5.96376386,14.1635639 C6.27974779,14.1321341 6.5828,14.0269936 6.89709719,13.9813952 C6.76159518,13.8132827 6.6367759,13.6361743 6.48777992,13.4804313 C6.17460723,13.4489454 5.87211727,13.5720779 5.56006908,13.5816924 L5.56006908,13.5816924 Z M3.4476996,12.9238048 C3.2801494,13.0852265 3.28914538,13.3471783 3.32569157,13.5591462 C3.38191647,13.7396281 3.60288032,13.7295639 3.7552498,13.7311944 C4.22697671,13.7115157 4.69870361,13.7143269 5.17099277,13.7137647 C5.05910522,13.4725598 4.92866345,13.2387205 4.85725783,12.980592 C4.53115341,12.9193068 4.19886426,12.9002466 3.86826185,12.8760137 C3.72826185,12.8715157 3.57533012,12.8507687 3.4476996,12.9238048 L3.4476996,12.9238048 Z M6.95219759,12.3829213 C6.69974779,12.5769534 6.61765944,12.9288651 6.69018956,13.2302867 C6.73292048,13.4355076 6.87629398,13.5973791 7.01573173,13.7463751 C7.27155502,14.0174353 7.50263936,14.3103671 7.75846265,14.5807526 C8.70697671,15.5703671 9.64199679,16.6268329 10.1665751,17.9115157 C10.5410329,18.8713309 10.6354908,19.9182386 10.62031,20.9409133 C10.807539,20.8139012 10.9959486,20.6778369 11.2208482,20.62611 C11.5289044,20.5287847 11.8578763,20.5535799 12.173804,20.5940056 C11.9629606,20.113339 11.8764305,19.5926964 11.7301896,19.0917325 C11.4091454,18.0493229 11.0369365,17.0141663 10.4954908,16.0639655 C9.84609317,15.0390418 9.02689639,14.1287044 8.43428594,13.0660538 C8.27292048,12.7821181 8.18239839,12.4650096 8.10986827,12.1484635 C7.71348273,12.1051703 7.2839245,12.1400297 6.95219759,12.3829213 L6.95219759,12.3829213 Z M5.15018956,12.1035398 C5.0428,12.407098 5.05854297,12.7383189 5.1276996,13.0480618 C5.16649478,13.1925598 5.22721767,13.3494273 5.36328193,13.4287044 C5.72930602,13.4697486 6.09083213,13.3697245 6.45516948,13.3561743 C6.44729799,13.1464554 6.445049,12.9362305 6.45010924,12.7265116 C5.97388434,12.6291863 5.48753896,12.4745679 5.15018956,12.1035398 L5.15018956,12.1035398 Z M3.3914747,11.686857 C3.22111325,11.7914353 3.17950683,12.0022787 3.15814137,12.1856281 C3.14239839,12.3103912 3.15308112,12.4672586 3.27340241,12.5392827 C3.61018956,12.6724795 3.9801494,12.6589855 4.32986827,12.7383189 C4.50304096,12.7776201 4.67958715,12.8029775 4.85500884,12.8299655 C4.85950683,12.6331783 4.87131406,12.4368972 4.8774988,12.2407285 C4.52946667,12.0714353 4.1730008,11.9201904 3.81765944,11.7678209 C3.68271968,11.7177807 3.53822169,11.6419333 3.3914747,11.686857 L3.3914747,11.686857 Z M5.24464739,11.7430819 C5.17605301,11.9444233 5.37284016,12.109106 5.51621365,12.2171141 C5.79565141,12.3992265 6.10826185,12.5898289 6.45235823,12.5853309 C6.54737831,12.4914353 6.61990843,12.377861 6.70031004,12.271596 C6.5265751,12.088359 6.32697671,11.9269373 6.18641446,11.7149695 C6.05822169,11.5227365 5.95364337,11.3163912 5.83725783,11.117355 C5.53701687,11.1937647 5.35597269,11.4737647 5.24464739,11.7430819 L5.24464739,11.7430819 Z M7.33846265,10.742841 C7.30978795,11.148841 7.25862329,11.6193871 7.52906506,11.96011 C7.71685622,11.9944635 7.90858313,11.9702305 8.09806104,11.9657325 C8.11211727,11.6789855 8.20207711,11.4057325 8.33926586,11.1549695 C8.125049,10.8288651 7.71179598,10.7079815 7.33846265,10.742841 L7.33846265,10.742841 Z M6.28593253,10.8148651 C6.06946667,10.9171382 6.09420562,11.1999494 6.17404498,11.3849293 C6.3039245,11.6879815 6.52151486,11.9707928 6.80488835,12.1417165 C6.97862329,12.122094 7.13324177,12.0292667 7.29685622,11.9719173 C7.27998876,11.6761743 7.14223775,11.4007285 7.15179598,11.1021743 C7.15235823,10.9576201 7.14729799,10.8126161 7.12705703,10.6691863 C6.84255904,10.6776201 6.54906506,10.7006723 6.28593253,10.8148651 L6.28593253,10.8148651 Z M3.49717751,11.3545679 C3.64223775,11.5052506 3.85139438,11.5705277 4.03468755,11.6644233 C4.33380402,11.7914353 4.60593253,11.9814755 4.92360321,12.0613711 C4.99557108,11.8938209 5.06135422,11.7234032 5.12320161,11.551355 C4.86906506,11.3112747 4.59243855,11.0976201 4.33380402,10.8632185 C4.20898474,10.7659494 4.09203695,10.6320779 3.92673574,10.6129614 C3.55508916,10.5567365 3.32906506,11.0661341 3.49717751,11.3545679 L3.49717751,11.3545679 Z M4.43388434,9.80838313 C4.2292257,9.98554779 4.17131406,10.2604313 4.15894458,10.5185598 C4.48954699,10.8322386 4.85613333,11.1060538 5.18223775,11.424849 C5.33010924,11.2601663 5.47067149,11.0886241 5.61741847,10.9233229 C5.46786024,10.4757727 5.21934618,10.0709534 5.02705703,9.64195743 C4.82183614,9.65264016 4.60255904,9.68137108 4.43388434,9.80838313 L4.43388434,9.80838313 Z M8.90039036,9.66444739 C8.62601285,9.95962811 8.39549076,10.2930418 8.13910522,10.6040217 C8.27966747,10.7400859 8.41404498,10.8834032 8.53717751,11.0357727 C8.85541044,10.871596 9.17308112,10.7051703 9.48569157,10.5297486 C9.65942651,10.4324795 9.82585221,10.2497486 9.79830201,10.0372747 C9.73645462,9.82075261 9.58633414,9.6290257 9.39516948,9.51151566 C9.21693655,9.44179679 9.0201494,9.52557189 8.90039036,9.66444739 L8.90039036,9.66444739 Z M7.9828,8.90766024 C7.84336225,8.9712506 7.80625382,9.12811807 7.75565141,9.25794137 C7.62296064,9.6470739 7.45541044,10.024343 7.3367759,10.4190418 C7.54930602,10.4685197 7.76183614,10.5201904 7.97717751,10.5607285 C8.23187631,10.298102 8.4281012,9.98830281 8.66649478,9.71173253 C8.78063133,9.57454378 8.92344257,9.40918635 8.84697671,9.21751566 C8.69966747,8.91553173 8.2881012,8.76653574 7.9828,8.90766024 L7.9828,8.90766024 Z M5.17605301,9.25513012 C5.07653494,9.37888112 5.11420562,9.54530683 5.1839245,9.67344337 C5.37002892,10.0462145 5.5476996,10.4240458 5.73211727,10.7979414 C5.94408514,10.7237807 6.14143454,10.6163349 6.34496867,10.5230016 C6.32360321,10.0282225 6.34328193,9.53175663 6.30954699,9.03815823 C6.2774988,8.81938715 6.01324177,8.86774056 5.8552498,8.88803775 C5.60561124,8.94926667 5.34304096,9.05047149 5.17605301,9.25513012 L5.17605301,9.25513012 Z M6.46360321,9.0172988 C6.46022972,9.5199494 6.440551,10.0226 6.45292048,10.5247446 C6.69075181,10.4757727 6.93195663,10.4420378 7.17428594,10.4206723 C7.32946667,10.0069133 7.46440643,9.58573253 7.62239839,9.17304177 C7.67581205,9.04934699 7.7028,8.88854378 7.59203695,8.78677671 C7.40705703,8.61984498 7.13549076,8.65071245 6.90440643,8.6523992 C6.69693655,8.64846345 6.44336225,8.77778072 6.46360321,9.0172988 L6.46360321,9.0172988 Z M1.64119357,5.84171647 C5.30255904,5.84115422 8.96336225,5.83834297 12.6241655,5.84340321 C12.1822378,8.58211807 11.7628,11.3242064 11.3298683,14.064102 C11.1162137,15.0924554 11.0256916,16.19109 11.3720369,17.2014514 C11.5817558,17.8525357 12.0732177,18.4220378 12.7169365,18.6711141 C13.2117719,18.8600859 13.6795068,19.1473952 14.016294,19.5617165 C14.1990249,19.7911141 14.3413301,20.0756683 14.3142859,20.3769775 C14.3092257,20.6597888 14.0832578,20.9038048 13.8200691,20.9802707 C13.5479406,21.0286803 13.2566956,21.0359896 13.0009285,20.9184795 C12.3594024,20.6839655 11.6048643,20.5558289 10.9762137,20.8970578 C10.5697076,21.0944635 10.2897076,21.5425197 10.358302,21.9996281 C10.4640048,22.7052506 11.0970972,23.2827365 11.7959727,23.3709534 C14.863041,23.3738209 17.9306715,23.3675799 20.9977398,23.3738209 C20.9966715,23.5559333 20.9971775,23.738102 20.9989205,23.9203269 C19.9755711,23.9517566 18.9511534,23.9248249 17.927298,23.9338209 C11.9798843,23.9303912 6.03235823,23.9411301 0.0848883534,23.9287606 C0.0775791165,23.7431622 0.0787036145,23.5571141 0.0905108434,23.3721341 C2.6628,23.3703912 5.23452691,23.3721341 7.80681606,23.3715719 C8.10087229,23.3675799 8.39773976,23.3929373 8.68842249,23.3361502 C8.63500884,23.3035398 8.57822169,23.2799253 8.51806104,23.2652506 C7.21476787,23.1027606 6.01324177,22.3780779 5.19348273,21.3615317 C4.27814137,20.2426 3.78617349,18.8420378 3.51179598,17.4392265 C2.87645462,13.5743269 2.27709719,9.70605382 1.64119357,5.84171647 L1.64119357,5.84171647 Z M1.63444659,5.53641526 C1.74183614,5.52798153 1.84978795,5.52072851 1.95830201,5.51898554 C5.08834217,5.51954779 8.21894458,5.51898554 11.3489847,5.51898554 C11.7768562,5.52798153 12.2064145,5.49711406 12.6325992,5.54040723 C12.6376594,5.58032691 12.6472739,5.66011004 12.6517157,5.70002972 C8.97348273,5.70458394 5.29468755,5.70396546 1.61645462,5.70059197 C1.62095261,5.65954779 1.62994859,5.57745944 1.63444659,5.53641526 L1.63444659,5.53641526 Z M11.629547,2.16011004 C11.509788,2.29341928 11.6796434,2.41368434 11.756053,2.51432691 C11.8409526,2.43561205 11.9236594,2.35352369 12.0051293,2.27031084 C11.927539,2.14835904 11.7459325,1.98468835 11.629547,2.16011004 L11.629547,2.16011004 Z M9.2967759,2.13368434 C9.15115341,2.25906586 9.31533012,2.41312209 9.39404498,2.5199494 C9.48119357,2.44241526 9.56553092,2.36145141 9.64705703,2.27874458 C9.58183614,2.15223855 9.43059116,1.99823855 9.2967759,2.13368434 L9.2967759,2.13368434 Z M6.82850281,2.27087309 C6.89709719,2.35076867 6.96512932,2.43060803 7.03372369,2.51039116 C7.12143454,2.4372988 7.20464739,2.35920241 7.285049,2.27823855 C7.20970763,2.20171647 7.15966747,2.044849 7.02585221,2.08982892 C6.92858313,2.09663213 6.8925992,2.21183695 6.82850281,2.27087309 L6.82850281,2.27087309 Z M4.5952498,2.07183695 C4.57669558,2.15510602 4.51316145,2.2365759 4.53396466,2.32428675 C4.58625382,2.40075261 4.6525992,2.46709799 4.71500884,2.53569237 C4.78135422,2.43623052 4.91010924,2.3512747 4.90842249,2.22251968 C4.86063133,2.08533092 4.71557108,2.0848249 4.5952498,2.07183695 L4.5952498,2.07183695 Z M2.14047068,2.21296145 C2.19894458,2.33446345 2.28496867,2.43842329 2.39460723,2.51719438 C2.45814137,2.44011004 2.53010924,2.36757992 2.57284016,2.27649558 C2.5492257,2.20795743 2.51998876,2.13480884 2.45814137,2.09151566 C2.33444659,2.05778072 2.23773976,2.15561205 2.14047068,2.21296145 L2.14047068,2.21296145 Z M12.0113141,2.21689719 C12.2401494,2.0825759 12.4487438,1.91553173 12.6258522,1.71762008 C12.587057,1.65352369 12.5488803,1.58886506 12.5117157,1.52420643 C12.2665751,1.68613414 12.1254506,1.95494538 12.0113141,2.21689719 L12.0113141,2.21689719 Z M10.9610329,1.55625462 C10.9582779,1.62096948 10.9587839,1.68562811 10.9627759,1.74966827 C11.1229606,1.93914618 11.327057,2.08814217 11.5345831,2.22251968 C11.4761092,1.96725863 11.2843261,1.77946747 11.1499486,1.5641261 C11.0864145,1.56137108 11.0234426,1.55912209 10.9610329,1.55625462 L10.9610329,1.55625462 Z M6.2488241,1.55513012 C6.24207711,1.59336305 6.22802088,1.67044739 6.2212739,1.7086241 C6.26119357,1.76597349 6.30223775,1.82332289 6.34271968,1.88067229 C6.26512932,1.86436707 6.1881012,1.8474996 6.11107309,1.83181285 C6.22577189,2.11400562 6.37251888,2.38619036 6.43436627,2.68699357 C6.47653494,2.89103373 6.46135422,3.10806185 6.55075181,3.300351 C6.62946667,3.50051165 6.79476787,3.65175663 6.87123373,3.85191727 C6.82006908,4.21737912 6.56986827,4.55197349 6.2190249,4.67735502 C5.90416546,4.74814217 5.53476787,4.74308193 5.27669558,4.52273655 C5.03324177,4.34562811 4.96577189,4.03914618 4.82071165,3.79181285 C4.77404498,3.89582892 4.72400482,4.00940321 4.76673574,4.12404578 C4.8774988,4.49625462 5.19629398,4.79593333 5.56737831,4.90276064 C5.90247871,4.97253574 6.27468755,4.94268032 6.55693655,4.73296145 C6.8065751,4.58508996 6.91508916,4.30570843 7.06464739,4.07231888 C7.19621365,4.32420643 7.32665542,4.59914618 7.58247871,4.74876064 C7.85741847,4.94268032 8.21051084,4.96410201 8.53324177,4.91175663 C8.90826185,4.82179679 9.23043052,4.5350498 9.3574988,4.17071245 C9.39854297,4.01496948 9.36761928,3.85304177 9.36424578,3.6950498 C9.45251888,3.72653574 9.56440643,3.82942731 9.63918554,3.71810201 C9.93099277,3.48757992 9.99958715,3.10530683 10.0406313,2.75778072 C10.0726795,2.43223855 10.2402297,2.14492932 10.3549285,1.84474458 C10.2942056,1.85143534 10.234045,1.85818233 10.1738843,1.86549157 C10.2036835,1.79858394 10.2346072,1.73167631 10.2649687,1.66476867 C10.249788,1.63946747 10.2194265,1.58835904 10.2036835,1.56300161 C10.1710731,1.56075261 10.10529,1.55687309 10.0726795,1.55456787 C9.91581205,1.73960402 9.76569157,1.93689719 9.6903502,2.17079277 C9.8579004,2.09213414 10.0007116,1.97344337 10.1553301,1.87336305 C10.1142859,1.98918635 10.0158924,2.06627068 9.92874378,2.14605382 C9.75051889,2.30522651 9.58802088,2.48115422 9.43284016,2.66219839 C9.23099277,2.42774056 8.9903502,2.22982892 8.80424578,1.98193333 C8.9330008,2.05834297 9.05613333,2.14324257 9.18488835,2.22027068 C9.11348273,1.96950763 8.93806104,1.77333896 8.79243855,1.56362008 C8.72665542,1.56187711 8.66087229,1.55962811 8.59565141,1.55799759 C8.60352289,1.67494538 8.63444659,1.78739518 8.68729799,1.89191727 C8.61476787,1.85593333 8.5416755,1.82051165 8.46858313,1.78627068 C8.54786024,2.03304177 8.68448675,2.25737912 8.75420562,2.50814217 C8.84472771,2.79207791 8.81886426,3.10530683 8.95267952,3.37737912 C9.02633414,3.5388008 9.17420562,3.6534996 9.24729799,3.81424659 C9.20231807,4.23874458 8.87227791,4.6632988 8.42753896,4.70597349 C8.18071165,4.7290257 7.91026988,4.72340321 7.69886426,4.57721847 C7.43573173,4.4237245 7.29460723,4.13079277 7.22601285,3.84517028 C7.20577189,3.73103373 7.32890442,3.67092932 7.38625382,3.59103373 C7.59484819,3.37906586 7.62802088,3.06763614 7.67075181,2.78763614 C7.70223775,2.45135502 7.86753896,2.15111406 7.99235823,1.84362008 C7.93163534,1.85031084 7.87091245,1.85705783 7.81018956,1.86380482 C7.84448675,1.79296145 7.87878394,1.72268032 7.91251888,1.6523992 C7.85179598,1.620351 7.79500884,1.53663213 7.71798072,1.56806185 C7.51557108,1.73673655 7.38344257,1.97344337 7.29067149,2.21633494 C7.45597269,2.11119438 7.61171566,1.99261606 7.76858313,1.87448755 C7.76970763,1.89697751 7.77195663,1.94201365 7.77308112,1.96388514 C7.5043261,2.16067229 7.26087229,2.39293735 7.06745863,2.66500964 C6.84199679,2.39569237 6.56930602,2.16966827 6.34440643,1.900351 C6.51026988,1.99762008 6.65814137,2.12024659 6.81894458,2.22426265 C6.7492257,1.9723751 6.57043052,1.77721847 6.42761928,1.56586908 C6.36802088,1.56249558 6.30842249,1.55850361 6.2488241,1.55513012 L6.2488241,1.55513012 Z M5.3503502,1.56249558 C5.20022972,1.75191727 5.05235823,1.94701767 4.96408514,2.17472851 C5.17998876,2.09775663 5.35822169,1.94533092 5.50665542,1.77446345 C5.57131406,1.71312209 5.51002892,1.62597349 5.50103293,1.55513012 C5.46336225,1.55687309 5.38802088,1.56024659 5.3503502,1.56249558 L5.3503502,1.56249558 Z M3.88512932,1.55687309 C3.88625382,1.66088916 3.90705703,1.76316225 3.95653494,1.85480884 C3.89918554,1.85430281 3.84183614,1.85368434 3.78448675,1.85317831 C3.87950683,2.09488916 4.0043261,2.32597349 4.06786024,2.57898554 C4.11565141,2.80219839 4.12296064,3.03277671 4.19211727,3.25149157 C4.24777992,3.45946747 4.40239839,3.61633494 4.53846265,3.77545141 C4.64866345,3.7512747 4.76223775,3.74733896 4.8730008,3.77207791 C4.98826185,3.66243936 5.10802088,3.55055181 5.17773976,3.40436707 C5.30424578,3.14910602 5.2974988,2.8572988 5.36215743,2.58522651 C5.42231807,2.32428675 5.56175582,2.09213414 5.63653494,1.83625462 C5.25026988,2.00268032 5.00456707,2.37264016 4.71444659,2.66276064 C4.48729799,2.38000562 4.18818153,2.16404578 3.97396466,1.87111406 C4.13251888,1.96332289 4.26858313,2.08645542 4.41251888,2.19890522 C4.41364337,2.16578876 4.41533012,2.09938715 4.41589237,2.06677671 C4.32087229,1.88966827 4.20729799,1.71874458 4.06842249,1.57368434 C4.00713735,1.5652506 3.94641446,1.55962811 3.88512932,1.55687309 L3.88512932,1.55687309 Z M2.9979004,1.5641261 C2.85340241,1.77047149 2.68416546,1.96950763 2.62006908,2.21914618 C2.82304096,2.08308193 3.03051084,1.94139518 3.18512932,1.74966827 C3.18906506,1.68613414 3.19018956,1.6226 3.18906506,1.55850361 C3.12496867,1.56024659 3.06143454,1.56187711 2.9979004,1.5641261 L2.9979004,1.5641261 Z M1.63669558,1.5237004 C1.59846265,1.58774056 1.56022972,1.65183695 1.52143454,1.71598956 C1.70022972,1.91553173 1.90207711,2.09826265 2.14328193,2.22027068 C2.03308112,1.95382088 1.88183614,1.68787711 1.63669558,1.5237004 L1.63669558,1.5237004 Z M11.2635229,1.4252506 C11.3079406,1.67044739 11.4406876,1.91834297 11.6627197,2.04378072 C11.6638442,1.81438313 11.5817558,1.59842329 11.4761092,1.3988249 C11.4226394,1.40562811 11.3163743,1.41906586 11.2635229,1.4252506 L11.2635229,1.4252506 Z M8.91163534,1.41743534 C8.965049,1.65408594 9.07243855,1.96787711 9.33444659,2.03135502 C9.2967759,1.84249558 9.25516948,1.6501502 9.16464739,1.47866426 C9.12585221,1.37639116 8.99203695,1.43149157 8.91163534,1.41743534 L8.91163534,1.41743534 Z M6.54794056,1.42806185 C6.59123373,1.67044739 6.71998876,1.91665622 6.93870361,2.04203775 C6.94994859,1.81151566 6.85380402,1.60016627 6.7525992,1.39938715 C6.70143454,1.40675261 6.59910522,1.42080884 6.54794056,1.42806185 L6.54794056,1.42806185 Z M4.9843261,1.47478474 C4.88649478,1.65689719 4.8443261,1.86211807 4.80777992,2.06402169 C5.04111325,1.9323992 5.185049,1.6765759 5.23621365,1.41968434 C5.1552498,1.4286241 5.02368353,1.3690257 4.9843261,1.47478474 L4.9843261,1.47478474 Z M4.19211727,1.43762008 C4.26689639,1.6788249 4.38159518,1.94313815 4.61886426,2.06340321 C4.58625382,1.82782088 4.53115341,1.59111406 4.39452691,1.39157189 C4.3439245,1.40276064 4.24271968,1.42581285 4.19211727,1.43762008 L4.19211727,1.43762008 Z M2.49075181,2.04378072 C2.71396466,1.92115422 2.85171566,1.67382088 2.88601285,1.42581285 C2.83428594,1.41968434 2.73026988,1.40613414 2.67798072,1.39938715 C2.57958715,1.60179679 2.49243855,1.81438313 2.49075181,2.04378072 L2.49075181,2.04378072 Z M11.6520369,1.23582892 C11.636294,1.48934699 11.6998281,1.7361743 11.7459325,1.98356386 C11.8061494,2.0161743 11.8662538,2.04884096 11.9264145,2.08195743 C12.0883422,1.89534699 12.2474586,1.69513012 12.3076755,1.45004578 C12.2463341,1.42581285 12.185049,1.40163614 12.1243261,1.37751566 C11.9984386,1.53264016 11.9595871,1.7328008 11.8741815,1.90878474 C11.8544466,1.67494538 11.9146072,1.43936305 11.8640048,1.20771647 C11.7931614,1.21721847 11.7223181,1.22627068 11.6520369,1.23582892 L11.6520369,1.23582892 Z M9.33275984,1.204849 C9.24561124,1.46910602 9.37436627,1.73673655 9.36986827,2.00436707 C9.46263936,2.00099357 9.58408514,2.07464819 9.65380402,1.98418233 C9.79099277,1.82782088 9.90681606,1.64621446 9.95573173,1.44155582 C9.90512932,1.42918635 9.8039245,1.40337912 9.75388434,1.39044739 C9.64031004,1.56474458 9.59195663,1.76884096 9.50986827,1.9577004 C9.49581205,1.746351 9.54135422,1.5388249 9.5525992,1.32910602 C9.54079197,1.21440723 9.41541044,1.23071245 9.33275984,1.204849 L9.33275984,1.204849 Z M6.96119357,1.21440723 C6.8881012,1.46966827 6.96512932,1.73004578 7.01798072,1.98080884 C7.08039036,2.00667229 7.1428,2.03304177 7.20520964,2.06002972 C7.37388434,1.88179679 7.56729799,1.68051165 7.560551,1.41743534 C7.50826185,1.41513012 7.40368353,1.41119438 7.35083213,1.40900161 C7.27886426,1.58835904 7.21533012,1.77108996 7.14448675,1.95095341 C7.14898474,1.71149157 7.17316145,1.47253574 7.1681012,1.2323992 C7.09894458,1.2279012 7.02978795,1.22177269 6.96119357,1.21440723 L6.96119357,1.21440723 Z M4.58794056,1.32404578 C4.59356305,1.55344337 4.65316145,1.77946747 4.64697671,2.01055181 C4.68183614,2.01167631 4.75099277,2.0139253 4.78585221,2.0150498 C4.77910522,1.78340321 4.82689639,1.55569237 4.83420562,1.32578876 C4.83701687,1.17847952 4.5963743,1.18072851 4.58794056,1.32404578 L4.58794056,1.32404578 Z M2.29284016,1.19866426 C2.2416755,1.42974859 2.28553092,1.66589317 2.27765944,1.89922651 C2.19950683,1.74410201 2.18320161,1.55068835 2.06456707,1.42080884 C2.0167759,1.41743534 1.92119357,1.41119438 1.87340241,1.40838313 C1.86496867,1.67719438 2.06794056,1.8772988 2.22761928,2.0690257 C2.28721767,2.03928273 2.34737831,2.01004578 2.40753896,1.98080884 C2.44745863,1.76541124 2.52223775,1.55175663 2.50986827,1.33023052 C2.50761928,1.21333896 2.37211727,1.22958795 2.29284016,1.19866426 L2.29284016,1.19866426 Z M0.838864257,0.753363052 C1.13685622,0.735427309 1.43597269,0.741612048 1.73452691,0.742118072 C5.3514747,0.742118072 8.96842249,0.742736546 12.5859325,0.742118072 C12.8642458,0.740993574 13.1431213,0.738182329 13.4214345,0.751114056 C13.2083422,2.06677671 13.0064948,3.38418233 12.8001494,4.70091325 C12.3329205,4.68348353 11.9939406,4.23655181 11.9489044,3.79968434 C12.0703502,3.61633494 12.2485831,3.46396546 12.3076755,3.2441261 C12.3644064,3.0237245 12.3779566,2.79494538 12.4296835,2.57341928 C12.4881574,2.31641526 12.6314747,2.08926667 12.7006313,1.83513012 C12.6129205,1.86886506 12.5252096,1.90709799 12.4549285,1.97175663 C12.2148482,2.18209398 11.9837639,2.40699357 11.7920932,2.66388514 C11.5042217,2.35189317 11.213539,2.03590924 10.8676996,1.78677671 C10.8491454,2.00717831 11.0122538,2.1814755 11.0701092,2.38388514 C11.196053,2.68924257 11.1544466,3.0350257 11.2899486,3.33689719 C11.3647277,3.50782088 11.5036032,3.63719438 11.5946876,3.79794137 C11.5727598,4.17858394 11.3090651,4.54966827 10.9419727,4.67561205 C10.5865751,4.76219839 10.1665751,4.72677671 9.90119357,4.44958795 C9.70440643,4.27697751 9.70440643,3.96835904 9.47950683,3.8221743 C9.40135422,4.21231888 9.66617349,4.56940321 9.97878394,4.76956386 C10.5191052,5.10910602 11.3282378,4.9263751 11.6267357,4.34838313 C11.7813542,4.14884096 11.7251293,3.89521044 11.7386233,3.66243936 C11.7830972,3.70573253 11.8398281,3.74059197 11.8719325,3.79631084 C11.8550088,3.96498554 11.8016514,4.14884096 11.904543,4.30284096 C12.0658522,4.64243936 12.4038201,4.84602972 12.7552257,4.94155582 C12.7394265,5.05175663 12.7242458,5.16201365 12.7085028,5.27159598 C9.81910522,5.2879012 6.92914538,5.27384498 4.03974779,5.27890522 C3.21211727,5.27108996 2.38448675,5.29521044 1.55741847,5.26653574 C1.53998876,5.15296145 1.52312129,5.0399494 1.50681606,4.9263751 C1.7930008,4.79767631 2.07974779,4.62838313 2.22874378,4.34000562 C2.34906506,4.16846345 2.31870361,3.95368434 2.27091245,3.76308193 C2.31982811,3.73384498 2.36874378,3.70460803 2.41822169,3.67593333 C2.4114747,3.87665622 2.37380402,4.09424659 2.48625382,4.27534699 C2.66786024,4.6728008 3.09404498,4.95117028 3.53316145,4.93424659 C4.1190249,4.97416627 4.73075181,4.44846345 4.6790249,3.84235904 C4.64304096,3.85529076 4.57051084,3.88177269 4.53452691,3.89470442 C4.43725783,4.23762008 4.21966747,4.57721847 3.85982811,4.68123454 C3.57083213,4.73470442 3.23741847,4.74763614 2.98946667,4.56316225 C2.71508916,4.37930683 2.56609317,4.05545141 2.53685622,3.73272048 C2.67460723,3.63039116 2.8016755,3.50500964 2.86352289,3.34139518 C2.99284016,3.05183695 2.95966747,2.72235904 3.06818153,2.42661606 C3.13621365,2.21352369 3.25653494,2.02123454 3.31388434,1.80420643 C3.23235823,1.83912209 3.14858313,1.87398153 3.08336225,1.93577269 C2.82753896,2.16517028 2.58633414,2.41031084 2.3574988,2.66669639 C2.10336225,2.35189317 1.82842249,2.03247952 1.47026988,1.83400562 C1.51693655,2.09100964 1.65581205,2.31753976 1.72047068,2.56892129 C1.78400482,2.80388514 1.78962731,3.05071245 1.85822169,3.28404578 C1.92231807,3.48645542 2.09267952,3.62476867 2.20400482,3.79906586 C2.16352289,4.20782088 1.87002892,4.58683293 1.46914538,4.7014755 C1.25717751,3.38581285 1.03452691,2.0712747 0.838864257,0.753363052 L0.838864257,0.753363052 Z M0.716293976,0.0646080321 C3.49155502,0.0438048193 6.26794056,0.0617967871 9.04376386,0.0556120482 C10.5444064,0.0623590361 12.0456112,0.0432987952 13.5462538,0.0651702811 C13.5215149,0.215346988 13.4917157,0.363724498 13.4613542,0.512720482 C9.23942651,0.520591968 5.01693655,0.521210442 0.795571084,0.512158233 C0.76464739,0.363724498 0.737659438,0.214728514 0.716293976,0.0646080321 L0.716293976,0.0646080321 Z" id="Fill-3" fill="#F0C239" mask="url(#mask-2)"></path>
                </g>
            </g>
        </g>
    </g>
</svg>