<?xml version="1.0" encoding="UTF-8"?>
<svg width="53px" height="28px" viewBox="0 0 53 28" version="1.1" xmlns="http://www.w3.org/2000/svg" xmlns:xlink="http://www.w3.org/1999/xlink">
    <!-- Generator: Sketch 64 (93537) - https://sketch.com -->
    <title>Group 7</title>
    <desc>Created with Sketch.</desc>
    <defs>
        <polygon id="path-1" points="0.0296153846 0.178661538 25.7282308 0.178661538 25.7282308 19.9229692 0.0296153846 19.9229692"></polygon>
        <polygon id="path-3" points="0.000107692308 0.0167461538 40.8047231 0.0167461538 40.8047231 27.4615385 0.000107692308 27.4615385"></polygon>
    </defs>
    <g id="payment" stroke="none" stroke-width="1" fill="none" fill-rule="evenodd">
        <g id="pay" transform="translate(-1010.000000, -392.000000)">
            <g id="Group-7" transform="translate(1010.000000, 392.000000)">
                <g id="Group-3" transform="translate(26.923077, 8.060015)">
                    <mask id="mask-2" fill="white">
                        <use xlink:href="#path-1"></use>
                    </mask>
                    <g id="Clip-2"></g>
                    <path d="M0.0296153846,11.9074308 C4.27538462,15.6508154 9.88453846,19.8928154 15.8049231,19.9229692 L15.8566154,19.9229692 L15.9072308,19.9229692 C18.1100769,19.9116615 20.1427692,19.1788154 21.7802308,17.9484308 C22.1797692,17.6479692 22.5561538,17.3178923 22.9056154,16.9614308 C24.6523846,15.1802 25.7287692,12.7409692 25.7287692,10.0508154 C25.7287692,9.01912308 25.5704615,8.02404615 25.2764615,7.08927692 C24.6513077,5.09804615 23.4112308,3.37873846 21.7802308,2.1532 C20.1427692,0.923353846 18.1100769,0.189969231 15.9072308,0.178661538 L15.8566154,0.178661538 L15.8049231,0.178661538 L13.8820769,0.178661538 L13.8820769,2.1532 L13.8820769,7.08927692 L13.8820769,7.77689231 C16.2249231,7.78550769 18.1267692,9.70943077 18.1267692,12.0253538 C18.1267692,14.3665846 16.2238462,16.2436615 13.8987692,16.2722 L13.8890769,16.2722 L13.8820769,16.2727385 L13.8820769,16.2716615 L13.888,16.2716615 C13.8729231,16.2673538 13.8540769,16.2705846 13.8384615,16.2705846 L13.8384615,16.2727385 C13.5789231,16.2727385 13.3204615,16.2565846 13.0625385,16.2345077 C9.56038462,15.5662769 5.35715385,11.9623538 2.53938462,9.54573846 L2.45969231,9.47735385 L0.0296153846,11.9074308 Z" id="Fill-1" fill="#008AA0" mask="url(#mask-2)"></path>
                </g>
                <g id="Group-6" transform="translate(0.000000, 0.521554)">
                    <mask id="mask-4" fill="white">
                        <use xlink:href="#path-3"></use>
                    </mask>
                    <g id="Clip-5"></g>
                    <path d="M4.33149231,14.3925923 C5.49941538,12.3539769 7.57733846,11.1666692 9.91372308,11.1666692 C13.4675692,11.1666692 16.9503385,13.0389 19.7492615,15.0737462 L21.6144923,12.3755154 L21.6015692,12.3663615 L20.8940308,11.8855154 C20.7599538,11.7939769 20.6361077,11.7288231 20.5478,11.6669 C20.4993385,11.6324385 20.4508769,11.5990538 20.4024154,11.5651308 C19.4035692,10.8710538 18.3831846,10.2362077 17.3337231,9.69182308 C15.0097231,8.48405385 12.5096462,7.72374615 9.87226154,7.71728462 C7.73833846,7.71728462 5.65395385,8.41028462 3.94810769,9.69182308 C2.31710769,10.9173615 1.07756923,12.6366692 0.451876923,14.6279 C0.158415385,15.5626692 0.000107692308,16.5577462 0.000107692308,17.5894385 C0.000107692308,20.2795923 1.07649231,22.7188231 2.82218462,24.5000538 C3.17218462,24.8565154 3.54856923,25.1865923 3.94864615,25.4870538 C5.6588,26.7712846 7.73403077,27.4567462 9.87226154,27.4615923 C12.3147231,27.4615923 14.6354923,26.6802846 16.7419538,25.4870538 C17.2755692,25.1849769 17.8016462,24.8538231 18.3207231,24.5000538 C19.0266462,24.0181308 19.7196462,23.4925923 20.4024154,22.9342077 C24.6261077,19.4815923 28.0426462,15.1722846 32.2130308,11.6669 C33.0912615,10.9275923 33.9748769,10.2599 34.8676462,9.69182308 C36.7818769,8.47436154 38.7429538,7.71728462 40.8047231,7.71728462 L40.8047231,0.0167461538 C40.7804923,0.0167461538 40.7562615,0.0167461538 40.7325692,0.0172846154 C36.1863385,0.0334384615 32.8866462,1.60466923 30.2745692,3.95936154 C29.5697231,4.59474615 28.9154923,5.28666923 28.3000308,6.02005385 C27.8434154,6.56497692 27.4078,7.13305385 26.9899538,7.71728462 C22.9617231,13.3490538 18.1974154,23.8086692 9.82595385,23.8086692 C7.62203077,23.8086692 5.47033846,22.7839769 4.33041538,20.8482077 C3.15387692,18.8515923 3.18510769,16.3945923 4.33149231,14.3925923" id="Fill-4" fill="#008AA0" mask="url(#mask-4)"></path>
                </g>
            </g>
        </g>
    </g>
</svg>