<?xml version="1.0" encoding="UTF-8"?>
<svg width="22px" height="28px" viewBox="0 0 22 28" version="1.1" xmlns="http://www.w3.org/2000/svg" xmlns:xlink="http://www.w3.org/1999/xlink">
    <!-- Generator: Sketch 64 (93537) - https://sketch.com -->
    <title>Group 3</title>
    <desc>Created with Sketch.</desc>
    <defs>
        <polygon id="path-1" points="4.71910112e-05 0 21.1225865 0 21.1225865 27.8643258 4.71910112e-05 27.8643258"></polygon>
    </defs>
    <g id="payment" stroke="none" stroke-width="1" fill="none" fill-rule="evenodd">
        <g id="pay" transform="translate(-1111.000000, -378.000000)">
            <g id="Group-3" transform="translate(1111.000000, 378.000000)">
                <mask id="mask-2" fill="white">
                    <use xlink:href="#path-1"></use>
                </mask>
                <g id="Clip-2"></g>
                <path d="M10.5835753,1.70508989 C12.0170809,1.70508989 13.1806539,2.86819101 13.1806539,4.30295506 C13.1806539,5.7378764 12.0169236,6.90097753 10.5835753,6.90097753 C9.14786742,6.90097753 7.98445169,5.7378764 7.98445169,4.30295506 C7.98445169,2.86819101 9.14786742,1.70508989 10.5835753,1.70508989 M16.6304742,-7.86516854e-05 C18.0666539,-7.86516854e-05 19.2294404,1.16317978 19.2294404,2.59794382 C19.2295978,4.03286517 18.0666539,5.1961236 16.6304742,5.1961236 C15.1968112,5.1961236 14.0332382,4.03286517 14.0332382,2.59794382 C14.0332382,1.16317978 15.1968112,-7.86516854e-05 16.6304742,-7.86516854e-05 M5.04193483,4.36320225 C6.47685618,4.36320225 7.64011461,5.52677528 7.64011461,6.96216854 C7.64011461,8.39661798 6.47685618,9.56019101 5.04193483,9.56019101 C3.60685618,9.56019101 2.44344045,8.39661798 2.44344045,6.96216854 C2.44344045,5.52677528 3.60685618,4.36320225 5.04193483,4.36320225 M10.5278899,20.6154719 L10.567373,16.5101685 C10.7394629,16.5019888 12.4718449,16.4345056 13.5367888,16.9655618 C13.9267438,17.1598315 13.9670135,17.4101011 13.966227,17.6753146 C13.9655978,18.9079438 10.6007213,20.6675393 10.2699124,20.8344382 C6.00887865,22.9855618 4.71910112e-05,23.3512921 4.71910112e-05,23.3512921 L0.0563617978,27.8643258 C2.62732809,27.511809 7.26573258,26.9930225 12.8632157,23.992618 C15.6317551,22.5084607 18.6280697,20.065382 18.0693281,16.5685281 C17.528991,13.1948427 13.9580472,12.2444157 10.5950584,12.3900787 L10.555418,16.4955393 C10.3850584,16.5038764 8.65157528,16.5713596 7.58647416,16.040618 C7.1963618,15.8463483 7.15719326,15.5960787 7.15719326,15.3307079 C7.15750787,14.0980787 10.5217551,12.3383258 10.853036,12.1718989 C15.1145416,10.0203034 21.1225865,9.65457303 21.1225865,9.65457303 L21.0662719,5.14138202 C18.4945191,5.49468539 13.8569011,6.013 8.25988989,9.01324719 C5.49087865,10.4972472 2.49535056,12.9404831 3.05487865,16.4374944 C3.59458652,19.811809 7.16568764,20.7614494 10.5278899,20.6154719" id="Fill-1" fill="#ED1C24" mask="url(#mask-2)"></path>
            </g>
        </g>
    </g>
</svg>