<?xml version="1.0" encoding="UTF-8"?>
<svg width="33px" height="28px" viewBox="0 0 33 28" version="1.1" xmlns="http://www.w3.org/2000/svg" xmlns:xlink="http://www.w3.org/1999/xlink">
    <!-- Generator: Sketch 64 (93537) - https://sketch.com -->
    <title>Group 9</title>
    <desc>Created with Sketch.</desc>
    <g id="payment" stroke="none" stroke-width="1" fill="none" fill-rule="evenodd">
        <g id="pay" transform="translate(-1084.000000, -393.000000)">
            <g id="Group-9" transform="translate(1084.000000, 393.000000)">
                <polygon id="Fill-1" fill="#A30E06" points="7.6806587 1.52173913e-05 5.70437609 3.54551522 16.8896913 3.54551522 17.6430283 4.85048261 4.96032174 4.85048261 -1.52173913e-05 13.4418413 2.04345217 16.9810261 7.5429413 7.4557 19.5986913 7.4557 22.43605 12.3700043 23.9771152 9.70072174 18.3765065 1.52173913e-05"></polygon>
                <g id="Group-8" transform="translate(2.586957, 0.358065)">
                    <path d="M13.2181837,17.7729087 C15.5440859,17.7729087 17.441162,15.8759087 17.441162,13.5500065 C17.441162,11.2241043 15.5440859,9.32710435 13.2181837,9.32710435 C10.8923576,9.32710435 8.99535761,11.2241043 8.99535761,13.5500065 C8.99535761,15.8759087 10.8923576,17.7729087 13.2181837,17.7729087" id="Fill-2" fill="#1AB4B8"></path>
                    <polygon id="Fill-4" fill="#A30E06" points="5.3734663 27.6195576 0.0255423913 18.3567315 5.62622717 8.656025 8.70850978 8.656025 5.87122717 13.5704054 11.8991402 24.0109815 22.8980424 24.0110576 20.8546511 27.5503185 10.9342815 27.5503185 4.59289022 16.5666337 3.83947717 17.871525 9.43217283 27.5583076"></polygon>
                    <polygon id="Fill-6" fill="#A30E06" points="29.4629011 13.3884739 24.1149772 22.6513 12.9136076 22.6513 11.3724663 19.9820174 17.0471076 19.9819413 23.0749446 9.54136522 17.5756076 0.0160391304 21.6623902 0.0159630435 26.6224989 8.60732174 20.2811076 19.5910065 21.7878576 19.5910065 27.3805533 9.90422391"></polygon>
                </g>
            </g>
        </g>
    </g>
</svg>