<?xml version="1.0" encoding="UTF-8"?>
<svg width="28px" height="28px" viewBox="0 0 28 28" version="1.1" xmlns="http://www.w3.org/2000/svg" xmlns:xlink="http://www.w3.org/1999/xlink">
    <!-- Generator: Sketch 64 (93537) - https://sketch.com -->
    <title>Group 12</title>
    <desc>Created with Sketch.</desc>
    <defs>
        <polygon id="path-1" points="0.0116709027 0.0103608563 20.2725223 0.0103608563 20.2725223 17.8012954 0.0116709027 17.8012954"></polygon>
    </defs>
    <g id="payment" stroke="none" stroke-width="1" fill="none" fill-rule="evenodd">
        <g id="pay" transform="translate(-1083.000000, -349.000000)">
            <g id="Group-12" transform="translate(1083.000000, 349.000000)">
                <path d="M4.08757187,3.82068991 C-0.920831804,15.5933627 8.29202446,24.5025859 18.3712538,20.1799682 C5.80627523,30.7921394 -6.66802446,14.679381 4.08757187,3.82068991" id="Fill-1" fill="#4C2F92"></path>
                <path d="M3.98392905,24.0543976 C15.8382899,28.8661162 24.5930422,19.5063242 20.1031951,9.50039144 C30.9230116,21.8870092 15.0201248,34.6277798 3.98392905,24.0543976" id="Fill-3" fill="#4C2F92"></path>
                <path d="M23.9491278,24.0921933 C28.8813235,12.2874104 19.6110972,3.43786911 9.55995352,7.8255633 C22.0561737,-2.86761101 34.6343388,13.16423 23.9491278,24.0921933" id="Fill-5" fill="#4C2F92"></path>
                <g id="Group-9" transform="translate(4.623853, 0.075266)">
                    <mask id="mask-2" fill="white">
                        <use xlink:href="#path-1"></use>
                    </mask>
                    <g id="Clip-8"></g>
                    <path d="M20.2725223,4.84080612 C8.92764159,-1.07301651 -0.674817125,7.4148367 2.84624709,17.8012954 C-6.7507315,4.44478165 10.2883388,-6.73115719 20.2725223,4.84080612" id="Fill-7" fill="#4C2F92" mask="url(#mask-2)"></path>
                </g>
                <path d="M13.9858887,19.2306141 C16.8733138,19.2306141 19.2283107,16.8757028 19.2283107,13.988192 C19.2283107,11.1008526 16.8733138,8.74577003 13.9858887,8.74577003 C11.0984636,8.74577003 8.74346667,11.1008526 8.74346667,13.988192 C8.74346667,16.8757028 11.0984636,19.2306141 13.9858887,19.2306141" id="Fill-10" fill="#D0108C"></path>
            </g>
        </g>
    </g>
</svg>