<?xml version="1.0" encoding="UTF-8"?>
<svg width="30px" height="28px" viewBox="0 0 30 28" version="1.1" xmlns="http://www.w3.org/2000/svg" xmlns:xlink="http://www.w3.org/1999/xlink">
    <!-- Generator: Sketch 64 (93537) - https://sketch.com -->
    <title>Group 6</title>
    <desc>Created with Sketch.</desc>
    <defs>
        <polygon id="path-1" points="0 0.0292292683 29.2268862 0.0292292683 29.2268862 27.8634146 0 27.8634146"></polygon>
    </defs>
    <g id="payment" stroke="none" stroke-width="1" fill="none" fill-rule="evenodd">
        <g id="pay" transform="translate(-1046.000000, -292.000000)">
            <g id="Group-6" transform="translate(1046.000000, 292.000000)">
                <g id="Group-3" transform="translate(0.000000, 0.107356)">
                    <mask id="mask-2" fill="white">
                        <use xlink:href="#path-1"></use>
                    </mask>
                    <g id="Clip-2"></g>
                    <path d="M0.785365854,20.1110341 C1.46419512,19.4690829 2.02692683,18.7178634 2.70302439,18.0731805 C3.28760976,18.7178634 3.78614634,19.4363024 4.40487805,20.0495707 C6.37853659,22.2144488 8.94634146,23.966839 11.8610732,24.517278 C15.0885854,25.1319122 18.4390244,24.1061561 21.0846829,22.2472293 C22.1363902,21.5055707 22.9613659,20.5098634 23.8286829,19.5728878 C23.0119024,20.9674244 21.9028293,22.1598146 20.739122,23.2702537 C18.7613659,25.1237171 16.1799024,26.3106439 13.4891707,26.6111317 C12.2011707,26.6234244 10.8913171,26.729961 9.62517073,26.4404 C8.54341463,26.2342927 7.46985366,25.9705463 6.45229268,25.5403024 C4.39668293,24.835522 2.53092683,23.6253756 0.971121951,22.118839 C0.622829268,21.7952683 0.270439024,21.4673268 0,21.0727317 C0.163902439,20.6860585 0.516292683,20.4210829 0.785365854,20.1110341 M15.4505366,11.5771805 C14.1133659,11.870839 12.8663415,12.7204 12.244878,13.9592293 C11.8405854,14.7609854 11.5783415,15.6651805 11.6630244,16.5693756 C11.8132683,17.6811805 12.254439,18.7834244 13.0903415,19.5564976 C14.3715122,20.8458634 16.4680976,21.2911317 18.1385366,20.5426439 C19.3022439,20.121961 20.2146341,19.1535707 20.6954146,18.0267415 C21.7211707,15.8482049 20.6407805,12.9881073 18.4581463,11.9937659 C17.5416585,11.5129854 16.4626341,11.3436195 15.4505366,11.5771805 M15.1719024,11.2575707 C16.5923902,10.9639122 18.1795122,11.1605951 19.356878,12.057961 C20.7896585,13.0523024 21.5654634,14.8470341 21.4589268,16.5680098 C21.3250732,17.4585463 21.112,18.3791317 20.5560976,19.1098634 C19.5754146,20.4661561 17.9172683,21.3990341 16.2154146,21.2665463 C13.739122,21.3020585 11.4759024,19.1754244 11.312,16.7127902 C11.1303415,15.1420585 11.7395122,13.5125951 12.9018537,12.4444976 C13.5574634,11.889961 14.3237073,11.4364976 15.1719024,11.2575707 M16.697561,7.77737561 C17.2261463,7.71044878 17.7369756,7.90166829 18.2519024,7.98771707 C21.7129756,8.65835122 24.9650732,10.6702537 26.870439,13.6696683 C28.7853659,16.7510341 29.4997073,20.4962049 29.1350244,24.0843024 C29.0257561,25.3204 28.6651707,26.5168878 28.2922927,27.6942537 C28.2417561,27.9496683 27.9317073,27.8446341 27.756878,27.8281073 C26.563122,27.5549366 25.3912195,27.1888878 24.2056585,26.8761073 C25.2723902,24.6811805 26.0454634,22.2936683 26.115122,19.8364976 C26.1533659,18.3968878 26.0345366,16.9272293 25.5141463,15.5723024 C24.5758049,12.7791317 22.3877073,10.5678146 19.8977561,9.0804 C19.2981463,8.79630244 18.694439,8.51493659 18.078439,8.26771707 C17.6263415,8.07786341 17.1155122,8.04781463 16.697561,7.77737561 M17.1086829,0.815619512 C18.0661463,0.501473171 19.0126829,0.0398146341 20.038439,0.0329853659 C20.2747317,-0.0079902439 20.272,0.291131707 20.3334634,0.438643902 C20.6284878,1.53952195 21.046439,2.60625366 21.2909268,3.7221561 C21.2130732,3.9461561 20.9235122,3.88469268 20.7432195,3.93249756 C18.5100488,4.18927805 16.3164878,4.85718049 14.3387317,5.93074146 C12.1315122,7.17366829 10.2561951,9.11727805 9.35746341,11.5116195 C8.66087805,13.0946439 8.43960976,14.8470341 8.47921951,16.5639122 C8.42458537,18.2507415 8.89170732,19.9006927 9.48995122,21.4618634 C8.46965854,19.6124976 7.84136585,17.5623512 7.55180488,15.473961 C7.49717073,14.0316195 7.42068293,12.5605951 7.80312195,11.1537659 C8.12136585,9.47103415 8.89170732,7.90576585 9.87239024,6.51396098 C11.7067317,4.0048878 14.2513171,2.02849756 17.1086829,0.815619512" id="Fill-1" fill="#940509" mask="url(#mask-2)"></path>
                </g>
                <path d="M15.4505502,11.6845366 C16.4626478,11.4509756 17.5416722,11.6203415 18.45816,12.101122 C20.6407941,13.0954634 21.7211844,15.955561 20.6952917,18.1340976 C20.2146478,19.2609268 19.3022576,20.2293171 18.1385502,20.65 C16.4681112,21.3984878 14.3715259,20.9532195 13.0903551,19.6638537 C12.2544527,18.8907805 11.813282,17.7885366 11.663038,16.6767317 C11.5783551,15.7725366 11.840599,14.8683415 12.2448917,14.0665854 C12.8663551,12.8277561 14.1133795,11.9781951 15.4505502,11.6845366" id="Fill-4" fill="#FECB05"></path>
            </g>
        </g>
    </g>
</svg>