<?xml version="1.0" encoding="UTF-8"?>
<svg width="25px" height="28px" viewBox="0 0 25 28" version="1.1" xmlns="http://www.w3.org/2000/svg" xmlns:xlink="http://www.w3.org/1999/xlink">
    <!-- Generator: Sketch 64 (93537) - https://sketch.com -->
    <title>Group 6</title>
    <desc>Created with Sketch.</desc>
    <defs>
        <polygon id="path-1" points="3.53328963e-06 0.00792393736 24.9853647 0.00792393736 24.9853647 27.9686801 3.53328963e-06 27.9686801"></polygon>
    </defs>
    <g id="payment" stroke="none" stroke-width="1" fill="none" fill-rule="evenodd">
        <g id="pay" transform="translate(-827.000000, -279.000000)">
            <g id="Group-6" transform="translate(827.000000, 279.000000)">
                <g id="Group-3" transform="translate(0.000000, 0.023396)">
                    <mask id="mask-2" fill="white">
                        <use xlink:href="#path-1"></use>
                    </mask>
                    <g id="Clip-2"></g>
                    <path d="M11.5143642,0.557265772 C10.6533799,0.625543177 9.80367069,0.804379866 8.97525906,1.04585638 C7.89628814,1.36876465 6.86367069,1.84858568 5.92344698,2.46903311 C5.13731723,2.99019642 4.39910694,3.58746711 3.75266398,4.27556555 C3.10684743,4.96115839 2.54371544,5.72411141 2.06890559,6.53686309 C1.50170201,7.51654989 1.0867132,8.58267964 0.833648322,9.68576689 C0.699912304,10.2410689 0.602820582,10.8057669 0.554901119,11.3751629 C0.511053244,11.9088541 0.462194183,12.4472434 0.525460403,12.9809347 C0.568681879,13.900174 0.743760179,14.8087647 0.994006264,15.6926125 C1.5399123,17.6015611 2.61355884,19.3429481 4.01293244,20.7445141 C3.80402864,20.783664 3.59575123,20.8484962 3.42881611,20.9853642 C3.04452081,21.2600398 2.82465503,21.7216953 2.77422998,22.1839772 C2.78550515,22.3258564 2.82528143,22.4671092 2.90264161,22.588004 C3.57664609,23.792881 4.25096376,24.9977579 4.92371544,26.2035745 C5.01516957,26.3745812 5.11852528,26.5452747 5.26948725,26.6711808 C5.41637763,26.7952076 5.56013602,26.9292568 5.73333512,27.016013 C6.30836868,27.2474671 6.91534855,27.4003083 7.53141119,27.4688989 C7.83709351,27.4901964 8.13682506,27.4078251 8.43029262,27.3335969 C8.89633289,27.186362 9.27123221,26.8158787 9.47199284,26.3755208 C9.49203758,26.2994134 9.57534855,26.2862591 9.63642237,26.2577579 C10.2221047,26.0228586 10.8253262,25.8208452 11.4498452,25.7190555 C12.508145,25.538966 13.6024313,25.5709123 14.6466685,25.8214716 C15.0751248,25.9304649 15.4948116,26.0723441 15.9035365,26.240532 C16.0093978,26.6783843 16.3670711,27.0150734 16.7698452,27.1914045 C16.9828206,27.2828586 17.2117691,27.3267065 17.4369593,27.3768183 C17.7141405,27.4413374 17.9991517,27.3918519 18.2757065,27.3517624 C18.8294425,27.2559235 19.3753485,27.0999503 19.8839839,26.858787 C20.0687714,26.7610689 20.2322613,26.6226036 20.3553485,26.4538206 C20.5799123,26.1625454 20.7534246,25.8365051 20.9119034,25.5060801 C21.3983016,24.4982054 21.8421047,23.4696595 22.360136,22.4774447 C22.4522166,22.2923441 22.5812546,22.116013 22.5919034,21.9024112 C22.572485,21.7514492 22.5258183,21.6045588 22.4616125,21.4670644 C22.2981226,21.1263038 22.0400465,20.8152971 21.6873843,20.6621427 C21.5179436,20.6023217 21.3403597,20.5656774 21.1618362,20.5487647 C21.5752591,20.1256327 21.9491875,19.6649168 22.2921718,19.1832166 C22.8502926,18.408362 23.3116036,17.5639772 23.6599123,16.6748049 C23.9947221,15.816013 24.2195991,14.9161919 24.3599123,14.0060353 C24.4288161,13.5710018 24.4504268,13.1306438 24.4886371,12.6924783 C24.4955275,11.6949391 24.3949906,10.6936416 24.1607177,9.72272438 C23.9261315,8.68352975 23.5477557,7.67596823 23.0332009,6.7429481 C22.9401808,6.54218747 22.8123955,6.36178479 22.6983911,6.17323893 C22.1048787,5.2383396 21.3995544,4.37077808 20.5736483,3.63100179 C19.8736483,3.00773557 19.1094425,2.45337315 18.2869817,2.00205324 C18.1131562,1.88429038 17.9170935,1.8084962 17.7300823,1.71610246 C16.7078318,1.20903311 15.6028653,0.88706443 14.4819257,0.686930201 C13.8946774,0.579502908 13.298315,0.540039821 12.7035812,0.504648322 C12.3064447,0.494625951 11.9099347,0.527198658 11.5143642,0.557265772 M9.9424179,0.302008501 C10.826579,0.102500671 11.73423,0.0138653244 12.6393441,0.00791454139 C13.3863553,0.0411136465 14.1342747,0.106885459 14.8668474,0.264424609 C15.4719481,0.397534228 16.077362,0.536281432 16.6636707,0.739547651 C17.2017468,0.917444743 17.7157065,1.15672886 18.2259078,1.40071096 C19.0339615,1.82666174 19.792843,2.34281387 20.5018944,2.91847383 C21.2770622,3.54988322 21.9670711,4.28527472 22.5533485,5.09520761 C22.8856841,5.55435749 23.2132904,6.02071096 23.4776304,6.52308233 C24.0050577,7.4786528 24.3871606,8.51283624 24.6226864,9.5783396 C24.8710219,10.56523 24.9856841,11.5840667 24.9853716,12.6010242 C24.9452814,13.4450957 24.8453709,14.2891673 24.6392859,15.1103754 C24.4319481,16.0568631 24.1174962,16.9814268 23.6796125,17.8464828 C23.2417915,18.7253195 22.6786282,19.5364738 22.0575857,20.2947602 C22.2210756,20.4162814 22.4033262,20.5199503 22.5320823,20.6815611 C22.7384805,20.9487199 22.9489503,21.2305991 23.0153172,21.5691673 C23.0363016,21.7110465 23.1146327,21.8535521 23.0720376,21.9982501 C23.0309772,22.1442009 23.0187937,22.3008004 22.9442523,22.4351629 C22.3704716,23.4950286 21.8962881,24.6037535 21.373872,25.6886752 C21.1727982,26.1233955 20.9285029,26.5399503 20.6215678,26.9085857 C20.4934694,27.0548497 20.326221,27.1594582 20.1671159,27.2684515 C19.6046103,27.5594134 18.9825969,27.7056774 18.366221,27.832523 C18.0426864,27.8838877 17.7078765,27.9465275 17.3840286,27.8619638 C17.0103821,27.7689436 16.6103955,27.7182054 16.2872054,27.4917311 C16.119957,27.3693016 15.9361092,27.2603083 15.810485,27.091494 C15.6983911,26.9377132 15.5762434,26.7883172 15.5020152,26.6113597 C15.1584358,26.4798161 14.8089056,26.36174 14.4515454,26.2734179 C13.3634917,26.0416506 12.2268922,26.0444694 11.1388385,26.2743575 C10.7056841,26.3830376 10.2825521,26.5293016 9.86881611,26.6978027 C9.77798837,26.8559682 9.66742908,27.0016058 9.55874899,27.148183 C9.41874899,27.3357893 9.21767517,27.4610689 9.0303821,27.5957445 C8.86469978,27.7122546 8.67114273,27.7811584 8.47445369,27.8228139 C8.13087427,27.8988899 7.78103087,28.0107333 7.42586309,27.9524783 C6.94259687,27.8895253 6.46684743,27.774268 6.00018076,27.6348944 C5.76997942,27.5506438 5.51942013,27.4974 5.32367069,27.34174 C5.1470264,27.2167736 4.97539329,27.0830376 4.82255213,26.92957 C4.55727248,26.6235745 4.39221655,26.2502412 4.18926353,25.9035298 C3.59763043,24.8446036 3.00443132,23.7859906 2.41342461,22.726438 C2.34859239,22.5901651 2.33418523,22.4370421 2.29378255,22.2929705 C2.25839105,22.1767736 2.29534855,22.0583843 2.32197047,21.9453195 C2.36675794,21.7658564 2.39839105,21.5813821 2.47387204,21.411315 C2.555617,21.2155655 2.69248501,21.051136 2.81525906,20.8807557 C2.907966,20.7526573 3.03888322,20.6612031 3.16666846,20.571315 C2.83436421,20.1995477 2.53087427,19.8033508 2.24398389,19.3958787 C1.34886085,18.1527915 0.708995078,16.7277356 0.375438031,15.2328362 C0.192842953,14.5024559 0.0678765101,13.7567289 0.0312322148,13.0047378 C-0.0411167785,12.3673776 0.0268474273,11.7256327 0.0876080537,11.0901517 C0.156825056,10.4302412 0.309039821,9.78317181 0.469397763,9.14048725 C0.750963758,8.05681834 1.1913217,7.01417852 1.77731723,6.06017405 C2.30380492,5.22048725 2.90170201,4.42057673 3.60295481,3.71807114 C4.21776465,3.09167293 4.91682506,2.55516286 5.64250738,2.06437987 C6.5805387,1.43766846 7.61159016,0.951583445 8.69024787,0.621471588 C9.1017915,0.493686353 9.5227311,0.399413423 9.9424179,0.302008501" id="Fill-1" fill="#E8651D" mask="url(#mask-2)"></path>
                </g>
                <path d="M16.4406604,24.58737 C16.496723,24.5923812 16.5534434,24.5977056 16.6101011,24.6036564 C16.6420787,24.6966765 16.6592734,24.7937682 16.6636582,24.892426 C16.5621817,24.9406586 16.4579177,24.9826273 16.3513987,25.0180188 C16.2759177,24.9500546 16.2089244,24.8714416 16.1747857,24.7743499 C16.2693405,24.721106 16.359855,24.6603454 16.4406604,24.58737 M9.00409217,24.1780188 C9.05323311,24.098153 9.09645459,24.0129629 9.16379239,23.9462515 C9.28186846,23.9299651 9.42033378,23.9947973 9.45632036,24.1144394 C9.43063803,24.2149763 9.3730094,24.302672 9.32540313,24.3941262 C9.21327785,24.4047749 9.10271857,24.3809718 8.99403848,24.3549763 C8.98965369,24.3866094 8.9852689,24.4188689 8.98088412,24.4514416 C9.08611902,24.4830747 9.19354631,24.5071911 9.30100492,24.5300546 C9.29317494,24.6481306 9.28722416,24.7712179 9.2330094,24.8795848 C9.22298702,24.9159159 9.19921521,24.9306362 9.1622264,24.9231195 C9.08611902,24.9130971 9.01564922,24.8795848 8.94392662,24.8539025 C8.95958658,24.7787347 8.97618613,24.7038801 8.99403848,24.6296519 C8.86189978,24.609294 8.73345682,24.5729629 8.60849038,24.527549 C8.62415034,24.3884886 8.68616376,24.2628957 8.75600716,24.1441933 C8.83869172,24.1542157 8.92137629,24.1654908 9.00409217,24.1780188 M16.9461951,23.2572134 C17.0905485,23.0636564 17.252817,22.8679069 17.4823919,22.773634 C17.3708617,23.0417324 17.1638685,23.258153 17.0626738,23.531889 C17.0119356,23.6527839 16.9969333,23.7840143 16.9940832,23.9143051 C17.0855687,23.9152447 17.1766783,23.9143051 17.268477,23.9143051 C17.1801235,24.1103678 17.0354255,24.2923365 16.8318461,24.3747078 C16.7551123,24.4047749 16.6780653,24.3443275 16.6383204,24.2829405 C16.5709512,24.1833432 16.5781861,24.0555579 16.6041817,23.9440591 C16.6636582,23.692247 16.7958595,23.4648644 16.9461951,23.2572134 M16.3504591,22.7695624 C16.4607365,22.6787347 16.5825396,22.5493834 16.7403919,22.5835221 C16.8111749,22.6339472 16.8196626,22.7282201 16.8450004,22.8049539 C16.7476268,22.8707257 16.6495642,22.9656251 16.5227186,22.9546631 C16.4497432,22.9095624 16.3999445,22.8372134 16.3504591,22.7695624 M14.4196179,22.2621799 C14.4866112,22.1769897 14.6034658,22.2283544 14.6914434,22.2405691 C14.6501011,22.3389136 14.6009602,22.433813 14.5530094,22.5290255 C14.4421369,22.5446855 14.3309826,22.5559606 14.2191391,22.558153 C14.2489244,22.438511 14.3438237,22.353634 14.4196179,22.2621799 M16.2207946,22.4350658 C16.5603025,22.1895177 16.9668662,22.0310389 17.3868349,22.0069226 C17.045166,22.2675043 16.6072823,22.3530076 16.2612286,22.6041933 C15.9874613,22.8096519 15.8900564,23.1573029 15.8459266,23.4811508 C15.9389154,23.4883544 16.0325933,23.4917996 16.1262085,23.4949315 C16.1149647,23.6236251 16.0632555,23.7539472 15.9533226,23.8297414 C15.8606157,23.9086676 15.7359624,23.9186899 15.6197655,23.9252671 C15.5537119,23.8679517 15.4590944,23.8109494 15.4731884,23.7091597 C15.4854031,23.5494282 15.5931436,23.4194506 15.6348304,23.2678622 C15.398647,23.3533655 15.1503114,23.4037906 14.8990944,23.4156922 C14.4245978,23.4382425 13.9397655,23.4131866 13.484374,23.2681754 C13.2651347,23.1948868 13.0252242,23.0818219 12.9287588,22.856945 C12.849864,22.6683678 12.9675955,22.477974 13.0653136,22.3220009 C13.1166783,22.3210613 13.1686694,22.3207481 13.2203785,22.3201217 C13.246374,22.5600322 13.4427186,22.7307257 13.6535329,22.8193611 C14.1602577,23.0363767 14.7230765,23.0711732 15.2680743,23.0552 C15.4206022,23.0423588 15.5975284,23.0486228 15.7159177,22.9349315 C15.8891481,22.7733208 16.027864,22.5756922 16.2207946,22.4350658 M12.2813763,22.1315758 C12.6829289,21.8506362 13.0352779,21.508936 13.3869691,21.1700546 C13.4352018,21.1725602 13.483779,21.1750658 13.5323248,21.178511 C13.5116224,21.3047302 13.5097432,21.4672805 13.3835553,21.5393163 C13.1605575,21.6755579 12.9794971,21.8662962 12.786911,22.0404349 C12.435157,22.3736787 12.0677745,22.6959606 11.6490273,22.9433879 C11.1695195,23.2271463 10.6264322,23.4150658 10.0679982,23.4457593 C9.68057092,23.457974 9.29345682,23.4466989 8.90602953,23.4448197 C8.84965369,23.5870121 8.79734944,23.7517548 8.65390425,23.8303678 C8.52330022,23.9099204 8.36482148,23.8845512 8.21984161,23.8933208 C8.13496465,23.8942604 8.06790872,23.9531418 7.99931812,23.9954237 C7.97614139,23.973813 7.95327785,23.9528286 7.93041432,23.9318443 C7.98682148,23.7386004 8.06386846,23.5246855 8.25116152,23.4225826 C8.38142103,23.3395848 8.54212349,23.3878174 8.68397136,23.3530523 C8.8455821,23.2807034 8.94173423,23.121285 9.01940761,22.9700098 C9.61198031,22.9822246 10.2208394,23.0232537 10.7955597,22.8466094 C11.3211391,22.6803007 11.8313405,22.4526049 12.2813763,22.1315758 M9.39462013,7.24804116 C9.55560447,7.19260492 9.7206604,7.10960716 9.89545682,7.15094944 C9.85533602,7.20481969 9.80995347,7.25461834 9.75887069,7.29815302 C9.04039195,7.91797405 8.41869172,8.66495391 8.00843221,9.52468546 C7.70866935,10.1504573 7.52764027,10.8322917 7.48473199,11.5250881 C7.39894676,12.8314416 7.80826667,14.1240143 8.44061566,15.2546631 C8.54428456,15.4594953 8.72656644,15.6129629 8.81708098,15.8259383 C8.38330022,15.6583767 8.00025772,15.3790031 7.67515705,15.0495177 C7.26392662,14.6386004 6.93760447,14.148757 6.68544787,13.6263409 C6.5774255,13.4039696 6.47278568,13.1775266 6.41327785,12.9366765 C6.27578345,12.3525602 6.22849038,11.7465199 6.28267383,11.1486228 C6.35846801,10.3111284 6.67013244,9.49493154 7.18374765,8.82813065 C7.74531365,8.09900313 8.53554631,7.56531186 9.39462013,7.24804116 M14.6870899,7.07202327 C15.7409736,7.25336555 16.7272376,7.81023356 17.4210049,8.62486443 C18.0373494,9.34678837 18.4160072,10.2654013 18.4930541,11.2112626 C18.55726,11.9278622 18.4488931,12.6560501 18.2058506,13.3319338 C18.1209736,13.5774819 18.0169915,13.8189584 17.8673136,14.0325602 C17.5907588,14.4531866 17.2743964,14.8506362 16.900468,15.1892045 C16.6395732,15.4190926 16.3542174,15.6270568 16.0306828,15.7598532 C16.0285217,15.7338577 16.0241056,15.6821799 16.0219132,15.6564975 C16.6764993,14.8290255 17.1203025,13.8296072 17.2571705,12.7810166 C17.4253584,11.5645512 17.1836,10.3001664 16.6025843,9.22056913 C16.1440609,8.36678837 15.47726,7.63045727 14.6870899,7.07202327 M12.1513987,7.0585557 C12.2008841,7.02817539 12.2619893,6.96459597 12.3161727,7.02222461 C12.53726,7.17725817 12.7530855,7.3401217 12.9713539,7.49891365 C13.0437029,7.54119553 13.0562309,7.62951767 13.0562309,7.70593826 C13.0537253,10.2525602 13.0458953,12.7991821 13.0540385,15.345804 C13.8455239,14.6295177 14.5458058,13.7913969 14.9983785,12.8182872 C15.4844949,11.7819114 15.6651794,10.5729629 15.3579624,9.45828725 C15.2746515,9.10969664 15.0782443,8.80558031 14.9279087,8.48423803 C14.6848662,7.99000984 14.428043,7.50235884 14.1950541,7.00343266 C15.0350228,7.71877942 15.7190497,8.63770559 16.081421,9.6853566 C16.4660609,10.7781083 16.4754255,12.0002112 16.0980519,13.0964081 C15.7585441,14.1008376 15.1195866,14.9896966 14.3231526,15.6834327 C14.0829289,15.8945289 13.8241951,16.0837011 13.5611391,16.2650434 C13.6861056,16.4219562 13.8968573,16.4532761 14.0816761,16.4902336 C14.4637477,16.5528734 14.8518327,16.5694729 15.238289,16.5826273 C15.4991839,16.5942157 15.7616447,16.5726049 16.0210049,16.6092492 C15.4929199,16.8879964 14.8903248,16.9885333 14.2986917,17.0038801 C13.8526962,17.0355132 13.4063875,16.9841485 12.9607365,16.970681 C12.8322935,17.1921128 12.7001235,17.4110389 12.5735911,17.6336922 C12.5501011,17.7032537 12.4364098,17.7189136 12.3991391,17.6562738 C12.236902,17.4279517 12.1081772,17.1770792 11.9409602,16.9528286 C11.7884009,16.9424931 11.6362174,16.9832089 11.483345,16.9882201 C10.9130094,17.0452224 10.3304591,17.0333208 9.77233826,16.8948868 C9.50521074,16.8288018 9.24303177,16.7414192 8.99090649,16.631455 C9.59506756,16.676587 10.2092823,16.6790926 10.8052689,16.5563186 C10.9790944,16.5218353 11.1547991,16.4667436 11.2907275,16.347728 C10.8475508,16.0999875 10.4419579,15.787728 10.0811526,15.4309942 C10.0347991,15.3840143 9.99251723,15.3329629 9.95117494,15.2819114 C10.4391391,15.2543499 10.928043,15.2809718 11.4163517,15.2684438 C10.9224367,15.2715758 10.4278953,15.2559159 9.93426219,15.2772134 C9.18571633,14.4591374 8.66173423,13.4340367 8.45251723,12.3441038 C8.24298702,11.2670121 8.35448591,10.1197638 8.82616376,9.1241038 C9.19479911,8.33139687 9.78361342,7.65300761 10.4801682,7.1299651 C9.94368949,8.02446174 9.54338971,9.01730291 9.43627562,10.0611955 C9.31036957,11.2300546 9.57220403,12.4305468 10.1481772,13.453455 C10.5581548,14.1910389 11.1097298,14.8424931 11.728298,15.4131418 C11.7332779,14.9001217 11.6960072,14.3883544 11.6919356,13.8756474 C11.6621817,13.4897861 11.6819445,13.1023588 11.6502801,12.7168107 C11.6408841,11.8592716 11.5901459,11.0023588 11.5823159,10.1445065 C11.5359624,9.27443937 11.5362756,8.40280626 11.4918013,7.53242595 C11.7038371,7.36392483 11.9340385,7.21985324 12.1513987,7.0585557 M10.6330094,5.88311946 C10.6671481,5.80763848 10.758289,5.83050201 10.8218685,5.84522237 C10.8394076,5.99994273 10.8945306,6.15497629 11.0119803,6.26240358 C11.27726,6.52611723 11.7524143,6.5339472 12.0252107,6.27775034 C12.0981548,6.21448412 12.1498327,6.12052438 12.2503696,6.09734765 C12.3960072,6.27524474 12.5823919,6.46285101 12.8291615,6.4641038 C13.0173942,6.47851096 13.192817,6.38423803 13.3277745,6.26021119 C13.4737566,6.13524474 13.5830631,5.9764528 13.7020787,5.82705682 C13.7412286,5.82737002 13.7806604,5.82799642 13.8201235,5.82893602 C13.8927857,6.17909262 13.8558595,6.6041038 13.5654926,6.8493387 C13.300213,7.0588689 12.9256582,7.01251544 12.6302801,6.89757136 C12.4946649,6.84839911 12.4160519,6.6755132 12.2597655,6.68898076 C12.1363651,6.76477494 12.0630765,6.90226935 11.9321593,6.96898076 C11.6922488,7.093634 11.389072,7.06544609 11.1591839,6.93077047 C10.9296403,6.80737002 10.7028528,6.62602774 10.6305038,6.36450649 C10.5913539,6.20790694 10.5888483,6.03846622 10.6330094,5.88311946 M19.235336,25.7841038 C19.2347096,25.8382872 19.235336,25.8924707 19.2356492,25.9475937 C19.3092823,26.0099204 19.3841056,26.0778846 19.4799445,26.1029405 C19.597081,26.1295624 19.7207946,26.1104573 19.8301324,26.062851 C19.789072,25.9601217 19.7386783,25.8495624 19.6356358,25.7963186 C19.5109512,25.7343051 19.3662532,25.7646855 19.235336,25.7841038 M5.66441879,26.0637906 C5.66661119,26.125804 5.66880358,26.1878174 5.67130917,26.2504573 C5.83448591,26.2326049 6.00737181,26.2078622 6.14267383,26.1066989 C6.24446353,26.0237011 6.23632036,25.8790031 6.24258434,25.7606139 C6.01520179,25.7731418 5.81256197,25.8962291 5.66441879,26.0637906 M4.94938523,22.0789584 C4.9979311,22.2458935 5.07372528,22.4028063 5.14074989,22.562851 C5.5911302,23.6195848 6.083166,24.658153 6.53354631,25.7148868 C6.60686622,25.8473387 6.53354631,25.9973924 6.46338971,26.1145289 C6.3619132,26.2742604 6.18182371,26.3519338 6.00956421,26.408936 C6.04498702,26.4515311 6.0812868,26.4972268 6.13640984,26.5151105 C6.41672304,26.6288018 6.70580582,26.7249539 7.00303177,26.7841485 C7.17028009,26.8186004 7.33972081,26.7559606 7.47066935,26.6532313 C6.78849038,25.2685781 6.11229351,23.881106 5.43077226,22.4961083 C5.33712573,22.2978846 5.1711302,22.1234327 4.94938523,22.0789584 M20.0631213,22.1115311 C19.9516537,22.2521575 19.8896089,22.4231642 19.8116224,22.5828957 C19.1902353,23.9330971 18.5563517,25.2773477 17.9431078,26.6313074 C18.0733673,26.7102336 18.2296537,26.6820456 18.3730989,26.6666989 C18.70794,26.6209718 19.0252107,26.498511 19.3437029,26.3907705 C19.3499982,26.3694729 19.3628394,26.3262515 19.369072,26.3046407 C19.1820922,26.2037906 18.9669244,26.0919785 18.8930407,25.8777503 C18.8476268,25.704238 18.9594076,25.5463857 19.0192286,25.3913521 C19.26794,24.7777951 19.4972018,24.1567213 19.7405262,23.5409718 C19.8855374,23.248757 19.9660609,22.9314864 20.0766201,22.625804 C20.1360966,22.4331866 20.220034,22.2465199 20.2507275,22.0460725 C20.1858953,22.0589136 20.1029289,22.0466989 20.0631213,22.1115311 M3.52968501,22.1469226 C3.58164474,22.2913074 3.67153289,22.4187794 3.73887069,22.5562738 C4.32176555,23.6364975 4.89739418,24.7207928 5.48464251,25.7988242 C5.6697745,25.6917101 5.85734944,25.5792716 6.07095123,25.5404349 C6.02271857,25.3991821 5.95569396,25.2657593 5.89462013,25.1301441 C5.3546962,23.9468779 4.81095123,22.7651776 4.27569396,21.5797124 C3.93211454,21.578153 3.6655821,21.8556474 3.52968501,22.1469226 M19.3935016,25.5407481 C19.5973942,25.572068 19.7596626,25.7126944 19.9579177,25.7584215 C20.5385888,24.4934103 21.1245843,23.2309047 21.706477,21.9668331 C21.7797969,21.8136787 21.7616313,21.6010166 21.6147096,21.4976609 C21.420213,21.3620456 21.1756358,21.3457593 20.9491615,21.3078622 C20.4346067,22.7203902 19.901855,24.1260277 19.3935016,25.5407481 M17.5118013,21.0397324 C17.5124591,21.0679517 17.5137119,21.1240143 17.5140251,21.1522022 C17.6173494,21.1327839 17.7213629,21.1199427 17.8262532,21.112426 C17.7573494,21.1619114 17.6862846,21.2092045 17.6164098,21.2571239 C17.615157,21.2846855 17.6123383,21.3398085 17.6110855,21.36737 C17.9007946,21.3372716 18.2337253,21.244596 18.3753226,20.9633432 C18.0856134,20.9526944 17.7968438,20.9899651 17.5118013,21.0397324 M9.98092886,21.0933208 C8.95457539,21.3351105 7.95077226,21.6909047 7.02373423,22.1960949 C6.70737181,22.3764975 6.38571633,22.5575266 6.10540313,22.7902336 C6.12670067,23.0454908 6.26106309,23.2719338 6.35972081,23.5033879 C6.80947472,24.4360949 7.3412868,25.3262067 7.85743893,26.2228957 C8.00464251,26.1759159 8.12240537,26.0728734 8.25645459,26.0005244 C9.21922864,25.4489808 10.295694,25.1157369 11.3884456,24.9450434 C12.5601548,24.7683991 13.7662532,24.7724707 14.9260609,25.027728 C15.7215553,25.2043723 16.4983204,25.505983 17.1650899,25.9801664 C17.2549781,26.0409271 17.3332779,26.1192268 17.4313092,26.1677727 C17.5243606,26.1746631 17.6076716,26.1120233 17.664987,26.0440591 C17.7037924,25.9692045 17.7053584,25.8818219 17.7329512,25.8028957 C17.8080877,25.5723812 17.9462085,25.3697101 18.0796313,25.1696072 C18.1328752,25.0947526 18.1538595,25.004238 18.187685,24.9203007 C18.1920698,24.8648644 18.1930094,24.8059517 18.2290586,24.7602559 C18.3151884,24.6334103 18.4088349,24.510323 18.4714747,24.3693834 C18.4598864,24.3443275 18.448298,24.3195848 18.4369915,24.2951553 C18.6377521,24.1285333 18.6850452,23.8576161 18.8156492,23.6427615 C18.8165888,23.6217772 18.8181548,23.5798085 18.8190944,23.5591374 C18.8353808,23.5566318 18.868298,23.5519338 18.884553,23.5497414 C18.9916671,23.339898 19.046477,23.1056251 19.1858506,22.9123812 C18.5720116,22.210502 17.7648662,21.6981083 16.9029736,21.3554685 C16.0225396,21.0065647 15.0826604,20.8224036 14.1408394,20.7484886 C12.7471034,20.6435669 11.3395866,20.7719785 9.98092886,21.0933208 M16.4043606,20.6225826 C16.3824367,20.6667436 16.3607946,20.7112179 16.3398103,20.7560054 C16.3160385,20.7544394 16.2684009,20.7509942 16.2445978,20.7494282 C16.2411526,20.7810613 16.2380206,20.8130076 16.2352018,20.8455803 C16.2680877,20.8330523 16.3013181,20.8204931 16.3347991,20.8086228 C16.3968438,20.7337682 16.5048975,20.7159159 16.5537253,20.6288465 C16.5036447,20.6254013 16.4538148,20.6238353 16.4043606,20.6225826 M17.0560966,20.6066094 C16.8957387,20.686162 16.7977074,20.8480859 16.7444635,21.013455 C16.9546201,20.9608376 17.0892957,20.7654013 17.3019579,20.7196743 C17.2424814,20.8759606 17.1106246,20.9943499 17.0745754,21.1609718 C17.2164859,21.1387347 17.3699221,21.1027168 17.468298,20.9893387 C17.5866872,20.8474595 17.6339803,20.662672 17.6671481,20.4847749 C17.4601548,20.4982425 17.2452689,20.5135893 17.0560966,20.6066094 M18.1870899,20.4894729 C18.104374,20.5433432 18.0025843,20.5834327 17.964374,20.6827168 C18.0762174,20.6726944 18.1977387,20.6282201 18.3026291,20.69086 C18.217157,20.728757 18.1272689,20.7550658 18.0379758,20.7816877 C18.0360966,20.8039248 18.0323383,20.8483991 18.0301459,20.8706362 C18.3781101,20.8396295 18.6822264,20.6394953 18.9224501,20.396766 C18.7840161,20.3623141 18.6418237,20.321285 18.4980653,20.3428644 C18.3831526,20.3623141 18.2854031,20.4312179 18.1870899,20.4894729 M16.6990497,20.6269673 C16.7501011,20.5699338 16.7836134,20.5016877 16.8161861,20.4334103 C16.8850899,20.4330971 16.941779,20.4556474 16.9606022,20.5292492 C17.0241503,20.4963633 17.0874166,20.4615982 17.1488036,20.4243275 C17.1666872,20.2852671 17.1779311,20.1440143 17.1578864,20.0046407 C16.8672376,20.047549 16.7234792,20.3641933 16.6990497,20.6269673 M5.99327785,19.8580635 C6.08755078,20.2163633 6.33936286,20.499464 6.59555973,20.7547526 C6.28392662,20.5643275 5.95381477,20.3854908 5.58737181,20.3331866 C5.58705861,20.3607481 5.58674541,20.4158711 5.58674541,20.4437459 C6.0452689,20.7406586 6.47059329,21.0908152 6.95887069,21.3407481 C7.0688349,21.3946183 7.18186846,21.4691597 7.31059329,21.4384662 C7.25925996,21.3347973 7.18406085,21.2474148 7.10923758,21.1606586 C7.24482148,21.2449092 7.3782443,21.3341709 7.52012349,21.4074595 C7.6582443,21.4738577 7.81609664,21.4271911 7.95453065,21.3855356 C7.9363651,21.3410613 7.93201163,21.2846855 7.88406085,21.2608823 C7.45059329,20.9818219 7.01590425,20.7011955 6.61657539,20.3739025 C6.69265145,20.3926944 6.76875884,20.4171239 6.83421745,20.4619114 C7.08947472,20.6319785 7.31939418,20.8368107 7.57462013,21.0068779 C7.73341208,21.1096072 7.91318837,21.2314416 8.112383,21.1803902 C7.71242774,20.7353342 7.29242774,20.2664752 6.72115257,20.044417 C6.48594004,19.9582872 6.24540313,19.8715311 5.99327785,19.8580635 M17.9177074,20.0300098 C17.8638371,20.0879517 17.7820922,20.1402559 17.7767678,20.2263857 C17.8801235,20.2624036 17.9568573,20.1678174 18.0317432,20.1139472 C18.1040609,20.0478622 18.193949,20.0065199 18.2879087,19.9817772 C18.2008394,20.1490255 18.0837029,20.2984215 17.9991705,20.4672358 C18.0987365,20.4356027 18.1805128,20.3688913 18.2205709,20.2711732 C18.3032868,20.2182425 18.3943964,20.1740814 18.4607946,20.1001351 C18.4877298,20.0488018 18.481779,19.9867884 18.5011973,19.9332313 C18.5312644,19.8925154 18.5682532,19.8574058 18.602987,19.8207928 C18.5218685,19.7794506 18.4316671,19.7381083 18.3389602,19.7650434 C18.1745306,19.8054461 18.0433002,19.9225826 17.9177074,20.0300098 M19.1845978,19.767549 C19.0189154,19.8142157 18.8588707,19.8818667 18.6875508,19.9056698 C18.6875508,19.9254013 18.6872376,19.9648644 18.6869557,19.984596 C18.8560519,19.9708152 19.0233002,19.9382425 19.1927409,19.9257145 C19.0408707,20.0281306 18.8713987,20.0989136 18.7082219,20.1803454 C18.7185575,20.2160501 18.7295195,20.2517548 18.7407946,20.2880546 C18.9509512,20.2339025 19.1720698,20.187549 19.3484322,20.052247 C19.4533226,19.968936 19.5848975,19.8843723 19.600213,19.7384215 C19.4614658,19.7315311 19.3192734,19.7287123 19.1845978,19.767549 M17.3263875,20.1355579 C17.3849557,20.0710389 17.4350676,19.9996295 17.4792286,19.9247749 C17.5168125,19.9191374 17.5544277,19.913813 17.5923248,19.9088018 C17.5951123,19.9648644 17.5985888,20.0212403 17.6026604,20.0776161 C17.6872242,20.0343946 17.7711302,19.98303 17.828477,19.9050434 C17.8535016,19.7850881 17.8043293,19.6641933 17.7705038,19.5501888 C17.482987,19.5768107 17.3392286,19.8784215 17.3263875,20.1355579 M6.36441879,19.1987794 C6.38762685,19.4649987 6.44243669,19.7662962 6.67104072,19.9363633 C6.89435168,20.0986004 7.1674613,20.1684438 7.4114434,20.2924707 C7.49725996,20.3482201 7.5877745,20.2918443 7.66920626,20.2577056 C7.44307651,20.0215535 7.200034,19.802596 6.95201163,19.5899651 C6.77157763,19.4383767 6.58616376,19.2855356 6.36441879,19.1987794 M18.7213763,19.3967213 C18.7495955,19.416766 18.7780653,19.4371239 18.8072242,19.4574819 C18.8773808,19.3700993 18.9525172,19.272068 19.0790497,19.2824036 C19.0135911,19.4449539 18.9067902,19.5887123 18.8569915,19.758153 C19.1445083,19.6347526 19.3302667,19.350681 19.3866425,19.0496966 C19.1282532,19.0781978 18.921855,19.2473253 18.7213763,19.3967213 M19.5003025,19.2037906 C19.4990497,19.2282201 19.4962622,19.2773924 19.4950094,19.3021351 C19.6149647,19.2567213 19.7386783,19.221643 19.8670586,19.212247 C19.7374255,19.355379 19.5554255,19.458077 19.4871794,19.6488465 C19.7981548,19.5257593 20.0083114,19.2523365 20.2316224,19.0168107 C19.971072,18.9764081 19.7207946,19.075379 19.5003025,19.2037906 M18.4999445,18.8570792 C18.2766336,19.0694282 18.0542935,19.3315758 18.052383,19.6573029 C18.1789154,19.5357817 18.2657029,19.3820009 18.3386783,19.2244617 C18.3721593,19.212247 18.4059848,19.2003454 18.4401548,19.188757 C18.4091481,19.3193611 18.3771705,19.4499651 18.3624501,19.5837011 C18.4006604,19.5680412 18.4394971,19.5530076 18.478647,19.5392268 C18.6177387,19.3240591 18.6728617,19.065983 18.6672242,18.8122917 C18.6114747,18.8251329 18.5428528,18.8119785 18.4999445,18.8570792 M19.71926,18.6644617 C19.6518908,18.7643723 19.6008394,18.8749315 19.5773494,18.993634 C19.6891928,18.9143946 19.7818998,18.8085333 19.8235553,18.6760501 C19.7975597,18.6732313 19.7452555,18.6675937 19.71926,18.6644617 M19.3581101,18.6547526 C19.2923696,18.7054908 19.2641503,18.7850434 19.2409736,18.8617772 C19.3315195,18.8548868 19.4260743,18.8470568 19.5056268,18.798511 C19.7051347,18.6832537 19.8799311,18.5028197 19.9340832,18.2726497 C19.7264322,18.373813 19.5325933,18.5037906 19.3581101,18.6547526 M20.0070586,18.647549 C20.1355016,18.5927391 20.2673584,18.5407481 20.408298,18.5304125 C20.2901906,18.6325154 20.1386022,18.7180188 20.1019579,18.8830747 C20.4652689,18.7524707 20.6691928,18.4048197 20.9228528,18.137974 C20.5573494,18.0831642 20.0944412,18.2504125 20.0070586,18.647549 M3.58449485,18.1404796 C3.76674541,18.4129629 4.07242774,18.5695624 4.27162237,18.8273253 C4.40535839,19.0334103 4.49555973,19.2648644 4.63336734,19.4690702 C4.75426219,19.6569897 4.91869172,19.8157817 5.10849038,19.9332313 C5.22312125,20.0021351 5.34276331,20.0769897 5.48088412,20.0804349 C5.3120698,19.9160054 5.10504519,19.7944841 4.95157763,19.6128286 C5.12825324,19.6786004 5.23157763,19.8533655 5.40446353,19.9254013 C5.4862085,19.9629852 5.57766264,19.968936 5.66661119,19.9730076 C5.5898774,19.828936 5.43547025,19.7606586 5.3101906,19.6676385 C5.16643221,19.5627168 5.00200268,19.4790926 4.88799821,19.3394058 C4.60427114,18.9845512 4.4028528,18.5629852 4.06616376,18.2513521 C3.94025772,18.1360949 3.74701387,18.0339919 3.58449485,18.1404796 M19.1401235,18.1207481 C19.074383,18.215021 19.0543069,18.3309047 19.0467902,18.4433432 C19.0850318,18.4994058 19.107864,18.5632984 19.115694,18.6309494 C19.1686559,18.557974 19.2338013,18.493455 19.2763651,18.4139025 C19.3302667,18.2942604 19.3208394,18.1592716 19.3220922,18.0314864 C19.2610497,18.0577951 19.1758282,18.0556027 19.1401235,18.1207481 M4.26632931,17.7530523 C4.3333226,18.1602112 4.44951946,18.570502 4.6885217,18.9125154 C4.92432931,19.2564081 5.25290649,19.5207168 5.58048143,19.772247 C5.63811007,19.8260859 5.71922864,19.822672 5.79220403,19.8301888 C5.45488859,19.4001664 5.09032483,18.992068 4.75645459,18.5592268 C4.72513468,18.5156922 4.70602953,18.4640143 4.68410559,18.4164081 C4.750817,18.45086 4.81658881,18.4893834 4.87045906,18.5423141 C5.25162237,18.9137682 5.53036957,19.3769897 5.92124206,19.7393611 C5.9409736,19.6883096 5.96947472,19.6347526 5.95165369,19.5793163 C5.90871409,19.4079964 5.79721521,19.2651776 5.6966783,19.1239248 C5.40540313,18.7427615 5.07121969,18.3951105 4.71479911,18.0743946 C4.5751123,17.9550658 4.44168949,17.8194506 4.26632931,17.7530523 M3.66902729,17.5313074 C3.74482148,17.6049092 3.82656644,17.6719338 3.90862461,17.738332 C3.93712573,17.7151553 3.96531365,17.6926049 3.99318837,17.6694282 C3.88701387,17.6190031 3.78087069,17.5676385 3.66902729,17.5313074 M19.4147991,18.0966318 C19.460213,18.095379 19.50594,18.0944394 19.5520116,18.093813 C19.5673271,18.005804 19.582987,17.9181083 19.5995866,17.8307257 C19.6409602,17.8247749 19.6826157,17.8188242 19.7245843,17.8134998 C19.6932644,17.9372134 19.6616313,18.0609271 19.6512957,18.1887123 C19.7734121,18.1730523 19.8078953,18.0424483 19.840468,17.9437906 C19.8936805,17.7743499 19.8573808,17.5867123 19.7486694,17.4470568 C19.6399893,17.6650121 19.5187812,17.8764215 19.4147991,18.0966318 M20.0380653,18.0098756 C20.1445843,17.8607615 20.2407051,17.6850881 20.4277163,17.6262067 C20.3415866,17.8163186 20.2319669,18.0029852 20.2203785,18.2169002 C20.4524591,17.9973477 20.5971257,17.6894729 20.6096537,17.3693834 C20.3290273,17.4689808 20.0581101,17.6922917 20.0380653,18.0098756 M4.86140761,17.3390031 C4.85448591,17.521285 4.85041432,17.7079517 4.90522416,17.8842515 C4.95878121,18.0684438 5.07779687,18.2234774 5.20213691,18.3662962 C5.37408322,18.5639248 5.54884832,18.7603007 5.69201163,18.9807928 C5.71202506,18.981106 5.75242774,18.9820456 5.77278568,18.982672 C5.73989978,18.9075043 5.71578345,18.8285781 5.70262908,18.7477727 C5.77121969,18.8176161 5.82728233,18.8987347 5.87770738,18.9823588 C5.66942998,18.4975266 5.44486622,18.0148868 5.13949709,17.582672 C5.06996689,17.4780635 4.97475436,17.3934998 4.86140761,17.3390031 M20.981421,17.2970031 C20.8411078,17.3941262 20.7339937,17.5397324 20.7101906,17.7117101 C20.8192152,17.6309047 20.9234792,17.5366318 21.060034,17.5059383 C20.9889691,17.6606586 20.8746201,17.7953342 20.8386022,17.9650881 C20.9147409,17.9206139 20.989251,17.8714416 21.0493852,17.8062962 C21.2438819,17.5992716 21.4042398,17.3568555 21.4994837,17.0881306 C21.311251,17.1084886 21.1330094,17.1855356 20.981421,17.2970031 M20.6813763,16.811889 C20.6021369,16.9277727 20.4825262,17.0307839 20.4793629,17.1817772 C20.5548438,17.1445065 20.6309512,17.1022246 20.6838819,17.0348868 C20.7540698,16.9572134 20.8007051,16.8450881 20.9140832,16.8219114 C20.9125172,16.9158711 20.909072,17.0098309 20.9131749,17.1041038 C20.9438371,17.0718443 20.989251,17.0486676 21.004911,17.0041933 C21.0722488,16.8294282 21.1079848,16.6433879 21.1223606,16.4567213 C20.9375732,16.5193611 20.7928752,16.6562291 20.6813763,16.811889 M19.9851347,17.1432537 C20.0734568,17.0561843 20.194383,17.0264304 20.3111749,16.9985557 C20.3374837,16.8071911 20.3428394,16.613634 20.3330989,16.4210166 C20.3115195,16.413813 20.2688931,16.399719 20.2472823,16.3928286 C20.1458371,16.6374371 20.0033002,16.8726497 19.9851347,17.1432537 M21.2777074,16.6296072 C21.3704143,16.6067436 21.4625262,16.5801217 21.5539803,16.5509942 C21.5022711,16.6997638 21.4239714,16.8378846 21.3867007,16.991634 C21.6679535,16.7461172 21.8010631,16.3846855 21.9138148,16.0392268 C21.6162756,16.1106362 21.3807499,16.3458488 21.2777074,16.6296072 M20.6857611,15.4760949 C20.6149781,15.8140367 20.4940832,16.1491597 20.4959624,16.4977503 C20.5510855,16.3668331 20.570817,16.2255803 20.6037029,16.0887123 C20.6657163,16.1006139 20.7277298,16.1153342 20.7916224,16.1200322 C20.9961414,15.9624931 20.8918461,15.6781083 20.7978864,15.4870568 C20.7603025,15.4832984 20.7230318,15.47954 20.6857611,15.4760949 M21.3895508,15.3821351 C21.1608841,15.6580635 20.9165888,15.9696966 20.9278953,16.3483544 C21.0052242,16.2875937 21.075694,16.2186899 21.1352331,16.1403902 C21.1295642,16.0270121 21.180647,15.9255356 21.234204,15.8293834 C21.2736671,15.8234327 21.3134121,15.8177951 21.3535016,15.8124707 C21.3419132,15.9399427 21.3294166,16.0680412 21.3340832,16.196766 C21.5489691,15.9822246 21.5148304,15.6558711 21.5151436,15.3783767 C21.4728304,15.3793163 21.4308617,15.3805691 21.3895508,15.3821351 M2.44319732,15.2884886 C2.47104072,15.4031195 2.50705861,15.5155579 2.55028009,15.6254908 C2.76857987,16.184238 3.04043669,16.7198085 3.32106309,17.2494282 C3.34204743,17.2528734 3.38370291,17.2591374 3.40468725,17.2622694 C3.2183651,16.7934103 3.20705861,16.278511 3.03918389,15.8049539 C2.95151946,15.5393611 2.71662013,15.3417324 2.44319732,15.2884886 M3.15130917,15.1256251 C3.13533602,15.3768107 3.1422264,15.628936 3.16665593,15.8791821 C3.20831141,16.3812403 3.35645459,16.8933208 3.68816376,17.2832537 C3.80057092,17.4100993 3.91770738,17.5435221 4.07524653,17.6155579 C4.07587293,17.5507257 4.0877745,17.4811955 4.0526962,17.4226273 C3.82531365,16.9857145 3.59135391,16.545983 3.45984161,16.0686676 C3.41564922,15.9092492 3.40907204,15.7416877 3.4291481,15.5781978 C3.50146577,15.7476385 3.55846801,15.9227168 3.62611902,16.0940367 C3.80182371,16.552247 4.01918389,16.9926049 4.21900492,17.4404796 C4.24346577,17.444238 4.29260671,17.452068 4.31703624,17.4561396 C4.34177897,17.0063857 4.18019955,16.5732313 3.97502282,16.181106 C3.75578345,15.7661172 3.4930094,15.3752447 3.21457539,14.998153 C3.1766783,15.0313521 3.14504519,15.072068 3.15130917,15.1256251 M21.8186022,15.273455 C21.6197208,15.2640591 21.4208707,15.2684438 21.2219579,15.2649987 C21.1514881,15.2643723 21.0800787,15.2527839 21.0114881,15.273455 C21.2774255,15.275021 21.5442398,15.2612089 21.8104591,15.2772134 C21.7287454,15.3927839 21.6623472,15.5218219 21.6551123,15.6662067 C21.7334121,15.6045065 21.7988707,15.5293387 21.8674926,15.4576161 C21.9069244,15.4131418 21.9755463,15.4331866 22.027506,15.4200322 C21.9761414,15.5221351 21.918826,15.621106 21.8652689,15.721643 C21.8796761,15.7410613 21.9091481,15.7792716 21.9235553,15.7983767 C21.9836582,15.7435669 22.0387812,15.6818667 22.0716671,15.6063857 C22.1634658,15.4037459 22.2386022,15.1923365 22.2811973,14.9737235 C22.1051794,15.0354237 21.9495508,15.1419114 21.8186022,15.273455 M3.69377002,15.0113074 C3.65963132,15.1209271 3.67403848,15.2402559 3.69972081,15.350502 C3.83001163,15.8043275 4.13757315,16.1798532 4.28947472,16.6252224 C4.32611902,16.6205244 4.36276331,16.6173924 4.39972081,16.6164528 C4.49869172,16.6963186 4.51031141,16.8325602 4.57295123,16.9365423 C4.48397136,16.2039696 4.01229351,15.5869673 3.88074989,14.8647302 C3.80934049,14.8985557 3.72101834,14.9279964 3.69377002,15.0113074 M21.6983338,14.7541709 C21.689251,14.8584662 21.6776626,14.9630747 21.67143,15.0679964 C21.8123696,15.012247 21.7872823,14.8374819 21.8383651,14.7206586 C21.7913852,14.7316206 21.7447186,14.7425826 21.6983338,14.7541709 M20.8357834,14.6063409 C20.8307723,14.9132761 20.8342174,15.2302336 20.9435553,15.5218219 C21.029685,15.3548868 20.9836447,15.1635221 20.9344412,14.9931418 C20.9598103,14.9928286 21.0102353,14.9922022 21.0356045,14.9915758 C21.06943,15.0617324 21.1029423,15.131889 21.1364859,15.2023588 C21.166553,15.1791821 21.1972152,15.1560054 21.22794,15.1331418 C21.1953673,14.9893834 21.1699669,14.8330971 21.0641056,14.7225378 C21.0061951,14.6548868 20.9178416,14.6298309 20.8357834,14.6063409 M21.7093271,14.2511418 C21.532996,14.5101888 21.3769915,14.7926944 21.3250004,15.1055803 C21.480034,14.9881306 21.5762174,14.8171239 21.6689244,14.6504707 C21.7274926,14.6492492 21.786374,14.6479964 21.8455374,14.6464304 C21.8223606,14.5649987 21.7879087,14.4873253 21.7684904,14.4052671 C21.7844635,14.3661172 21.8086112,14.3313521 21.8298774,14.2953342 C21.7894747,14.2799875 21.7493852,14.2652671 21.7093271,14.2511418 M21.9930541,14.3639248 C21.946732,14.4143499 21.9642398,14.4829405 21.9692823,14.5440143 C22.0412868,14.4296966 22.1552913,14.3526497 22.2830765,14.3125602 C22.2505038,14.4857593 22.1837924,14.6508152 22.1568886,14.8252671 C22.3256716,14.5822246 22.4240161,14.296587 22.4688349,14.0053119 C22.241421,13.9946631 22.1058058,14.1985557 21.9930541,14.3639248 M21.2116224,13.6692492 C21.1023472,13.9464304 20.976723,14.2521128 21.0800787,14.5512179 C21.0966783,14.5496519 21.1299087,14.5458935 21.146477,14.5440143 C21.1546515,14.3946183 21.143345,14.2449092 21.1176626,14.0977056 C21.1668349,14.0883096 21.2160385,14.0792268 21.2655239,14.0704573 C21.2952465,14.2048197 21.2999445,14.3501441 21.3732331,14.4703812 C21.4080295,14.431889 21.4556045,14.4011955 21.4762756,14.3517101 C21.4778416,14.1011508 21.3785575,13.8552895 21.2116224,13.6692492 M21.7713092,13.6479517 C21.8088931,13.662672 21.8471034,13.6773924 21.885345,13.692426 C21.8975284,13.8380635 21.8865664,13.9846407 21.9010049,14.1305915 C21.9501459,14.0713969 22.0118461,14.015021 22.0268796,13.9360949 C22.0670004,13.7096519 22.0121906,13.4819562 21.9824054,13.2580188 C21.9457924,13.24737 21.9097432,13.2370345 21.8737566,13.2273253 C21.7888796,13.3510389 21.7713092,13.5013745 21.7713092,13.6479517 M22.1205575,13.5884438 C22.2655374,13.5236116 22.3394837,13.37954 22.4036895,13.2436116 C22.4302801,13.2461172 22.4835239,13.2511284 22.5101459,13.253634 C22.4547409,13.4634774 22.3188125,13.6432537 22.2855821,13.8599875 C22.3679535,13.8017324 22.4421817,13.7278174 22.4804233,13.6326049 C22.5574702,13.4440591 22.600034,13.2420456 22.6201101,13.0394058 C22.3598103,13.0945289 22.1236582,13.3090702 22.1205575,13.5884438 M21.1912957,12.7384215 C21.2122801,12.9927391 21.242034,13.24737 21.2968438,13.4969897 C21.3037342,13.5521128 21.343166,13.5922022 21.3829736,13.6282201 C21.3838819,13.4897861 21.3600787,13.3529181 21.3475508,13.2154237 C21.3842264,13.2173029 21.4211839,13.2194953 21.4584233,13.2220009 C21.4985128,13.3200322 21.5383204,13.4180635 21.5824501,13.5145289 C21.634128,13.4490702 21.7002443,13.3713969 21.6641951,13.2821351 C21.5833897,13.0509942 21.4004814,12.8605691 21.1912957,12.7384215 M21.7845364,12.6096966 C21.7481998,12.7218219 21.7491899,12.8411508 21.7468796,12.9576609 C21.7643714,12.9466989 21.7990249,12.9247749 21.8165166,12.913813 C21.8412691,12.8001217 21.840279,12.6820456 21.8468796,12.5664752 C21.8310711,12.5771239 21.800015,12.5987347 21.7845364,12.6096966 M21.8831526,12.2025378 C21.8483562,12.2914864 21.8205128,12.3832537 21.8117119,12.4787794 C21.8659266,12.5069673 21.9207365,12.5351553 21.9758282,12.5633432 C21.9990362,12.7428063 22.0250318,12.9222694 22.0629289,13.0998532 C22.1599893,13.0400322 22.1750541,12.9304125 22.1875508,12.8270568 C22.1738013,12.8164081 22.1458953,12.7954237 22.1321459,12.7850881 C22.0895195,12.5777503 22.0632421,12.3419114 21.8831526,12.2025378 M3.50744787,12.2319785 C3.423166,12.3826273 3.36083937,12.545804 3.33359105,12.7168107 C3.26625324,13.1101888 3.27690201,13.5223588 3.39278568,13.9060277 C3.43851275,14.0325602 3.47108546,14.1847749 3.60015481,14.2539919 C3.56974318,14.4741709 3.54061566,14.6946631 3.52373423,14.9166899 C3.54437405,14.9139025 3.58574765,14.9082649 3.60638747,14.9054461 C3.68781924,14.6432984 3.73135391,14.3698756 3.73887069,14.0955132 C3.76204743,13.4656698 3.62110783,12.8452224 3.60419508,12.2172582 C3.57193557,12.2219562 3.53939418,12.2269673 3.50744787,12.2319785 M2.8334434,12.1709047 C2.71627562,12.7020904 2.54151051,13.2307705 2.55591767,13.7810613 C2.54902729,14.2101441 2.6880877,14.6254461 2.8625396,15.012247 C2.87381477,15.0629852 2.9301906,15.0623588 2.96902729,15.0802112 C3.10811902,14.3761396 2.82370291,13.6811508 2.83873647,12.9758264 L2.9330094,12.9758264 C2.98656644,13.4515758 2.96464251,13.9329629 3.02540313,14.4087123 C3.04547919,14.5493387 3.09023535,14.6868331 3.16415034,14.8086676 C3.26875884,14.7034327 3.2812868,14.5462067 3.30540313,14.4071463 C3.34517942,14.0005826 3.29193557,13.5912626 3.22146577,13.1909942 C3.16195794,12.844596 3.08146577,12.500077 2.94585056,12.1752895 C2.91766264,12.1740367 2.8616,12.1718443 2.8334434,12.1709047 M2.0980519,12.152426 C2.08737181,12.5392268 2.11117494,12.9257145 2.1265217,13.3125154 C2.1609736,13.8458935 2.27309888,14.3795848 2.51551499,14.8590926 C2.53399374,14.861285 2.57095123,14.8650434 2.58942998,14.8672358 C2.5452689,14.6743051 2.49985503,14.4813745 2.47166711,14.2856251 C2.39023535,13.7838801 2.43784161,13.2727391 2.51864698,12.7744394 C2.52772975,12.704596 2.5449557,12.6303678 2.51676779,12.56303 C2.44319732,12.3769897 2.32007875,12.1687123 2.0980519,12.152426 M22.2567678,12.3102783 C22.195694,12.39954 22.172204,12.5210613 22.2364412,12.6153342 C22.2799445,12.5495624 22.3188125,12.4806586 22.3569915,12.4114416 C22.398647,12.4064304 22.4409289,12.4017324 22.4832421,12.3973477 C22.4647633,12.5364081 22.4462532,12.6757817 22.447506,12.8167213 C22.5950228,12.5699204 22.637336,12.2686228 22.5712197,11.9895624 C22.4356045,12.0606586 22.3407051,12.1862515 22.2567678,12.3102783 M21.2448528,11.9109494 C21.2601682,12.1073253 21.2820922,12.3040143 21.3171705,12.4981978 C21.3240609,12.5526944 21.3488036,12.6021799 21.3779624,12.6485333 C21.4083114,12.5191821 21.3973808,12.3863857 21.3863875,12.2557817 C21.5091615,12.2777056 21.5295195,12.4161396 21.5962309,12.5007034 C21.6234792,12.4712626 21.6507588,12.4418219 21.678289,12.4123812 C21.6444635,12.1762291 21.467506,11.985804 21.2448528,11.9109494 M21.259855,11.512247 C21.2911749,11.6362738 21.3121593,11.7903678 21.4358729,11.8586452 C21.4465217,11.72303 21.4052107,11.5573477 21.259855,11.512247 M21.2166336,11.2115758 C21.2222711,11.2964528 21.2116224,11.3863409 21.2454479,11.4668331 C21.3582309,11.4959606 21.4634345,11.5451329 21.5611526,11.6087123 C21.5608394,11.5539025 21.5608394,11.4987794 21.5608394,11.4442828 C21.4543517,11.3547078 21.3434792,11.2698309 21.2166336,11.2115758 M21.7221369,12.0020904 C21.8311302,11.8902783 21.879081,11.7396295 21.8903248,11.5871016 C21.9316671,11.573634 21.972383,11.5601664 22.0143517,11.5476385 C21.9883562,11.3991821 21.9604814,11.2256698 21.8079535,11.1533208 C21.7716224,11.4352 21.7399893,11.7180188 21.7221369,12.0020904 M22.1552913,11.6415982 C22.1907141,11.655379 22.2261056,11.6694729 22.261779,11.6835669 C22.2721145,11.6528734 22.2827633,11.6224931 22.2940698,11.5921128 C22.3272376,11.6024483 22.3610631,11.6130971 22.3948886,11.6237459 C22.3930407,11.705804 22.3921011,11.7881754 22.3952018,11.8705468 C22.5727857,11.6152895 22.5333226,11.2917548 22.5189154,10.9992268 C22.2665083,11.1019562 22.1853584,11.3957369 22.1552913,11.6415982 M21.6093852,11.2053119 C21.6381996,11.1771239 21.6801682,11.1552 21.6839266,11.1100993 C21.7252689,10.9293834 21.7155597,10.7424036 21.7202577,10.5585557 C21.740647,10.5679517 21.7819579,10.5864304 21.8026291,10.5958264 C21.8680877,10.732068 21.9038237,10.8808376 21.9570362,11.0220904 C21.9761414,11.0192716 22.0143517,11.0133208 22.0334568,11.0101888 C22.0378416,10.9632089 22.0550989,10.9152895 22.0406917,10.868936 C21.986477,10.6459383 21.8445978,10.4552 21.675157,10.3051776 C21.5915329,10.5958264 21.5235687,10.9068331 21.6093852,11.2053119 M21.0008707,10.3236564 C21.0114881,10.5526049 21.0813315,10.7749763 21.1956492,10.9732313 C21.2244635,10.9707257 21.281779,10.9657145 21.3105933,10.9632089 C21.2648662,10.8360501 21.2003785,10.7170345 21.1301906,10.6020904 C21.1608841,10.6017772 21.2222711,10.601464 21.2529647,10.601464 C21.2927409,10.662851 21.3297298,10.7267436 21.3769915,10.7834327 C21.4487141,10.7602559 21.4631213,10.6857145 21.4825396,10.6227615 C21.358826,10.472426 21.1815553,10.3847302 21.0008707,10.3236564 M22.0829423,10.678511 C22.1211526,10.6290255 22.1581414,10.5782872 22.1953808,10.527549 C22.2267007,10.5331866 22.2583338,10.5388242 22.2905933,10.5444617 C22.2899982,10.6290255 22.2905933,10.7139025 22.3015553,10.798153 C22.3250452,10.7630747 22.3538908,10.7270568 22.3494747,10.681643 C22.3516671,10.4570792 22.3598103,10.2265647 22.2953226,10.0088913 C22.1487141,10.1933655 22.0115329,10.4364081 22.0829423,10.678511 M21.0268662,10.0455356 C21.0418685,10.0862515 21.0556805,10.1285333 21.0760072,10.1676832 C21.1029423,10.233455 21.1865664,10.2112179 21.2426291,10.2231195 C21.2019445,10.1676832 21.1596313,10.113813 21.1173494,10.0602559 C21.0948304,10.0564975 21.0493852,10.049294 21.0268662,10.0455356 M3.81121969,9.74329843 C3.75578345,9.77962953 3.67936286,9.81596063 3.68437405,9.8945736 C3.64209217,10.3051776 3.58916152,10.7145289 3.54343445,11.1248197 C3.52276331,11.3277727 3.48893781,11.5304125 3.49864698,11.7352447 C3.54844564,11.6964081 3.60262908,11.6566318 3.62455302,11.5946183 C3.72978792,11.3406139 3.78459776,11.0696966 3.84476331,10.8022246 C3.92522416,10.4198085 3.99506756,10.0352 4.05457539,9.6490255 C3.97126443,9.67376823 3.88607427,9.69725817 3.81121969,9.74329843 M21.6322801,9.66030067 C21.6560832,9.7555132 21.6629423,9.86513289 21.747506,9.9299651 C21.7434658,9.84007696 21.7312197,9.75112841 21.7168125,9.66249306 C21.6958282,9.66186667 21.6535463,9.66092707 21.6322801,9.66030067 M20.8317119,9.63618434 C20.8571123,9.69788456 20.8686694,9.77430515 20.9269244,9.81627383 C21.028119,9.88956242 21.1486694,9.92839911 21.2655239,9.96942819 C21.2489244,9.8613745 21.2404367,9.73045727 21.1420922,9.66217987 C21.0450318,9.61927159 20.9344412,9.63900313 20.8317119,9.63618434 M3.01036957,9.75269441 C2.80647696,10.0812403 2.69341208,10.458332 2.63139866,10.8379293 C2.56750604,11.2554237 2.53336734,11.6838801 2.6166783,12.1013745 C2.65645459,12.0854013 2.69623087,12.0700546 2.73600716,12.0547078 C2.74540313,11.3807034 2.94459776,10.7314416 3.11967606,10.0865647 C3.12280805,10.0223588 3.19139866,10.0145289 3.23681253,9.98978613 C3.26534497,10.2932761 3.18641879,10.590502 3.12781924,10.8855356 C3.04920626,11.2648197 2.9677745,11.6488018 2.98468725,12.0384215 C3.18983266,11.9638801 3.26813244,11.7383767 3.33233826,11.5498309 C3.46857987,11.0631195 3.49551499,10.5538577 3.51054855,10.0511732 C3.52840089,9.80124027 3.52968501,9.55036779 3.53215928,9.2998085 C3.30634273,9.37654228 3.13408322,9.55443937 3.01036957,9.75269441 M21.3801235,9.1961396 C21.3660609,9.45703445 21.3635553,9.72262729 21.4324277,9.97694497 C21.4600206,9.97600537 21.5154255,9.97412617 21.542987,9.97318658 C21.5326515,9.81157584 21.5091615,9.6512179 21.4997655,9.48960716 C21.5433002,9.47206801 21.586553,9.45421566 21.6303696,9.43636331 C21.5949781,9.31515526 21.5010183,9.22808591 21.3801235,9.1961396 M21.8662085,9.73327606 C21.8959937,9.72200089 21.956128,9.69913736 21.9861951,9.68786219 C22.0231213,9.73985324 22.0629289,9.7905915 22.1074031,9.83694497 C22.138723,9.60361163 22.0967544,9.36683311 22.0250318,9.14446174 C21.8862532,9.30763848 21.8558729,9.52625145 21.8662085,9.73327606 M2.70096018,9.11596063 C2.62826667,9.73358926 2.35547025,10.3036116 2.24929575,10.9140367 C2.19138523,11.2879964 2.19354631,11.6957817 2.39117494,12.0315311 C2.43063803,11.6647749 2.39712573,11.2955132 2.41028009,10.9278174 C2.41090649,10.8141262 2.47417271,10.7157817 2.52087069,10.6161843 C2.69560447,10.2591374 2.88104966,9.89300761 2.91957315,9.49148635 C2.93927338,9.33332081 2.85658881,9.16857808 2.70096018,9.11596063 M20.5836582,8.77801879 C20.6663427,9.11877942 20.8639714,9.47989799 21.2069557,9.61175481 C21.2191391,9.35023356 20.9592152,9.21837673 20.8110407,9.04329843 C20.8971705,9.06866756 20.9801682,9.10343266 21.0612868,9.14226935 C21.0769468,9.13475257 21.1079848,9.12003221 21.1236447,9.11251544 C21.0512644,9.00446174 20.990817,8.87135213 20.8655374,8.81560268 C20.7731436,8.79273915 20.677336,8.78960716 20.5836582,8.77801879 M21.2429423,8.51524474 C21.2517119,8.57036779 21.2617655,8.62580403 21.2726962,8.68092707 C21.3165754,8.6696519 21.3607365,8.65837673 21.4052107,8.64741477 C21.352562,8.6013745 21.2986917,8.55690022 21.2429423,8.51524474 M21.6654479,8.24651991 C21.6216,8.4594953 21.5890273,8.67842148 21.6206917,8.89578166 C21.678289,8.85130738 21.7368886,8.80777271 21.7963651,8.76580403 C21.7992152,8.87103893 21.8004367,8.97627383 21.8067007,9.08150872 C21.8289378,9.06866756 21.8730989,9.04329843 21.895336,9.03045727 C21.9457924,8.76768322 21.8593494,8.50302998 21.7657029,8.25967427 C21.740647,8.25622908 21.6905038,8.2496519 21.6654479,8.24651991 M21.0121145,8.25654228 C21.0067902,8.51336555 21.0559624,8.77989799 21.1941145,8.99976376 C21.2373047,8.82781745 21.1555597,8.65931633 21.1393047,8.48956242 C21.1715642,8.46356689 21.2041369,8.43788456 21.2370228,8.41188904 C21.1693405,8.35018881 21.0948304,8.29631857 21.0121145,8.25654228 M20.1101011,8.00723579 C20.1567678,8.22710157 20.2995866,8.41251544 20.4793629,8.54249306 C20.5983785,8.62455123 20.7183338,8.72822013 20.8711749,8.72884653 C20.8016447,8.5293387 20.6043293,8.4266094 20.4699669,8.27690022 C20.5745754,8.28754899 20.6785888,8.30634094 20.7837924,8.31698971 C20.7101906,8.20674362 20.6043293,8.12311946 20.492204,8.05546846 C20.37726,7.98719105 20.2375732,8.00065861 20.1101011,8.00723579 M4.75989978,7.59287338 C4.60925101,7.74571454 4.65090649,7.98437226 4.55068277,8.16320895 C4.42230246,8.39466309 4.27976555,8.62893602 4.25533602,8.89922685 C4.3048528,8.9152 4.35430694,8.93117315 4.40379239,8.94683311 C4.75770738,8.50177718 5.00732707,7.98499866 5.23972081,7.46915973 C5.07842327,7.49546846 4.89676779,7.49108367 4.75989978,7.59287338 M21.1991257,7.44222461 C21.1599758,7.71909262 21.1787365,8.00065861 21.1956492,8.27877942 C21.2226157,8.28974139 21.2767678,8.31135213 21.3037342,8.32231409 C21.3002577,8.21958479 21.2968438,8.11685548 21.2936805,8.01412617 C21.3315776,8.01412617 21.3697879,8.01412617 21.4086246,8.01443937 C21.4211839,8.12030067 21.4321145,8.22616197 21.4543517,8.33045727 C21.4687588,8.28974139 21.4947544,8.2505915 21.4925933,8.20549083 C21.4872376,7.99502103 21.3923696,7.80209038 21.3143517,7.61103893 C21.2902667,7.54589351 21.2454479,7.49233647 21.1991257,7.44222461 M20.4834345,7.29282864 C20.4752913,7.5487123 20.5442264,7.80584877 20.6816895,8.02226935 C20.7079982,8.06643043 20.7496537,8.09681074 20.7897432,8.12844385 C20.8088796,7.94271678 20.717081,7.77828725 20.6437924,7.61542371 C20.8232868,7.65018881 20.8514434,7.89229172 21.0165306,7.93739239 C20.9172465,7.67336555 20.7405709,7.42280626 20.4834345,7.29282864 M19.6146515,7.23989799 C19.6982756,7.47041253 19.883345,7.64329843 20.0725172,7.79050201 C20.1285799,7.84186667 20.2059714,7.84092707 20.277694,7.84249306 C20.1461503,7.68432752 19.9632421,7.58034541 19.8316984,7.42249306 C20.0221235,7.46822013 20.150817,7.64956242 20.3556492,7.65864519 C20.3606604,7.55998747 20.3343517,7.45381298 20.2501011,7.39399195 C20.0691034,7.25712394 19.8304143,7.25806353 19.6146515,7.23989799 M4.37372528,7.17443937 C4.02607427,7.50110604 3.72007875,7.87506577 3.48236063,8.28911499 C3.36397136,8.51305235 3.23368054,8.76110604 3.28037852,9.02262729 C3.29541208,9.07085996 3.29788635,9.14822013 3.36397136,9.15009933 C3.69283043,8.67466309 3.83630694,8.09743714 4.15670962,7.61636331 C4.18145235,7.57909262 4.21681253,7.5515311 4.25066935,7.52334318 C4.29479911,7.72974139 4.2268349,7.93739239 4.12347919,8.11466309 C3.94338971,8.42974139 3.7366783,8.73605011 3.63739418,9.0887123 C3.62611902,9.20271678 3.64083937,9.31766085 3.66370291,9.42978613 C3.84723758,9.32141924 3.94530022,9.1253566 4.04267383,8.94464072 C4.28446353,8.47421566 4.45550157,7.9709047 4.59734944,7.46258255 C4.6455821,7.29627383 4.67690201,7.12526711 4.68598479,6.95206801 C4.57169843,7.01032304 4.46580582,7.08486443 4.37372528,7.17443937 M3.37308546,7.48795168 C3.16950604,7.88759374 3.00911678,8.31542371 2.94710336,8.76141924 C3.01663356,8.75672125 3.08585056,8.75171007 3.15538076,8.74701208 C3.31010112,8.28003221 3.63802058,7.9010613 3.84288412,7.45819776 C3.93211454,7.2712179 3.96033378,7.0601217 3.94840089,6.85466309 C3.6677745,6.96459597 3.51117494,7.23770559 3.37308546,7.48795168 M20.7324277,6.66047964 C20.6682219,6.89193378 20.6287902,7.15690022 20.7590497,7.3742604 C20.7872376,7.29376823 20.8060295,7.21108367 20.8198103,7.12714631 C20.8392286,7.12777271 20.8777521,7.12839911 20.8968573,7.1287123 C20.91377,7.22110604 20.9391391,7.31569217 21.0146201,7.37895839 C21.035949,7.11743714 20.9688931,6.80956242 20.7324277,6.66047964 M19.9613315,6.60034541 C19.9888931,6.78200089 20.0424501,6.96522237 20.1577387,7.11148635 C20.1843293,7.14813065 20.2291168,7.16159821 20.2679535,7.18164295 C20.2332197,7.05197852 20.1605575,6.93797405 20.1072823,6.8161396 C20.2485351,6.89005459 20.3259266,7.05135213 20.4887588,7.08956242 C20.4777969,6.80956242 20.2081324,6.64889128 19.9613315,6.60034541 M18.9359177,6.41900313 C19.0505485,6.73376823 19.3484322,6.91354452 19.6086694,7.0964528 C19.6753808,7.15157584 19.7646425,7.13215749 19.8441951,7.1305915 C19.6935463,6.97242595 19.488119,6.8834774 19.3265083,6.73783982 C19.4977969,6.74786219 19.6475374,6.83430515 19.7975597,6.90790694 C19.8009736,6.84745951 19.8463875,6.77135213 19.7912644,6.72311946 C19.5554255,6.52173244 19.2503696,6.3945736 18.9359177,6.41900313 M20.212204,5.86526711 C20.2009602,6.02531186 20.2053136,6.1856698 20.224732,6.34477494 C20.2482219,6.33882416 20.2949199,6.3262962 20.3184098,6.32003221 C20.4430318,6.39739239 20.469685,6.55743714 20.5639266,6.66298523 C20.5789602,6.60316421 20.5993181,6.54115078 20.5808394,6.47976376 C20.538902,6.28150872 20.4364546,6.10204564 20.3296537,5.93229172 C20.3083562,5.88562506 20.2526067,5.88280626 20.212204,5.86526711 M19.3026738,5.84396957 C19.3358729,6.12302998 19.507506,6.35730291 19.6920116,6.55868993 C19.7559043,6.36826488 19.576723,6.22983087 19.5065978,6.07229172 C19.6685217,6.12240358 19.7771705,6.2552 19.881779,6.38016644 C19.917515,6.37985324 19.9531884,6.37954004 19.9892376,6.37954004 C19.9303248,6.2542604 19.8667767,6.12553557 19.7586917,6.03502103 C19.6296537,5.92634094 19.4608707,5.88844385 19.3026738,5.84396957 M18.3630765,5.83958479 C18.4504591,6.05663177 18.6587365,6.19788456 18.8736224,6.26929396 C18.9431213,6.29967427 19.0060743,6.2539472 19.0599445,6.21511051 C18.9377969,6.113634 18.791251,6.05005459 18.6490586,5.98240358 C18.792817,5.9745736 18.9368573,5.98365638 19.0809602,5.98616197 C19.0317566,5.90848859 18.9688349,5.84146398 18.906477,5.77443937 C18.7245083,5.78853333 18.5444188,5.81954004 18.3630765,5.83958479 M6.2566783,5.70177718 C6.1520698,5.89690022 6.03180134,6.08325369 5.91278568,6.26960716 C5.78092886,6.48226935 5.63873647,6.69712394 5.58517942,6.94549083 C5.64186846,6.90978613 5.6960519,6.87032304 5.74522416,6.82459597 C6.05623087,6.53801879 6.30647696,6.19537897 6.57864698,5.87372349 C6.62343445,5.82204564 6.65600716,5.76159821 6.68262908,5.69895839 C6.54074989,5.68611723 6.3982443,5.68924922 6.2566783,5.70177718 M5.4151123,5.64822013 C5.1382443,5.89282864 4.87202506,6.15748188 4.67564922,6.47256018 C4.60737181,6.57842148 4.56101834,6.69681074 4.53564922,6.81989799 C4.63900492,6.7785557 4.74267383,6.73376823 4.83071409,6.66455123 C5.13323311,6.4309047 5.29393557,6.06195615 5.59708098,5.82956242 C5.64343445,5.78915973 5.70951946,5.80701208 5.7652689,5.7998085 C5.63247248,5.99085996 5.450817,6.13931633 5.29891544,6.31408143 C5.0677745,6.57215749 4.82163132,6.85215749 4.77023535,7.20795168 C4.94656644,7.14343266 5.1012868,7.03381298 5.24723758,6.91761611 C5.41323311,6.78951767 5.50155526,6.59094944 5.65126443,6.44719105 C5.86267383,6.2561396 5.97855749,5.98710157 6.0803472,5.72714631 C6.14016823,5.56490917 6.19623087,5.39828725 6.19998926,5.22352215 C5.89524653,5.26329843 5.64406085,5.45779508 5.4151123,5.64822013 M19.5676716,5.69332081 C19.5889691,5.75439463 19.6597208,5.76880179 19.7082667,5.8010613 C19.6995284,5.69269441 19.6788573,5.58589351 19.6547096,5.48034541 C19.6913539,5.48222461 19.7279982,5.4841038 19.7652689,5.4862962 C19.8607946,5.64508814 19.9031078,5.84365638 20.0493718,5.96611723 C20.0577969,5.71430515 19.9444188,5.47533423 19.7959624,5.27833199 C19.7445978,5.2062962 19.6669557,5.16150872 19.5889691,5.12392483 C19.5594971,5.3096519 19.4871794,5.51041253 19.5676716,5.69332081 M18.6512197,5.10889128 C18.6900564,5.22101655 18.7345306,5.33188904 18.7915642,5.43618434 C18.8454031,5.54235884 18.9180966,5.65761611 19.0514881,5.66388009 C19.0079848,5.54486443 18.9221369,5.4502783 18.8510407,5.34786219 C18.9976492,5.43587114 19.1216761,5.5552 19.2613629,5.65354452 C19.3183338,5.69927159 19.3932197,5.70209038 19.4624054,5.71399195 C19.4520698,5.59967427 19.4060609,5.48754899 19.3136358,5.4152 C19.1232107,5.26047964 18.892383,5.15461834 18.6512197,5.10889128 M17.7529647,5.10356689 C17.7451347,5.13081521 17.7291928,5.18499866 17.7210183,5.21224698 C17.926477,5.38795168 18.1194389,5.59810828 18.3834345,5.68423803 C18.4846291,5.72025593 18.5942488,5.70647517 18.687864,5.65667651 C18.5316089,5.51166532 18.3280295,5.44025593 18.1472823,5.33282864 C18.2424949,5.31873468 18.3386783,5.30683311 18.432638,5.28396957 C18.3286246,5.20159821 18.2161861,5.12329843 18.0858953,5.08978613 C17.9759937,5.06003221 17.8625843,5.08634094 17.7529647,5.10356689 M5.36030246,5.02839911 C5.05336734,5.36853333 4.71354631,5.68455123 4.46862461,6.07542371 C4.37309888,6.22356689 4.30547919,6.38830962 4.26598479,6.55994273 C4.28039195,6.56119553 4.30983266,6.56370112 4.32455302,6.56526711 C4.33927338,6.4988689 4.35371186,6.43278389 4.36874541,6.36669888 C4.42355526,6.37171007 4.47864698,6.37672125 4.53380134,6.38173244 C4.66969843,6.2201217 4.80785056,6.06007696 4.94781924,5.90191141 C5.16048143,5.66481969 5.4151123,5.46562506 5.69921521,5.32155347 C5.69417271,5.14741477 5.71233826,4.94320895 5.592383,4.80195615 C5.49309888,4.85081521 5.43424877,4.95009933 5.36030246,5.02839911 M6.24477673,5.02589351 C6.38070515,4.96701208 6.51099597,4.89591588 6.65099597,4.84611723 C6.58772975,5.01618434 6.47466488,5.16056913 6.40607427,5.32813065 C6.70145235,5.21819776 6.83609664,4.90625145 6.90343445,4.62124027 C6.66167606,4.70611723 6.36347919,4.76969664 6.24477673,5.02589351 M17.1754255,4.66132975 C17.1751123,4.70611723 17.1747991,4.7512179 17.1751123,4.79663177 C17.2888036,4.85833199 17.383421,4.99238121 17.5258953,4.96951767 C17.5875955,4.96544609 17.6471347,4.94696734 17.7069557,4.93068098 C17.6158148,4.86866756 17.5074479,4.84204564 17.4096984,4.79349978 C17.5149647,4.75372349 17.622987,4.72240358 17.7291928,4.68481969 C17.5653584,4.56643043 17.3458058,4.54294049 17.1754255,4.66132975 M18.9587812,4.55014407 C18.952204,4.73023356 18.9446872,4.91063624 18.9491034,5.09103893 C18.9941727,5.09698971 19.0398998,5.10262729 19.0856268,5.10857808 C19.0818685,5.00835436 19.0790497,4.90813065 19.0797074,4.80790694 C19.2215553,4.90437226 19.2735463,5.09260492 19.4308036,5.16683311 C19.3900564,4.91596063 19.2018237,4.73305235 19.0477298,4.54544609 C19.0176626,4.54669888 18.9882532,4.54826488 18.9587812,4.55014407 M17.8744859,4.44553557 C17.8628975,4.79193378 18.1704591,5.03434989 18.4445083,5.18781745 C18.3709065,4.98924922 18.2563069,4.81072573 18.1563651,4.62562506 C18.2963651,4.69922685 18.4407499,4.79443937 18.6074031,4.77658702 C18.5250318,4.64003221 18.3988125,4.52477494 18.2434658,4.48030067 C18.1228528,4.44992036 17.9975732,4.45023356 17.8744859,4.44553557 M18.3170362,3.90683311 C18.3207946,4.09256018 18.3580966,4.27828725 18.4360519,4.44741477 C18.4517119,4.49596063 18.5008841,4.51631857 18.5390944,4.54513289 C18.5156045,4.42643043 18.480213,4.30992036 18.4652107,4.1896519 C18.5779311,4.296766 18.6421369,4.46056913 18.7937253,4.52070336 C18.7896537,4.44898076 18.8012421,4.37099418 18.7655374,4.30522237 C18.6684456,4.12388009 18.4933673,4.00267204 18.3170362,3.90683311 M16.9787678,3.91685548 C17.0654926,4.17430515 17.2756492,4.36848859 17.5130541,4.48907025 C17.5597208,4.51976376 17.6158148,4.50097181 17.6674613,4.49971902 C17.528119,4.34781745 17.3455239,4.24540134 17.2023606,4.09757136 C17.4012421,4.11479732 17.5760072,4.21533423 17.7601682,4.28204564 C17.8143517,4.30522237 17.8735463,4.30553557 17.9315195,4.29927159 C17.7059848,4.0164528 17.3276403,3.9109047 16.9787678,3.91685548 M17.619855,3.61931633 C17.627685,3.80097181 17.658723,4.0152 17.843166,4.10258255 C17.8747991,4.05748188 17.8566336,3.94316421 17.928043,3.9466094 C18.0148304,4.03273915 18.0768125,4.14298523 18.178289,4.21502103 C18.1639132,3.9115311 17.897694,3.68978613 17.619855,3.61931633 M9.42249485,2.07461834 C7.59842327,2.60580403 5.92343445,3.6299651 4.61022192,5.00177718 C3.20016823,6.4669226 2.20795347,8.33578166 1.8117566,10.3321128 C1.52142103,11.7837906 1.52831141,13.2962291 1.84871409,14.7419562 C2.07609664,15.7708152 2.45412796,16.7664752 2.97059329,17.6850881 C3.90615034,19.3534998 5.29171186,20.7641485 6.93663356,21.7388242 C6.99457539,21.7754685 7.06473199,21.7764081 7.1311302,21.7854908 C7.13864698,21.715021 7.18691096,21.6320233 7.13770738,21.5681306 C7.06661119,21.4741709 6.95229351,21.4309494 6.84831141,21.384596 C6.63881253,21.2975266 6.46060224,21.153455 6.27954183,21.019719 C5.97198031,20.7913969 5.65752841,20.5730971 5.3465217,20.3500993 C5.36625324,20.2924707 5.3825396,20.2335893 5.39632036,20.1747078 C5.18052617,20.0516206 4.96661119,19.9238353 4.76992215,19.7719338 C4.54037852,19.5937235 4.38531365,19.338153 4.27976555,19.0709942 C4.23090649,18.9419562 4.12629799,18.8483096 4.03233826,18.7524707 C3.82343445,18.5416877 3.5982443,18.3459383 3.40719284,18.1179293 C3.46857987,18.0819114 3.53093781,18.0433879 3.60231588,18.0317996 C3.68092886,18.0126944 3.7733226,18.0220904 3.83189083,17.9550658 C3.57632036,17.7505468 3.35457539,17.5046855 3.18231588,17.2259383 C2.85658881,16.7113521 2.67430694,16.1253566 2.41403848,15.578511 C2.35045906,15.4422694 2.27031141,15.3141709 2.21139866,15.1757369 C2.33169843,15.1669673 2.45224877,15.1691597 2.57283043,15.1719785 C2.49484385,15.0141262 2.37739418,14.8797638 2.30037852,14.7219114 C2.20137629,14.4791821 2.13529128,14.2239248 2.08361342,13.9674148 C1.9517566,13.311889 1.99090649,12.6397638 1.98717942,11.9754685 C2.02942998,11.988936 2.07171186,12.00303 2.11433826,12.0171239 C2.15815481,11.6663409 2.13623087,11.3127391 2.12057092,10.9610166 C2.11649933,10.8332313 2.10365817,10.7016877 2.14440537,10.577974 C2.26057092,10.1933655 2.41028009,9.81909262 2.50643221,9.42853333 C2.55591767,9.26128501 2.50486622,9.06647517 2.63706756,8.93023356 C2.68840089,8.94182192 2.74011007,8.95341029 2.7917566,8.96499866 C2.82370291,8.59072573 2.87381477,8.21018881 3.02728233,7.8637906 C3.17479911,7.53242595 3.40656644,7.24835436 3.64181029,6.97555794 C3.71130917,6.90007696 3.75171186,6.80517763 3.80245011,6.71716868 C3.89640984,6.71904787 3.99036957,6.71685548 4.08370291,6.70651991 C4.08025772,6.66392483 4.07649933,6.62132975 4.07305414,6.57904787 C4.10875884,6.55681074 4.15479911,6.53989799 4.1582443,6.49072573 C4.20992215,6.29842148 4.28665593,6.11238121 4.39721521,5.94638568 C4.7157387,5.45528949 5.20276331,5.1007481 5.51129575,4.60182192 C5.57014586,4.60432752 5.62937181,4.60683311 5.68853512,4.6096519 C5.74898255,4.78723579 5.8019132,4.96701208 5.86267383,5.14428277 C6.00423982,5.0287123 6.1232868,4.8887123 6.26670067,4.77502103 C6.48531365,4.59493154 6.74464251,4.43833199 7.03751499,4.43989799 C7.08133154,4.69264966 6.96983266,4.94258255 6.80696913,5.13050201 C6.70173423,5.26924922 6.54513468,5.3810613 6.50817718,5.56052438 C6.69362237,5.56209038 6.8874613,5.55801879 7.05126443,5.6598085 C6.9209736,5.78226935 6.73900492,5.84177718 6.63627562,5.99336555 C6.32840089,6.41900313 5.98795347,6.82209038 5.60898255,7.18602774 C5.49936286,7.27309709 5.51408322,7.42625145 5.46146577,7.54432752 C5.33183266,7.864417 5.145166,8.15788456 4.94907204,8.44070336 C4.73077226,8.74701208 4.5055821,9.05081521 4.24155526,9.31985324 C4.25533602,9.36714631 4.27068277,9.41443937 4.28790872,9.46110604 C4.11470962,9.93622908 4.01887069,10.4342157 3.9101906,10.9268779 C3.84629799,11.2441485 3.7701906,11.55954 3.72383714,11.8799427 C3.74955078,11.8843275 3.80119732,11.8934103 3.82687964,11.8977951 C3.73451723,12.3159159 3.75390425,12.7462515 3.79869172,13.1690702 C3.84880358,13.6488913 3.89174318,14.1305915 3.86540313,14.6132313 C3.90799821,14.6345289 3.98410559,14.6269808 3.98942998,14.6902783 C4.27287517,15.7476385 4.66691096,16.7962291 5.32992215,17.6778846 C5.47368054,17.886162 5.66131812,18.0615535 5.78625324,18.2829852 C5.93658881,18.5335445 6.083166,18.793813 6.30149709,18.9926944 C6.66602953,19.3109047 7.11484385,19.5241933 7.44467383,19.8837459 C7.81922864,20.2545736 8.13086174,20.6880412 8.35855749,21.1637906 C8.7416,21.0930076 9.09614139,20.9176161 9.47514362,20.8280412 C10.5024054,20.5937682 11.5528752,20.4434327 12.608043,20.4384215 C13.7813181,20.4208823 14.9510855,20.5724707 16.0977387,20.813634 C16.3476403,20.4074148 16.7401101,20.121464 17.0282532,19.7459383 C17.169506,19.7249539 17.3185575,19.7008063 17.4354121,19.611889 C17.5653584,19.5173029 17.6424054,19.3722917 17.7153808,19.2332313 C17.7968438,19.2473253 17.8776179,19.276766 17.9615866,19.2714416 C18.1720251,19.1427168 18.2528304,18.8880859 18.432638,18.7264752 C18.5218685,18.636587 18.6418237,18.5896072 18.761779,18.5560949 C18.8059714,18.1984215 19.12794,17.9544394 19.1683427,17.5958264 C19.2146649,17.5973924 19.2616447,17.5992716 19.3089378,17.601464 C19.3114434,17.6237011 19.3167678,17.6681754 19.3192734,17.6907257 C19.3339937,17.7026273 19.3634345,17.7267436 19.3778416,17.7389584 C19.5422711,17.5544841 19.6672689,17.3330523 19.7145306,17.0890702 C19.7627633,17.0677727 19.842034,17.0784215 19.8539043,17.0123365 C19.9594837,16.7100993 20.1176179,16.4228957 20.1611526,16.1018667 C20.2353808,16.0389136 20.3061638,15.9693834 20.3494166,15.8807481 C20.4746962,15.6352 20.555157,15.3699204 20.6334568,15.1062067 C20.794128,14.5299204 20.9250765,13.9436116 20.9905351,13.3485333 C21.0171257,13.3454013 21.0703696,13.3391374 21.0969915,13.3363186 C21.1048215,13.0917101 21.0481324,12.8533655 21.008043,12.6140814 C21.0572152,12.6031195 21.1067007,12.5927839 21.1564993,12.5830747 C21.1418103,12.2300993 21.0377969,11.8802559 21.0966783,11.5272805 C21.0590944,11.0696966 20.9469691,10.6183767 20.7791257,10.1914864 C20.8192152,10.1770792 20.8592734,10.1629852 20.8999893,10.1488913 C20.9006157,9.92526711 20.7465217,9.7545736 20.6109065,9.59515526 C20.6697879,9.5794953 20.7286694,9.56414855 20.7882085,9.54880179 C20.5670586,8.9862962 20.2212868,8.48423803 19.9137566,7.96714631 C19.9362756,7.92173244 19.9591705,7.87694497 19.9823159,7.83215749 C19.7546515,7.65332081 19.5670139,7.43094944 19.3929065,7.2010613 C19.4144859,7.17224698 19.4364098,7.14343266 19.4583651,7.11493154 C19.2363069,6.82490917 18.9237029,6.62383535 18.6283875,6.41618434 C18.610817,6.32754899 18.6020787,6.22951767 18.5381861,6.15936107 C18.4357387,6.0437906 18.2907275,5.98083758 18.1682667,5.89063624 C18.165166,5.82141924 18.1883427,5.74186667 18.1385128,5.68392483 C17.9778416,5.45685548 17.7232107,5.32750425 17.486119,5.19564743 C17.4980519,5.17842148 17.5215418,5.14428277 17.5330989,5.12737002 C17.3802577,4.94540134 17.1576045,4.85050201 16.9389602,4.77345503 C16.9389602,4.74401432 16.9396179,4.7145736 16.9405262,4.68544609 C17.0351123,4.62499866 17.1287902,4.56298523 17.2195866,4.49658702 C17.14943,4.23162058 16.8732197,4.0850434 16.8184098,3.81256018 C17.0589154,3.80003221 17.2884904,3.88021119 17.520289,3.93126264 C17.4927275,3.78374586 17.4673271,3.63560268 17.4557387,3.48589351 C17.7213629,3.53381298 17.921779,3.72392483 18.1450899,3.85922685 C18.189251,3.78813065 18.2293405,3.71421566 18.2678953,3.63967427 C18.3465083,3.68446174 18.4225843,3.7342604 18.4877298,3.79721342 C18.8159937,4.10759374 19.1025396,4.45775034 19.39726,4.79913736 C19.4530407,4.88338792 19.5607499,4.85770559 19.6465664,4.86240358 C19.7693405,5.14240358 19.9500877,5.43336555 20.2598103,5.52795168 C20.3644188,5.80889128 20.5222711,6.06414855 20.6716984,6.32253781 C20.7305799,6.33475257 20.7894613,6.34602774 20.8489378,6.35730291 C20.9350676,6.64513289 21.0118013,7.00374586 21.3212421,7.1312179 C21.3691615,7.42311946 21.4775284,7.70155347 21.620034,7.95962953 C21.678289,7.96307472 21.7368886,7.96683311 21.7957387,7.9702783 C21.8906694,8.22302998 21.9889826,8.47578166 22.0435105,8.7410613 C22.0983204,8.74450649 22.1537253,8.74826488 22.2091928,8.75171007 C22.2082219,9.06428277 22.2292063,9.37779508 22.2918461,9.684417 C22.3363204,9.68817539 22.3814523,9.69224698 22.4265217,9.69600537 C22.463166,10.0139025 22.4885664,10.3327391 22.5123383,10.651889 C22.560289,10.6543946 22.6088036,10.6569002 22.6573494,10.659719 C22.6583204,10.9879517 22.6560966,11.3164975 22.6586022,11.6447302 C22.7131302,11.653813 22.7685351,11.6632089 22.8236895,11.6726049 C22.7948438,12.0356027 22.7338013,12.3951553 22.7030765,12.7578398 C22.7434792,12.7669226 22.7841951,12.7763186 22.8252555,12.7857145 C22.7666559,13.0923365 22.683345,13.3939472 22.6445083,13.7040143 C22.6654926,13.7121575 22.7074926,13.7284438 22.728477,13.736587 C22.6996626,13.8568555 22.6580072,13.9730523 22.6176045,14.0895624 C22.5373942,14.3222694 22.4844949,14.5628063 22.4259266,14.801464 C22.4647633,14.8143051 22.5042264,14.8271463 22.5439714,14.8403007 C22.4800787,15.1425378 22.3469691,15.4266094 22.187864,15.6896966 C22.1011078,15.8102783 22.1609602,15.9684438 22.1105038,16.1018667 C21.9755463,16.5005691 21.7359177,16.8510389 21.5160832,17.2058935 C21.3529065,17.4605244 21.1777969,17.7135893 21.0888483,18.0061172 C21.1079848,18.0192716 21.1458506,18.0452671 21.1646425,18.0584215 C20.7587365,18.5933655 20.3440609,19.1261172 19.8589468,19.5924707 C19.8069244,19.6344394 19.8554702,19.6980188 19.859855,19.7500098 C19.6669557,20.0077727 19.3916537,20.187549 19.0981861,20.3115445 C19.1210183,20.3685781 19.1489244,20.4240143 19.170817,20.4819562 C18.9612868,20.6313521 18.71577,20.7224931 18.5065217,20.8715758 C18.4667454,20.9401664 18.4839714,21.032247 18.4726962,21.11086 C18.2851213,21.2395848 18.0912197,21.3598532 17.8835687,21.453813 C17.9192734,21.4913969 17.9521906,21.533021 17.9966649,21.5624931 C18.1075374,21.5709494 18.224987,21.524596 18.3258058,21.5931866 C19.5338461,20.8465199 20.5836582,19.8495758 21.4136358,18.6989136 C22.6388707,17.0004349 23.3517119,14.9355132 23.4209289,12.8417772 C23.4635239,11.6848197 23.3191391,10.5200322 22.9887141,9.40974139 C22.4206022,7.47761611 21.2886694,5.71931633 19.780647,4.38634094 C18.2803919,3.05148635 16.4062085,2.14383535 14.4283562,1.79649754 C12.7684009,1.50396957 11.03926,1.59417092 9.42249485,2.07461834 M10.9189602,1.45417092 C9.15972081,1.69752662 7.46437405,2.37434989 6.01551499,3.40039016 C4.78902729,4.26575928 3.73855749,5.3798085 2.95026667,6.65797405 C1.99717047,8.19390246 1.43717047,9.97099418 1.33538076,11.7756474 C1.33569396,12.0991821 1.29156421,12.4220904 1.32347919,12.7453119 C1.36012349,14.0169002 1.62700045,15.281285 2.10083937,16.4617324 C2.84064698,18.3096072 4.0946962,19.9445065 5.67663356,21.1509494 C6.0202443,21.4199875 6.39135391,21.6501888 6.75591767,21.8891597 C6.80415034,21.8734998 6.852383,21.8578398 6.90092886,21.8431195 C6.89845459,21.8161843 6.89591767,21.7895624 6.89372528,21.7632537 C6.55922864,21.5815982 6.25010112,21.3582872 5.9428528,21.1349763 C5.08280805,20.4919785 4.31421745,19.7252671 3.67466488,18.8624036 C2.39305414,17.1366765 1.63448591,15.0225826 1.56151051,12.8721575 C1.54835615,12.6313074 1.53676779,12.3892045 1.55963132,12.1486676 C1.59345682,10.6277727 1.96772975,9.11752662 2.63327785,7.75041253 C3.47171186,6.01873468 4.78276331,4.52195615 6.37945235,3.44987562 C8.01341208,2.34741477 9.94960895,1.69752662 11.9186917,1.59761611 C12.2102801,1.59291812 12.5021817,1.55815302 12.7938013,1.58790694 C13.8586783,1.60575928 14.9191391,1.79305235 15.9313987,2.12285101 C18.6296403,2.99417092 20.9541727,4.95824251 22.2592734,7.47636331 C23.4206157,9.68285101 23.7676403,12.3015087 23.2317566,14.7356922 C23.0203472,15.7213298 22.6636134,16.675021 22.1837924,17.5613745 C21.2896089,19.218511 19.9563204,20.6316653 18.3621682,21.6326497 C18.396902,21.6664752 18.4319803,21.7006139 18.4673718,21.7350658 C19.1733226,21.2922022 19.8288796,20.7697861 20.4189468,20.1815982 C21.7428081,18.867728 22.7265664,17.2140367 23.244911,15.4222246 C23.5312063,14.4215535 23.6724277,13.381106 23.6724277,12.3409718 C23.6501906,11.9648197 23.6533226,11.5867884 23.6038371,11.2125154 C23.4165441,9.48459597 22.8055239,7.80584877 21.8445978,6.35792931 C20.7878953,4.76217987 19.3136358,3.44799642 17.6101772,2.57605011 C15.5662085,1.52370112 13.1940698,1.12687785 10.9189602,1.45417092 M10.1826291,1.20329843 C10.9086246,1.05233647 11.6496537,0.989383445 12.38943,0.960569128 C12.7352018,0.951173154 13.0794389,0.987504251 13.4236134,1.01036779 C15.2686694,1.15256018 17.0730094,1.75358926 18.6415418,2.73358926 C20.2360385,3.73112841 21.586553,5.11860045 22.5258058,6.74911499 C23.0028394,7.56875705 23.3711302,8.45135213 23.6273271,9.36432752 C23.9280295,10.4329629 24.0579758,11.5457593 24.0558413,12.6541709 C24.0194523,13.2097861 23.9806157,13.7666541 23.8810497,14.315379 C23.555949,16.2249539 22.7218998,18.0421351 21.4979177,19.542672 C20.829864,20.3641933 20.0490273,21.0939472 19.1843159,21.7052805 C19.0452242,21.8058488 18.8946067,21.8904125 18.7665083,22.0056698 C19.0756045,22.0003454 19.37377,21.9123365 19.6722801,21.8418667 C19.926911,21.7739025 20.1780653,21.6940367 20.4273718,21.6088465 C20.5028528,21.4597638 20.5720698,21.3072358 20.6497745,21.1594058 C20.6682219,21.1139919 20.7208394,21.104596 20.7609289,21.0867123 C21.0183785,20.9905915 21.3203338,20.9749315 21.568043,21.1074148 C21.8336358,21.2452224 22.0056134,21.5095311 22.1161414,21.7798532 C22.1405709,21.8481306 22.1837924,21.9264304 22.1371257,21.9959606 C21.6131436,22.9653119 21.1668349,23.973813 20.6986022,24.9707257 C20.5435687,25.2923812 20.3967096,25.6190479 20.2118908,25.9250434 C20.0747096,26.1442828 19.925345,26.3794953 19.6854345,26.496945 C19.1338595,26.7537682 18.5422577,26.9300993 17.9352779,26.9867884 C17.6067007,27.0290702 17.2750541,26.9504573 16.9705933,26.8298756 C16.6699221,26.7086362 16.3952779,26.4690702 16.3153808,26.144596 C16.288477,26.0647302 16.295336,25.9460277 16.1963651,25.918153 C15.306911,25.5388689 14.3585441,25.2898756 13.3935463,25.216587 C11.9453136,25.1013298 10.4889378,25.422672 9.1685217,26.0102336 C9.07330917,26.2485781 8.95927338,26.4878622 8.76665593,26.6638801 C8.46723758,26.9554685 8.03442774,27.0513074 7.62974318,27.0619562 C7.05690201,27.0296653 6.49690201,26.8756027 5.96415034,26.6673253 C5.79909441,26.6024931 5.67538076,26.470323 5.54261566,26.3581978 C5.41796242,26.2544975 5.35215928,26.1032537 5.27385951,25.9657593 C4.66875884,24.8811508 4.06146577,23.7974819 3.4560519,22.7128734 C3.37649933,22.553455 3.26437405,22.4084438 3.20799821,22.2390031 C3.2117566,22.0219562 3.30884832,21.8158711 3.42069172,21.6339025 C3.58415034,21.3742604 3.87135391,21.1894729 4.18110783,21.1775714 C4.330817,21.1678622 4.47645459,21.2113969 4.61614139,21.2605691 C4.65845459,21.3958711 4.70321074,21.5305468 4.7514434,21.6639696 C5.13949709,21.8005244 5.52786398,21.9345736 5.91560447,22.072068 C6.00705861,22.1033879 6.09663356,22.1422246 6.19215928,22.1603902 C6.25577002,22.1484886 6.31211454,22.1143499 6.36911678,22.0852224 C4.78373423,21.0923812 3.43444116,19.7208823 2.49077226,18.1044617 C1.61979687,16.6202112 1.09171186,14.9348868 0.972069799,13.2176161 C0.964239821,13.0682201 0.952964653,12.9191374 0.936365101,12.770681 C0.913501566,12.3300098 0.946700671,11.8896519 0.983658166,11.45086 C1.14119732,9.53126264 1.80708993,7.65770559 2.88853512,6.06477494 C3.90267383,4.56204564 5.27918389,3.30830962 6.86334497,2.42790694 C7.89846801,1.85318658 9.0222264,1.43882416 10.1826291,1.20329843" id="Fill-4" fill="#4F4F4F"></path>
            </g>
        </g>
    </g>
</svg>