<?xml version="1.0" encoding="UTF-8"?>
<svg width="33px" height="28px" viewBox="0 0 33 28" version="1.1" xmlns="http://www.w3.org/2000/svg" xmlns:xlink="http://www.w3.org/1999/xlink">
    <!-- Generator: Sketch 64 (93537) - https://sketch.com -->
    <title>Group 3</title>
    <desc>Created with Sketch.</desc>
    <defs>
        <polygon id="path-1" points="1.15313425e-07 0 32.5835229 0 32.5835229 27.9807334 1.15313425e-07 27.9807334"></polygon>
    </defs>
    <g id="payment" stroke="none" stroke-width="1" fill="none" fill-rule="evenodd">
        <g id="pay" transform="translate(-822.000000, -252.000000)">
            <g id="Group-3" transform="translate(822.000000, 252.000000)">
                <mask id="mask-2" fill="white">
                    <use xlink:href="#path-1"></use>
                </mask>
                <g id="Clip-2"></g>
                <path d="M12.9700367,21.8586367 C13.7047156,20.7399211 15.0482018,20.0463431 16.3878349,20.1092789 C16.9015963,20.1028569 17.3883853,20.2788202 17.8815963,20.3969853 C18.5700367,20.7925817 19.2288073,21.2755174 19.6245321,21.9832239 C20.1537064,22.8296459 20.3360917,23.8828569 20.1241651,24.8590037 C20.0779266,25.0850587 19.9970092,25.3162514 20.0636697,25.5500128 C19.7247156,25.7645083 19.6296697,26.1870771 19.3740734,26.4773523 C18.6829358,27.3276275 17.6581101,27.988967 16.5291193,27.9672606 C15.4797615,28.0558844 14.393156,27.7052422 13.6276514,26.9757009 C12.1570092,25.7657927 11.9245321,23.4166183 12.9700367,21.8586367 M2.67554128,19.228178 C2.74746789,19.2923982 2.74746789,19.2923982 2.67554128,19.228178 M2.76031193,4.14157248 C4.9900367,4.14285688 7.22361468,4.19551743 9.45333945,4.10560917 C10.5283853,4.12744404 11.6034312,4.04138899 12.6797615,4.09918716 C12.2713211,4.35093028 11.8076514,4.48450826 11.379945,4.69515046 C9.57150459,5.59166422 7.89921101,6.9505633 7.03609174,8.81423303 C5.77352294,11.4934991 6.426,14.961389 8.666,16.9239578 C9.16820183,17.494233 9.78214679,17.9823064 10.4641651,18.3175358 C14.3507706,18.3496459 18.239945,18.3201046 22.1278349,18.3316642 C22.1162752,18.2520312 22.0944404,18.0940495 22.0828807,18.0144165 C22.1021468,18.1043248 22.1419633,18.2828569 22.1625138,18.3727651 C23.5072844,17.5738661 24.719633,16.494967 25.4685688,15.1039578 C26.3483853,13.554967 26.5166422,11.6604716 26.0426972,9.95478349 C25.4826972,7.81625138 23.913156,6.05533394 22.0186606,4.97258165 C21.5318716,4.70414128 21.0540734,4.3933156 20.5030642,4.27258165 C20.4568257,4.22505872 20.3630642,4.12872844 20.3168257,4.0812055 C22.3911376,4.07606789 24.4693028,4.13643486 26.5423303,4.04909541 C27.6507706,4.06707706 28.7579266,3.98487523 29.8676514,4.02083853 C30.4893028,4.80047156 30.9337064,5.69441651 31.4513211,6.53955413 C31.5001284,6.73478349 31.572055,6.92359083 31.6709541,7.09955413 C32.198844,8.46744404 32.5186606,9.91368257 32.5828807,11.3804716 C32.606,13.6089119 32.0601284,15.8630404 30.9041651,17.7780862 C30.8425138,17.9463431 30.5715046,18.1364349 30.8373761,18.2957009 C30.3441651,18.3522147 30.1746239,18.9327651 29.9113211,19.2898294 C29.3898532,19.3668936 28.8618349,19.3296459 28.3379266,19.3347835 C19.9443486,19.3373523 11.552055,19.3347835 3.15976147,19.3360679 C1.1047156,17.0395541 -0.134733945,13.9505633 0.0116880734,10.8500128 C0.0553577982,9.31900367 0.563981651,7.83937064 1.246,6.48175596 C1.67884404,5.65845321 2.14122936,4.84157248 2.76031193,4.14157248 M7.48820183,0.0173522936 C10.8006789,-0.0121889908 14.113156,0.0160678899 17.425633,0.00322385321 C17.6465505,-0.0186110092 17.8480734,0.0725816514 18.0447156,0.162489908 C18.0845321,0.365425688 18.1680183,0.556801835 18.3015963,0.717352294 C19.1801284,1.91698532 19.7425688,3.30285688 20.2179266,4.70285688 C21.0489358,7.92285688 20.5942569,11.5384532 18.6933394,14.3127651 C18.4711376,14.6467101 18.2810459,15.1527651 17.8083853,15.161756 C14.7515046,15.1412055 11.6946239,15.1733156 8.63902752,15.1463431 C9.06288073,14.9112972 9.55994495,14.8534991 9.98765138,14.6223064 C11.3491193,13.9569853 12.5410459,12.8523982 13.1704037,11.4601046 C13.8100367,10.341389 14.0155413,9.03386606 14.1208624,7.76615963 C14.1837982,6.99294862 14.0232477,6.22230642 13.7548073,5.50047156 C13.3078349,4.47166422 12.7748073,3.46340734 12.019578,2.62469174 C10.826367,1.30817798 9.18104587,0.486159633 7.48820183,0.0173522936" id="Fill-1" fill="#004B7F" mask="url(#mask-2)"></path>
            </g>
        </g>
    </g>
</svg>