<?xml version="1.0" encoding="UTF-8"?>
<svg width="28px" height="28px" viewBox="0 0 28 28" version="1.1" xmlns="http://www.w3.org/2000/svg" xmlns:xlink="http://www.w3.org/1999/xlink">
    <!-- Generator: Sketch 64 (93537) - https://sketch.com -->
    <title>Group 8</title>
    <desc>Created with Sketch.</desc>
    <defs>
        <polygon id="path-1" points="0.0325489971 0.045982257 15.2362521 0.045982257 15.2362521 27.9193536 0.0325489971 27.9193536"></polygon>
    </defs>
    <g id="payment" stroke="none" stroke-width="1" fill="none" fill-rule="evenodd">
        <g id="pay" transform="translate(-1142.000000, -378.000000)">
            <g id="Group-8" transform="translate(1142.000000, 378.000000)">
                <g id="Group-3" transform="translate(11.873926, 0.034258)">
                    <mask id="mask-2" fill="white">
                        <use xlink:href="#path-1"></use>
                    </mask>
                    <g id="Clip-2"></g>
                    <path d="M6.18621089,27.9193536 L15.2363083,27.9193536 L15.2363083,4.76335358 C12.0718269,-2.76519656 0.835242407,0.253829226 0.0325489971,3.30783496 C2.81152894,1.74521032 5.12453754,1.42926762 6.18621089,3.90907278 L6.18621089,27.9193536 Z" id="Fill-1" fill="#2F2482" mask="url(#mask-2)"></path>
                </g>
                <path d="M9.05001719,0.0806945559 L0,0.0806945559 L0,23.2366143 C3.16440115,30.7652447 14.4009857,27.7461387 15.2037593,24.692133 C12.4246189,26.2547576 10.1117708,26.5707003 9.05001719,24.0909754 L9.05001719,0.0806945559 Z" id="Fill-4" fill="#2F2482"></path>
                <path d="M13.5550808,18.4498178 C15.9965364,18.4498178 17.9877456,16.4586086 17.9877456,14.017153 C17.9877456,11.5756974 15.9965364,9.58448825 13.5550808,9.58448825 C11.1137054,9.58448825 9.12249628,11.5756974 9.12249628,14.017153 C9.12249628,16.4586086 11.1137054,18.4498178 13.5550808,18.4498178" id="Fill-6" fill="#2F2482"></path>
            </g>
        </g>
    </g>
</svg>