<?xml version="1.0" encoding="UTF-8"?>
<svg width="21px" height="28px" viewBox="0 0 21 28" version="1.1" xmlns="http://www.w3.org/2000/svg" xmlns:xlink="http://www.w3.org/1999/xlink">
    <!-- Generator: Sketch 64 (93537) - https://sketch.com -->
    <title>Melli-logo-LimooGraphic</title>
    <desc>Created with Sketch.</desc>
    <g id="payment" stroke="none" stroke-width="1" fill="none" fill-rule="evenodd">
        <g id="pay" transform="translate(-1082.000000, -454.000000)">
            <g id="Melli-logo-LimooGraphic" transform="translate(1082.000000, 454.000000)">
                <path d="M9.93588235,0.866764706 C10.2127941,0.666029412 10.3219118,0.336617647 10.4629412,0.0422058824 C10.5535294,0.302647059 10.6307353,0.589852941 10.8592647,0.767941176 C11.9597059,1.67485294 13.4255882,1.91264706 14.6125,2.67029412 C15.155,3.00588235 15.6738235,3.39602941 16.0732353,3.89735294 C16.6229412,4.57058824 16.9111765,5.41882353 17.4855882,6.07352941 C17.7697059,6.40911765 18.1526471,6.63044118 18.5067647,6.88264706 C18.1526471,7.13691176 17.7357353,7.27279412 17.3280882,7.41176471 C17.5566176,7.61764706 17.8983824,7.89867647 18.2102941,7.70926471 C18.2761765,7.55588235 18.3029412,7.38911765 18.3605882,7.23264706 C18.5345588,7.16470588 18.6817647,7.29029412 18.8238235,7.37058824 C18.8577941,7.53838235 18.8938235,7.70617647 18.9339706,7.87397059 C19.3714706,7.94705882 19.4548529,8.39897059 19.5022059,8.7675 C19.4497059,8.84058824 19.3972059,8.91367647 19.3457353,8.98676471 C19.4764706,9.20294118 19.5938235,9.42632353 19.6895588,9.66102941 C19.5732353,9.93588235 19.4713235,10.2230882 19.2829412,10.4588235 C19.2705882,10.5679412 19.2592647,10.6770588 19.2479412,10.7872059 C19.6463235,11.0527941 19.5917647,11.5438235 19.5763235,11.9597059 C19.8027941,11.7682353 19.8758824,11.3657353 20.1754412,11.2977941 C20.4554412,11.4758824 20.5017647,11.8485294 20.5697059,12.1470588 C20.6448529,12.3766176 20.4832353,12.5742647 20.3957353,12.7729412 C20.5089706,12.9654412 20.6994118,13.1394118 20.6952941,13.3792647 C20.7580882,13.6417647 20.4925,13.7735294 20.3329412,13.9238235 C20.2752941,14.1286765 20.2835294,14.4086765 20.0364706,14.4817647 C19.7420588,14.5970588 19.5073529,14.8019118 19.3375,15.0664706 C19.6648529,15.1179412 19.6452941,15.4391176 19.7235294,15.6861765 C19.8182353,15.8004412 19.9355882,15.8920588 20.0426471,15.9939706 C20.2392647,15.9352941 20.4472059,15.7675 20.6551471,15.8848529 C20.7004412,16.2194118 20.6479412,16.5673529 20.5151471,16.8782353 C20.5192647,17.0089706 20.6489706,17.1952941 20.4914706,17.2807353 C20.3535294,17.3610294 20.2011765,17.4114706 20.0560294,17.4752941 C20.3020588,17.7470588 20.3257353,18.1227941 20.1723529,18.4491176 C20.0230882,18.4964706 19.8655882,18.5067647 19.7122059,18.5294118 C19.5155882,18.9885294 18.8392647,18.7198529 18.6714706,19.2191176 C18.7167647,19.46 18.7136765,19.705 18.7075,19.9489706 C18.9329412,19.8944118 19.1594118,19.8398529 19.3910294,19.8089706 C19.6339706,20.1198529 19.3827941,20.4626471 19.2901471,20.7786765 C19.1769118,20.9629412 19.0297059,21.1235294 18.9102941,21.3047059 C18.8155882,21.2769118 18.6272059,21.2213235 18.5325,21.1945588 C18.5397059,21.4179412 18.6025,21.6330882 18.6498529,21.8502941 C18.585,21.9769118 18.4707353,22.0675 18.3739706,22.1694118 C18.3225,22.3475 18.2730882,22.6089706 18.0239706,22.5564706 C17.4248529,22.4792647 16.87,22.7880882 16.4211765,23.1535294 C16.5426471,23.2698529 16.6980882,23.3861765 16.6929412,23.5745588 C16.7577941,23.8164706 16.4983824,23.9420588 16.3717647,24.1026471 C16.4119118,24.5308824 15.8817647,24.6852941 15.9661765,25.1320588 C16.2461765,25.1814706 16.5282353,25.2236765 16.8061765,25.2823529 C16.7732353,25.4017647 16.7454412,25.5232353 16.6970588,25.6385294 C16.5817647,25.6704412 16.4644118,25.6961765 16.3460294,25.7167647 C16.2194118,25.8238235 16.1051471,25.9504412 15.9558824,26.0255882 C15.8375,26.0070588 15.7222059,25.9730882 15.6069118,25.9432353 C15.5358824,26.2469118 15.2702941,26.4291176 15.0283824,26.5938235 C14.3860294,26.5248529 13.6952941,26.3364706 13.0817647,26.6401471 L13.2732353,26.7255882 C13.23,26.8089706 13.1455882,26.9747059 13.1023529,27.0570588 C13.8188235,26.9448529 14.6176471,26.8192647 15.2908824,27.1589706 C14.9172059,27.2238235 14.5373529,27.2032353 14.1626471,27.2464706 C14.3160294,27.4801471 14.4982353,27.6932353 14.6732353,27.9114706 C14.2151471,27.8116176 13.7457353,27.7498529 13.2763235,27.8023529 C12.8614706,27.8116176 12.3745588,27.8980882 12.0286765,27.6108824 C11.9123529,27.4647059 12.1604412,27.3720588 12.2180882,27.2608824 C11.7692647,27.2248529 11.2494118,27.2310294 10.9611765,26.8172059 C10.6966176,26.7955882 10.43,26.7657353 10.1685294,26.8285294 C10.0954412,26.7791176 10.0223529,26.7286765 9.94926471,26.6792647 C9.67441176,27.1229412 9.12470588,27.1167647 8.66764706,27.1672059 C8.76647059,27.2701471 8.86426471,27.3751471 8.96,27.4822059 C8.20338235,28.0298529 7.22235294,27.8383824 6.36485294,27.7169118 C6.51,27.5923529 6.65617647,27.4698529 6.80132353,27.3452941 C6.45132353,27.1497059 6.04470588,27.0735294 5.71838235,26.8367647 C6.42352941,26.8202941 7.12764706,27.0138235 7.83279412,26.8789706 C7.77720588,26.7482353 7.72264706,26.6164706 7.66911765,26.4847059 C7.84411765,26.4198529 8.02632353,26.3580882 8.21573529,26.3858824 C8.75720588,26.4363235 9.31411765,26.3889706 9.82264706,26.1882353 C8.95485294,26.1069118 8.08808824,26.3663235 7.21514706,26.2860294 C6.16514706,26.2623529 5.25617647,25.6766176 4.43161765,25.0847059 C4.22161765,24.8952941 3.93852941,24.9426471 3.68117647,24.9488235 C3.98794118,24.5216176 4.48720588,24.3054412 5.00088235,24.2652941 C4.92985294,24.0552941 4.86705882,23.8432353 4.80735294,23.6301471 C3.94779412,23.2719118 3.13147059,22.7747059 2.45926471,22.1272059 C2.05161765,21.7566176 1.96823529,21.1914706 1.72632353,20.7230882 C1.63470588,20.5048529 1.38352941,20.4626471 1.19514706,20.3648529 C1.61308824,20.1116176 2.12161765,20.1527941 2.56117647,20.3257353 C2.61264706,20.0127941 2.67544118,19.7019118 2.72794118,19.39 C1.99602941,18.9494118 1.37838235,18.3266176 0.9275,17.6019118 C0.674264706,17.2014706 0.646470588,16.7176471 0.544558824,16.2677941 C0.497205882,15.9877941 0.251176471,15.8292647 0.0669117647,15.6429412 C0.531176471,15.5791176 1.00367647,15.6532353 1.40205882,15.9075 C1.4875,15.6552941 1.58426471,15.4061765 1.67485294,15.1570588 C1.12617647,14.6598529 0.687647059,14.0113235 0.562058824,13.2722059 C0.390147059,12.5279412 0.688676471,11.7795588 0.550735294,11.0322059 C0.843088235,11.3832353 1.11588235,11.7507353 1.36191176,12.1357353 C1.52147059,11.8238235 1.7325,11.5427941 1.97235294,11.2885294 C1.72941176,10.9704412 1.52558824,10.6060294 1.49264706,10.1994118 C1.37426471,9.14529412 1.86735294,8.16735294 2.26161765,7.22441176 C2.63220588,7.41382353 2.93794118,7.76485294 2.87308824,8.21161765 C3.17882353,7.85235294 3.55558824,7.56514706 3.94882353,7.30779412 C3.53191176,7.08955882 3.07073529,6.89808824 2.79485294,6.49455882 C3.28897059,6.30720588 3.64,5.89029412 3.9375,5.47132353 C4.38632353,4.79294118 4.78573529,4.07235294 5.35294118,3.48147059 C5.95720588,2.81647059 6.73029412,2.31720588 7.56720588,1.995 C8.38147059,1.68 9.23691176,1.40926471 9.93588235,0.866764706 M10.4475,0.623823529 C9.71352941,1.52764706 8.52352941,1.81073529 7.49514706,2.24205882 C6.6675,2.57764706 5.92323529,3.11294118 5.34161765,3.79132353 C4.54279412,4.68588235 4.12897059,5.90161765 3.11808824,6.60779412 C3.44441176,6.82397059 3.79647059,6.99588235 4.13720588,7.18735294 C4.62617647,7.44779412 4.92367647,7.94397059 5.39720588,8.225 C6.09720588,7.14823529 7,6.16926471 8.14882353,5.56808824 C9.35426471,4.90514706 10.8448529,4.77029412 12.1377941,5.25514706 C13.5882353,5.78220588 14.7144118,6.93823529 15.5266176,8.21882353 C15.8251471,8.08911765 16.1082353,7.92235294 16.3532353,7.70720588 C16.8576471,7.25838235 17.5473529,7.15235294 18.1505882,6.89294118 C17.8664706,6.68602941 17.5689706,6.49147059 17.3404412,6.22176471 C16.7475,5.54647059 16.4572059,4.67044118 15.8827941,3.98279412 C15.3320588,3.31367647 14.5795588,2.84941176 13.8147059,2.46338235 C12.6638235,1.91882353 11.3266176,1.60485294 10.4475,0.623823529 M9.21735294,5.34779412 C7.72676471,5.78426471 6.52029412,6.88985294 5.68235294,8.16838235 C4.13514706,10.5319118 3.64308824,13.4966176 4.08676471,16.2636765 C4.41411765,18.3317647 5.26029412,20.3730882 6.74985294,21.8739706 C9.24102941,21.8729412 11.7311765,21.8369118 14.2202941,21.77 C15.3783824,20.5779412 16.1267647,19.0389706 16.5477941,17.4444118 C17.2385294,14.7916176 17.0491176,11.8969118 15.9167647,9.39235294 C15.2569118,7.95941176 14.2583824,6.62735294 12.8769118,5.82338235 C11.7867647,5.18102941 10.4361765,4.98235294 9.21735294,5.34779412 M3.73779412,8.99191176 C4.08161765,8.73970588 4.49647059,8.63367647 4.9175,8.61514706 C4.67764706,9.21117647 4.39044118,9.79073529 4.04147059,10.3311765 C3.72029412,10.8335294 3.17367647,11.1166176 2.64661765,11.3564706 C2.66514706,11.5819118 2.68058824,11.8073529 2.69397059,12.0327941 C2.96367647,11.8320588 3.23852941,11.6395588 3.51338235,11.445 C3.395,11.9854412 3.63382353,12.5382353 3.47529412,13.0735294 C3.20661765,13.9670588 2.66720588,14.7782353 2.56632353,15.7201471 C2.83808824,15.3742647 3.11294118,15.0273529 3.31676471,14.6351471 C3.43823529,15.0407353 3.24264706,15.4689706 3.40014706,15.8652941 C3.56279412,16.3172059 3.71411765,16.7927941 3.63279412,17.2797059 C3.59470588,17.9261765 3.29823529,18.5180882 3.21588235,19.1542647 C3.31573529,19.4435294 3.58029412,19.6504412 3.73779412,19.9108824 C3.86852941,19.5125 4.10632353,19.1594118 4.21955882,18.7527941 C4.42955882,19.0935294 4.53970588,19.4795588 4.655,19.8594118 C4.78470588,20.2969118 5.07088235,20.6685294 5.18411765,21.1122059 C5.35911765,21.7082353 5.35911765,22.3464706 5.22838235,22.9527941 C5.47029412,23.0577941 5.70808824,23.1710294 5.94382353,23.2914706 C5.84191176,22.8426471 5.93455882,22.3783824 5.82852941,21.9285294 C6.10235294,22.1230882 6.23926471,22.4339706 6.43279412,22.6964706 C6.72823529,23.0289706 7.1925,23.1669118 7.45705882,23.5333824 C7.79985294,24.045 7.90485294,24.6636765 8.12308824,25.2298529 C8.17970588,25.4460294 8.44220588,25.4779412 8.59352941,25.6035294 C8.20647059,25.3080882 8.39588235,24.8088235 8.37426471,24.4022059 C8.39073529,23.9966176 8.89,24.1417647 9.15352941,24.1376471 C9.59308824,24.2025 9.97397059,23.9348529 10.3939706,23.8761765 C10.7830882,23.9008824 11.1248529,24.1839706 11.5283824,24.1139706 C11.8608824,24.1242647 12.2592647,23.9832353 12.5454412,24.2086765 C12.6658824,24.4866176 12.6586765,24.8345588 12.5588235,25.1176471 C12.3045588,25.3173529 12.0389706,25.5057353 11.8320588,25.76 C12.2963235,25.7147059 12.5958824,25.3852941 12.8161765,25.0126471 C12.8470588,24.8119118 12.8501471,24.5916176 12.9891176,24.4289706 C13.1661765,24.2416176 13.1486765,23.975 13.2269118,23.7464706 C13.3926471,23.625 13.5738235,23.5251471 13.7354412,23.3964706 C13.9083824,23.2369118 14.1894118,23.2791176 14.3376471,23.0835294 C14.4642647,22.9836765 14.5754412,22.7798529 14.7648529,22.8323529 C14.9264706,22.8467647 14.9470588,23.0310294 15.0180882,23.1442647 C15.4041176,22.8117647 15.6367647,22.3341176 15.6604412,21.8245588 C15.6285294,21.5795588 15.4895588,21.3654412 15.4072059,21.1348529 C15.5863235,20.8898529 15.7757353,20.6448529 16.0619118,20.5202941 C16.0011765,20.2969118 15.9939706,20.0570588 16.1720588,19.8830882 C16.4427941,19.6247059 16.3635294,19.1439706 16.7475,18.9947059 C16.9183824,19.2098529 17.0830882,19.4311765 17.2817647,19.6247059 C17.5102941,19.3405882 17.6276471,18.9864706 17.6822059,18.6302941 C17.7377941,18.13 17.3044118,17.7645588 17.2241176,17.2972059 C17.2858824,16.9986765 17.3723529,16.6816176 17.6894118,16.5673529 C17.5751471,16.4108824 17.4567647,16.2554412 17.3425,16.0989706 C17.4598529,15.995 17.5885294,15.9054412 17.7192647,15.8179412 C17.7563235,15.6141176 17.6492647,15.2919118 17.9261765,15.2332353 C18.1052941,15.1508824 18.2473529,15.3897059 18.4038235,15.4576471 C18.1845588,14.9522059 17.6883824,14.5455882 17.7902941,13.9433824 C17.6760294,13.8558824 17.5617647,13.7673529 17.4536765,13.6726471 C17.5895588,13.4533824 17.5813235,13.2114706 17.5401471,12.9685294 C17.8098529,12.5825 17.6595588,12.1110294 17.4855882,11.7198529 C17.6070588,11.6725 17.7202941,11.5510294 17.8592647,11.5767647 C17.9992647,11.6941176 18.1104412,11.8413235 18.2339706,11.9751471 C18.3451471,11.8207353 18.4552941,11.6652941 18.5654412,11.5098529 C18.4285294,11.3369118 18.2988235,11.1526471 18.1258824,11.0136765 C17.9076471,10.8345588 17.6039706,10.8623529 17.36,10.7419118 C17.2385294,10.6142647 17.1541176,10.4577941 17.0583824,10.3116176 C16.7176471,10.0975 16.2822059,9.73720588 16.4973529,9.28941176 C16.3295588,8.98367647 16.1288235,8.67485294 16.0814706,8.32485294 C16.0444118,8.28367647 16.0073529,8.24352941 15.9702941,8.20338235 C15.8838235,8.25176471 15.7098529,8.34852941 15.6233824,8.39691176 C17.0645588,10.8664706 17.4495588,13.8733824 16.9307353,16.6651471 C16.5405882,18.7023529 15.6522059,20.7076471 14.1225,22.1447059 C13.1270588,23.0938235 11.7888235,23.7320588 10.3960294,23.7104412 C8.86117647,23.7135294 7.42308824,22.9116176 6.40294118,21.8008824 C5.01220588,20.2979412 4.2175,18.3255882 3.88808824,16.3233824 C3.45882353,13.6273529 3.88602941,10.7563235 5.29941176,8.4 C4.82897059,8.13132353 4.52735294,7.66294118 4.08058824,7.36338235 C3.78926471,7.8575 3.77691176,8.43705882 3.73779412,8.99191176 M18.0445588,8.00779412 C18.1855882,8.29294118 18.5355882,8.33205882 18.7435294,8.54514706 C18.8505882,8.72220588 18.7126471,8.92602941 18.6879412,9.10926471 C19.1058824,9.61985294 18.8402941,10.3126471 18.8402941,10.9066176 C18.9236765,10.8623529 19.0070588,10.8180882 19.0914706,10.7727941 C19.1058824,10.6482353 19.1213235,10.5247059 19.1377941,10.4001471 C19.2870588,10.1675 19.4105882,9.92147059 19.5279412,9.67132353 C19.4280882,9.47161765 19.3117647,9.27911765 19.2407353,9.06705882 C19.2551471,8.80455882 19.3683824,8.52044118 19.2232353,8.27441176 C19.0852941,8.11073529 18.8505882,8.0325 18.7723529,7.82044118 C18.6910294,7.64338235 18.6179412,7.46323529 18.5345588,7.28720588 C18.4542647,7.57955882 18.3297059,7.86161765 18.0445588,8.00779412 M1.62955882,9.88132353 C1.61926471,10.3651471 1.77470588,10.8705882 2.15352941,11.1917647 C2.24926471,10.5823529 2.17926471,9.95338235 2.33470588,9.35117647 C2.42426471,8.89926471 2.71147059,8.49985294 2.71147059,8.02838235 C2.71044118,7.78029412 2.49941176,7.61147059 2.36661765,7.42514706 C1.99602941,8.19617647 1.64191176,9.01147059 1.62955882,9.88132353 M16.0588235,8.16838235 C16.3810294,8.31352941 16.7402941,8.30838235 17.0789706,8.38764706 C17.0810294,8.09014706 17.0666176,7.79161765 17.0316176,7.49617647 C16.6836765,7.68558824 16.3861765,7.94911765 16.0588235,8.16838235 M17.1839706,7.52705882 C17.2364706,7.84720588 17.2385294,8.17352941 17.2097059,8.49676471 C17.3332353,8.61308824 17.4547059,8.7325 17.5751471,8.85294118 C17.4886765,8.95588235 17.4011765,9.05779412 17.3136765,9.16073529 C17.4125,9.41191176 17.6636765,9.49941176 17.8777941,9.625 C17.9138235,9.76397059 17.9292647,9.90705882 17.9498529,10.0491176 C18.2123529,10.3219118 18.5088235,10.5669118 18.7085294,10.8932353 C18.7064706,10.4155882 18.7795588,9.93897059 18.7383824,9.46029412 C18.4069118,9.25955882 18.5427941,8.91882353 18.6467647,8.62955882 C18.4439706,8.52044118 18.2277941,8.43294118 18.0352941,8.30735294 C17.9560294,8.19102941 17.9117647,8.05514706 17.8345588,7.93676471 C17.6163235,7.80294118 17.3847059,7.68867647 17.1839706,7.52705882 M2.76911765,8.63676471 C2.41911765,9.24926471 2.38823529,9.97294118 2.35838235,10.6595588 C2.44588235,10.7872059 2.53029412,10.9179412 2.61367647,11.0486765 C2.88029412,10.6925 3.16955882,10.3466176 3.35794118,9.94 C3.71514706,9.20808824 3.53294118,8.36294118 3.76764706,7.59808824 C3.40014706,7.90588235 3.00073529,8.20544118 2.76911765,8.63676471 M16.2297059,8.41647059 C16.3748529,8.71911765 16.52,9.02176471 16.7011765,9.30485294 C16.6507353,9.40264706 16.6013235,9.50044118 16.5519118,9.59823529 C16.7217647,9.83088235 16.9245588,10.0388235 17.1695588,10.1942647 C17.3064706,10.4032353 17.43,10.6760294 17.7182353,10.6863235 C18.0785294,10.7377941 18.3441176,10.9951471 18.6097059,11.2185294 C18.5160294,10.5947059 17.7604412,10.3733824 17.7192647,9.73 C17.4104412,9.63838235 17.2241176,9.39235294 17.1510294,9.08764706 C17.2076471,9.02382353 17.3229412,8.89720588 17.3795588,8.83441176 C17.0583824,8.54823529 16.6527941,8.42882353 16.2297059,8.41647059 M3.81602941,9.17720588 C3.70176471,9.36147059 3.66470588,9.57970588 3.58852941,9.78044118 C3.42279412,10.2858824 3.07073529,10.6935294 2.77735294,11.1258824 C3.06661765,10.9776471 3.36205882,10.8294118 3.60191176,10.6060294 C4.11352941,10.1005882 4.38220588,9.41088235 4.68176471,8.77058824 C4.37705882,8.85602941 4.025,8.91470588 3.81602941,9.17720588 M18.9761765,11.0342647 C18.8114706,11.3760294 18.6416176,11.7167647 18.3976471,12.0111765 C18.5222059,12.1295588 18.6508824,12.2458824 18.76,12.3797059 C18.6488235,12.5104412 18.4954412,12.5917647 18.3564706,12.6864706 C18.4305882,12.9633824 18.5541176,13.2227941 18.6436765,13.4935294 C18.6148529,13.6427941 18.5180882,13.7652941 18.4522059,13.8991176 C18.5695588,14.0483824 18.7147059,14.1822059 18.7908824,14.3592647 C18.8577941,14.7113235 18.8042647,15.0726471 18.8289706,15.4277941 C18.9741176,15.1755882 19.0894118,14.9069118 19.1645588,14.6258824 C19.2633824,14.2233824 19.4867647,13.8692647 19.6576471,13.4966176 C19.4960294,13.2001471 19.4064706,12.8697059 19.6329412,12.5794118 C19.2922059,12.2263235 19.4383824,11.7435294 19.425,11.3101471 C19.3961765,11.1145588 19.1625,10.7985294 18.9761765,11.0342647 M1.44220588,12.4651471 C1.32897059,13.1383824 1.56985294,13.7992647 1.78602941,14.4261765 C1.91058824,14.5363235 2.03102941,14.6505882 2.14941176,14.7679412 C2.11852941,13.5017647 2.79794118,12.2695588 2.41397059,11.0044118 C2.05985294,11.4655882 1.55029412,11.8619118 1.44220588,12.4651471 M19.5711765,12.1635294 C19.6463235,12.2901471 19.7276471,12.4136765 19.7873529,12.5495588 C19.7544118,12.6977941 19.6998529,12.8408824 19.6504412,12.9839706 C19.7029412,13.2125 19.8614706,13.4523529 19.7369118,13.6839706 C19.5701471,14.0586765 19.3704412,14.42 19.25,14.8142647 C19.4929412,14.6032353 19.7770588,14.4529412 20.0405882,14.2727941 C20.1466176,14.1019118 20.1702941,13.8826471 20.3216176,13.7395588 C20.3977941,13.6242647 20.5645588,13.5491176 20.5552941,13.3936765 C20.4842647,13.1692647 20.335,12.9819118 20.2516176,12.7636765 C20.3010294,12.6102941 20.3761765,12.4661765 20.4472059,12.3210294 C20.3875,12.0152941 20.3,11.7147059 20.1867647,11.4244118 C19.9973529,11.6838235 19.7945588,11.9329412 19.5711765,12.1635294 M0.77,11.5602941 C0.707205882,12.0585294 0.622794118,12.5629412 0.687647059,13.0652941 C0.784411765,13.8126471 1.16220588,14.5352941 1.77264706,14.9872059 C1.66867647,14.3922059 1.35985294,13.8527941 1.28882353,13.2505882 C1.23838235,12.9283824 1.28779412,12.6 1.2425,12.2788235 C1.1375,12.0091176 0.938823529,11.7919118 0.77,11.5602941 M17.6801471,11.6735294 C17.7851471,12.0358824 17.8644118,12.4075 17.8510294,12.7873529 C17.8036765,12.8594118 17.7573529,12.9325 17.7110294,13.0055882 C17.7655882,13.2238235 17.7316176,13.4420588 17.6482353,13.6469118 C17.7470588,13.7158824 17.8479412,13.7848529 17.9477941,13.8548529 C17.9663235,14.0926471 17.9148529,14.3592647 18.0641176,14.5661765 C18.2947059,14.9161765 18.4923529,15.2867647 18.6189706,15.6882353 C18.6560294,15.3320588 18.6817647,14.9727941 18.6601471,14.6145588 C18.6580882,14.3283824 18.4048529,14.1420588 18.2957353,13.8970588 C18.3441176,13.755 18.4141176,13.6222059 18.4779412,13.4873529 C18.3616176,13.2032353 18.1814706,12.9119118 18.2360294,12.5927941 C18.3327941,12.5011765 18.445,12.4280882 18.5530882,12.3488235 C18.2432353,12.1480882 17.9601471,11.9123529 17.6801471,11.6735294 M2.63426471,12.5536765 C2.50867647,13.4811765 2.11235294,14.4416176 2.42323529,15.3701471 C2.65691176,14.6701471 2.95955882,13.9958824 3.23544118,13.3123529 C3.44647059,12.8254412 3.36514706,12.2891176 3.30441176,11.7805882 C3.03676471,11.9916176 2.63529412,12.1563235 2.63426471,12.5536765 M1.54205882,16.5745588 C1.72529412,17.4485294 2.25235294,18.2051471 2.80617647,18.8876471 C2.76088235,18.2504412 2.81235294,17.6142647 2.81852941,16.9791176 C2.80102941,16.1545588 2.33779412,15.4514706 1.94352941,14.7607353 C1.82823529,15.3701471 1.39897059,15.9322059 1.54205882,16.5745588 M2.8,15.9466176 C2.85867647,16.3614706 3.01102941,16.7660294 2.98117647,17.1911765 C2.94926471,17.8222059 2.91735294,18.4563235 3.00176471,19.0852941 C3.28897059,18.2936765 3.57823529,17.4526471 3.45985294,16.6002941 C3.3425,16.1360294 3.14485294,15.6882353 3.14794118,15.1992647 C2.99044118,15.4226471 2.75882353,15.6480882 2.8,15.9466176 M18.5819118,15.8447059 C18.6055882,15.9764706 18.6220588,16.1092647 18.6333824,16.2441176 C18.4295588,16.4047059 18.2216176,16.5622059 18.0394118,16.7485294 C18.1289706,16.8669118 18.2195588,16.9863235 18.3101471,17.1057353 C18.1866176,17.1685294 18.0630882,17.2313235 17.9385294,17.2941176 C18.0188235,17.8036765 18.1783824,18.3029412 18.1948529,18.8197059 C18.1258824,19.1172059 17.8922059,19.3467647 17.7830882,19.6308824 C18.3183824,19.3858824 18.5479412,18.7847059 18.8207353,18.3008824 C18.9751471,18.1073529 19.2335294,18.0229412 19.3755882,17.8201471 C19.3652941,17.6482353 19.3282353,17.4794118 19.3251471,17.3075 C19.4435294,17.2035294 19.5794118,17.1201471 19.6998529,17.0182353 C19.8182353,16.7176471 19.8439706,16.3892647 19.8810294,16.0701471 C19.6072059,15.8735294 19.4877941,15.5657353 19.4558824,15.2383824 C19.1552941,15.4267647 18.8814706,15.6552941 18.5819118,15.8447059 M17.5689706,16.1195588 C17.6472059,16.2760294 17.8891176,16.4386765 17.7686765,16.6322059 C17.6183824,16.8452941 17.4629412,17.0552941 17.3497059,17.2930882 C17.5154412,17.6626471 17.7542647,18.0085294 17.8263235,18.4141176 C17.8777941,18.9411765 17.6111765,19.4208824 17.3363235,19.8491176 C17.6657353,19.5907353 17.85,19.1985294 18.0198529,18.8269118 C18.0497059,18.2761765 17.7995588,17.7542647 17.7861765,17.2066176 C17.8726471,17.1469118 17.9622059,17.0913235 18.0538235,17.0377941 C17.9920588,16.9276471 17.9313235,16.8175 17.8716176,16.7063235 C18.0630882,16.5004412 18.2638235,16.3027941 18.4913235,16.135 C18.4213235,15.8210294 18.2710294,15.5286765 18.0064706,15.3351471 C17.8397059,15.5986765 17.9395588,16.0052941 17.5689706,16.1195588 M0.527058824,15.7335294 C0.806029412,16.3872059 0.7525,17.1613235 1.20235294,17.7419118 C1.62955882,18.3235294 2.135,18.8855882 2.79176471,19.2119118 C2.21941176,18.3204412 1.4525,17.4691176 1.35676471,16.3645588 C1.40720588,15.8951471 0.847205882,15.8529412 0.527058824,15.7335294 M20.0477941,16.1525 C19.9942647,16.4716176 19.9325,16.7886765 19.8758824,17.1067647 C19.7430882,17.2004412 19.6092647,17.2910294 19.4754412,17.3826471 C19.5073529,17.6039706 19.6442647,17.9025 19.3910294,18.0445588 C19.1058824,18.2380882 18.8423529,18.4655882 18.7291176,18.8042647 C18.9813235,18.7383824 19.2695588,18.7270588 19.4661765,18.5345588 C19.6329412,18.3595588 19.8727941,18.3276471 20.0992647,18.2864706 C20.1558824,17.9786765 20.0323529,17.6986765 19.8892647,17.4372059 C20.0683824,17.3229412 20.2547059,17.2189706 20.44,17.1139706 C20.4091176,17.0604412 20.3463235,16.9523529 20.3154412,16.8988235 C20.4667647,16.6157353 20.5089706,16.2955882 20.5398529,15.9805882 C20.3751471,16.0372059 20.2114706,16.0938235 20.0477941,16.1525 M2.90088235,19.1213235 C2.89985294,19.7266176 2.54779412,20.3555882 2.84220588,20.9382353 C3.21794118,21.7041176 3.86338235,22.2867647 4.48102941,22.8570588 C4.32044118,22.3011765 4.25764706,21.7267647 4.16088235,21.1595588 C3.99411765,20.3514706 3.43205882,19.7183824 2.90088235,19.1213235 M3.93338235,20.0601471 C4.03323529,20.4410294 4.26382353,20.7786765 4.32558824,21.1729412 C4.41205882,21.6845588 4.47897059,22.2002941 4.59529412,22.7067647 C4.76514706,22.7602941 4.93705882,22.8086765 5.10897059,22.8570588 C5.21294118,22.1066176 5.19338235,21.3057353 4.82176471,20.6263235 C4.56338235,20.1620588 4.42029412,19.6483824 4.26897059,19.1429412 C4.12588235,19.4322059 3.88191176,19.7173529 3.93338235,20.0601471 M16.1823529,20.5892647 C15.9733824,20.7714706 15.7561765,20.9454412 15.5822059,21.1636765 C15.6655882,21.3777941 15.8014706,21.5826471 15.8138235,21.8183824 C15.7973529,22.1385294 15.6769118,22.4411765 15.6079412,22.7510294 C16.0557353,22.3588235 15.9404412,21.7061765 16.3048529,21.2697059 C16.2410294,21.1564706 16.1772059,21.0432353 16.1144118,20.9310294 C16.2616176,20.7025 16.3625,20.4472059 16.5097059,20.2197059 C16.6733824,20.1764706 16.8442647,20.1702941 17.0120588,20.1507353 C17.0614706,20.0272059 17.1819118,19.9129412 17.1582353,19.7719118 C17.0192647,19.5516176 16.835,19.3622059 16.6785294,19.1532353 C16.5889706,19.67 16.1061765,20.0375 16.1823529,20.5892647 M17.7244118,19.7894118 C17.4341176,19.8758824 17.2508824,20.1301471 17.0182353,20.3051471 C16.8772059,20.3411765 16.73,20.3442647 16.5869118,20.3627941 C16.5014706,20.5666176 16.4098529,20.7683824 16.2955882,20.9588235 C16.3697059,21.0689706 16.4417647,21.1801471 16.5158824,21.2913235 C16.1051471,21.6310294 16.2420588,22.2188235 15.9147059,22.6069118 C15.6367647,23.0289706 15.2136765,23.3295588 14.945,23.7588235 C15.3989706,23.4767647 15.7005882,23.0145588 16.1514706,22.7283824 C16.4901471,22.5111765 16.7917647,22.2414706 17.0758824,21.9563235 C17.0748529,21.7833824 17.0501471,21.6052941 17.1057353,21.4385294 C17.3713235,21.315 17.6729412,21.4035294 17.9560294,21.3808824 C18.0157353,21.0411765 18.0044118,20.6922059 18.0847059,20.3566176 C18.1248529,20.1445588 18.3842647,20.1435294 18.5386765,20.0539706 C18.55,19.8161765 18.5592647,19.5773529 18.5623529,19.3395588 C18.2977941,19.5166176 18.0363235,19.7060294 17.7244118,19.7894118 M18.2339706,20.3555882 C18.1825,20.72 18.2,21.1008824 18.0672059,21.4498529 C17.8325,21.6320588 17.5041176,21.5105882 17.2282353,21.5352941 C17.2138235,21.7185294 17.3435294,21.9573529 17.1695588,22.0942647 C16.6435294,22.6614706 15.9136765,22.9898529 15.4226471,23.5941176 C15.7201471,23.4911765 16.0372059,23.3933824 16.2492647,23.1442647 C16.7176471,22.645 17.4073529,22.2960294 18.1052941,22.4041176 C18.2061765,22.1951471 18.3307353,21.9995588 18.4419118,21.7967647 C18.4285294,21.5527941 18.3101471,21.2758824 18.4872059,21.0607353 C18.6148529,21.0535294 18.7435294,21.0658824 18.8711765,21.0730882 C19.1275,20.79 19.2747059,20.4307353 19.3601471,20.0622059 C19.3302941,20.0405882 19.2695588,19.9983824 19.2397059,19.9767647 C18.8804412,20.0272059 18.5623529,20.2145588 18.2339706,20.3555882 M1.65014706,20.3133824 C2.08558824,20.8702941 2.11235294,21.6670588 2.67955882,22.1302941 C3.3075,22.6666176 4.00647059,23.1463235 4.78779412,23.4294118 C4.51911765,23.0444118 4.13205882,22.7716176 3.80779412,22.4401471 C3.30544118,21.9367647 2.80617647,21.3891176 2.58382353,20.6983824 C2.49632353,20.2866176 1.96411765,20.3802941 1.65014706,20.3133824 M6.85794118,21.9872059 C7.02470588,22.1282353 7.19352941,22.2672059 7.36132353,22.4072059 C9.36970588,22.4329412 11.3760294,22.3557353 13.3833824,22.3516176 C13.7035294,22.3577941 13.8898529,22.0541176 14.1194118,21.8811765 C11.6992647,21.9213235 9.27911765,21.9954412 6.85794118,21.9872059 M7.5075,22.5255882 C7.77205882,22.6655882 8.01088235,22.9363235 8.33617647,22.9075 C9.84941176,22.9002941 11.3647059,22.8961765 12.8758824,22.8117647 C13.0869118,22.7283824 13.2619118,22.5770588 13.4472059,22.4494118 C11.4676471,22.4782353 9.48705882,22.5338235 7.5075,22.5255882 M6.03338235,22.4576471 C6.04470588,22.7355882 5.99426471,23.0433824 6.15176471,23.2925 C6.27323529,23.4757353 6.4575,23.6044118 6.615,23.7536765 C7.10191176,24.1829412 7.41279412,24.7758824 7.92647059,25.1783824 C7.79161765,24.6986765 7.65676471,24.2127941 7.42411765,23.7701471 C7.25220588,23.4222059 6.88161765,23.2605882 6.58720588,23.0382353 C6.36485294,22.8838235 6.20529412,22.6625 6.03338235,22.4576471 M4.71882353,22.9311765 C4.87529412,23.3130882 4.98647059,23.7104412 5.10897059,24.1047059 C5.23147059,24.5360294 5.64117647,24.7902941 6.01794118,24.9807353 C6.78691176,25.3492647 7.63102941,25.5191176 8.45867647,25.7033824 C8.14058824,25.5170588 7.81632353,25.3317647 7.56102941,25.0620588 C7.05764706,24.5422059 6.68191176,23.8802941 6.04058824,23.5097059 C5.61852941,23.2780882 5.17279412,23.0897059 4.71882353,22.9311765 M8.37117647,23.0279412 C9.69808824,23.6919118 11.3492647,23.6713235 12.6463235,22.9425 C11.2216176,22.9733824 9.79588235,23.0248529 8.37117647,23.0279412 M13.9330882,23.4572059 C13.7447059,23.5961765 13.5532353,23.7289706 13.3576471,23.8555882 C13.3247059,24.1366176 13.2464706,24.4094118 13.0591176,24.6286765 C12.9952941,24.9498529 12.8604412,25.2494118 12.6864706,25.5263235 C12.8902941,25.4007353 13.1167647,25.2977941 13.2825,25.1197059 C13.4019118,24.9436765 13.4647059,24.7357353 13.5470588,24.5411765 C13.6726471,24.5216176 13.7972059,24.5041176 13.9227941,24.4855882 C13.9876471,24.3054412 13.9907353,24.0676471 14.1760294,23.9605882 C14.3222059,23.8566176 14.5023529,23.9389706 14.6629412,23.9410294 C14.7175,23.8267647 14.7741176,23.7135294 14.8307353,23.6013235 C14.8091176,23.38 14.7988235,23.1586765 14.77,22.9383824 C14.5023529,23.1339706 14.2861765,23.4170588 13.9330882,23.4572059 M14.9419118,23.4170588 C15.0819118,23.4510294 15.1313235,23.3964706 15.0911765,23.2523529 C14.9511765,23.2173529 14.9017647,23.2729412 14.9419118,23.4170588 M14.8575,23.8947059 C14.8122059,24.0079412 14.7669118,24.1211765 14.7216176,24.2344118 C14.5980882,24.1602941 14.4755882,24.0851471 14.3530882,24.0110294 C14.1564706,24.1705882 14.0988235,24.4125 14.0463235,24.6482353 C13.9217647,24.6554412 13.7982353,24.6616176 13.6757353,24.6698529 C13.5697059,24.9025 13.5038235,25.1732353 13.2876471,25.3338235 C12.8717647,25.6920588 12.3086765,25.7538235 11.8052941,25.9175 C12.2469118,25.9030882 12.6977941,25.9092647 13.1280882,25.7970588 C13.5748529,25.6323529 13.9886765,25.3770588 14.4611765,25.2823529 C14.5301471,25.4007353 14.5991176,25.5191176 14.6680882,25.6375 C15.0119118,25.5901471 14.9820588,25.2308824 15.1292647,24.9992647 C15.3444118,25.0033824 15.5719118,25.1742647 15.7767647,25.0620588 C15.8529412,24.8036765 15.9342647,24.5442647 16.1452941,24.3610294 C16.1597059,24.0707353 16.3563235,23.8658824 16.5591176,23.6805882 C16.5364706,23.5951471 16.4922059,23.4252941 16.4705882,23.3398529 C15.9435294,23.5508824 15.4329412,23.8432353 14.8575,23.8947059 M9.46544118,24.2817647 C9.15558824,24.2992647 8.84470588,24.2745588 8.53485294,24.2725 C8.52455882,24.6152941 8.51735294,24.9570588 8.51529412,25.2998529 C8.88176471,25.4676471 9.23485294,25.6673529 9.55808824,25.9092647 C9.64764706,25.8104412 9.73720588,25.7105882 9.82676471,25.6117647 C9.50455882,25.2607353 9.17926471,24.9127941 8.83235294,24.5875 C8.86014706,24.5597059 8.91573529,24.5051471 8.94455882,24.4783824 C9.13088235,24.6647059 9.31926471,24.8510294 9.50455882,25.0383824 C9.75367647,24.9158824 10.0079412,24.7686765 10.2941176,24.7697059 C10.6626471,24.7676471 11.0147059,24.8963235 11.3575,25.0157353 C11.6230882,24.8829412 11.8742647,24.7223529 12.1439706,24.5977941 C12.0204412,24.8633824 11.7548529,24.9910294 11.5098529,25.1207353 C11.3122059,25.2154412 11.2308824,25.4336765 11.1125,25.6035294 C11.2277941,25.69 11.3420588,25.7764706 11.4583824,25.8629412 C11.7919118,25.5747059 12.1069118,25.2669118 12.4466176,24.9869118 C12.4919118,24.7511765 12.46,24.5092647 12.4527941,24.2725 C12.1089706,24.2302941 11.7641176,24.2570588 11.4202941,24.2725 C11.0579412,24.2992647 10.7460294,24.0717647 10.3970588,24.0244118 C10.0789706,24.0851471 9.79176471,24.2632353 9.46544118,24.2817647 M4.07132353,24.7079412 C4.77852941,25.0723529 5.37455882,25.6344118 6.13323529,25.9010294 C7.17602941,26.3158824 8.31044118,26.0739706 9.39441176,26.0348529 C8.59970588,25.8567647 7.78647059,25.76 7.00720588,25.5170588 C6.28352941,25.2998529 5.52794118,25.0239706 5.03588235,24.4186765 C4.70235294,24.4680882 4.37911765,24.5689706 4.07132353,24.7079412 M9.61264706,25.1495588 C9.70632353,25.2586765 9.80205882,25.3667647 9.89882353,25.4748529 C10.2694118,25.4511765 10.6513235,25.3904412 11.0167647,25.4861765 C11.0836765,25.3636765 11.1495588,25.2422059 11.2164706,25.1217647 C10.7007353,24.9210294 10.1026471,24.8232353 9.61264706,25.1495588 M15.19,25.1804412 C15.1508824,25.3760294 15.1601471,25.6560294 14.9141176,25.7136765 C14.665,25.8475 14.4642647,25.6344118 14.3119118,25.4666176 C13.8785294,25.6230882 13.4801471,25.8680882 13.0344118,25.9885294 C12.565,26.0677941 12.0842647,26.0451471 11.6158824,26.1285294 C12.1738235,26.1830882 12.7297059,26.2397059 13.2783824,26.3601471 C13.8435294,26.3045588 14.4210294,26.2726471 14.9717647,26.4507353 C15.2229412,26.2757353 15.3907353,26.0235294 15.5492647,25.7672059 C15.68,25.7867647 15.8076471,25.8238235 15.9363235,25.8557353 C16.1463235,25.6477941 16.4088235,25.5160294 16.6867647,25.4233824 C16.4139706,25.3667647 16.1401471,25.3142647 15.8673529,25.2576471 C15.6388235,25.2689706 15.4123529,25.2319118 15.19,25.1804412 M10.1376471,25.585 C10.0151471,25.6755882 9.89470588,25.7713235 9.77529412,25.8670588 C9.85352941,26.1480882 9.94205882,26.4352941 10.1407353,26.6586765 C10.3929412,26.6236765 10.6472059,26.6411765 10.9004412,26.6411765 C11.1001471,26.4486765 11.1701471,26.1686765 11.2761765,25.9226471 C11.0991176,25.7919118 10.92,25.6663235 10.7347059,25.5479412 C10.5411765,25.6189706 10.3383824,25.6344118 10.1376471,25.585 M11.1505882,26.3457353 C11.7280882,26.5958824 12.3663235,26.5691176 12.9808824,26.5752941 C12.9839706,26.5433824 12.9911765,26.4785294 12.9942647,26.4466176 C12.5516176,26.3436765 12.0966176,26.3447059 11.6477941,26.2922059 C11.48,26.2654412 11.3091176,26.2808824 11.1505882,26.3457353 M7.78441176,26.5248529 C7.92441176,26.7719118 8.1025,26.9973529 8.33617647,27.1630882 C8.68617647,26.9541176 9.10720588,26.9983824 9.48397059,26.8810294 C9.67235294,26.7914706 9.89676471,26.6 9.79485294,26.3673529 C9.13911765,26.5639706 8.45764706,26.5238235 7.78441176,26.5248529 M11.0692647,26.5402941 C11.1454412,26.7122059 11.2133824,26.9232353 11.41,26.9932353 C11.7970588,27.1136765 12.2427941,27.0261765 12.5845588,27.2825 C12.8048529,27.1260294 13.0066176,26.9448529 13.1723529,26.7307353 C12.4682353,26.6947059 11.7641176,26.6833824 11.0692647,26.5402941 M6.3525,26.9819118 C6.52955882,27.0827941 6.71588235,27.1713235 6.87235294,27.3030882 C6.82705882,27.4152941 6.77661765,27.5244118 6.72205882,27.6335294 C7.39117647,27.6685294 8.10661765,27.8013235 8.72529412,27.4626471 C8.44323529,27.3257353 8.16632353,27.1764706 7.92029412,26.9808824 C7.40352941,27.0972059 6.87235294,27.0570588 6.3525,26.9819118 M12.9685294,27.1620588 C12.7070588,27.3267647 12.4239706,27.4533824 12.1336765,27.5594118 C12.8419118,27.7827941 13.5830882,27.5357353 14.3026471,27.6767647 C14.1554412,27.4698529 14.0144118,27.2392647 14.2614706,27.0467647 C13.8301471,27.0838235 13.4019118,27.1527941 12.9685294,27.1620588" id="Fill-1" fill="#2C241A"></path>
                <path d="M10.4475,0.623823529 C11.3266176,1.60485294 12.6638235,1.91882353 13.8147059,2.46338235 C14.5795588,2.84941176 15.3320588,3.31367647 15.8827941,3.98279412 C16.4572059,4.67044118 16.7475,5.54647059 17.3404412,6.22176471 C17.5689706,6.49147059 17.8664706,6.68602941 18.1505882,6.89294118 C17.5473529,7.15235294 16.8576471,7.25838235 16.3532353,7.70720588 C16.1082353,7.92235294 15.8251471,8.08911765 15.5266176,8.21882353 C14.7144118,6.93823529 13.5882353,5.78220588 12.1377941,5.25514706 C10.8448529,4.77029412 9.35426471,4.90514706 8.14882353,5.56808824 C7,6.16926471 6.09720588,7.14823529 5.39720588,8.225 C4.92367647,7.94397059 4.62617647,7.44779412 4.13720588,7.18735294 C3.79647059,6.99588235 3.44441176,6.82397059 3.11808824,6.60779412 C4.12897059,5.90161765 4.54279412,4.68588235 5.34161765,3.79132353 C5.92323529,3.11294118 6.6675,2.57764706 7.49514706,2.24205882 C8.52352941,1.81073529 9.71352941,1.52764706 10.4475,0.623823529 M10.3095588,1.30220588 C10.3198529,1.35470588 10.3414706,1.46176471 10.3517647,1.51529412 C10.4825,1.45661765 10.6132353,1.39691176 10.7429412,1.33617647 C10.5977941,1.32485294 10.4536765,1.31352941 10.3095588,1.30220588 M10.2889706,3.24264706 C10.4032353,3.34044118 10.5298529,3.42382353 10.6441176,3.52161765 C10.5082353,3.91279412 10.0573529,4.19382353 9.64970588,4.05176471 C9.29044118,3.71926471 9.59,3.2025 9.64044118,2.80514706 C9.42117647,3.22205882 9.3275,3.73470588 9.42323529,4.2 C9.50352941,4.52529412 9.92970588,4.58294118 10.1798529,4.42338235 C10.5689706,4.16705882 10.7419118,3.66367647 10.6739706,3.21382353 C10.5720588,3.04191176 10.4330882,2.89058824 10.3898529,2.68985294 C10.7758824,2.72176471 10.8427941,2.36970588 10.8448529,2.07117647 C10.7717647,2.12058824 10.6276471,2.21735294 10.5555882,2.26676471 C10.5226471,2.04955882 10.4979412,1.83235294 10.4691176,1.61411765 C10.4197059,2.15867647 10.3651471,2.70220588 10.2889706,3.24264706 M8.61205882,2.23279412 C8.56264706,2.74029412 8.73558824,3.22514706 8.89102941,3.69867647 C8.90955882,3.19426471 8.75205882,2.71044118 8.61205882,2.23279412 M7.13588235,3.05529412 C7.16367647,3.54529412 7.36338235,3.99926471 7.58161765,4.43058824 C7.53529412,3.94470588 7.33764706,3.49382353 7.13588235,3.05529412 M13.9073529,3.37132353 C13.9495588,3.42279412 14.0319118,3.52470588 14.0741176,3.57617647 C14.2748529,3.49073529 14.3911765,3.33426471 14.3613235,3.10676471 C14.2079412,3.19117647 14.0566176,3.27970588 13.9073529,3.37132353 M8.12205882,3.89220588 C8.10970588,4.19691176 7.94705882,4.45838235 7.83382353,4.73220588 C7.96044118,4.60867647 8.18279412,4.52529412 8.18485294,4.32147059 C8.2075,3.95191176 8.34235294,3.60088235 8.35470588,3.23029412 C8.23220588,3.43308824 8.13132353,3.65132353 8.12205882,3.89220588 M10.9127941,3.99720588 C11.0836765,4.25661765 11.3801471,4.38323529 11.6508824,4.51088235 C12.2479412,4.77235294 12.9541176,4.93705882 13.5645588,4.61382353 C13.4327941,4.87323529 13.1713235,5.11411765 13.2094118,5.43117647 C13.4111765,5.59794118 13.5954412,5.34573529 13.7766176,5.26544118 C13.7220588,5.23147059 13.6129412,5.16558824 13.5583824,5.13264706 C13.5275,4.65191176 13.9917647,4.31220588 14.2552941,3.95294118 C14.8245588,3.99308824 15.3804412,4.12485294 15.9425,4.21132353 C15.5698529,3.91485294 15.0654412,3.92926471 14.6155882,3.87985294 C14.1142647,3.79132353 13.8651471,4.33176471 13.5120588,4.58088235 C12.6401471,4.58088235 11.6375,4.33382353 11.0857353,3.61014706 C11.0239706,3.73779412 10.955,3.86132353 10.9127941,3.99720588 M6.52852941,3.70691176 C6.59852941,4.09911765 6.91455882,4.38117647 7.01441176,4.76 C7.02161765,5.20264706 6.61911765,5.69058824 6.14867647,5.60514706 C5.88308824,5.41058824 5.84705882,5.05647059 5.7225,4.77647059 C5.79455882,5.11926471 5.85838235,5.48264706 6.07661765,5.76882353 C6.18676471,5.92117647 6.38029412,6.04573529 6.57485294,5.98808824 C6.93308824,5.89029412 7.15338235,5.50838235 7.14411765,5.15014706 C7.13485294,4.61073529 6.88470588,4.10117647 6.52852941,3.70691176 M8.76132353,4.48514706 C8.63779412,4.47176471 8.51529412,4.45838235 8.39279412,4.44602941 C8.37941176,4.58705882 8.36705882,4.72808824 8.35573529,4.86911765 C8.45867647,4.87735294 8.56161765,4.88455882 8.66558824,4.89279412 C8.68,4.81764706 8.70882353,4.66735294 8.72426471,4.59220588 C8.80661765,4.61073529 8.97132353,4.64882353 9.05367647,4.66735294 C9.07323529,4.57882353 9.11338235,4.40176471 9.13397059,4.31323529 C9.06191176,4.27617647 8.91779412,4.20205882 8.84573529,4.16602941 C8.82411765,4.24529412 8.78191176,4.40588235 8.76132353,4.48514706 M14.2758824,5.70705882 C14.4580882,5.70088235 14.6248529,5.62161765 14.7926471,5.55985294 C14.7133824,5.45897059 14.6330882,5.35705882 14.5548529,5.25617647 C14.7360294,4.91235294 14.9738235,4.60455882 15.1766176,4.27411765 C14.7710294,4.65911765 14.3160294,5.12029412 14.2758824,5.70705882 M6.18676471,4.56338235 C6.18264706,4.69823529 6.18882353,4.83411765 6.19397059,4.96897059 C6.30720588,4.97205882 6.42147059,4.97617647 6.53573529,4.97926471 C6.53367647,4.84132353 6.53058824,4.70338235 6.52647059,4.56647059 C6.41323529,4.56132353 6.3,4.56029412 6.18676471,4.56338235 M14.0422059,6.28147059 C14.1554412,6.22794118 14.2707353,6.17647059 14.3777941,6.11058824 C14.3819118,5.99632353 14.3633824,5.88308824 14.3541176,5.76985294 C14.1636765,5.89235294 13.8754412,5.99941176 14.0422059,6.28147059" id="Fill-2" fill="#FFF6B1"></path>
                <path d="M10.3095588,1.30220588 C10.4536765,1.31352941 10.5977941,1.32485294 10.7429412,1.33617647 C10.6132353,1.39691176 10.4825,1.45661765 10.3517647,1.51529412 C10.3414706,1.46176471 10.3198529,1.35470588 10.3095588,1.30220588 M10.2889706,3.24264706 C10.3651471,2.70220588 10.4197059,2.15867647 10.4691176,1.61411765 C10.4979412,1.83235294 10.5226471,2.04955882 10.5555882,2.26676471 C10.6276471,2.21735294 10.7717647,2.12058824 10.8448529,2.07117647 C10.8427941,2.36970588 10.7758824,2.72176471 10.3898529,2.68985294 C10.4330882,2.89058824 10.5720588,3.04191176 10.6739706,3.21382353 C10.7419118,3.66367647 10.5689706,4.16705882 10.1798529,4.42338235 C9.92970588,4.58294118 9.50352941,4.52529412 9.42323529,4.2 C9.3275,3.73470588 9.42117647,3.22205882 9.64044118,2.80514706 C9.59,3.2025 9.29044118,3.71926471 9.64970588,4.05176471 C10.0573529,4.19382353 10.5082353,3.91279412 10.6441176,3.52161765 C10.5298529,3.42382353 10.4032353,3.34044118 10.2889706,3.24264706 M8.61205882,2.23279412 C8.75205882,2.71044118 8.90955882,3.19426471 8.89102941,3.69867647 C8.73558824,3.22514706 8.56264706,2.74029412 8.61205882,2.23279412 M7.13588235,3.05529412 C7.33764706,3.49382353 7.53529412,3.94470588 7.58161765,4.43058824 C7.36338235,3.99926471 7.16367647,3.54529412 7.13588235,3.05529412 M13.9073529,3.37132353 C14.0566176,3.27970588 14.2079412,3.19117647 14.3613235,3.10676471 C14.3911765,3.33426471 14.2748529,3.49073529 14.0741176,3.57617647 C14.0319118,3.52470588 13.9495588,3.42279412 13.9073529,3.37132353 M8.12205882,3.89220588 C8.13132353,3.65132353 8.23220588,3.43308824 8.35470588,3.23029412 C8.34235294,3.60088235 8.2075,3.95191176 8.18485294,4.32147059 C8.18279412,4.52529412 7.96044118,4.60867647 7.83382353,4.73220588 C7.94705882,4.45838235 8.10970588,4.19691176 8.12205882,3.89220588 M10.9127941,3.99720588 C10.955,3.86132353 11.0239706,3.73779412 11.0857353,3.61014706 C11.6375,4.33382353 12.6401471,4.58088235 13.5120588,4.58088235 C13.8651471,4.33176471 14.1142647,3.79132353 14.6155882,3.87985294 C15.0654412,3.92926471 15.5698529,3.91485294 15.9425,4.21132353 C15.3804412,4.12485294 14.8245588,3.99308824 14.2552941,3.95294118 C13.9917647,4.31220588 13.5275,4.65191176 13.5583824,5.13264706 C13.6129412,5.16558824 13.7220588,5.23147059 13.7766176,5.26544118 C13.5954412,5.34573529 13.4111765,5.59794118 13.2094118,5.43117647 C13.1713235,5.11411765 13.4327941,4.87323529 13.5645588,4.61382353 C12.9541176,4.93705882 12.2479412,4.77235294 11.6508824,4.51088235 C11.3801471,4.38323529 11.0836765,4.25661765 10.9127941,3.99720588 M6.52852941,3.70691176 C6.88470588,4.10117647 7.13485294,4.61073529 7.14411765,5.15014706 C7.15338235,5.50838235 6.93308824,5.89029412 6.57485294,5.98808824 C6.38029412,6.04573529 6.18676471,5.92117647 6.07661765,5.76882353 C5.85838235,5.48264706 5.79455882,5.11926471 5.7225,4.77647059 C5.84705882,5.05647059 5.88308824,5.41058824 6.14867647,5.60514706 C6.61911765,5.69058824 7.02161765,5.20264706 7.01441176,4.76 C6.91455882,4.38117647 6.59852941,4.09911765 6.52852941,3.70691176 M8.76132353,4.48514706 C8.78191176,4.40588235 8.82411765,4.24529412 8.84573529,4.16602941 C8.91779412,4.20205882 9.06191176,4.27617647 9.13397059,4.31323529 C9.11338235,4.40176471 9.07323529,4.57882353 9.05367647,4.66735294 C8.97132353,4.64882353 8.80661765,4.61073529 8.72426471,4.59220588 C8.70882353,4.66735294 8.68,4.81764706 8.66558824,4.89279412 C8.56161765,4.88455882 8.45867647,4.87735294 8.35573529,4.86911765 C8.36705882,4.72808824 8.37941176,4.58705882 8.39279412,4.44602941 C8.51529412,4.45838235 8.63779412,4.47176471 8.76132353,4.48514706 M14.2758824,5.70705882 C14.3160294,5.12029412 14.7710294,4.65911765 15.1766176,4.27411765 C14.9738235,4.60455882 14.7360294,4.91235294 14.5548529,5.25617647 C14.6330882,5.35705882 14.7133824,5.45897059 14.7926471,5.55985294 C14.6248529,5.62161765 14.4580882,5.70088235 14.2758824,5.70705882 M6.18676471,4.56338235 C6.3,4.56029412 6.41323529,4.56132353 6.52647059,4.56647059 C6.53058824,4.70338235 6.53367647,4.84132353 6.53573529,4.97926471 C6.42147059,4.97617647 6.30720588,4.97205882 6.19397059,4.96897059 C6.18882353,4.83411765 6.18264706,4.69823529 6.18676471,4.56338235 M14.0422059,6.28147059 C13.8754412,5.99941176 14.1636765,5.89235294 14.3541176,5.76985294 C14.3633824,5.88308824 14.3819118,5.99632353 14.3777941,6.11058824 C14.2707353,6.17647059 14.1554412,6.22794118 14.0422059,6.28147059 M9.25852941,9.67338235 C9.39132353,9.94308824 9.51279412,10.3383824 9.88029412,10.3466176 C10.1458824,10.3991176 10.3136765,10.1541176 10.4835294,9.99661765 C10.6297059,10.1602941 10.7655882,10.3991176 11.0219118,10.3610294 C11.3502941,10.3425 11.4542647,9.99147059 11.6076471,9.76191176 C11.7126471,10.0789706 11.6591176,10.5277941 11.3101471,10.6677941 C11.0291176,10.8098529 10.7213235,10.6780882 10.4485294,10.5833824 C10.0388235,10.7666176 9.53132353,10.7738235 9.22764706,10.3980882 C9.22558824,10.1561765 9.23588235,9.91426471 9.25852941,9.67338235 M9.91014706,11.1155882 C10.0769118,10.9364706 10.2797059,10.7964706 10.4660294,10.6389706 C10.6297059,10.8088235 10.8613235,10.9302941 10.9776471,11.1382353 C10.9961765,12.8027941 10.9107353,14.4694118 10.9282353,16.135 C12.4558824,14.8976471 12.7235294,12.4661765 11.6097059,10.8747059 C12.1861765,11.2988235 12.6072059,11.9154412 12.8460294,12.5866176 C13.1939706,13.5727941 13.0519118,14.7030882 12.5042647,15.5894118 C12.2098529,16.1 11.7733824,16.5066176 11.3235294,16.8782353 C11.8402941,17.0892647 12.3961765,17.1386765 12.9489706,17.1458824 C12.2819118,17.5339706 11.4872059,17.3888235 10.7542647,17.4155882 C10.6595588,17.5854412 10.5648529,17.7542647 10.4711765,17.9241176 C10.3425,17.7563235 10.2375,17.5679412 10.0810294,17.4248529 C9.37794118,17.3466176 8.52970588,17.5916176 7.96147059,17.0470588 C8.49985294,17.0841176 9.065,17.1252941 9.56838235,16.8875 C8.94455882,16.2904412 8.31352941,15.6470588 8.05205882,14.7988235 C7.52705882,13.4142647 8.05617647,11.7229412 9.28426471,10.8963235 C8.09529412,12.4425 8.36294118,14.945 9.96985294,16.1061765 C9.97705882,14.4426471 9.88647059,12.7780882 9.91014706,11.1155882 M6.68911765,12.6432353 C7.15235294,11.7569118 8.00882353,11.0991176 8.94867647,10.7861765 C8.21882353,11.5088235 7.45294118,12.2963235 7.24191176,13.3432353 C6.96088235,14.5013235 7.41691176,15.6439706 7.81632353,16.7125 C6.56764706,15.8344118 5.98808824,14.0380882 6.68911765,12.6432353 M12.0379412,10.8160294 C12.9675,11.1598529 13.8002941,11.8464706 14.2244118,12.7533824 C14.8822059,14.1533824 14.2470588,15.9517647 12.9582353,16.7526471 C13.2310294,16.0701471 13.5655882,15.4 13.6592647,14.6619118 C13.8229412,13.7786765 13.5995588,12.8501471 13.1095588,12.1038235 C12.8202941,11.6210294 12.3941176,11.2463235 12.0379412,10.8160294" id="Fill-3" fill="#E30612"></path>
                <path d="M18.0445588,8.00779412 C18.3297059,7.86161765 18.4542647,7.57955882 18.5345588,7.28720588 C18.6179412,7.46323529 18.6910294,7.64338235 18.7723529,7.82044118 C18.8505882,8.0325 19.0852941,8.11073529 19.2232353,8.27441176 C19.3683824,8.52044118 19.2551471,8.80455882 19.2407353,9.06705882 C19.3117647,9.27911765 19.4280882,9.47161765 19.5279412,9.67132353 C19.4105882,9.92147059 19.2870588,10.1675 19.1377941,10.4001471 C19.1213235,10.5247059 19.1058824,10.6482353 19.0914706,10.7727941 C19.0070588,10.8180882 18.9236765,10.8623529 18.8402941,10.9066176 C18.8402941,10.3126471 19.1058824,9.61985294 18.6879412,9.10926471 C18.7126471,8.92602941 18.8505882,8.72220588 18.7435294,8.54514706 C18.5355882,8.33205882 18.1855882,8.29294118 18.0445588,8.00779412 M1.62955882,9.88132353 C1.64191176,9.01147059 1.99602941,8.19617647 2.36661765,7.42514706 C2.49941176,7.61147059 2.71044118,7.78029412 2.71147059,8.02838235 C2.71147059,8.49985294 2.42426471,8.89926471 2.33470588,9.35117647 C2.17926471,9.95338235 2.24926471,10.5823529 2.15352941,11.1917647 C1.77470588,10.8705882 1.61926471,10.3651471 1.62955882,9.88132353 M16.2297059,8.41647059 C16.6527941,8.42882353 17.0583824,8.54823529 17.3795588,8.83441176 C17.3229412,8.89720588 17.2076471,9.02382353 17.1510294,9.08764706 C17.2241176,9.39235294 17.4104412,9.63838235 17.7192647,9.73 C17.7604412,10.3733824 18.5160294,10.5947059 18.6097059,11.2185294 C18.3441176,10.9951471 18.0785294,10.7377941 17.7182353,10.6863235 C17.43,10.6760294 17.3064706,10.4032353 17.1695588,10.1942647 C16.9245588,10.0388235 16.7217647,9.83088235 16.5519118,9.59823529 C16.6013235,9.50044118 16.6507353,9.40264706 16.7011765,9.30485294 C16.52,9.02176471 16.3748529,8.71911765 16.2297059,8.41647059 M3.81602941,9.17720588 C4.025,8.91470588 4.37705882,8.85602941 4.68176471,8.77058824 C4.38220588,9.41088235 4.11352941,10.1005882 3.60191176,10.6060294 C3.36205882,10.8294118 3.06661765,10.9776471 2.77735294,11.1258824 C3.07073529,10.6935294 3.42279412,10.2858824 3.58852941,9.78044118 C3.66470588,9.57970588 3.70176471,9.36147059 3.81602941,9.17720588 M19.5711765,12.1635294 C19.7945588,11.9329412 19.9973529,11.6838235 20.1867647,11.4244118 C20.3,11.7147059 20.3875,12.0152941 20.4472059,12.3210294 C20.3761765,12.4661765 20.3010294,12.6102941 20.2516176,12.7636765 C20.335,12.9819118 20.4842647,13.1692647 20.5552941,13.3936765 C20.5645588,13.5491176 20.3977941,13.6242647 20.3216176,13.7395588 C20.1702941,13.8826471 20.1466176,14.1019118 20.0405882,14.2727941 C19.7770588,14.4529412 19.4929412,14.6032353 19.25,14.8142647 C19.3704412,14.42 19.5701471,14.0586765 19.7369118,13.6839706 C19.8614706,13.4523529 19.7029412,13.2125 19.6504412,12.9839706 C19.6998529,12.8408824 19.7544118,12.6977941 19.7873529,12.5495588 C19.7276471,12.4136765 19.6463235,12.2901471 19.5711765,12.1635294 M0.77,11.5602941 C0.938823529,11.7919118 1.1375,12.0091176 1.2425,12.2788235 C1.28779412,12.6 1.23838235,12.9283824 1.28882353,13.2505882 C1.35985294,13.8527941 1.66867647,14.3922059 1.77264706,14.9872059 C1.16220588,14.5352941 0.784411765,13.8126471 0.687647059,13.0652941 C0.622794118,12.5629412 0.707205882,12.0585294 0.77,11.5602941 M17.6801471,11.6735294 C17.9601471,11.9123529 18.2432353,12.1480882 18.5530882,12.3488235 C18.445,12.4280882 18.3327941,12.5011765 18.2360294,12.5927941 C18.1814706,12.9119118 18.3616176,13.2032353 18.4779412,13.4873529 C18.4141176,13.6222059 18.3441176,13.755 18.2957353,13.8970588 C18.4048529,14.1420588 18.6580882,14.3283824 18.6601471,14.6145588 C18.6817647,14.9727941 18.6560294,15.3320588 18.6189706,15.6882353 C18.4923529,15.2867647 18.2947059,14.9161765 18.0641176,14.5661765 C17.9148529,14.3592647 17.9663235,14.0926471 17.9477941,13.8548529 C17.8479412,13.7848529 17.7470588,13.7158824 17.6482353,13.6469118 C17.7316176,13.4420588 17.7655882,13.2238235 17.7110294,13.0055882 C17.7573529,12.9325 17.8036765,12.8594118 17.8510294,12.7873529 C17.8644118,12.4075 17.7851471,12.0358824 17.6801471,11.6735294 M2.63426471,12.5536765 C2.63529412,12.1563235 3.03676471,11.9916176 3.30441176,11.7805882 C3.36514706,12.2891176 3.44647059,12.8254412 3.23544118,13.3123529 C2.95955882,13.9958824 2.65691176,14.6701471 2.42323529,15.3701471 C2.11235294,14.4416176 2.50867647,13.4811765 2.63426471,12.5536765 M2.8,15.9466176 C2.75882353,15.6480882 2.99044118,15.4226471 3.14794118,15.1992647 C3.14485294,15.6882353 3.3425,16.1360294 3.45985294,16.6002941 C3.57823529,17.4526471 3.28897059,18.2936765 3.00176471,19.0852941 C2.91735294,18.4563235 2.94926471,17.8222059 2.98117647,17.1911765 C3.01102941,16.7660294 2.85867647,16.3614706 2.8,15.9466176 M17.5689706,16.1195588 C17.9395588,16.0052941 17.8397059,15.5986765 18.0064706,15.3351471 C18.2710294,15.5286765 18.4213235,15.8210294 18.4913235,16.135 C18.2638235,16.3027941 18.0630882,16.5004412 17.8716176,16.7063235 C17.9313235,16.8175 17.9920588,16.9276471 18.0538235,17.0377941 C17.9622059,17.0913235 17.8726471,17.1469118 17.7861765,17.2066176 C17.7995588,17.7542647 18.0497059,18.2761765 18.0198529,18.8269118 C17.85,19.1985294 17.6657353,19.5907353 17.3363235,19.8491176 C17.6111765,19.4208824 17.8777941,18.9411765 17.8263235,18.4141176 C17.7542647,18.0085294 17.5154412,17.6626471 17.3497059,17.2930882 C17.4629412,17.0552941 17.6183824,16.8452941 17.7686765,16.6322059 C17.8891176,16.4386765 17.6472059,16.2760294 17.5689706,16.1195588 M0.527058824,15.7335294 C0.847205882,15.8529412 1.40720588,15.8951471 1.35676471,16.3645588 C1.4525,17.4691176 2.21941176,18.3204412 2.79176471,19.2119118 C2.135,18.8855882 1.62955882,18.3235294 1.20235294,17.7419118 C0.7525,17.1613235 0.806029412,16.3872059 0.527058824,15.7335294 M20.0477941,16.1525 C20.2114706,16.0938235 20.3751471,16.0372059 20.5398529,15.9805882 C20.5089706,16.2955882 20.4667647,16.6157353 20.3154412,16.8988235 C20.3463235,16.9523529 20.4091176,17.0604412 20.44,17.1139706 C20.2547059,17.2189706 20.0683824,17.3229412 19.8892647,17.4372059 C20.0323529,17.6986765 20.1558824,17.9786765 20.0992647,18.2864706 C19.8727941,18.3276471 19.6329412,18.3595588 19.4661765,18.5345588 C19.2695588,18.7270588 18.9813235,18.7383824 18.7291176,18.8042647 C18.8423529,18.4655882 19.1058824,18.2380882 19.3910294,18.0445588 C19.6442647,17.9025 19.5073529,17.6039706 19.4754412,17.3826471 C19.6092647,17.2910294 19.7430882,17.2004412 19.8758824,17.1067647 C19.9325,16.7886765 19.9942647,16.4716176 20.0477941,16.1525 M3.93338235,20.0601471 C3.88191176,19.7173529 4.12588235,19.4322059 4.26897059,19.1429412 C4.42029412,19.6483824 4.56338235,20.1620588 4.82176471,20.6263235 C5.19338235,21.3057353 5.21294118,22.1066176 5.10897059,22.8570588 C4.93705882,22.8086765 4.76514706,22.7602941 4.59529412,22.7067647 C4.47897059,22.2002941 4.41205882,21.6845588 4.32558824,21.1729412 C4.26382353,20.7786765 4.03323529,20.4410294 3.93338235,20.0601471 M16.1823529,20.5892647 C16.1061765,20.0375 16.5889706,19.67 16.6785294,19.1532353 C16.835,19.3622059 17.0192647,19.5516176 17.1582353,19.7719118 C17.1819118,19.9129412 17.0614706,20.0272059 17.0120588,20.1507353 C16.8442647,20.1702941 16.6733824,20.1764706 16.5097059,20.2197059 C16.3625,20.4472059 16.2616176,20.7025 16.1144118,20.9310294 C16.1772059,21.0432353 16.2410294,21.1564706 16.3048529,21.2697059 C15.9404412,21.7061765 16.0557353,22.3588235 15.6079412,22.7510294 C15.6769118,22.4411765 15.7973529,22.1385294 15.8138235,21.8183824 C15.8014706,21.5826471 15.6655882,21.3777941 15.5822059,21.1636765 C15.7561765,20.9454412 15.9733824,20.7714706 16.1823529,20.5892647 M18.2339706,20.3555882 C18.5623529,20.2145588 18.8804412,20.0272059 19.2397059,19.9767647 C19.2695588,19.9983824 19.3302941,20.0405882 19.3601471,20.0622059 C19.2747059,20.4307353 19.1275,20.79 18.8711765,21.0730882 C18.7435294,21.0658824 18.6148529,21.0535294 18.4872059,21.0607353 C18.3101471,21.2758824 18.4285294,21.5527941 18.4419118,21.7967647 C18.3307353,21.9995588 18.2061765,22.1951471 18.1052941,22.4041176 C17.4073529,22.2960294 16.7176471,22.645 16.2492647,23.1442647 C16.0372059,23.3933824 15.7201471,23.4911765 15.4226471,23.5941176 C15.9136765,22.9898529 16.6435294,22.6614706 17.1695588,22.0942647 C17.3435294,21.9573529 17.2138235,21.7185294 17.2282353,21.5352941 C17.5041176,21.5105882 17.8325,21.6320588 18.0672059,21.4498529 C18.2,21.1008824 18.1825,20.72 18.2339706,20.3555882 M1.65014706,20.3133824 C1.96411765,20.3802941 2.49632353,20.2866176 2.58382353,20.6983824 C2.80617647,21.3891176 3.30544118,21.9367647 3.80779412,22.4401471 C4.13205882,22.7716176 4.51911765,23.0444118 4.78779412,23.4294118 C4.00647059,23.1463235 3.3075,22.6666176 2.67955882,22.1302941 C2.11235294,21.6670588 2.08558824,20.8702941 1.65014706,20.3133824 M6.03338235,22.4576471 C6.20529412,22.6625 6.36485294,22.8838235 6.58720588,23.0382353 C6.88161765,23.2605882 7.25220588,23.4222059 7.42411765,23.7701471 C7.65676471,24.2127941 7.79161765,24.6986765 7.92647059,25.1783824 C7.41279412,24.7758824 7.10191176,24.1829412 6.615,23.7536765 C6.4575,23.6044118 6.27323529,23.4757353 6.15176471,23.2925 C5.99426471,23.0433824 6.04470588,22.7355882 6.03338235,22.4576471 M13.9330882,23.4572059 C14.2861765,23.4170588 14.5023529,23.1339706 14.77,22.9383824 C14.7988235,23.1586765 14.8091176,23.38 14.8307353,23.6013235 C14.7741176,23.7135294 14.7175,23.8267647 14.6629412,23.9410294 C14.5023529,23.9389706 14.3222059,23.8566176 14.1760294,23.9605882 C13.9907353,24.0676471 13.9876471,24.3054412 13.9227941,24.4855882 C13.7972059,24.5041176 13.6726471,24.5216176 13.5470588,24.5411765 C13.4647059,24.7357353 13.4019118,24.9436765 13.2825,25.1197059 C13.1167647,25.2977941 12.8902941,25.4007353 12.6864706,25.5263235 C12.8604412,25.2494118 12.9952941,24.9498529 13.0591176,24.6286765 C13.2464706,24.4094118 13.3247059,24.1366176 13.3576471,23.8555882 C13.5532353,23.7289706 13.7447059,23.5961765 13.9330882,23.4572059 M4.07132353,24.7079412 C4.37911765,24.5689706 4.70235294,24.4680882 5.03588235,24.4186765 C5.52794118,25.0239706 6.28352941,25.2998529 7.00720588,25.5170588 C7.78647059,25.76 8.59970588,25.8567647 9.39441176,26.0348529 C8.31044118,26.0739706 7.17602941,26.3158824 6.13323529,25.9010294 C5.37455882,25.6344118 4.77852941,25.0723529 4.07132353,24.7079412 M15.19,25.1804412 C15.4123529,25.2319118 15.6388235,25.2689706 15.8673529,25.2576471 C16.1401471,25.3142647 16.4139706,25.3667647 16.6867647,25.4233824 C16.4088235,25.5160294 16.1463235,25.6477941 15.9363235,25.8557353 C15.8076471,25.8238235 15.68,25.7867647 15.5492647,25.7672059 C15.3907353,26.0235294 15.2229412,26.2757353 14.9717647,26.4507353 C14.4210294,26.2726471 13.8435294,26.3045588 13.2783824,26.3601471 C12.7297059,26.2397059 12.1738235,26.1830882 11.6158824,26.1285294 C12.0842647,26.0451471 12.565,26.0677941 13.0344118,25.9885294 C13.4801471,25.8680882 13.8785294,25.6230882 14.3119118,25.4666176 C14.4642647,25.6344118 14.665,25.8475 14.9141176,25.7136765 C15.1601471,25.6560294 15.1508824,25.3760294 15.19,25.1804412" id="Fill-4" fill="#F7A70B"></path>
                <path d="M17.1839706,7.52705882 C17.3847059,7.68867647 17.6163235,7.80294118 17.8345588,7.93676471 C17.9117647,8.05514706 17.9560294,8.19102941 18.0352941,8.30735294 C18.2277941,8.43294118 18.4439706,8.52044118 18.6467647,8.62955882 C18.5427941,8.91882353 18.4069118,9.25955882 18.7383824,9.46029412 C18.7795588,9.93897059 18.7064706,10.4155882 18.7085294,10.8932353 C18.5088235,10.5669118 18.2123529,10.3219118 17.9498529,10.0491176 C17.9292647,9.90705882 17.9138235,9.76397059 17.8777941,9.625 C17.6636765,9.49941176 17.4125,9.41191176 17.3136765,9.16073529 C17.4011765,9.05779412 17.4886765,8.95588235 17.5751471,8.85294118 C17.4547059,8.7325 17.3332353,8.61308824 17.2097059,8.49676471 C17.2385294,8.17352941 17.2364706,7.84720588 17.1839706,7.52705882 M2.76911765,8.63676471 C3.00073529,8.20544118 3.40014706,7.90588235 3.76764706,7.59808824 C3.53294118,8.36294118 3.71514706,9.20808824 3.35794118,9.94 C3.16955882,10.3466176 2.88029412,10.6925 2.61367647,11.0486765 C2.53029412,10.9179412 2.44588235,10.7872059 2.35838235,10.6595588 C2.38823529,9.97294118 2.41911765,9.24926471 2.76911765,8.63676471 M18.9761765,11.0342647 C19.1625,10.7985294 19.3961765,11.1145588 19.425,11.3101471 C19.4383824,11.7435294 19.2922059,12.2263235 19.6329412,12.5794118 C19.4064706,12.8697059 19.4960294,13.2001471 19.6576471,13.4966176 C19.4867647,13.8692647 19.2633824,14.2233824 19.1645588,14.6258824 C19.0894118,14.9069118 18.9741176,15.1755882 18.8289706,15.4277941 C18.8042647,15.0726471 18.8577941,14.7113235 18.7908824,14.3592647 C18.7147059,14.1822059 18.5695588,14.0483824 18.4522059,13.8991176 C18.5180882,13.7652941 18.6148529,13.6427941 18.6436765,13.4935294 C18.5541176,13.2227941 18.4305882,12.9633824 18.3564706,12.6864706 C18.4954412,12.5917647 18.6488235,12.5104412 18.76,12.3797059 C18.6508824,12.2458824 18.5222059,12.1295588 18.3976471,12.0111765 C18.6416176,11.7167647 18.8114706,11.3760294 18.9761765,11.0342647 M1.44220588,12.4651471 C1.55029412,11.8619118 2.05985294,11.4655882 2.41397059,11.0044118 C2.79794118,12.2695588 2.11852941,13.5017647 2.14941176,14.7679412 C2.03102941,14.6505882 1.91058824,14.5363235 1.78602941,14.4261765 C1.56985294,13.7992647 1.32897059,13.1383824 1.44220588,12.4651471 M1.54205882,16.5745588 C1.39897059,15.9322059 1.82823529,15.3701471 1.94352941,14.7607353 C2.33779412,15.4514706 2.80102941,16.1545588 2.81852941,16.9791176 C2.81235294,17.6142647 2.76088235,18.2504412 2.80617647,18.8876471 C2.25235294,18.2051471 1.72529412,17.4485294 1.54205882,16.5745588 M18.5819118,15.8447059 C18.8814706,15.6552941 19.1552941,15.4267647 19.4558824,15.2383824 C19.4877941,15.5657353 19.6072059,15.8735294 19.8810294,16.0701471 C19.8439706,16.3892647 19.8182353,16.7176471 19.6998529,17.0182353 C19.5794118,17.1201471 19.4435294,17.2035294 19.3251471,17.3075 C19.3282353,17.4794118 19.3652941,17.6482353 19.3755882,17.8201471 C19.2335294,18.0229412 18.9751471,18.1073529 18.8207353,18.3008824 C18.5479412,18.7847059 18.3183824,19.3858824 17.7830882,19.6308824 C17.8922059,19.3467647 18.1258824,19.1172059 18.1948529,18.8197059 C18.1783824,18.3029412 18.0188235,17.8036765 17.9385294,17.2941176 C18.0630882,17.2313235 18.1866176,17.1685294 18.3101471,17.1057353 C18.2195588,16.9863235 18.1289706,16.8669118 18.0394118,16.7485294 C18.2216176,16.5622059 18.4295588,16.4047059 18.6333824,16.2441176 C18.6220588,16.1092647 18.6055882,15.9764706 18.5819118,15.8447059 M2.90088235,19.1213235 C3.43205882,19.7183824 3.99411765,20.3514706 4.16088235,21.1595588 C4.25764706,21.7267647 4.32044118,22.3011765 4.48102941,22.8570588 C3.86338235,22.2867647 3.21794118,21.7041176 2.84220588,20.9382353 C2.54779412,20.3555882 2.89985294,19.7266176 2.90088235,19.1213235 M17.7244118,19.7894118 C18.0363235,19.7060294 18.2977941,19.5166176 18.5623529,19.3395588 C18.5592647,19.5773529 18.55,19.8161765 18.5386765,20.0539706 C18.3842647,20.1435294 18.1248529,20.1445588 18.0847059,20.3566176 C18.0044118,20.6922059 18.0157353,21.0411765 17.9560294,21.3808824 C17.6729412,21.4035294 17.3713235,21.315 17.1057353,21.4385294 C17.0501471,21.6052941 17.0748529,21.7833824 17.0758824,21.9563235 C16.7917647,22.2414706 16.4901471,22.5111765 16.1514706,22.7283824 C15.7005882,23.0145588 15.3989706,23.4767647 14.945,23.7588235 C15.2136765,23.3295588 15.6367647,23.0289706 15.9147059,22.6069118 C16.2420588,22.2188235 16.1051471,21.6310294 16.5158824,21.2913235 C16.4417647,21.1801471 16.3697059,21.0689706 16.2955882,20.9588235 C16.4098529,20.7683824 16.5014706,20.5666176 16.5869118,20.3627941 C16.73,20.3442647 16.8772059,20.3411765 17.0182353,20.3051471 C17.2508824,20.1301471 17.4341176,19.8758824 17.7244118,19.7894118 M4.71882353,22.9311765 C5.17279412,23.0897059 5.61852941,23.2780882 6.04058824,23.5097059 C6.68191176,23.8802941 7.05764706,24.5422059 7.56102941,25.0620588 C7.81632353,25.3317647 8.14058824,25.5170588 8.45867647,25.7033824 C7.63102941,25.5191176 6.78691176,25.3492647 6.01794118,24.9807353 C5.64117647,24.7902941 5.23147059,24.5360294 5.10897059,24.1047059 C4.98647059,23.7104412 4.87529412,23.3130882 4.71882353,22.9311765 M14.9419118,23.4170588 C14.9017647,23.2729412 14.9511765,23.2173529 15.0911765,23.2523529 C15.1313235,23.3964706 15.0819118,23.4510294 14.9419118,23.4170588 M14.8575,23.8947059 C15.4329412,23.8432353 15.9435294,23.5508824 16.4705882,23.3398529 C16.4922059,23.4252941 16.5364706,23.5951471 16.5591176,23.6805882 C16.3563235,23.8658824 16.1597059,24.0707353 16.1452941,24.3610294 C15.9342647,24.5442647 15.8529412,24.8036765 15.7767647,25.0620588 C15.5719118,25.1742647 15.3444118,25.0033824 15.1292647,24.9992647 C14.9820588,25.2308824 15.0119118,25.5901471 14.6680882,25.6375 C14.5991176,25.5191176 14.5301471,25.4007353 14.4611765,25.2823529 C13.9886765,25.3770588 13.5748529,25.6323529 13.1280882,25.7970588 C12.6977941,25.9092647 12.2469118,25.9030882 11.8052941,25.9175 C12.3086765,25.7538235 12.8717647,25.6920588 13.2876471,25.3338235 C13.5038235,25.1732353 13.5697059,24.9025 13.6757353,24.6698529 C13.7982353,24.6616176 13.9217647,24.6554412 14.0463235,24.6482353 C14.0988235,24.4125 14.1564706,24.1705882 14.3530882,24.0110294 C14.4755882,24.0851471 14.5980882,24.1602941 14.7216176,24.2344118 C14.7669118,24.1211765 14.8122059,24.0079412 14.8575,23.8947059 M9.46544118,24.2817647 C9.79176471,24.2632353 10.0789706,24.0851471 10.3970588,24.0244118 C10.7460294,24.0717647 11.0579412,24.2992647 11.4202941,24.2725 C11.7641176,24.2570588 12.1089706,24.2302941 12.4527941,24.2725 C12.46,24.5092647 12.4919118,24.7511765 12.4466176,24.9869118 C12.1069118,25.2669118 11.7919118,25.5747059 11.4583824,25.8629412 C11.3420588,25.7764706 11.2277941,25.69 11.1125,25.6035294 C11.2308824,25.4336765 11.3122059,25.2154412 11.5098529,25.1207353 C11.7548529,24.9910294 12.0204412,24.8633824 12.1439706,24.5977941 C11.8742647,24.7223529 11.6230882,24.8829412 11.3575,25.0157353 C11.0147059,24.8963235 10.6626471,24.7676471 10.2941176,24.7697059 C10.0079412,24.7686765 9.75367647,24.9158824 9.50455882,25.0383824 C9.31926471,24.8510294 9.13088235,24.6647059 8.94455882,24.4783824 C8.91573529,24.5051471 8.86014706,24.5597059 8.83235294,24.5875 C9.17926471,24.9127941 9.50455882,25.2607353 9.82676471,25.6117647 C9.73720588,25.7105882 9.64764706,25.8104412 9.55808824,25.9092647 C9.23485294,25.6673529 8.88176471,25.4676471 8.51529412,25.2998529 C8.51735294,24.9570588 8.52455882,24.6152941 8.53485294,24.2725 C8.84470588,24.2745588 9.15558824,24.2992647 9.46544118,24.2817647 M10.1376471,25.585 C10.3383824,25.6344118 10.5411765,25.6189706 10.7347059,25.5479412 C10.92,25.6663235 11.0991176,25.7919118 11.2761765,25.9226471 C11.1701471,26.1686765 11.1001471,26.4486765 10.9004412,26.6411765 C10.6472059,26.6411765 10.3929412,26.6236765 10.1407353,26.6586765 C9.94205882,26.4352941 9.85352941,26.1480882 9.77529412,25.8670588 C9.89470588,25.7713235 10.0151471,25.6755882 10.1376471,25.585 M7.78441176,26.5248529 C8.45764706,26.5238235 9.13911765,26.5639706 9.79485294,26.3673529 C9.89676471,26.6 9.67235294,26.7914706 9.48397059,26.8810294 C9.10720588,26.9983824 8.68617647,26.9541176 8.33617647,27.1630882 C8.1025,26.9973529 7.92441176,26.7719118 7.78441176,26.5248529 M11.0692647,26.5402941 C11.7641176,26.6833824 12.4682353,26.6947059 13.1723529,26.7307353 C13.0066176,26.9448529 12.8048529,27.1260294 12.5845588,27.2825 C12.2427941,27.0261765 11.7970588,27.1136765 11.41,26.9932353 C11.2133824,26.9232353 11.1454412,26.7122059 11.0692647,26.5402941 M6.3525,26.9819118 C6.87235294,27.0570588 7.40352941,27.0972059 7.92029412,26.9808824 C8.16632353,27.1764706 8.44323529,27.3257353 8.72529412,27.4626471 C8.10661765,27.8013235 7.39117647,27.6685294 6.72205882,27.6335294 C6.77661765,27.5244118 6.82705882,27.4152941 6.87235294,27.3030882 C6.71588235,27.1713235 6.52955882,27.0827941 6.3525,26.9819118 M12.9685294,27.1620588 C13.4019118,27.1527941 13.8301471,27.0838235 14.2614706,27.0467647 C14.0144118,27.2392647 14.1554412,27.4698529 14.3026471,27.6767647 C13.5830882,27.5357353 12.8419118,27.7827941 12.1336765,27.5594118 C12.4239706,27.4533824 12.7070588,27.3267647 12.9685294,27.1620588" id="Fill-5" fill="#FEF481"></path>
            </g>
        </g>
    </g>
</svg>