<?xml version="1.0" encoding="UTF-8"?>
<svg width="33px" height="28px" viewBox="0 0 33 28" version="1.1" xmlns="http://www.w3.org/2000/svg" xmlns:xlink="http://www.w3.org/1999/xlink">
    <!-- Generator: Sketch 64 (93537) - https://sketch.com -->
    <title>Group 3</title>
    <desc>Created with Sketch.</desc>
    <defs>
        <polygon id="path-1" points="0 0 32.7319325 0 32.7319325 27.900988 0 27.900988"></polygon>
    </defs>
    <g id="payment" stroke="none" stroke-width="1" fill="none" fill-rule="evenodd">
        <g id="pay" transform="translate(-1043.000000, -310.000000)">
            <g id="Group-3" transform="translate(1043.000000, 310.000000)">
                <mask id="mask-2" fill="white">
                    <use xlink:href="#path-1"></use>
                </mask>
                <g id="Clip-2"></g>
                <path d="M32.7319325,2.19572289 C30.1559325,3.23796386 27.7877398,4.61249398 25.9603181,6.85198795 C21.9925831,11.0600843 19.2501012,16.9250723 17.6876675,24.3644699 C17.6561253,24.5145904 17.328559,24.276253 17.2887518,24.4263735 C13.9142458,22.9536747 11.4416434,18.2918434 10.2224627,13.2641566 C9.82304096,11.6165422 9.37183614,9.8650241 8.67757108,8.22128916 C11.3957639,7.47271084 14.2774024,9.17936145 17.356559,13.8489518 C18.1024386,11.2724458 23.187812,3.74601205 23.187812,3.74601205 L23.2414506,3.54663855 C20.7745831,1.34138554 17.5189928,-8.43373494e-05 13.9503422,-8.43373494e-05 C6.24713735,-8.43373494e-05 -6.74698795e-05,6.24728916 -6.74698795e-05,13.950494 C-6.74698795e-05,21.6536988 6.24713735,27.9010723 13.9503422,27.9010723 C23.3541253,27.9010723 26.8079084,21.0540602 29.2214747,13.6531205 C30.3914024,9.83398795 31.3371614,5.7343494 32.7319325,2.19572289" id="Fill-1" fill="#5D8D20" mask="url(#mask-2)"></path>
            </g>
        </g>
    </g>
</svg>