<?xml version="1.0" encoding="UTF-8"?>
<svg width="28px" height="28px" viewBox="0 0 28 28" version="1.1" xmlns="http://www.w3.org/2000/svg" xmlns:xlink="http://www.w3.org/1999/xlink">
    <!-- Generator: Sketch 64 (93537) - https://sketch.com -->
    <title>Group 46</title>
    <desc>Created with Sketch.</desc>
    <defs>
        <polygon id="path-1" points="0.208755556 0.0750909091 21.3365939 0.0750909091 21.3365939 16.4040404 0.208755556 16.4040404"></polygon>
        <path d="M12.9659798,0.217777778 L7.78258586,3.21066667 L6.28557576,4.0749899 L6.24824242,4.09648485 C5.60028283,4.47858586 5.1650101,5.18339394 5.1650101,5.99030303 L5.1650101,5.99030303 L5.1650101,7.13830303 L5.1650101,19.4761212 L5.1650101,19.5756768 L5.25127273,19.525899 L8.7229899,17.5217778 L8.7679596,17.4960404 L8.74674747,17.4485253 L8.74646465,17.4479596 L8.74674747,17.4479596 L8.74561616,17.4448485 L8.7229899,17.3905455 L8.70121212,17.3368081 L8.70149495,17.3368081 L8.69810101,17.3288889 L8.67660606,17.2737374 L8.67632323,17.2737374 L8.6559596,17.2185859 L8.6559596,17.218303 L8.6559596,17.218303 L8.65539394,17.2160404 L8.65511111,17.2157576 L8.63474747,17.1589091 L8.61466667,17.1012121 L8.61466667,17.1009293 L8.61410101,17.0992323 L8.59486869,17.0418182 L8.59486869,17.0418182 L8.57591919,16.9821414 L8.57620202,16.9821414 L8.57563636,16.9810101 L8.57535354,16.9798788 L8.57026263,16.9634747 L8.56517172,16.9470707 L8.56545455,16.9470707 C8.55668687,16.9190707 8.54848485,16.8907879 8.54056566,16.8625051 L8.54056566,16.8625051 L8.54028283,16.8627879 L8.54028283,16.8619394 L8.52359596,16.8019798 L8.52359596,16.8019798 L8.50747475,16.7411717 L8.50719192,16.7391919 L8.50719192,16.7383434 L8.49814141,16.7041212 L8.48993939,16.6701818 C8.47579798,16.6127677 8.46278788,16.5545051 8.45062626,16.4959596 L8.45062626,16.4959596 L8.45090909,16.4959596 L8.45062626,16.4948283 L8.45062626,16.4942626 L8.43846465,16.4331717 L8.43818182,16.4331717 L8.42715152,16.3732121 L8.42743434,16.3732121 L8.42686869,16.3715152 L8.42686869,16.3709495 L8.42658586,16.3692525 L8.42658586,16.3681212 L8.41583838,16.3064646 L8.41555556,16.3064646 L8.40593939,16.2450909 L8.40593939,16.2448081 L8.40622222,16.2448081 C8.39292929,16.1593939 8.38218182,16.0748283 8.37341414,15.9913939 L8.37341414,15.9913939 L8.37313131,15.9885657 L8.37313131,15.9882828 L8.36747475,15.9271919 L8.36775758,15.9271919 L8.36210101,15.8621414 L8.35785859,15.7973737 L8.35418182,15.7357172 L8.35446465,15.7357172 L8.35446465,15.7354343 L8.35389899,15.7334545 L8.35389899,15.7323232 L8.35107071,15.6672727 L8.34909091,15.6039192 L8.34909091,15.6025051 L8.34909091,15.6022222 L8.34767677,15.5363232 L8.34739394,15.4709899 L8.34767677,15.4084848 L8.34880808,15.3454141 L8.35050505,15.3032727 L8.35050505,15.2911111 L8.35361616,15.2195556 L8.35616162,15.176 L8.35672727,15.1666667 L8.35729293,15.1593131 L8.35729293,15.1590303 L8.35785859,15.1502626 L8.36125253,15.0956768 L8.36606061,15.0388283 L8.36577778,15.0388283 L8.37171717,14.971798 L8.37822222,14.9132525 L8.38585859,14.8467879 L8.39264646,14.792202 L8.4019798,14.7248889 L8.40226263,14.7248889 L8.4110303,14.6686061 L8.41074747,14.6686061 L8.42177778,14.6018586 L8.43139394,14.5486869 L8.44412121,14.4816566 L8.45486869,14.4270707 L8.45515152,14.4270707 C8.46165657,14.3968081 8.46561616,14.3778586 8.46985859,14.3591919 L8.46985859,14.3591919 L8.48060606,14.3111111 L8.49785859,14.2415354 L8.51086869,14.1900606 L8.52614141,14.1337778 L8.52585859,14.1337778 L8.53066667,14.1153939 L8.54141414,14.0763636 L8.55244444,14.039596 L8.5640404,14.0022626 L8.56347475,14.0019798 L8.57959596,13.9488081 L8.59684848,13.8959192 L8.59656566,13.8959192 L8.61353535,13.8444444 L8.62060606,13.8243636 L8.62060606,13.8240808 C8.63078788,13.7949495 8.6409697,13.7658182 8.65341414,13.7321616 L8.65341414,13.7321616 L8.66925253,13.6894545 L8.66925253,13.6891717 L8.66953535,13.6883232 L8.66981818,13.6883232 L8.67264646,13.6806869 L8.67264646,13.680404 C8.67886869,13.6642828 8.68509091,13.6470303 8.69612121,13.6193131 L8.69612121,13.6193131 L8.69583838,13.6193131 L8.71761616,13.5652929 L8.73854545,13.5138182 L8.76484848,13.4530101 L8.76937374,13.4425455 L8.78747475,13.4012525 L8.81292929,13.3458182 L8.83612121,13.2957576 L8.86327273,13.2397576 L8.86355556,13.2397576 L8.88985859,13.1868687 L8.88957576,13.1865859 L8.91729293,13.1328485 L8.94246465,13.0850505 L8.9580202,13.0559192 L8.97357576,13.0273535 L8.99931313,12.9812525 L8.99959596,12.9812525 L9.00185859,12.9770101 L9.00157576,12.9770101 C9.00977778,12.962303 9.01854545,12.9470303 9.03183838,12.924404 L9.03183838,12.924404 L9.05757576,12.8808485 L9.05814141,12.88 L9.05814141,12.8797172 L9.06294949,12.8715152 L9.06294949,12.871798 L9.09094949,12.8248485 L9.09123232,12.8248485 L9.11781818,12.7818586 L9.13676768,12.7513131 L9.15656566,12.7207677 L9.16533333,12.7074747 L9.16589899,12.7066263 L9.16589899,12.7060606 L9.19785859,12.6574141 L9.19785859,12.657697 L9.23123232,12.6087677 C9.28779798,12.525899 9.34634343,12.4452929 9.40686869,12.3669495 L9.40686869,12.3669495 L9.42214141,12.3471515 L9.44816162,12.3143434 L9.47531313,12.2809697 L9.49426263,12.2574949 L9.4939798,12.2574949 L9.52,12.2263838 L9.54630303,12.1949899 L9.57034343,12.1664242 L9.5929697,12.1401212 L9.59325253,12.140404 L9.61644444,12.1138182 L9.64840404,12.077899 L9.67329293,12.0507475 L9.69789899,12.0238788 L9.72505051,11.9944646 L9.75305051,11.9647677 L9.78133333,11.9353535 L9.80084848,11.9155556 L9.83365657,11.8824646 L9.86618182,11.8499394 L9.87890909,11.8377778 L9.91228283,11.8052525 L9.94622222,11.7730101 L9.9640404,11.7563232 L9.99911111,11.7240808 L9.99939394,11.7240808 L10.0347475,11.6918384 L10.0406869,11.6867475 L10.0797172,11.6516768 L10.119596,11.6168889 L10.124404,11.6132121 L10.1249697,11.6126465 C10.1507071,11.5905859 10.1753131,11.5699394 10.1965253,11.552404 L10.1965253,11.552404 C10.2177374,11.5348687 10.2417778,11.5153535 10.2692121,11.4938586 L10.2692121,11.4938586 C10.3947879,11.3940202 10.5251717,11.3001212 10.6592323,11.2127273 L10.6592323,11.2127273 L10.6595152,11.2127273 L10.6651717,11.2087677 L10.6648889,11.2087677 L10.7101414,11.180202 L10.7545455,11.152202 L10.7610505,11.1479596 L10.7610505,11.1482424 L10.8048889,11.1213737 L10.8484444,11.0953535 L10.8487273,11.0953535 L10.8617374,11.0874343 L10.8620202,11.0874343 L10.8741818,11.0803636 L10.8860606,11.0735758 C10.908404,11.0608485 10.9287677,11.0486869 10.9471515,11.0385051 L10.9471515,11.0385051 L10.9615758,11.0305859 L11.0037172,11.0073939 L11.0461414,10.9847677 L11.0659394,10.9745859 L11.1097778,10.9513939 L11.1097778,10.9513939 L11.1536162,10.9290505 L11.1536162,10.9287677 L11.160404,10.9256566 L11.1606869,10.9256566 L11.2101818,10.9010505 L11.209899,10.9010505 L11.2591111,10.8775758 L11.2593939,10.8775758 L11.2605253,10.8770101 C11.3032323,10.8569293 11.3470707,10.8368485 11.3909091,10.8176162 L11.3909091,10.8176162 C11.4330505,10.7992323 11.4771717,10.7808485 11.5238384,10.761899 L11.5238384,10.761899 L11.5238384,10.7616162 C11.7526465,10.6691313 11.9896566,10.5927677 12.2326061,10.5342222 L12.2326061,10.5342222 L12.2328889,10.5342222 L12.2371313,10.5336566 L12.2905859,10.5209293 L12.3440404,10.5090505 L12.3530909,10.5067879 L12.3530909,10.5070707 L12.4076768,10.4957576 L12.4076768,10.4960404 L12.4631111,10.4847273 L12.4636768,10.4847273 L12.4662222,10.4841616 L12.4662222,10.4838788 L12.5196768,10.4739798 L12.5196768,10.4742626 L12.5745455,10.4649293 L12.5745455,10.4646465 L12.5886869,10.4623838 L12.6410101,10.453899 L12.6947475,10.4459798 L12.6947475,10.445697 L12.7012525,10.4448485 L12.7015354,10.4448485 L12.756404,10.4374949 L12.8107071,10.4301414 L12.8109899,10.4301414 L12.8152323,10.4295758 L12.8650101,10.4230707 L12.8650101,10.3727273 L12.8647273,4.92715152 L12.8650101,4.92715152 C12.8650101,4.83353535 12.8836768,4.75830303 12.9153535,4.7020202 L12.9153535,4.7020202 C12.9422222,4.65393939 12.9792727,4.61830303 13.0219798,4.59454545 L13.0219798,4.59454545 C13.0646869,4.57107071 13.1147475,4.55947475 13.1670707,4.55947475 L13.1670707,4.55947475 C13.235798,4.55947475 13.308202,4.57927273 13.3769293,4.61717172 L13.3769293,4.61717172 L21.6094949,9.3760404 L21.6963232,9.42638384 L21.6963232,9.32626263 L21.6963232,7.13830303 L21.6963232,5.99030303 C21.6963232,5.20771717 21.2865051,4.52072727 20.6702222,4.13155556 L20.6702222,4.13155556 L13.9072323,0.227676768 L13.9072323,0.227393939 C13.7290505,0.125575758 13.5814141,0.0724040404 13.4332121,0.0701414141 L13.4332121,0.0701414141 L13.4326465,0.0701414141 C13.4292525,0.0701414141 13.4258586,0.0701414141 13.4227475,0.0701414141 L13.4227475,0.0701414141 C13.2773737,0.0701414141 13.1348283,0.119070707 12.9659798,0.217777778 L12.9659798,0.217777778 Z M14.0011313,6.3449697 L14.0011313,10.3534949 L14.0011313,10.4055354 L14.0523232,10.4106263 L14.0528889,10.4106263 L14.0528889,10.4109091 L14.056,10.4114747 L14.1145455,10.4191111 L14.1148283,10.4191111 L14.1716768,10.4270303 L14.1804444,10.4287273 L14.1804444,10.4284444 L14.2389899,10.4374949 L14.2969697,10.4473939 L14.2972525,10.4473939 L14.2972525,10.4473939 L14.2992323,10.4476768 L14.3000808,10.4476768 L14.3594747,10.4584242 L14.4194343,10.470303 L14.4197172,10.470303 L14.4214141,10.470303 L14.4211313,10.470303 L14.4805253,10.4827475 L14.5416162,10.4960404 L14.5433131,10.4963232 L14.5441616,10.4966061 L14.5611313,10.5005657 L14.5772525,10.5042424 L14.5775354,10.5045253 C14.6058182,10.5110303 14.6343838,10.518101 14.6629495,10.5251717 L14.6629495,10.5251717 L14.6629495,10.5248889 L14.663798,10.5254545 L14.7240404,10.5407273 L14.7845657,10.5571313 L14.7848485,10.5571313 L14.7868283,10.557697 L14.7873939,10.5582626 L14.8210505,10.567596 L14.8549899,10.5772121 C14.9115556,10.5941818 14.9686869,10.612 15.0255354,10.6306667 L15.0255354,10.6306667 L15.0252525,10.6306667 L15.026101,10.6309495 L15.0266667,10.6309495 L15.0272323,10.6312323 L15.0860606,10.651596 L15.0860606,10.6513131 L15.1437576,10.6716768 L15.1448889,10.6722424 L15.1451717,10.6725253 L15.1471515,10.6733737 L15.1482828,10.6736566 L15.2071111,10.6951515 L15.2650909,10.7172121 L15.2653737,10.7174949 C15.345697,10.7488889 15.4243232,10.7819798 15.5012525,10.8164848 L15.5012525,10.8164848 L15.5032323,10.8173333 L15.503798,10.8173333 L15.5595152,10.8427879 L15.5595152,10.8430707 L15.6183434,10.8710707 L15.6768889,10.8993535 L15.7320404,10.9270707 L15.7320404,10.9273535 L15.734303,10.928202 L15.7348687,10.9287677 L15.7931313,10.9587475 L15.8488485,10.9887273 L15.8488485,10.9890101 L15.849697,10.9890101 L15.8502626,10.9895758 L15.9076768,11.0212525 L15.9648081,11.0532121 L16.0188283,11.0851717 L16.0728485,11.117697 L16.1087677,11.1400404 L16.1189495,11.1465455 L16.1794747,11.1850101 L16.2159596,11.2087677 L16.2233131,11.2138586 L16.2295354,11.2178182 L16.2298182,11.218101 L16.2368889,11.2231919 L16.2374545,11.2231919 L16.2829899,11.2534545 L16.3299394,11.285697 L16.3848081,11.3244444 L16.4323232,11.3589495 L16.4857778,11.3991111 L16.4857778,11.3988283 L16.529899,11.432202 L16.5833535,11.4740606 L16.5833535,11.4743434 L16.6280404,11.5099798 L16.6280404,11.509697 L16.6800808,11.5526869 L16.7213737,11.5874747 L16.7731313,11.6321616 L16.7734141,11.6318788 L16.8147071,11.6689293 C16.8381818,11.6895758 16.8523232,11.7025859 16.8664646,11.715596 L16.8664646,11.715596 L16.9026667,11.7489697 L16.9541414,11.7987475 L16.9920404,11.8355152 L17.0336162,11.8768081 L17.0469091,11.890101 L17.0754747,11.9189495 L17.1017778,11.9466667 L17.1017778,11.9469495 L17.1286465,11.9755152 L17.1286465,11.9752323 L17.1668283,12.0159596 L17.2038788,12.0569697 L17.2041616,12.0569697 L17.2400808,12.0974141 L17.239798,12.0974141 L17.2542222,12.1138182 L17.2545051,12.1138182 C17.2745859,12.1372929 17.2949495,12.1607677 17.3175758,12.1879192 L17.3175758,12.1879192 L17.3464242,12.2232727 L17.3467071,12.2235556 L17.3472727,12.2241212 L17.3526465,12.2303434 L17.3526465,12.2306263 C17.3639596,12.244202 17.3755556,12.2580606 17.3939394,12.2812525 L17.3939394,12.2812525 L17.4301414,12.3273535 L17.463798,12.3711919 L17.5033939,12.4243636 L17.5104646,12.4334141 L17.5370505,12.469899 L17.5726869,12.5193939 L17.6043636,12.5643636 L17.603798,12.5643636 L17.6391515,12.6161212 L17.6388687,12.616404 L17.6716768,12.6653333 L17.6716768,12.6650505 L17.7047677,12.7162424 L17.7047677,12.7165253 L17.7333333,12.7617778 L17.7511515,12.7900606 L17.7681212,12.8174949 L17.7678384,12.8174949 L17.7947071,12.8630303 L17.7972525,12.8672727 C17.806303,12.881697 17.8145051,12.8966869 17.8275152,12.919596 L17.8275152,12.919596 L17.8526869,12.964 L17.8532525,12.9645657 L17.8580606,12.9727677 L17.8846465,13.0208485 L17.908404,13.0652525 L17.9250909,13.0974949 L17.9420606,13.1294545 L17.9417778,13.1297374 L17.9494141,13.1441616 L17.9494141,13.1447273 L17.949697,13.1450101 L17.976,13.1970505 L17.9757172,13.1970505 L18.0014545,13.2499394 C18.0450101,13.3407273 18.0857374,13.431798 18.1227879,13.5228687 L18.1227879,13.5228687 L18.132404,13.5463434 L18.132404,13.5463434 L18.1476768,13.5853737 L18.1632323,13.6252525 L18.1742626,13.6538182 L18.1745455,13.6538182 L18.188404,13.6914343 L18.2025455,13.729899 L18.2022626,13.729899 L18.2149899,13.7652525 L18.226303,13.7977778 L18.2260202,13.7977778 L18.2376162,13.8314343 L18.2526061,13.8766869 L18.2639192,13.9120404 L18.2749495,13.9468283 L18.2868283,13.9852929 L18.2981414,14.0240404 L18.3097374,14.0633535 L18.3170909,14.0902222 L18.3292525,14.1351919 L18.3411313,14.1793131 L18.3453737,14.1965657 L18.3566869,14.242101 L18.3677172,14.2873535 L18.3730909,14.3111111 L18.3841212,14.3574949 L18.3838384,14.3574949 L18.3940202,14.4044444 L18.3954343,14.4120808 L18.405899,14.4638384 L18.4163636,14.515596 L18.4172121,14.5212525 L18.4174949,14.5223838 L18.4177778,14.5223838 L18.4174949,14.5223838 C18.4234343,14.5557576 18.4293737,14.5871515 18.4336162,14.6145859 L18.4336162,14.6145859 C18.4381414,14.6414545 18.4432323,14.6722828 18.4480404,14.7067879 L18.4480404,14.7067879 C18.471798,14.8654545 18.488202,15.0252525 18.496404,15.1850505 L18.496404,15.1850505 L18.496404,15.1853333 L18.4966869,15.1918384 L18.4992323,15.2452929 L18.4995152,15.2452929 L18.5014949,15.297899 L18.5017778,15.3052525 L18.5026263,15.3570101 L18.5029091,15.3570101 L18.5034747,15.4076364 L18.5034747,15.4229091 L18.5034747,15.4234747 L18.5034747,15.4373333 L18.5034747,15.4511919 C18.5040404,15.4766465 18.5034747,15.500404 18.5031919,15.5213333 L18.5031919,15.5213333 L18.5031919,15.5377374 L18.5029091,15.5377374 L18.5020606,15.5855354 L18.5006465,15.6341818 L18.5009293,15.6341818 L18.4995152,15.6559596 L18.4975354,15.7060202 L18.4978182,15.7060202 L18.4949899,15.7546667 L18.4944242,15.7625859 L18.4910303,15.8177374 L18.4867879,15.8717576 L18.4865051,15.8720404 L18.4865051,15.8734545 C18.4828283,15.9206869 18.478303,15.9684848 18.4729293,16.0162828 L18.4729293,16.0162828 C18.4675556,16.0618182 18.4616162,16.1090505 18.4545455,16.1591111 L18.4545455,16.1591111 L18.4551111,16.1591111 C18.4203232,16.4037576 18.3682828,16.6469899 18.2972929,16.8865455 L18.2972929,16.8865455 L18.2972929,16.8868283 L18.2958788,16.8907879 L18.2800404,16.9436768 L18.2800404,16.9436768 L18.2639192,16.9957172 L18.2608081,17.0047677 L18.2432727,17.0576566 L18.2251717,17.1113939 L18.2248889,17.1113939 L18.2240404,17.1142222 L18.2062222,17.1651313 L18.2059394,17.1651313 L18.1867071,17.2174545 L18.1816162,17.2310303 L18.1629495,17.2808081 L18.1629495,17.2805253 L18.1428687,17.3308687 L18.1428687,17.3311515 L18.1406061,17.3376566 L18.1403232,17.3376566 L18.1196768,17.3888485 L18.0984646,17.4394747 L18.0981818,17.4397576 L18.0967677,17.4434343 L18.0775354,17.490101 L18.1213737,17.5152727 L22.8369697,20.2377778 L22.8369697,20.2380606 C22.9181414,20.2850101 22.9735758,20.3387475 23.0069495,20.3944646 L23.0069495,20.3944646 C23.0349495,20.441697 23.0476768,20.4914747 23.0468283,20.5401212 L23.0468283,20.5401212 C23.0454141,20.5890505 23.0307071,20.6379798 23.0046869,20.6835152 L23.0046869,20.6835152 C22.9701818,20.7429091 22.9170101,20.795798 22.8494141,20.8362424 L22.8494141,20.8362424 L14.6120404,25.5863434 L14.5252121,25.636404 L14.6120404,25.6864646 L16.5064242,26.7804444 L17.5008485,27.354303 C18.1782222,27.7454545 18.9783434,27.7344242 19.6234747,27.3953131 L19.6234747,27.3953131 L26.385899,23.490303 L26.3861818,23.490303 C26.5632323,23.3870707 26.6831515,23.2858182 26.7592323,23.1582626 L26.7592323,23.1582626 L26.7592323,23.1579798 C26.835596,23.0301414 26.8661414,22.8799596 26.8647273,22.68 L26.8647273,22.68 L26.8650101,22.68 L26.8647273,16.6945051 L26.8647273,14.9658586 L26.8647273,14.9234343 C26.8582222,14.1708283 26.4650909,13.4411313 25.7662222,13.038101 L25.7662222,13.038101 L24.7720808,12.4639596 L14.0873939,6.29519192 L14.0011313,6.24513131 L14.0011313,6.3449697 Z M3.98589899,11.3713939 L2.09094949,12.4650909 L1.09709091,13.0389495 C0.419151515,13.4303838 0.0291313131,14.128404 0,14.8569697 L0,14.8569697 L0.000848484848,22.6661414 L0.000565656566,22.6661414 C0.00141414141,22.8714747 0.0291313131,23.0256162 0.101252525,23.1551515 L0.101252525,23.1551515 L0.101535354,23.1554343 C0.174222222,23.2855354 0.288767677,23.3870707 0.462707071,23.4854949 L0.462707071,23.4854949 L0.462707071,23.4860606 L5.64666667,26.4786667 L7.14339394,27.3427071 L7.18044444,27.364202 C7.83547475,27.7344242 8.66359596,27.7590303 9.36274747,27.3554343 L9.36274747,27.3554343 L10.3566061,26.7818586 L21.0412929,20.6128081 L21.1278384,20.5630303 L21.0412929,20.5126869 L17.5698586,18.5088485 L17.5248889,18.4828283 L17.4946263,18.524404 L17.4943434,18.5249697 L17.4940606,18.5249697 L17.4920808,18.5272323 L17.4561616,18.5741818 L17.4564444,18.5744646 L17.4205253,18.6197172 L17.4151515,18.6262222 L17.4151515,18.6265051 L17.378101,18.6726061 L17.378101,18.6728889 L17.3407677,18.7181414 L17.3404848,18.7184242 L17.3404848,18.7181414 L17.3390707,18.7198384 L17.3387879,18.720404 L17.3000404,18.7665051 L17.259596,18.8126061 L17.259596,18.8128889 L17.2584646,18.8140202 L17.2587475,18.8140202 L17.218303,18.8595556 L17.1761616,18.9056566 L17.1761616,18.9053737 L17.1750303,18.9065051 L17.1744646,18.9073535 L17.1625859,18.9200808 L17.1509899,18.9325253 C17.1309091,18.9537374 17.1111111,18.9749495 17.0901818,18.9961616 L17.0901818,18.9961616 L17.0904646,18.9961616 L17.0896162,18.9967273 L17.0463434,19.0411313 L17.0460606,19.0411313 L17.0016566,19.0852525 L17.0016566,19.0855354 L16.9999596,19.0869495 L16.9996768,19.0869495 L16.9742222,19.1121212 L16.9490505,19.1361616 C16.9063434,19.1771717 16.8622222,19.2173333 16.8172525,19.2574949 L16.8172525,19.2574949 L16.8172525,19.2572121 L16.8166869,19.2577778 L16.816404,19.2580606 L16.7691717,19.2993535 L16.7227879,19.3389495 L16.7227879,19.3386667 L16.7219394,19.339798 L16.7216566,19.3400808 L16.7199596,19.3414949 L16.7191111,19.3420606 L16.6710303,19.3822222 L16.6226667,19.4215354 L16.6223838,19.4215354 C16.5547879,19.4755556 16.4871919,19.5270303 16.4190303,19.5762424 L16.4190303,19.5762424 L16.4170505,19.5779394 L16.4167677,19.5782222 L16.3664242,19.6135758 L16.3129697,19.6506263 L16.2592323,19.6871111 L16.2074747,19.7207677 L16.2071919,19.7207677 L16.2057778,19.7221818 L16.2052121,19.7227475 L16.1497778,19.7578182 L16.0960404,19.7911919 L16.0957576,19.7911919 L16.0949091,19.7920404 L16.0946263,19.7920404 L16.0380606,19.8262626 L15.9817778,19.8590707 L15.9274747,19.8904646 L15.8723232,19.9207273 L15.8349899,19.9405253 L15.8239596,19.9461818 L15.7608889,19.9795556 L15.7218586,19.9990707 L15.7133737,20.0030303 L15.7068687,20.0061414 L15.7068687,20.0064242 L15.6989495,20.0106667 L15.6986667,20.0109495 L15.6494545,20.0349899 L15.5979798,20.0593131 L15.5371717,20.087596 L15.4831515,20.1116364 L15.4217778,20.1379394 L15.4217778,20.1379394 L15.3714343,20.1591515 L15.307798,20.1846061 L15.2551919,20.2055354 L15.1915556,20.2292929 L15.1412121,20.2473939 L15.0764444,20.270303 L15.0241212,20.2878384 C14.9941414,20.2974545 14.9757576,20.3033939 14.9576566,20.3090505 L14.9576566,20.3090505 L14.9104242,20.3237576 L14.841697,20.3438384 L14.7907879,20.3579798 L14.7342222,20.3732525 L14.716404,20.3780606 L14.6768081,20.3882424 L14.6394747,20.3975758 L14.6394747,20.3972929 L14.6015758,20.4060606 L14.6015758,20.4063434 L14.5472727,20.4190707 L14.4926869,20.4309495 L14.4400808,20.441697 L14.4185859,20.4459394 C14.3883232,20.4518788 14.3580606,20.4575354 14.3227071,20.4637576 L14.3227071,20.4637576 L14.2777374,20.4711111 L14.2777374,20.4716768 L14.2768889,20.4716768 L14.2686869,20.4725253 L14.268404,20.4728081 C14.2511515,20.4756364 14.2330505,20.4787475 14.2039192,20.4829899 L14.2039192,20.4829899 L14.2039192,20.4832727 L14.1459394,20.4914747 L14.1462222,20.4911919 L14.0907879,20.4988283 L14.0251717,20.5067475 L14.0138586,20.5078788 L13.9691717,20.5126869 L13.9691717,20.5129697 L13.9083636,20.5189091 L13.8534949,20.5237172 L13.8534949,20.5234343 L13.7912727,20.5279596 L13.7321616,20.5316364 L13.7321616,20.5319192 L13.6716364,20.5350303 L13.6716364,20.5347475 L13.617899,20.5370101 L13.5848081,20.5378586 L13.5525657,20.5387071 L13.4996768,20.5395556 L13.4996768,20.5392727 L13.4948687,20.5392727 L13.4948687,20.5398384 C13.4776162,20.5398384 13.4603636,20.5401212 13.4340606,20.5398384 L13.4340606,20.5398384 L13.3831515,20.5392727 L13.3825859,20.5392727 L13.382303,20.5392727 L13.3726869,20.5392727 L13.318101,20.5381414 L13.2677576,20.5364444 L13.2677576,20.5367273 L13.2315556,20.5353131 L13.1953535,20.5336162 L13.1953535,20.5333333 L13.1792323,20.5324848 L13.1783838,20.5324848 L13.178101,20.5327677 L13.1198384,20.5290909 L13.0610101,20.5248485 C12.9608889,20.5174949 12.8616162,20.5067475 12.7640404,20.4934545 L12.7640404,20.4934545 L12.7388687,20.4900606 L12.6975758,20.4841212 L12.6975758,20.4841212 L12.6551515,20.4773333 L12.6248889,20.4728081 L12.6248889,20.4730909 L12.5855758,20.4660202 L12.5454141,20.4589495 L12.5454141,20.4589495 L12.5083636,20.4524444 L12.4744242,20.4456566 L12.4396364,20.4385859 L12.4396364,20.4388687 L12.392404,20.4292525 L12.3926869,20.4292525 L12.3567677,20.4210505 L12.3211313,20.4131313 L12.2818182,20.4043636 L12.2425051,20.3950303 L12.2026263,20.3851313 L12.1760404,20.3780606 L12.1307879,20.3664646 L12.0866667,20.354303 L12.0694141,20.3494949 L12.0244444,20.3364848 L11.9797576,20.3234747 L11.9562828,20.316404 L11.9107475,20.3022626 L11.9110303,20.3019798 L11.8652121,20.2875556 L11.8578586,20.2852929 L11.807798,20.2683232 L11.7577374,20.2513535 L11.7523636,20.2493737 L11.7512323,20.2490909 L11.7512323,20.2488081 C11.7195556,20.2374949 11.6895758,20.2270303 11.6635556,20.2171313 L11.6635556,20.2171313 C11.6378182,20.2075152 11.6086869,20.196202 11.5761616,20.1834747 L11.5761616,20.1834747 C11.4268283,20.1246465 11.2803232,20.0587475 11.1377778,19.9860606 L11.1377778,19.9860606 L11.1377778,19.9857778 L11.1318384,19.9829495 L11.0843232,19.9586263 L11.0376566,19.9340202 L11.0311515,19.9303434 L11.0314343,19.9303434 L10.985899,19.9057374 L10.9414949,19.8811313 L10.9417778,19.8808485 L10.9284848,19.8732121 L10.9284848,19.8732121 L10.928202,19.8732121 L10.9160404,19.8661414 L10.903596,19.8590707 C10.8818182,19.8466263 10.8611717,19.8347475 10.8430707,19.824 L10.8430707,19.824 L10.8292121,19.8155152 L10.8292121,19.8152323 L10.788202,19.7906263 L10.7469091,19.7648889 L10.7469091,19.7651717 L10.7282424,19.7532929 L10.6863838,19.7267071 L10.6453737,19.7001212 L10.6385859,19.695596 L10.6385859,19.6953131 L10.5930505,19.6647677 L10.5930505,19.6650505 L10.547798,19.6342222 L10.5475152,19.6342222 L10.5466667,19.6333737 C10.5076364,19.6062222 10.4683232,19.5782222 10.4301414,19.5502222 L10.4301414,19.5502222 C10.3930909,19.5227879 10.3549091,19.4939394 10.3153131,19.4628283 L10.3153131,19.4628283 C10.1207273,19.3109495 9.93632323,19.1440808 9.76379798,18.9627879 L9.76379798,18.9627879 L9.76379798,18.9625051 L9.76068687,18.9593939 L9.7609697,18.9593939 L9.72307071,18.9192323 L9.72307071,18.9195152 L9.68630303,18.8790707 L9.67979798,18.8722828 L9.64274747,18.8304242 L9.60541414,18.788 L9.60343434,18.7854545 L9.56808081,18.7444444 L9.56836364,18.7441616 L9.53244444,18.7017374 L9.52367677,18.6904242 L9.52367677,18.6907071 L9.48973737,18.6491313 L9.4900202,18.6491313 L9.45608081,18.6067071 L9.45579798,18.6069899 L9.45183838,18.6016162 L9.45183838,18.6013333 L9.41789899,18.5574949 L9.41761616,18.5574949 L9.38452525,18.5139394 L9.38424242,18.5139394 L9.3819798,18.5108283 L9.35115152,18.4706667 L9.30759596,18.4961212 L4.59171717,21.2189091 L4.59143434,21.2186263 C4.51026263,21.2655758 4.43616162,21.2865051 4.37139394,21.2876364 L4.37139394,21.2876364 C4.3159596,21.2884848 4.2670303,21.2743434 4.22517172,21.2491717 L4.22517172,21.2491717 C4.18331313,21.2237172 4.14824242,21.1863838 4.12222222,21.1411313 L4.12222222,21.1411313 C4.08771717,21.0814545 4.06876768,21.0087677 4.06735354,20.9304242 L4.06735354,20.9304242 L4.07216162,11.4214545 L4.07244444,11.3210505 L3.98589899,11.3713939 Z" id="path-3"></path>
        <linearGradient x1="50.1600418%" y1="68.5715603%" x2="43.5991911%" y2="36.8838263%" id="linearGradient-5">
            <stop stop-color="#9C0523" offset="0%"></stop>
            <stop stop-color="#E2002B" offset="100%"></stop>
        </linearGradient>
        <path d="M0.156686869,4.15814141 C0.156686869,6.33535354 1.92238384,8.10076768 4.09931313,8.10076768 L4.09931313,8.10076768 C6.27652525,8.10076768 8.04193939,6.33535354 8.04193939,4.15814141 L8.04193939,4.15814141 C8.04193939,1.98092929 6.27652525,0.21579798 4.09931313,0.21579798 L4.09931313,0.21579798 C1.92238384,0.21579798 0.156686869,1.98092929 0.156686869,4.15814141" id="path-6"></path>
        <linearGradient x1="57.6212242%" y1="104.219959%" x2="42.3814455%" y2="-4.21280758%" id="linearGradient-8">
            <stop stop-color="#C34D1A" offset="0%"></stop>
            <stop stop-color="#F7C118" offset="100%"></stop>
        </linearGradient>
        <path d="M0.156969697,4.15814141 C0.156969697,6.33535354 1.92238384,8.10076768 4.09931313,8.10076768 L4.09931313,8.10076768 C6.27652525,8.10076768 8.04193939,6.33535354 8.04193939,4.15814141 L8.04193939,4.15814141 C8.04193939,1.98092929 6.27652525,0.21579798 4.09931313,0.21579798 L4.09931313,0.21579798 C1.92238384,0.21579798 0.156969697,1.98092929 0.156969697,4.15814141 M0.684161616,4.15814141 C0.684161616,2.27252525 2.21341414,0.742989899 4.09931313,0.742989899 L4.09931313,0.742989899 C5.98549495,0.742989899 7.51474747,2.27252525 7.51474747,4.15814141 L7.51474747,4.15814141 C7.51474747,6.0440404 5.98549495,7.57329293 4.09931313,7.57329293 L4.09931313,7.57329293 C2.21341414,7.57329293 0.684161616,6.0440404 0.684161616,4.15814141" id="path-9"></path>
        <linearGradient x1="66.6775817%" y1="91.278473%" x2="33.3174117%" y2="8.70915313%" id="linearGradient-11">
            <stop stop-color="#CA8000" offset="0%"></stop>
            <stop stop-color="#FFEDA3" offset="100%"></stop>
        </linearGradient>
        <path d="M0.118505051,3.59248485 C0.118505051,5.47838384 1.64775758,7.00763636 3.53365657,7.00763636 L3.53365657,7.00763636 C5.41983838,7.00763636 6.94909091,5.47838384 6.94909091,3.59248485 L6.94909091,3.59248485 C6.94909091,1.70686869 5.41983838,0.177333333 3.53365657,0.177333333 L3.53365657,0.177333333 C1.64775758,0.177333333 0.118505051,1.70686869 0.118505051,3.59248485" id="path-12"></path>
        <linearGradient x1="57.6195507%" y1="104.222243%" x2="42.379728%" y2="-4.21023426%" id="linearGradient-14">
            <stop stop-color="#F29100" offset="0%"></stop>
            <stop stop-color="#FFCA00" offset="100%"></stop>
        </linearGradient>
        <path d="M11.3634747,0.447717172 C11.7701818,0.624767677 12.135596,1.4039596 12.1138182,1.9209697 L12.1138182,1.9209697 L12.1220202,9.47644444 L12.0985455,9.67894949 L12.0295354,9.86109091 L11.8762424,10.0115556 L5.00012121,13.9640808 L4.63527273,14.103798 L4.20084848,14.1620606 L3.76416162,14.084 L3.38347475,13.8874343 L1.0040404,12.5196768 L0.100969697,12.626303 L0.18779798,12.6763636 L2.08218182,13.7703434 L3.07660606,14.344202 C3.7539798,14.7353535 4.55410101,14.7243232 5.19923232,14.3852121 L5.19923232,14.3852121 L11.9616566,10.480202 L11.9619394,10.480202 C12.1389899,10.3769697 12.2589091,10.2757172 12.3349899,10.1481616 L12.3349899,10.1481616 C12.4113535,10.0200404 12.441899,9.86985859 12.4404848,9.66989899 L12.4404848,9.66989899 L12.4407677,9.66989899 L12.4407677,1.95575758 C12.4534949,0.911555556 11.7814949,0.307151515 11.3906263,0.0568484848 L11.3906263,0.0568484848 C11.4867879,0.304323232 11.3479192,0.21240404 11.3634747,0.447717172" id="path-15"></path>
        <linearGradient x1="222.061256%" y1="1201.91675%" x2="-120.816125%" y2="-1095.91126%" id="linearGradient-17">
            <stop stop-color="#622824" offset="0%"></stop>
            <stop stop-color="#E20044" offset="100%"></stop>
        </linearGradient>
        <path d="M0.000565656566,0.208444444 L0.000848484848,7.14113131 C0.0121616162,7.63523232 0.230222222,7.81284848 0.504,7.9539798 L0.504,7.9539798 L6.21882828,11.2248889 L7.21240404,11.7987475 C7.89034343,12.189899 8.69046465,12.1788687 9.33559596,11.8397576 L9.33559596,11.8397576 L21.1145455,5.01511111 C20.9968889,5.02925253 20.2861414,4.99842424 20.2861414,4.99842424 L20.2861414,4.99842424 L9.13648485,11.4186263 L8.77135354,11.5583434 L8.33721212,11.6166061 L7.90024242,11.5385455 L7.51983838,11.3419798 L0.846505051,7.55066667 C0.528323232,7.392 0.490141414,7.17761616 0.489858586,6.92193939 L0.489858586,6.92193939 L0.489575758,0.204484848 L0.000565656566,0.208444444 Z" id="path-18"></path>
        <linearGradient x1="123.69812%" y1="444.389003%" x2="-23.5762143%" y2="-343.997529%" id="linearGradient-20">
            <stop stop-color="#622824" offset="0%"></stop>
            <stop stop-color="#E20044" offset="100%"></stop>
        </linearGradient>
        <path d="M8.34230303,0.0704242424 C8.14969697,0.0647676768 7.98735354,0.146222222 7.83971717,0.241252525 L7.83971717,0.241252525 L1.15931313,4.09846465 C0.481373737,4.48989899 0.0845656566,5.22270707 0.0741010101,5.94618182 L0.0741010101,5.94618182 L0.0741010101,19.5756768 L0.601575758,18.6624242 L0.601575758,6.17385859 C0.601575758,5.50666667 0.853575758,4.89292929 1.43535354,4.55721212 L1.43535354,4.55721212 C2.72250505,3.81450505 3.9740202,3.08339394 5.23119192,2.35737374 L5.23119192,2.35737374 L5.27418182,2.33248485 L5.33329293,2.29826263 L5.36666667,2.27931313 C6.26040404,1.76315152 7.15329293,1.24812121 8.03515152,0.739030303 L8.03515152,0.739030303 C8.06258586,0.723474747 8.08832323,0.709050505 8.11292929,0.696606061 L8.11292929,0.696606061 L8.11575758,0.695191919 L8.11717172,0.694626263 C8.20088889,0.654181818 8.26989899,0.633535354 8.33721212,0.632121212 L8.33721212,0.632121212 L8.33834343,0.632121212 L8.34569697,0.632121212 L8.34739394,0.632121212 C8.41442424,0.633535354 8.48315152,0.654181818 8.56715152,0.694626263 L8.56715152,0.694626263 L8.56884848,0.695191919 L8.57167677,0.696606061 C8.59628283,0.709050505 8.62173737,0.723474747 8.64888889,0.739030303 L8.64888889,0.739030303 C9.53131313,1.24812121 10.4239192,1.76315152 11.3176566,2.27931313 L11.3176566,2.27931313 L11.3513131,2.29826263 L11.4101414,2.33248485 L11.4531313,2.35737374 C12.710303,3.08367677 13.962101,3.80630303 15.2486869,4.54985859 L15.2486869,4.54985859 C15.8310303,4.88585859 16.0779394,5.46650505 16.0779394,6.13482828 L16.0779394,6.13482828 L16.0779394,8.51313131 L16.6054141,9.42638384 L16.6054141,5.94618182 C16.5765657,5.21761616 16.2032323,4.48989899 15.5252929,4.09846465 L15.5252929,4.09846465 L8.84460606,0.241252525 C8.70177778,0.149333333 8.54537374,0.0701414141 8.3609697,0.0701414141 L8.3609697,0.0701414141 C8.35474747,0.0701414141 8.34852525,0.0704242424 8.34230303,0.0704242424" id="path-21"></path>
        <linearGradient x1="380.819304%" y1="545.212668%" x2="-302.964825%" y2="-451.110722%" id="linearGradient-23">
            <stop stop-color="#FFFFFF" offset="0%"></stop>
            <stop stop-color="#DB0D2D" offset="100%"></stop>
        </linearGradient>
    </defs>
    <g id="payment" stroke="none" stroke-width="1" fill="none" fill-rule="evenodd">
        <g id="pay" transform="translate(-1083.000000, -457.000000)">
            <g id="Group-46" transform="translate(1083.000000, 457.000000)">
                <g id="Group-10" transform="translate(0.000000, 0.212743)">
                    <path d="M13.0734545,4.99443636 L13.0734545,10.4397293 L13.0737374,10.4900727 L13.0236768,10.4968606 L13.0197172,10.4974263 L13.0194343,10.4974263 L12.9651313,10.5042141 L12.9651313,10.504497 L12.9102626,10.5121333 L12.9099798,10.5121333 L12.9031919,10.5129818 L12.9031919,10.5129818 L12.8497374,10.5211838 L12.7971313,10.5293859 L12.7832727,10.5319313 L12.7832727,10.5319313 L12.728404,10.5415475 L12.728404,10.5412646 L12.6749495,10.5511636 L12.6721212,10.5517293 L12.6718384,10.5517293 L12.616404,10.5627596 L12.616404,10.5627596 L12.5615354,10.5743556 L12.5615354,10.5740727 L12.5524848,10.5760525 L12.4993131,10.5879313 L12.4993131,10.5882141 L12.4455758,10.6006586 L12.4455758,10.6006586 L12.4413333,10.6017899 L12.4413333,10.6017899 C12.198101,10.6600525 11.9613737,10.7364162 11.7325657,10.828901 C11.685899,10.8478505 11.6417778,10.8665172 11.5996364,10.884901 C11.555798,10.9041333 11.5122424,10.9239313 11.4692525,10.9442949 L11.4678384,10.9448606 L11.4675556,10.9448606 L11.4186263,10.9683354 L11.4186263,10.9686182 L11.3694141,10.9926586 L11.3691313,10.9926586 L11.3620606,10.9963354 L11.3620606,10.9963354 L11.3185051,11.018396 L11.3185051,11.0186788 L11.2743838,11.0415879 L11.2548687,11.0517697 L11.2121616,11.0749616 L11.170303,11.0978707 L11.170303,11.0978707 L11.1558788,11.1057899 C11.1374949,11.1159717 11.1171313,11.1278505 11.0947879,11.1405778 L11.0829091,11.1476485 L11.0707475,11.1547192 L11.0704646,11.1547192 L11.0704646,11.155002 L11.0574545,11.1626384 L11.0574545,11.1623556 L11.0136162,11.1883758 L11.0136162,11.1883758 L10.9697778,11.2155273 L10.9697778,11.2152444 L10.9632727,11.219204 L10.9185859,11.247204 L10.9185859,11.247204 L10.873899,11.2760525 L10.873899,11.2760525 L10.8682424,11.2797293 L10.8682424,11.2797293 C10.733899,11.3671232 10.603798,11.4610222 10.4779394,11.5608606 C10.4507879,11.5826384 10.4264646,11.6021535 10.4052525,11.6196889 C10.3837576,11.6372242 10.3594343,11.6578707 10.333697,11.6796485 L10.3328485,11.680497 L10.3283232,11.6841737 L10.2884444,11.7189616 L10.2491313,11.7537495 L10.2431919,11.7588404 L10.2434747,11.7591232 L10.2078384,11.7913657 L10.2075556,11.7913657 L10.1727677,11.8236081 L10.1730505,11.8236081 L10.1552323,11.8402949 L10.1212929,11.8722545 L10.0873535,11.9050626 L10.0749091,11.9172242 L10.0423838,11.9494667 L10.0095758,11.9825576 L9.99006061,12.0026384 L9.96177778,12.0320525 L9.93377778,12.0614667 L9.90662626,12.0908808 L9.88173737,12.1177495 L9.85684848,12.1451838 L9.85684848,12.144901 L9.82517172,12.181103 L9.82517172,12.181103 L9.8019798,12.2074061 L9.80169697,12.2074061 L9.77907071,12.2337091 L9.7550303,12.2622747 L9.75474747,12.2622747 L9.72872727,12.2933859 L9.7029899,12.324497 L9.7029899,12.324497 L9.68375758,12.3479717 L9.65688889,12.3816283 L9.65688889,12.3816283 L9.63086869,12.4144364 L9.63115152,12.4144364 L9.61559596,12.4345172 C9.55535354,12.5125778 9.49652525,12.5931838 9.4399596,12.6760525 L9.40686869,12.7249818 L9.40686869,12.724699 L9.37462626,12.7733455 L9.37462626,12.7739111 L9.37406061,12.7744768 L9.36529293,12.7880525 L9.36529293,12.7880525 L9.34577778,12.818598 L9.32626263,12.8491434 L9.32654545,12.8491434 L9.2999596,12.8918505 L9.27167677,12.9388 L9.26658586,12.947002 L9.26658586,12.9472848 L9.26630303,12.9478505 L9.24028283,12.9916889 C9.22727273,13.0143152 9.21878788,13.0295879 9.21030303,13.0440121 L9.21030303,13.0442949 L9.2080404,13.0485374 L9.2080404,13.0485374 L9.18230303,13.0946384 L9.1820202,13.0946384 L9.16674747,13.1229212 L9.15090909,13.1520525 L9.15119192,13.1523354 L9.12573737,13.1998505 L9.09830303,13.2538707 L9.09830303,13.2541535 L9.07228283,13.3067596 L9.072,13.3067596 L9.04456566,13.3630424 L9.04456566,13.3630424 L9.02137374,13.4128202 L9.02137374,13.4128202 L8.99620202,13.4682545 L8.99620202,13.4682545 L8.97838384,13.5095475 L8.97357576,13.5202949 L8.94755556,13.581103 L8.92634343,13.6325778 L8.92634343,13.6325778 L8.90456566,13.686598 C8.89381818,13.7140323 8.88731313,13.7312848 8.88137374,13.7476889 L8.88137374,13.7479717 L8.87826263,13.7556081 L8.8779798,13.7561737 L8.8779798,13.7564566 L8.86185859,13.7991636 C8.84969697,13.8328202 8.83951515,13.8622343 8.82961616,13.8913657 L8.82961616,13.8913657 L8.82226263,13.9117293 L8.80529293,13.9629212 L8.80529293,13.9629212 L8.78832323,14.0158101 L8.77220202,14.0692646 L8.77248485,14.0692646 L8.76117172,14.1068808 L8.76088889,14.106598 L8.75014141,14.1436485 L8.73939394,14.1826788 L8.73430303,14.2007798 L8.73458586,14.2010626 L8.71931313,14.2573455 L8.70658586,14.3088202 L8.68961616,14.3781131 L8.67830303,14.4264768 C8.67434343,14.4451434 8.67010101,14.4638101 8.66387879,14.4943556 L8.66359596,14.4943556 L8.65256566,14.5486586 L8.65284848,14.5486586 L8.63983838,14.6162545 L8.64012121,14.6162545 L8.63078788,14.6691434 L8.63050505,14.6691434 L8.61947475,14.7358909 L8.61947475,14.7358909 L8.6109899,14.7918909 L8.6109899,14.7918909 L8.60137374,14.8594869 L8.59430303,14.9140727 L8.59458586,14.9140727 L8.58666667,14.9805374 L8.58044444,15.0390828 L8.58044444,15.0390828 L8.57450505,15.1058303 L8.57478788,15.1058303 L8.5699798,15.1626788 L8.56630303,15.2172646 L8.56630303,15.2175475 L8.56573737,15.226598 L8.56573737,15.226598 L8.56545455,15.2339515 L8.56488889,15.243002 L8.56234343,15.2868404 L8.55951515,15.3581131 L8.55923232,15.3702747 L8.55753535,15.4124162 L8.55640404,15.4754869 L8.55583838,15.5385576 L8.55640404,15.6036081 L8.55781818,15.6692242 L8.55781818,15.6697899 L8.55781818,15.6709212 L8.55781818,15.671204 L8.55781818,15.671204 L8.55979798,15.7345576 L8.56262626,15.7998909 L8.56262626,15.8007394 L8.56290909,15.8027192 L8.56290909,15.803002 L8.56290909,15.803002 L8.56630303,15.8643758 L8.56630303,15.8643758 L8.57111111,15.9294263 L8.57620202,15.9941939 L8.57620202,15.9941939 L8.58185859,16.0555677 L8.58214141,16.0558505 L8.58242424,16.058396 C8.59090909,16.1421131 8.60165657,16.2266788 8.61466667,16.3118101 L8.61466667,16.3118101 L8.61466667,16.3120929 L8.62456566,16.3734667 L8.63531313,16.4351232 L8.63531313,16.4365374 L8.63559596,16.4382343 L8.63587879,16.4388 L8.63616162,16.4402141 L8.63587879,16.4402141 L8.64690909,16.5004566 L8.64719192,16.5004566 L8.65935354,16.5615475 L8.65935354,16.5621131 L8.65935354,16.5621131 L8.65963636,16.5629616 L8.65935354,16.5629616 C8.67151515,16.6215071 8.68452525,16.6797697 8.69838384,16.7374667 L8.69866667,16.7374667 L8.70686869,16.7714061 L8.70715152,16.7714061 L8.71563636,16.8056283 L8.71563636,16.8061939 L8.71620202,16.8084566 L8.71620202,16.8084566 L8.73232323,16.8689818 L8.7320404,16.8689818 L8.74872727,16.9289414 L8.7490101,16.9297899 L8.7490101,16.9297899 C8.75721212,16.9580727 8.76569697,16.9863556 8.77389899,17.0143556 L8.77389899,17.0143556 L8.77870707,17.0304768 L8.78408081,17.0468808 L8.78436364,17.0480121 L8.78464646,17.0494263 L8.78464646,17.0494263 L8.80359596,17.1088202 L8.80331313,17.1088202 L8.82282828,17.1665172 L8.82282828,17.1665172 L8.82339394,17.1679313 L8.82339394,17.1682141 L8.84319192,17.2261939 L8.86355556,17.2827596 L8.86412121,17.2833253 L8.86468687,17.2853051 L8.86468687,17.2855879 L8.86468687,17.2855879 L8.88533333,17.3407394 L8.90682828,17.3958909 L8.90682828,17.3958909 L8.90993939,17.4040929 L8.93143434,17.4578303 L8.95434343,17.5124162 L8.95547475,17.5152444 L8.95519192,17.5152444 L8.95547475,17.5158101 L8.97640404,17.5630424 L8.93143434,17.5890626 L5.46028283,19.5931838 L5.37373737,19.6429616 L5.37373737,19.5431232 L5.37373737,7.20558788 L5.37373737,6.05758788 C5.37373737,5.25096162 5.80872727,4.54558788 6.45725253,4.16348687 L6.49430303,4.14199192 L7.99131313,3.27795152 L13.1747071,0.285062626 C13.3472323,0.183810101 13.4926061,0.135163636 13.6413737,0.13735086 L13.6416566,0.13735086 C13.7901414,0.139688889 13.9377778,0.192577778 14.1159596,0.29439596 L14.1159596,0.294678788 L20.8789495,4.1988404 C21.4952323,4.58801212 21.9050505,5.27500202 21.9050505,6.05758788 L21.9050505,7.20558788 L21.9050505,9.39354747 L21.9050505,9.49338586 L21.8179394,9.44332525 L13.5856566,4.68445657 C13.5169293,4.64627475 13.4445253,4.6267596 13.375798,4.6267596 C13.3234747,4.6267596 13.273697,4.63807273 13.2307071,4.6618303 C13.188,4.68530505 13.1509495,4.72094141 13.1240808,4.76902222 C13.092404,4.82587071 13.0737374,4.90053737 13.0737374,4.99443636 L13.0734545,4.99443636 Z" id="Fill-1" fill="#000000"></path>
                    <g id="Group-5" transform="translate(0.000000, 11.313131)">
                        <mask id="mask-2" fill="white">
                            <use xlink:href="#path-1"></use>
                        </mask>
                        <g id="Clip-4"></g>
                        <path d="M4.80047273,9.97294949 L9.51635152,7.25016162 L9.55990707,7.2249899 L9.59073535,7.26486869 L9.59299798,7.2679798 L9.59328081,7.26826263 L9.62637172,7.31181818 L9.62637172,7.31181818 L9.66059394,7.35537374 L9.66059394,7.35565657 L9.66483636,7.3610303 L9.69849293,7.40345455 L9.73214949,7.44474747 L9.7412,7.45577778 L9.74148283,7.45549495 L9.77711919,7.49820202 L9.77683636,7.49820202 L9.8121899,7.53949495 L9.8121899,7.53949495 L9.8141697,7.54175758 L9.81445253,7.5420404 L9.85150303,7.58474747 L9.88855354,7.62632323 L9.88855354,7.62632323 L9.89477576,7.63311111 L9.93182626,7.67355556 L9.93182626,7.67327273 L9.96972525,7.71343434 L9.96944242,7.71371717 L9.97255354,7.71654545 L9.97255354,7.71682828 C10.144796,7.89812121 10.3292,8.0649899 10.5237859,8.21715152 L10.5237859,8.21686869 C10.5636646,8.24769697 10.6018465,8.27682828 10.6386141,8.3039798 C10.6770788,8.33254545 10.7163919,8.36026263 10.7554222,8.38741414 L10.7554222,8.38741414 L10.7565535,8.38826263 L10.7568364,8.38826263 L10.8015232,8.41909091 L10.8015232,8.41880808 L10.8473414,8.44963636 L10.8473414,8.44963636 L10.8538465,8.45387879 L10.8951394,8.48074747 L10.8951394,8.48074747 L10.936998,8.50733333 L10.936998,8.50733333 L10.9556646,8.51921212 L10.9969576,8.54466667 L11.0376848,8.56955556 L11.0376848,8.56955556 L11.0521091,8.5780404 C11.0699273,8.58878788 11.0905737,8.60066667 11.1126343,8.61311111 L11.1245131,8.62018182 L11.1366747,8.62725253 L11.1369576,8.62753535 L11.1369576,8.62725253 L11.1502505,8.63488889 L11.1502505,8.63517172 L11.1943717,8.65977778 L11.1946545,8.65949495 L11.2401899,8.68438384 L11.2399071,8.68438384 L11.2464121,8.68806061 L11.2930788,8.71266667 L11.2930788,8.71266667 L11.3405939,8.7369899 L11.3462505,8.74010101 L11.3465333,8.74010101 C11.4890788,8.81278788 11.6355838,8.87840404 11.7849172,8.93723232 C11.8174424,8.95024242 11.8465737,8.96155556 11.8723111,8.97117172 C11.8980485,8.98078788 11.9283111,8.99153535 11.9599879,9.00284848 L11.9599879,9.00313131 L11.9599879,9.00313131 L11.9608364,9.00341414 L11.9664929,9.00539394 L12.0165535,9.02264646 L12.0663313,9.03933333 L12.0739677,9.04159596 L12.119503,9.05630303 L12.119503,9.05630303 L12.1650384,9.07044444 L12.1650384,9.07044444 L12.1882303,9.07751515 L12.2332,9.09052525 L12.2781697,9.10353535 L12.2951394,9.10834343 L12.3395434,9.12050505 L12.3842303,9.13210101 L12.4116646,9.13917172 L12.4512606,9.14878788 L12.4905737,9.15840404 L12.5298869,9.16717172 L12.5655232,9.17537374 L12.6014424,9.18329293 L12.6014424,9.18329293 L12.6483919,9.19290909 L12.6483919,9.19262626 L12.6831798,9.19969697 L12.6831798,9.19969697 L12.7171192,9.20620202 L12.7541697,9.2129899 L12.7538869,9.2129899 L12.7940485,9.22006061 L12.8339273,9.22684848 L12.8339273,9.22684848 L12.8639071,9.23137374 L12.9063313,9.23816162 L12.9476242,9.24438384 L12.9476242,9.24410101 L12.972796,9.24749495 C13.0703717,9.26078788 13.1696444,9.27153535 13.2697657,9.27888889 L13.3285939,9.28313131 L13.3285939,9.28341414 L13.3865737,9.28680808 L13.3871394,9.28652525 L13.3877051,9.28652525 L13.4041091,9.28765657 L13.4041091,9.28765657 L13.4403111,9.28935354 L13.4765131,9.29048485 L13.4765131,9.29048485 L13.5268566,9.29218182 L13.5814424,9.29331313 L13.5910586,9.29359596 L13.5913414,9.29331313 L13.5919071,9.29331313 L13.6428162,9.29387879 C13.6691192,9.29416162 13.6863717,9.29387879 13.7036242,9.29359596 L13.7033414,9.29359596 L13.7081495,9.29359596 L13.7613212,9.29274747 L13.7613212,9.2930303 L13.7935636,9.29189899 L13.8266545,9.29105051 L13.8266545,9.29076768 L13.8803919,9.28878788 L13.8803919,9.28907071 L13.9409172,9.2859596 L13.9409172,9.28567677 L13.9997455,9.282 L13.9997455,9.28228283 L14.0622505,9.27775758 L14.1171192,9.27294949 L14.1168364,9.27266667 L14.1776444,9.2670101 L14.1776444,9.26672727 L14.2223313,9.26191919 L14.2339273,9.26050505 L14.2998263,9.25286869 L14.3546949,9.24523232 L14.4126747,9.23731313 L14.4126747,9.2370303 C14.4418061,9.23278788 14.4599071,9.2299596 14.4771596,9.22684848 L14.4774424,9.22684848 L14.4853616,9.22543434 L14.4862101,9.22543434 L14.4864929,9.22515152 L14.5314626,9.21779798 C14.5665333,9.21157576 14.5970788,9.20591919 14.6273414,9.1999798 L14.6276242,9.1999798 L14.6485535,9.19573737 L14.6485535,9.19573737 L14.7017253,9.1849899 L14.7017253,9.1849899 L14.7557455,9.17311111 L14.8100485,9.16038384 L14.8100485,9.16010101 L14.8482303,9.15133333 L14.8482303,9.15161616 L14.8855636,9.14228283 L14.9248768,9.13210101 L14.9429778,9.12729293 L14.9429778,9.12729293 L14.9995434,9.11230303 L15.0504525,9.09759596 L15.0504525,9.09787879 L15.118897,9.07779798 L15.1661293,9.06309091 C15.1845131,9.05743434 15.202897,9.05177778 15.2325939,9.04187879 L15.2852,9.02434343 L15.3499677,9.00143434 L15.4005939,8.98305051 L15.4005939,8.98333333 L15.4636646,8.95957576 L15.4636646,8.95957576 L15.5168364,8.93864646 L15.5168364,8.93892929 L15.5799071,8.91319192 L15.6308162,8.89226263 L15.6308162,8.8919798 L15.6919071,8.86539394 L15.6921899,8.86539394 L15.7456444,8.84163636 L15.7456444,8.84163636 L15.8067354,8.81335354 L15.8067354,8.81335354 L15.8584929,8.78874747 L15.9074222,8.76470707 L15.9074222,8.76470707 L15.9156242,8.76046465 L15.9156242,8.76046465 L15.9221293,8.75735354 L15.9306141,8.75311111 L15.9693616,8.73359596 L16.032998,8.70022222 L16.0434626,8.69456566 L16.080796,8.67476768 L16.1359475,8.64422222 L16.1905333,8.61311111 L16.247099,8.58030303 L16.303099,8.54636364 L16.3036646,8.54608081 L16.3045131,8.54523232 L16.304796,8.54523232 L16.3585333,8.51185859 L16.4136848,8.47678788 L16.4142505,8.47622222 L16.4159475,8.47509091 L16.4162303,8.47480808 L16.4162303,8.47509091 L16.4679879,8.44115152 L16.4677051,8.44115152 L16.5217253,8.40466667 L16.5751798,8.36761616 L16.5754626,8.36789899 L16.6255232,8.3319798 L16.6258061,8.3319798 L16.627503,8.33028283 C16.6959475,8.28135354 16.7638263,8.22931313 16.8311394,8.17557576 L16.8311394,8.17585859 L16.8314222,8.17557576 L16.879503,8.13626263 L16.9275838,8.09610101 L16.9284323,8.09553535 L16.9301293,8.09412121 L16.9304121,8.09383838 L16.9318263,8.0929899 L16.9318263,8.0929899 L16.9782101,8.05339394 L17.0251596,8.01210101 L17.0257253,8.01181818 L17.0254424,8.01181818 L17.0262909,8.0109697 L17.0262909,8.01125253 C17.0709778,7.97165657 17.1148162,7.93121212 17.1578061,7.89020202 L17.1575232,7.89020202 L17.1826949,7.86616162 L17.1826949,7.86587879 L17.2081495,7.84127273 L17.2087152,7.84070707 L17.2101293,7.83957576 L17.2104121,7.83957576 L17.2548162,7.79517172 L17.2980889,7.75105051 L17.2989374,7.75020202 L17.2989374,7.75020202 C17.3195838,7.7289899 17.3396646,7.70777778 17.3594626,7.68656566 L17.3597455,7.68656566 L17.3710586,7.67412121 L17.3829374,7.66139394 L17.3837859,7.66054545 L17.3846343,7.65941414 L17.3849172,7.65941414 L17.4270586,7.61359596 L17.4672202,7.56806061 L17.4680687,7.56692929 L17.4683515,7.56692929 L17.5085131,7.52054545 L17.5472606,7.47472727 L17.5475434,7.47387879 L17.5489576,7.47246465 L17.5492404,7.47246465 L17.5492404,7.47218182 L17.5868566,7.42692929 L17.6239071,7.38054545 L17.6239071,7.38054545 L17.628998,7.37375758 L17.6292808,7.3740404 L17.6649172,7.32822222 L17.6649172,7.32822222 L17.7008364,7.28127273 L17.7028162,7.2790101 L17.7028162,7.2790101 L17.7033818,7.27844444 L17.7339273,7.23686869 L17.7786141,7.26260606 L21.2500485,9.26672727 L21.3365939,9.31678788 L21.2500485,9.36684848 L10.5653616,15.5356162 L9.5712202,16.1094747 C8.87235152,16.5130707 8.0442303,16.4887475 7.3892,16.1182424 L7.35214949,16.0967475 L5.85513939,15.2327071 L0.671462626,12.240101 L0.671462626,12.2398182 C0.497523232,12.1411111 0.382694949,12.0395758 0.310290909,11.9097576 L0.310290909,11.9094747 C0.237886869,11.7796566 0.210169697,11.6252323 0.209321212,11.4201818 L0.209321212,11.4201818 L0.208755556,3.6110101 C0.23760404,2.88272727 0.627907071,2.18442424 1.30584646,1.7929899 L2.29970505,1.21913131 L4.19437172,0.125151515 L4.2812,0.0750909091 L4.2812,0.175494949 L4.27610909,9.68446465 C4.2772404,9.76280808 4.29647273,9.83577778 4.33069495,9.89488889 C4.35699798,9.94042424 4.39206869,9.97775758 4.43392727,10.0029293 C4.47550303,10.0283838 4.52499798,10.0425253 4.58014949,10.0416768 C4.64491717,10.0408283 4.71901818,10.0196162 4.80047273,9.97266667 L4.80047273,9.97294949 Z" id="Fill-3" fill="#000000" mask="url(#mask-2)"></path>
                    </g>
                    <path d="M23.0459232,20.3050061 L18.3297616,17.582501 L18.2862061,17.5573293 L18.3054384,17.5106626 L18.3068525,17.5069859 L18.3071354,17.5064202 L18.3280646,17.4560768 L18.3280646,17.4560768 L18.3492768,17.4048848 L18.3492768,17.404602 L18.3515394,17.3983798 L18.3716202,17.3477535 L18.3905697,17.2982586 L18.3902869,17.2982586 L18.3953778,17.2846828 L18.4146101,17.2323596 L18.4146101,17.2326424 L18.4327111,17.1814505 L18.4324283,17.1814505 L18.4335596,17.1783394 L18.4335596,17.1783394 L18.4519434,17.1248848 L18.4522263,17.1248848 L18.4694788,17.0717131 L18.4723071,17.0629455 L18.4889939,17.0109051 L18.4887111,17.0109051 L18.5045495,16.9580162 L18.5056808,16.9537737 L18.5059636,16.9537737 C18.5766707,16.7139354 18.6292768,16.470703 18.663499,16.2263394 L18.663499,16.2263394 C18.6702869,16.1765616 18.6765091,16.1287636 18.6813172,16.0835111 C18.6866909,16.035996 18.691499,15.988198 18.6951758,15.9406828 L18.6954586,15.9406828 L18.6954586,15.9392687 L18.6954586,15.9389859 L18.699701,15.8849657 L18.6994182,15.8849657 L18.7030949,15.8298141 L18.7033778,15.8298141 L18.7036606,15.8218949 L18.7062061,15.7729657 L18.7084687,15.7234707 L18.7084687,15.7231879 L18.7093172,15.7014101 L18.7107313,15.6527636 L18.7118626,15.6049657 L18.7121455,15.5885616 C18.7124283,15.5676323 18.7124283,15.5438747 18.7124283,15.5184202 L18.7124283,15.5042788 L18.7124283,15.4904202 L18.7124283,15.4901374 L18.7121455,15.4748646 L18.7124283,15.4748646 L18.7115798,15.4239556 L18.7101657,15.3724808 L18.7104485,15.3724808 L18.7101657,15.3651273 L18.7081859,15.3122384 L18.7056404,15.2590667 L18.7053576,15.2590667 L18.7050747,15.2525616 L18.7050747,15.2522788 C18.6968727,15.0924808 18.6804687,14.9326828 18.6567111,14.7740162 C18.6516202,14.7395111 18.6468121,14.7086828 18.6425697,14.6815313 C18.6377616,14.6543798 18.6323879,14.622703 18.6261657,14.5896121 L18.6261657,14.5896121 L18.6258828,14.5884808 L18.6247515,14.5828242 L18.6148525,14.5307838 L18.6043879,14.4793091 L18.6026909,14.4716727 L18.5925091,14.4247232 L18.5925091,14.4244404 L18.5820444,14.3783394 L18.5763879,14.3545818 L18.5653576,14.3090465 L18.5540444,14.2635111 L18.549802,14.2468242 L18.5382061,14.2021374 L18.5260444,14.1574505 L18.5181253,14.130299 L18.5068121,14.0912687 L18.4952162,14.0525212 L18.4833374,14.0140566 L18.4725899,13.9792687 L18.4615596,13.9439152 L18.4462869,13.8986626 L18.446004,13.8986626 L18.4346909,13.8650061 L18.4349737,13.8650061 L18.4236606,13.832198 L18.4109333,13.7971273 L18.3970747,13.7586626 L18.3832162,13.7207636 L18.3832162,13.7210465 L18.3721859,13.6924808 L18.3566303,13.652602 L18.3410747,13.6135717 L18.3410747,13.6135717 L18.3314586,13.5903798 C18.2941253,13.4990263 18.2539636,13.4076727 18.2101253,13.3174505 L18.1843879,13.2642788 L18.1846707,13.2642788 L18.1583677,13.2122384 L18.1580848,13.2119556 L18.157802,13.2111071 L18.1501657,13.1966828 L18.1504485,13.1966828 L18.1340444,13.1644404 L18.1167919,13.1324808 L18.1167919,13.1327636 L18.0930343,13.0880768 L18.0933172,13.0880768 L18.0667313,13.039996 L18.0670141,13.039996 L18.0622061,13.0317939 L18.0619232,13.0317939 L18.0616404,13.0309455 L18.0364687,12.9868242 C18.0234586,12.9639152 18.0146909,12.9489253 18.0062061,12.9342182 L18.0062061,12.934501 L18.0036606,12.9302586 L17.9765091,12.8850061 L17.9765091,12.8847232 L17.9598222,12.8572889 L17.9422869,12.8290061 L17.942004,12.8290061 L17.9134384,12.7834707 L17.9137212,12.7834707 L17.8803475,12.7325616 L17.8800646,12.7325616 L17.8478222,12.6836323 L17.8478222,12.6833495 L17.8127515,12.6315919 L17.8127515,12.6315919 L17.7813576,12.5863394 L17.7813576,12.5866222 L17.746004,12.5368444 L17.7457212,12.5368444 L17.7191354,12.5006424 L17.7123475,12.4915919 L17.6724687,12.4384202 L17.6385293,12.394299 L17.6026101,12.3484808 L17.6026101,12.3484808 C17.5839434,12.3255717 17.5723475,12.3111475 17.5613172,12.2975717 L17.5610343,12.2975717 L17.5559434,12.2913495 L17.5562263,12.2913495 L17.5556606,12.290501 L17.5553778,12.290501 L17.5262465,12.2551475 C17.5033374,12.2277131 17.4832566,12.2042384 17.4631758,12.1810465 L17.4628929,12.1810465 L17.4487515,12.1646424 L17.4131152,12.124198 L17.4128323,12.124198 L17.375499,12.0831879 L17.3373172,12.0424606 L17.3370343,12.0427434 L17.3104485,12.0141778 L17.3107313,12.0141778 L17.2841455,11.9861778 L17.2841455,11.9861778 L17.255297,11.9573293 L17.2422869,11.9440364 L17.242004,11.9440364 L17.2009939,11.9027434 L17.1628121,11.8659758 L17.1628121,11.8656929 L17.1113374,11.816198 L17.0751354,11.7828242 C17.0609939,11.7698141 17.0468525,11.756804 17.0233778,11.7361576 L17.0233778,11.7358747 L16.9820848,11.6991071 L16.9820848,11.6993899 L16.9300444,11.6544202 L16.9300444,11.654703 L16.8887515,11.6199152 L16.8887515,11.6199152 L16.8364283,11.5769253 L16.8364283,11.5772081 L16.7923071,11.5415717 L16.7382869,11.4994303 L16.6947313,11.4660566 L16.6947313,11.4663394 L16.6409939,11.4261778 L16.5937616,11.3916727 L16.5386101,11.3529253 L16.5386101,11.3532081 L16.4916606,11.3204 L16.4461253,11.2901374 L16.4458424,11.2901374 L16.4384889,11.2850465 L16.4382061,11.2850465 L16.4322667,11.2810869 L16.4246303,11.275996 L16.3881455,11.2519556 L16.3276202,11.2137737 L16.3171556,11.2072687 L16.2815192,11.1849253 L16.227499,11.1524 L16.173196,11.1207232 L16.1166303,11.0884808 L16.0592162,11.0565212 L16.0583677,11.0562384 L16.0575192,11.0559556 L16.0572364,11.0559556 L16.0575192,11.0559556 L16.0015192,11.0256929 L15.9435394,10.9957131 L15.9426909,10.9951475 L15.9409939,10.9945818 L15.9407111,10.994299 L15.8858424,10.9665818 L15.827297,10.9380162 L15.7684687,10.910299 L15.7684687,10.910299 L15.7121859,10.8845616 L15.711903,10.8845616 L15.7099232,10.8834303 C15.6329939,10.8489253 15.5543677,10.8161172 15.4740444,10.7847232 L15.4743273,10.7847232 L15.4740444,10.7847232 L15.4157818,10.7623798 L15.415499,10.7623798 L15.3569535,10.7408848 L15.3561051,10.740602 L15.3541253,10.7397535 L15.3535596,10.7394707 L15.3521455,10.7389051 L15.2947313,10.7185414 L15.2947313,10.7185414 L15.2356202,10.6984606 L15.2350545,10.6981778 L15.2350545,10.6984606 L15.2342061,10.6981778 L15.2342061,10.6978949 C15.1773576,10.6792283 15.1205091,10.6614101 15.0633778,10.6444404 L15.030004,10.6348242 L15.030004,10.6351071 L14.9957818,10.6252081 L14.9952162,10.6249253 L14.9935192,10.6243596 L14.9932364,10.6243596 L14.9327111,10.6079556 L14.9327111,10.6079556 L14.8727515,10.5924 L14.871903,10.5921172 L14.8716202,10.5924 C14.8430545,10.5850465 14.8144889,10.5782586 14.7862061,10.5714707 L14.7862061,10.5714707 L14.7695192,10.5677939 L14.7528323,10.5638343 L14.751701,10.5638343 L14.7502869,10.5632687 L14.7502869,10.5632687 L14.689196,10.5496929 L14.6894788,10.5496929 L14.629802,10.5375313 L14.629802,10.5378141 L14.6281051,10.5372485 L14.6281051,10.5372485 L14.5678626,10.5256525 L14.5087515,10.5149051 L14.5081859,10.5149051 L14.5059232,10.5146222 L14.5059232,10.5143394 L14.4479434,10.5047232 L14.4476606,10.5047232 L14.389398,10.4956727 L14.3891152,10.4956727 L14.3803475,10.4945414 L14.3803475,10.4942586 L14.3232162,10.4860566 L14.3232162,10.4863394 L14.2646707,10.4784202 L14.2615596,10.4781374 L14.2615596,10.4778545 L14.2609939,10.4778545 L14.209802,10.4724808 L14.209802,10.4204404 L14.209802,6.41219798 L14.209802,6.3123596 L14.2960646,6.3624202 L24.9810343,12.5311879 L25.9746101,13.1050465 C26.6734788,13.5083596 27.0668929,14.2380566 27.0734452,14.9903798 L27.0734452,15.0330869 L27.0734452,16.7617333 L27.0734452,22.7472283 C27.0748121,22.9474707 27.0445495,23.0976525 26.9681859,23.2252081 L26.967903,23.2254909 C26.8918222,23.3527636 26.7721859,23.454299 26.5948525,23.5575313 L26.5948525,23.5575313 L19.8324283,27.4625414 C19.1870141,27.8016525 18.3871758,27.8126828 17.7092364,27.4215313 L16.7153778,26.8476727 L14.8204283,25.7536929 L14.7338828,25.7036323 L14.8207111,25.6535717 L23.0583677,20.9034707 C23.125398,20.8630263 23.1791354,20.8101374 23.2130747,20.7507434 C23.2393778,20.7052081 23.2540848,20.6562788 23.2552162,20.6073495 C23.2563475,20.558703 23.2436202,20.5089253 23.2156202,20.4614101 C23.1822465,20.4056929 23.1268121,20.3522384 23.0456404,20.3050061 L23.0459232,20.3050061 Z" id="Fill-6" fill="#000000"></path>
                    <path d="M13.6413172,11.5958747 C15.8182465,11.5958747 17.5839434,13.3612889 17.5839434,15.538501 C17.5839434,17.7154303 15.8182465,19.4811273 13.6413172,19.4811273 C11.4643879,19.4811273 9.69869091,17.7154303 9.69869091,15.538501 C9.69869091,13.3612889 11.4643879,11.5958747 13.6413172,11.5958747" id="Fill-8" fill="#512200"></path>
                </g>
                <g id="Group-13" transform="translate(0.000000, 0.212743)">
                    <mask id="mask-4" fill="white">
                        <use xlink:href="#path-3"></use>
                    </mask>
                    <g id="Clip-12"></g>
                    <path d="M12.9659798,0.217777778 L7.78258586,3.21066667 L6.28557576,4.0749899 L6.24824242,4.09648485 C5.60028283,4.47858586 5.1650101,5.18339394 5.1650101,5.99030303 L5.1650101,5.99030303 L5.1650101,7.13830303 L5.1650101,19.4761212 L5.1650101,19.5756768 L5.25127273,19.525899 L8.7229899,17.5217778 L8.7679596,17.4960404 L8.74674747,17.4485253 L8.74646465,17.4479596 L8.74674747,17.4479596 L8.74561616,17.4448485 L8.7229899,17.3905455 L8.70121212,17.3368081 L8.70149495,17.3368081 L8.69810101,17.3288889 L8.67660606,17.2737374 L8.67632323,17.2737374 L8.6559596,17.2185859 L8.6559596,17.218303 L8.6559596,17.218303 L8.65539394,17.2160404 L8.65511111,17.2157576 L8.63474747,17.1589091 L8.61466667,17.1012121 L8.61466667,17.1009293 L8.61410101,17.0992323 L8.59486869,17.0418182 L8.59486869,17.0418182 L8.57591919,16.9821414 L8.57620202,16.9821414 L8.57563636,16.9810101 L8.57535354,16.9798788 L8.57026263,16.9634747 L8.56517172,16.9470707 L8.56545455,16.9470707 C8.55668687,16.9190707 8.54848485,16.8907879 8.54056566,16.8625051 L8.54056566,16.8625051 L8.54028283,16.8627879 L8.54028283,16.8619394 L8.52359596,16.8019798 L8.52359596,16.8019798 L8.50747475,16.7411717 L8.50719192,16.7391919 L8.50719192,16.7383434 L8.49814141,16.7041212 L8.48993939,16.6701818 C8.47579798,16.6127677 8.46278788,16.5545051 8.45062626,16.4959596 L8.45062626,16.4959596 L8.45090909,16.4959596 L8.45062626,16.4948283 L8.45062626,16.4942626 L8.43846465,16.4331717 L8.43818182,16.4331717 L8.42715152,16.3732121 L8.42743434,16.3732121 L8.42686869,16.3715152 L8.42686869,16.3709495 L8.42658586,16.3692525 L8.42658586,16.3681212 L8.41583838,16.3064646 L8.41555556,16.3064646 L8.40593939,16.2450909 L8.40593939,16.2448081 L8.40622222,16.2448081 C8.39292929,16.1593939 8.38218182,16.0748283 8.37341414,15.9913939 L8.37341414,15.9913939 L8.37313131,15.9885657 L8.37313131,15.9882828 L8.36747475,15.9271919 L8.36775758,15.9271919 L8.36210101,15.8621414 L8.35785859,15.7973737 L8.35418182,15.7357172 L8.35446465,15.7357172 L8.35446465,15.7354343 L8.35389899,15.7334545 L8.35389899,15.7323232 L8.35107071,15.6672727 L8.34909091,15.6039192 L8.34909091,15.6025051 L8.34909091,15.6022222 L8.34767677,15.5363232 L8.34739394,15.4709899 L8.34767677,15.4084848 L8.34880808,15.3454141 L8.35050505,15.3032727 L8.35050505,15.2911111 L8.35361616,15.2195556 L8.35616162,15.176 L8.35672727,15.1666667 L8.35729293,15.1593131 L8.35729293,15.1590303 L8.35785859,15.1502626 L8.36125253,15.0956768 L8.36606061,15.0388283 L8.36577778,15.0388283 L8.37171717,14.971798 L8.37822222,14.9132525 L8.38585859,14.8467879 L8.39264646,14.792202 L8.4019798,14.7248889 L8.40226263,14.7248889 L8.4110303,14.6686061 L8.41074747,14.6686061 L8.42177778,14.6018586 L8.43139394,14.5486869 L8.44412121,14.4816566 L8.45486869,14.4270707 L8.45515152,14.4270707 C8.46165657,14.3968081 8.46561616,14.3778586 8.46985859,14.3591919 L8.46985859,14.3591919 L8.48060606,14.3111111 L8.49785859,14.2415354 L8.51086869,14.1900606 L8.52614141,14.1337778 L8.52585859,14.1337778 L8.53066667,14.1153939 L8.54141414,14.0763636 L8.55244444,14.039596 L8.5640404,14.0022626 L8.56347475,14.0019798 L8.57959596,13.9488081 L8.59684848,13.8959192 L8.59656566,13.8959192 L8.61353535,13.8444444 L8.62060606,13.8243636 L8.62060606,13.8240808 C8.63078788,13.7949495 8.6409697,13.7658182 8.65341414,13.7321616 L8.65341414,13.7321616 L8.66925253,13.6894545 L8.66925253,13.6891717 L8.66953535,13.6883232 L8.66981818,13.6883232 L8.67264646,13.6806869 L8.67264646,13.680404 C8.67886869,13.6642828 8.68509091,13.6470303 8.69612121,13.6193131 L8.69612121,13.6193131 L8.69583838,13.6193131 L8.71761616,13.5652929 L8.73854545,13.5138182 L8.76484848,13.4530101 L8.76937374,13.4425455 L8.78747475,13.4012525 L8.81292929,13.3458182 L8.83612121,13.2957576 L8.86327273,13.2397576 L8.86355556,13.2397576 L8.88985859,13.1868687 L8.88957576,13.1865859 L8.91729293,13.1328485 L8.94246465,13.0850505 L8.9580202,13.0559192 L8.97357576,13.0273535 L8.99931313,12.9812525 L8.99959596,12.9812525 L9.00185859,12.9770101 L9.00157576,12.9770101 C9.00977778,12.962303 9.01854545,12.9470303 9.03183838,12.924404 L9.03183838,12.924404 L9.05757576,12.8808485 L9.05814141,12.88 L9.05814141,12.8797172 L9.06294949,12.8715152 L9.06294949,12.871798 L9.09094949,12.8248485 L9.09123232,12.8248485 L9.11781818,12.7818586 L9.13676768,12.7513131 L9.15656566,12.7207677 L9.16533333,12.7074747 L9.16589899,12.7066263 L9.16589899,12.7060606 L9.19785859,12.6574141 L9.19785859,12.657697 L9.23123232,12.6087677 C9.28779798,12.525899 9.34634343,12.4452929 9.40686869,12.3669495 L9.40686869,12.3669495 L9.42214141,12.3471515 L9.44816162,12.3143434 L9.47531313,12.2809697 L9.49426263,12.2574949 L9.4939798,12.2574949 L9.52,12.2263838 L9.54630303,12.1949899 L9.57034343,12.1664242 L9.5929697,12.1401212 L9.59325253,12.140404 L9.61644444,12.1138182 L9.64840404,12.077899 L9.67329293,12.0507475 L9.69789899,12.0238788 L9.72505051,11.9944646 L9.75305051,11.9647677 L9.78133333,11.9353535 L9.80084848,11.9155556 L9.83365657,11.8824646 L9.86618182,11.8499394 L9.87890909,11.8377778 L9.91228283,11.8052525 L9.94622222,11.7730101 L9.9640404,11.7563232 L9.99911111,11.7240808 L9.99939394,11.7240808 L10.0347475,11.6918384 L10.0406869,11.6867475 L10.0797172,11.6516768 L10.119596,11.6168889 L10.124404,11.6132121 L10.1249697,11.6126465 C10.1507071,11.5905859 10.1753131,11.5699394 10.1965253,11.552404 L10.1965253,11.552404 C10.2177374,11.5348687 10.2417778,11.5153535 10.2692121,11.4938586 L10.2692121,11.4938586 C10.3947879,11.3940202 10.5251717,11.3001212 10.6592323,11.2127273 L10.6592323,11.2127273 L10.6595152,11.2127273 L10.6651717,11.2087677 L10.6648889,11.2087677 L10.7101414,11.180202 L10.7545455,11.152202 L10.7610505,11.1479596 L10.7610505,11.1482424 L10.8048889,11.1213737 L10.8484444,11.0953535 L10.8487273,11.0953535 L10.8617374,11.0874343 L10.8620202,11.0874343 L10.8741818,11.0803636 L10.8860606,11.0735758 C10.908404,11.0608485 10.9287677,11.0486869 10.9471515,11.0385051 L10.9471515,11.0385051 L10.9615758,11.0305859 L11.0037172,11.0073939 L11.0461414,10.9847677 L11.0659394,10.9745859 L11.1097778,10.9513939 L11.1097778,10.9513939 L11.1536162,10.9290505 L11.1536162,10.9287677 L11.160404,10.9256566 L11.1606869,10.9256566 L11.2101818,10.9010505 L11.209899,10.9010505 L11.2591111,10.8775758 L11.2593939,10.8775758 L11.2605253,10.8770101 C11.3032323,10.8569293 11.3470707,10.8368485 11.3909091,10.8176162 L11.3909091,10.8176162 C11.4330505,10.7992323 11.4771717,10.7808485 11.5238384,10.761899 L11.5238384,10.761899 L11.5238384,10.7616162 C11.7526465,10.6691313 11.9896566,10.5927677 12.2326061,10.5342222 L12.2326061,10.5342222 L12.2328889,10.5342222 L12.2371313,10.5336566 L12.2905859,10.5209293 L12.3440404,10.5090505 L12.3530909,10.5067879 L12.3530909,10.5070707 L12.4076768,10.4957576 L12.4076768,10.4960404 L12.4631111,10.4847273 L12.4636768,10.4847273 L12.4662222,10.4841616 L12.4662222,10.4838788 L12.5196768,10.4739798 L12.5196768,10.4742626 L12.5745455,10.4649293 L12.5745455,10.4646465 L12.5886869,10.4623838 L12.6410101,10.453899 L12.6947475,10.4459798 L12.6947475,10.445697 L12.7012525,10.4448485 L12.7015354,10.4448485 L12.756404,10.4374949 L12.8107071,10.4301414 L12.8109899,10.4301414 L12.8152323,10.4295758 L12.8650101,10.4230707 L12.8650101,10.3727273 L12.8647273,4.92715152 L12.8650101,4.92715152 C12.8650101,4.83353535 12.8836768,4.75830303 12.9153535,4.7020202 L12.9153535,4.7020202 C12.9422222,4.65393939 12.9792727,4.61830303 13.0219798,4.59454545 L13.0219798,4.59454545 C13.0646869,4.57107071 13.1147475,4.55947475 13.1670707,4.55947475 L13.1670707,4.55947475 C13.235798,4.55947475 13.308202,4.57927273 13.3769293,4.61717172 L13.3769293,4.61717172 L21.6094949,9.3760404 L21.6963232,9.42638384 L21.6963232,9.32626263 L21.6963232,7.13830303 L21.6963232,5.99030303 C21.6963232,5.20771717 21.2865051,4.52072727 20.6702222,4.13155556 L20.6702222,4.13155556 L13.9072323,0.227676768 L13.9072323,0.227393939 C13.7290505,0.125575758 13.5814141,0.0724040404 13.4332121,0.0701414141 L13.4332121,0.0701414141 L13.4326465,0.0701414141 C13.4292525,0.0701414141 13.4258586,0.0701414141 13.4227475,0.0701414141 L13.4227475,0.0701414141 C13.2773737,0.0701414141 13.1348283,0.119070707 12.9659798,0.217777778 L12.9659798,0.217777778 Z M14.0011313,6.3449697 L14.0011313,10.3534949 L14.0011313,10.4055354 L14.0523232,10.4106263 L14.0528889,10.4106263 L14.0528889,10.4109091 L14.056,10.4114747 L14.1145455,10.4191111 L14.1148283,10.4191111 L14.1716768,10.4270303 L14.1804444,10.4287273 L14.1804444,10.4284444 L14.2389899,10.4374949 L14.2969697,10.4473939 L14.2972525,10.4473939 L14.2972525,10.4473939 L14.2992323,10.4476768 L14.3000808,10.4476768 L14.3594747,10.4584242 L14.4194343,10.470303 L14.4197172,10.470303 L14.4214141,10.470303 L14.4211313,10.470303 L14.4805253,10.4827475 L14.5416162,10.4960404 L14.5433131,10.4963232 L14.5441616,10.4966061 L14.5611313,10.5005657 L14.5772525,10.5042424 L14.5775354,10.5045253 C14.6058182,10.5110303 14.6343838,10.518101 14.6629495,10.5251717 L14.6629495,10.5251717 L14.6629495,10.5248889 L14.663798,10.5254545 L14.7240404,10.5407273 L14.7845657,10.5571313 L14.7848485,10.5571313 L14.7868283,10.557697 L14.7873939,10.5582626 L14.8210505,10.567596 L14.8549899,10.5772121 C14.9115556,10.5941818 14.9686869,10.612 15.0255354,10.6306667 L15.0255354,10.6306667 L15.0252525,10.6306667 L15.026101,10.6309495 L15.0266667,10.6309495 L15.0272323,10.6312323 L15.0860606,10.651596 L15.0860606,10.6513131 L15.1437576,10.6716768 L15.1448889,10.6722424 L15.1451717,10.6725253 L15.1471515,10.6733737 L15.1482828,10.6736566 L15.2071111,10.6951515 L15.2650909,10.7172121 L15.2653737,10.7174949 C15.345697,10.7488889 15.4243232,10.7819798 15.5012525,10.8164848 L15.5012525,10.8164848 L15.5032323,10.8173333 L15.503798,10.8173333 L15.5595152,10.8427879 L15.5595152,10.8430707 L15.6183434,10.8710707 L15.6768889,10.8993535 L15.7320404,10.9270707 L15.7320404,10.9273535 L15.734303,10.928202 L15.7348687,10.9287677 L15.7931313,10.9587475 L15.8488485,10.9887273 L15.8488485,10.9890101 L15.849697,10.9890101 L15.8502626,10.9895758 L15.9076768,11.0212525 L15.9648081,11.0532121 L16.0188283,11.0851717 L16.0728485,11.117697 L16.1087677,11.1400404 L16.1189495,11.1465455 L16.1794747,11.1850101 L16.2159596,11.2087677 L16.2233131,11.2138586 L16.2295354,11.2178182 L16.2298182,11.218101 L16.2368889,11.2231919 L16.2374545,11.2231919 L16.2829899,11.2534545 L16.3299394,11.285697 L16.3848081,11.3244444 L16.4323232,11.3589495 L16.4857778,11.3991111 L16.4857778,11.3988283 L16.529899,11.432202 L16.5833535,11.4740606 L16.5833535,11.4743434 L16.6280404,11.5099798 L16.6280404,11.509697 L16.6800808,11.5526869 L16.7213737,11.5874747 L16.7731313,11.6321616 L16.7734141,11.6318788 L16.8147071,11.6689293 C16.8381818,11.6895758 16.8523232,11.7025859 16.8664646,11.715596 L16.8664646,11.715596 L16.9026667,11.7489697 L16.9541414,11.7987475 L16.9920404,11.8355152 L17.0336162,11.8768081 L17.0469091,11.890101 L17.0754747,11.9189495 L17.1017778,11.9466667 L17.1017778,11.9469495 L17.1286465,11.9755152 L17.1286465,11.9752323 L17.1668283,12.0159596 L17.2038788,12.0569697 L17.2041616,12.0569697 L17.2400808,12.0974141 L17.239798,12.0974141 L17.2542222,12.1138182 L17.2545051,12.1138182 C17.2745859,12.1372929 17.2949495,12.1607677 17.3175758,12.1879192 L17.3175758,12.1879192 L17.3464242,12.2232727 L17.3467071,12.2235556 L17.3472727,12.2241212 L17.3526465,12.2303434 L17.3526465,12.2306263 C17.3639596,12.244202 17.3755556,12.2580606 17.3939394,12.2812525 L17.3939394,12.2812525 L17.4301414,12.3273535 L17.463798,12.3711919 L17.5033939,12.4243636 L17.5104646,12.4334141 L17.5370505,12.469899 L17.5726869,12.5193939 L17.6043636,12.5643636 L17.603798,12.5643636 L17.6391515,12.6161212 L17.6388687,12.616404 L17.6716768,12.6653333 L17.6716768,12.6650505 L17.7047677,12.7162424 L17.7047677,12.7165253 L17.7333333,12.7617778 L17.7511515,12.7900606 L17.7681212,12.8174949 L17.7678384,12.8174949 L17.7947071,12.8630303 L17.7972525,12.8672727 C17.806303,12.881697 17.8145051,12.8966869 17.8275152,12.919596 L17.8275152,12.919596 L17.8526869,12.964 L17.8532525,12.9645657 L17.8580606,12.9727677 L17.8846465,13.0208485 L17.908404,13.0652525 L17.9250909,13.0974949 L17.9420606,13.1294545 L17.9417778,13.1297374 L17.9494141,13.1441616 L17.9494141,13.1447273 L17.949697,13.1450101 L17.976,13.1970505 L17.9757172,13.1970505 L18.0014545,13.2499394 C18.0450101,13.3407273 18.0857374,13.431798 18.1227879,13.5228687 L18.1227879,13.5228687 L18.132404,13.5463434 L18.132404,13.5463434 L18.1476768,13.5853737 L18.1632323,13.6252525 L18.1742626,13.6538182 L18.1745455,13.6538182 L18.188404,13.6914343 L18.2025455,13.729899 L18.2022626,13.729899 L18.2149899,13.7652525 L18.226303,13.7977778 L18.2260202,13.7977778 L18.2376162,13.8314343 L18.2526061,13.8766869 L18.2639192,13.9120404 L18.2749495,13.9468283 L18.2868283,13.9852929 L18.2981414,14.0240404 L18.3097374,14.0633535 L18.3170909,14.0902222 L18.3292525,14.1351919 L18.3411313,14.1793131 L18.3453737,14.1965657 L18.3566869,14.242101 L18.3677172,14.2873535 L18.3730909,14.3111111 L18.3841212,14.3574949 L18.3838384,14.3574949 L18.3940202,14.4044444 L18.3954343,14.4120808 L18.405899,14.4638384 L18.4163636,14.515596 L18.4172121,14.5212525 L18.4174949,14.5223838 L18.4177778,14.5223838 L18.4174949,14.5223838 C18.4234343,14.5557576 18.4293737,14.5871515 18.4336162,14.6145859 L18.4336162,14.6145859 C18.4381414,14.6414545 18.4432323,14.6722828 18.4480404,14.7067879 L18.4480404,14.7067879 C18.471798,14.8654545 18.488202,15.0252525 18.496404,15.1850505 L18.496404,15.1850505 L18.496404,15.1853333 L18.4966869,15.1918384 L18.4992323,15.2452929 L18.4995152,15.2452929 L18.5014949,15.297899 L18.5017778,15.3052525 L18.5026263,15.3570101 L18.5029091,15.3570101 L18.5034747,15.4076364 L18.5034747,15.4229091 L18.5034747,15.4234747 L18.5034747,15.4373333 L18.5034747,15.4511919 C18.5040404,15.4766465 18.5034747,15.500404 18.5031919,15.5213333 L18.5031919,15.5213333 L18.5031919,15.5377374 L18.5029091,15.5377374 L18.5020606,15.5855354 L18.5006465,15.6341818 L18.5009293,15.6341818 L18.4995152,15.6559596 L18.4975354,15.7060202 L18.4978182,15.7060202 L18.4949899,15.7546667 L18.4944242,15.7625859 L18.4910303,15.8177374 L18.4867879,15.8717576 L18.4865051,15.8720404 L18.4865051,15.8734545 C18.4828283,15.9206869 18.478303,15.9684848 18.4729293,16.0162828 L18.4729293,16.0162828 C18.4675556,16.0618182 18.4616162,16.1090505 18.4545455,16.1591111 L18.4545455,16.1591111 L18.4551111,16.1591111 C18.4203232,16.4037576 18.3682828,16.6469899 18.2972929,16.8865455 L18.2972929,16.8865455 L18.2972929,16.8868283 L18.2958788,16.8907879 L18.2800404,16.9436768 L18.2800404,16.9436768 L18.2639192,16.9957172 L18.2608081,17.0047677 L18.2432727,17.0576566 L18.2251717,17.1113939 L18.2248889,17.1113939 L18.2240404,17.1142222 L18.2062222,17.1651313 L18.2059394,17.1651313 L18.1867071,17.2174545 L18.1816162,17.2310303 L18.1629495,17.2808081 L18.1629495,17.2805253 L18.1428687,17.3308687 L18.1428687,17.3311515 L18.1406061,17.3376566 L18.1403232,17.3376566 L18.1196768,17.3888485 L18.0984646,17.4394747 L18.0981818,17.4397576 L18.0967677,17.4434343 L18.0775354,17.490101 L18.1213737,17.5152727 L22.8369697,20.2377778 L22.8369697,20.2380606 C22.9181414,20.2850101 22.9735758,20.3387475 23.0069495,20.3944646 L23.0069495,20.3944646 C23.0349495,20.441697 23.0476768,20.4914747 23.0468283,20.5401212 L23.0468283,20.5401212 C23.0454141,20.5890505 23.0307071,20.6379798 23.0046869,20.6835152 L23.0046869,20.6835152 C22.9701818,20.7429091 22.9170101,20.795798 22.8494141,20.8362424 L22.8494141,20.8362424 L14.6120404,25.5863434 L14.5252121,25.636404 L14.6120404,25.6864646 L16.5064242,26.7804444 L17.5008485,27.354303 C18.1782222,27.7454545 18.9783434,27.7344242 19.6234747,27.3953131 L19.6234747,27.3953131 L26.385899,23.490303 L26.3861818,23.490303 C26.5632323,23.3870707 26.6831515,23.2858182 26.7592323,23.1582626 L26.7592323,23.1582626 L26.7592323,23.1579798 C26.835596,23.0301414 26.8661414,22.8799596 26.8647273,22.68 L26.8647273,22.68 L26.8650101,22.68 L26.8647273,16.6945051 L26.8647273,14.9658586 L26.8647273,14.9234343 C26.8582222,14.1708283 26.4650909,13.4411313 25.7662222,13.038101 L25.7662222,13.038101 L24.7720808,12.4639596 L14.0873939,6.29519192 L14.0011313,6.24513131 L14.0011313,6.3449697 Z M3.98589899,11.3713939 L2.09094949,12.4650909 L1.09709091,13.0389495 C0.419151515,13.4303838 0.0291313131,14.128404 0,14.8569697 L0,14.8569697 L0.000848484848,22.6661414 L0.000565656566,22.6661414 C0.00141414141,22.8714747 0.0291313131,23.0256162 0.101252525,23.1551515 L0.101252525,23.1551515 L0.101535354,23.1554343 C0.174222222,23.2855354 0.288767677,23.3870707 0.462707071,23.4854949 L0.462707071,23.4854949 L0.462707071,23.4860606 L5.64666667,26.4786667 L7.14339394,27.3427071 L7.18044444,27.364202 C7.83547475,27.7344242 8.66359596,27.7590303 9.36274747,27.3554343 L9.36274747,27.3554343 L10.3566061,26.7818586 L21.0412929,20.6128081 L21.1278384,20.5630303 L21.0412929,20.5126869 L17.5698586,18.5088485 L17.5248889,18.4828283 L17.4946263,18.524404 L17.4943434,18.5249697 L17.4940606,18.5249697 L17.4920808,18.5272323 L17.4561616,18.5741818 L17.4564444,18.5744646 L17.4205253,18.6197172 L17.4151515,18.6262222 L17.4151515,18.6265051 L17.378101,18.6726061 L17.378101,18.6728889 L17.3407677,18.7181414 L17.3404848,18.7184242 L17.3404848,18.7181414 L17.3390707,18.7198384 L17.3387879,18.720404 L17.3000404,18.7665051 L17.259596,18.8126061 L17.259596,18.8128889 L17.2584646,18.8140202 L17.2587475,18.8140202 L17.218303,18.8595556 L17.1761616,18.9056566 L17.1761616,18.9053737 L17.1750303,18.9065051 L17.1744646,18.9073535 L17.1625859,18.9200808 L17.1509899,18.9325253 C17.1309091,18.9537374 17.1111111,18.9749495 17.0901818,18.9961616 L17.0901818,18.9961616 L17.0904646,18.9961616 L17.0896162,18.9967273 L17.0463434,19.0411313 L17.0460606,19.0411313 L17.0016566,19.0852525 L17.0016566,19.0855354 L16.9999596,19.0869495 L16.9996768,19.0869495 L16.9742222,19.1121212 L16.9490505,19.1361616 C16.9063434,19.1771717 16.8622222,19.2173333 16.8172525,19.2574949 L16.8172525,19.2574949 L16.8172525,19.2572121 L16.8166869,19.2577778 L16.816404,19.2580606 L16.7691717,19.2993535 L16.7227879,19.3389495 L16.7227879,19.3386667 L16.7219394,19.339798 L16.7216566,19.3400808 L16.7199596,19.3414949 L16.7191111,19.3420606 L16.6710303,19.3822222 L16.6226667,19.4215354 L16.6223838,19.4215354 C16.5547879,19.4755556 16.4871919,19.5270303 16.4190303,19.5762424 L16.4190303,19.5762424 L16.4170505,19.5779394 L16.4167677,19.5782222 L16.3664242,19.6135758 L16.3129697,19.6506263 L16.2592323,19.6871111 L16.2074747,19.7207677 L16.2071919,19.7207677 L16.2057778,19.7221818 L16.2052121,19.7227475 L16.1497778,19.7578182 L16.0960404,19.7911919 L16.0957576,19.7911919 L16.0949091,19.7920404 L16.0946263,19.7920404 L16.0380606,19.8262626 L15.9817778,19.8590707 L15.9274747,19.8904646 L15.8723232,19.9207273 L15.8349899,19.9405253 L15.8239596,19.9461818 L15.7608889,19.9795556 L15.7218586,19.9990707 L15.7133737,20.0030303 L15.7068687,20.0061414 L15.7068687,20.0064242 L15.6989495,20.0106667 L15.6986667,20.0109495 L15.6494545,20.0349899 L15.5979798,20.0593131 L15.5371717,20.087596 L15.4831515,20.1116364 L15.4217778,20.1379394 L15.4217778,20.1379394 L15.3714343,20.1591515 L15.307798,20.1846061 L15.2551919,20.2055354 L15.1915556,20.2292929 L15.1412121,20.2473939 L15.0764444,20.270303 L15.0241212,20.2878384 C14.9941414,20.2974545 14.9757576,20.3033939 14.9576566,20.3090505 L14.9576566,20.3090505 L14.9104242,20.3237576 L14.841697,20.3438384 L14.7907879,20.3579798 L14.7342222,20.3732525 L14.716404,20.3780606 L14.6768081,20.3882424 L14.6394747,20.3975758 L14.6394747,20.3972929 L14.6015758,20.4060606 L14.6015758,20.4063434 L14.5472727,20.4190707 L14.4926869,20.4309495 L14.4400808,20.441697 L14.4185859,20.4459394 C14.3883232,20.4518788 14.3580606,20.4575354 14.3227071,20.4637576 L14.3227071,20.4637576 L14.2777374,20.4711111 L14.2777374,20.4716768 L14.2768889,20.4716768 L14.2686869,20.4725253 L14.268404,20.4728081 C14.2511515,20.4756364 14.2330505,20.4787475 14.2039192,20.4829899 L14.2039192,20.4829899 L14.2039192,20.4832727 L14.1459394,20.4914747 L14.1462222,20.4911919 L14.0907879,20.4988283 L14.0251717,20.5067475 L14.0138586,20.5078788 L13.9691717,20.5126869 L13.9691717,20.5129697 L13.9083636,20.5189091 L13.8534949,20.5237172 L13.8534949,20.5234343 L13.7912727,20.5279596 L13.7321616,20.5316364 L13.7321616,20.5319192 L13.6716364,20.5350303 L13.6716364,20.5347475 L13.617899,20.5370101 L13.5848081,20.5378586 L13.5525657,20.5387071 L13.4996768,20.5395556 L13.4996768,20.5392727 L13.4948687,20.5392727 L13.4948687,20.5398384 C13.4776162,20.5398384 13.4603636,20.5401212 13.4340606,20.5398384 L13.4340606,20.5398384 L13.3831515,20.5392727 L13.3825859,20.5392727 L13.382303,20.5392727 L13.3726869,20.5392727 L13.318101,20.5381414 L13.2677576,20.5364444 L13.2677576,20.5367273 L13.2315556,20.5353131 L13.1953535,20.5336162 L13.1953535,20.5333333 L13.1792323,20.5324848 L13.1783838,20.5324848 L13.178101,20.5327677 L13.1198384,20.5290909 L13.0610101,20.5248485 C12.9608889,20.5174949 12.8616162,20.5067475 12.7640404,20.4934545 L12.7640404,20.4934545 L12.7388687,20.4900606 L12.6975758,20.4841212 L12.6975758,20.4841212 L12.6551515,20.4773333 L12.6248889,20.4728081 L12.6248889,20.4730909 L12.5855758,20.4660202 L12.5454141,20.4589495 L12.5454141,20.4589495 L12.5083636,20.4524444 L12.4744242,20.4456566 L12.4396364,20.4385859 L12.4396364,20.4388687 L12.392404,20.4292525 L12.3926869,20.4292525 L12.3567677,20.4210505 L12.3211313,20.4131313 L12.2818182,20.4043636 L12.2425051,20.3950303 L12.2026263,20.3851313 L12.1760404,20.3780606 L12.1307879,20.3664646 L12.0866667,20.354303 L12.0694141,20.3494949 L12.0244444,20.3364848 L11.9797576,20.3234747 L11.9562828,20.316404 L11.9107475,20.3022626 L11.9110303,20.3019798 L11.8652121,20.2875556 L11.8578586,20.2852929 L11.807798,20.2683232 L11.7577374,20.2513535 L11.7523636,20.2493737 L11.7512323,20.2490909 L11.7512323,20.2488081 C11.7195556,20.2374949 11.6895758,20.2270303 11.6635556,20.2171313 L11.6635556,20.2171313 C11.6378182,20.2075152 11.6086869,20.196202 11.5761616,20.1834747 L11.5761616,20.1834747 C11.4268283,20.1246465 11.2803232,20.0587475 11.1377778,19.9860606 L11.1377778,19.9860606 L11.1377778,19.9857778 L11.1318384,19.9829495 L11.0843232,19.9586263 L11.0376566,19.9340202 L11.0311515,19.9303434 L11.0314343,19.9303434 L10.985899,19.9057374 L10.9414949,19.8811313 L10.9417778,19.8808485 L10.9284848,19.8732121 L10.9284848,19.8732121 L10.928202,19.8732121 L10.9160404,19.8661414 L10.903596,19.8590707 C10.8818182,19.8466263 10.8611717,19.8347475 10.8430707,19.824 L10.8430707,19.824 L10.8292121,19.8155152 L10.8292121,19.8152323 L10.788202,19.7906263 L10.7469091,19.7648889 L10.7469091,19.7651717 L10.7282424,19.7532929 L10.6863838,19.7267071 L10.6453737,19.7001212 L10.6385859,19.695596 L10.6385859,19.6953131 L10.5930505,19.6647677 L10.5930505,19.6650505 L10.547798,19.6342222 L10.5475152,19.6342222 L10.5466667,19.6333737 C10.5076364,19.6062222 10.4683232,19.5782222 10.4301414,19.5502222 L10.4301414,19.5502222 C10.3930909,19.5227879 10.3549091,19.4939394 10.3153131,19.4628283 L10.3153131,19.4628283 C10.1207273,19.3109495 9.93632323,19.1440808 9.76379798,18.9627879 L9.76379798,18.9627879 L9.76379798,18.9625051 L9.76068687,18.9593939 L9.7609697,18.9593939 L9.72307071,18.9192323 L9.72307071,18.9195152 L9.68630303,18.8790707 L9.67979798,18.8722828 L9.64274747,18.8304242 L9.60541414,18.788 L9.60343434,18.7854545 L9.56808081,18.7444444 L9.56836364,18.7441616 L9.53244444,18.7017374 L9.52367677,18.6904242 L9.52367677,18.6907071 L9.48973737,18.6491313 L9.4900202,18.6491313 L9.45608081,18.6067071 L9.45579798,18.6069899 L9.45183838,18.6016162 L9.45183838,18.6013333 L9.41789899,18.5574949 L9.41761616,18.5574949 L9.38452525,18.5139394 L9.38424242,18.5139394 L9.3819798,18.5108283 L9.35115152,18.4706667 L9.30759596,18.4961212 L4.59171717,21.2189091 L4.59143434,21.2186263 C4.51026263,21.2655758 4.43616162,21.2865051 4.37139394,21.2876364 L4.37139394,21.2876364 C4.3159596,21.2884848 4.2670303,21.2743434 4.22517172,21.2491717 L4.22517172,21.2491717 C4.18331313,21.2237172 4.14824242,21.1863838 4.12222222,21.1411313 L4.12222222,21.1411313 C4.08771717,21.0814545 4.06876768,21.0087677 4.06735354,20.9304242 L4.06735354,20.9304242 L4.07216162,11.4214545 L4.07244444,11.3210505 L3.98589899,11.3713939 Z" id="Fill-11" fill="url(#linearGradient-5)" mask="url(#mask-4)"></path>
                </g>
                <g id="Group-16" transform="translate(9.333333, 11.525875)">
                    <mask id="mask-7" fill="white">
                        <use xlink:href="#path-6"></use>
                    </mask>
                    <g id="Clip-15"></g>
                    <path d="M0.156686869,4.15814141 C0.156686869,6.33535354 1.92238384,8.10076768 4.09931313,8.10076768 L4.09931313,8.10076768 C6.27652525,8.10076768 8.04193939,6.33535354 8.04193939,4.15814141 L8.04193939,4.15814141 C8.04193939,1.98092929 6.27652525,0.21579798 4.09931313,0.21579798 L4.09931313,0.21579798 C1.92238384,0.21579798 0.156686869,1.98092929 0.156686869,4.15814141" id="Fill-14" fill="url(#linearGradient-8)" mask="url(#mask-7)"></path>
                </g>
                <g id="Group-19" transform="translate(9.333333, 11.525875)">
                    <mask id="mask-10" fill="white">
                        <use xlink:href="#path-9"></use>
                    </mask>
                    <g id="Clip-18"></g>
                    <path d="M0.156969697,4.15814141 C0.156969697,6.33535354 1.92238384,8.10076768 4.09931313,8.10076768 L4.09931313,8.10076768 C6.27652525,8.10076768 8.04193939,6.33535354 8.04193939,4.15814141 L8.04193939,4.15814141 C8.04193939,1.98092929 6.27652525,0.21579798 4.09931313,0.21579798 L4.09931313,0.21579798 C1.92238384,0.21579798 0.156969697,1.98092929 0.156969697,4.15814141 M0.684161616,4.15814141 C0.684161616,2.27252525 2.21341414,0.742989899 4.09931313,0.742989899 L4.09931313,0.742989899 C5.98549495,0.742989899 7.51474747,2.27252525 7.51474747,4.15814141 L7.51474747,4.15814141 C7.51474747,6.0440404 5.98549495,7.57329293 4.09931313,7.57329293 L4.09931313,7.57329293 C2.21341414,7.57329293 0.684161616,6.0440404 0.684161616,4.15814141" id="Fill-17" fill="url(#linearGradient-11)" mask="url(#mask-10)"></path>
                </g>
                <g id="Group-22" transform="translate(9.898990, 12.091531)">
                    <mask id="mask-13" fill="white">
                        <use xlink:href="#path-12"></use>
                    </mask>
                    <g id="Clip-21"></g>
                    <path d="M0.118505051,3.59248485 C0.118505051,5.47838384 1.64775758,7.00763636 3.53365657,7.00763636 L3.53365657,7.00763636 C5.41983838,7.00763636 6.94909091,5.47838384 6.94909091,3.59248485 L6.94909091,3.59248485 C6.94909091,1.70686869 5.41983838,0.177333333 3.53365657,0.177333333 L3.53365657,0.177333333 C1.64775758,0.177333333 0.118505051,1.70686869 0.118505051,3.59248485" id="Fill-20" fill="url(#linearGradient-14)" mask="url(#mask-13)"></path>
                </g>
                <g id="Group-26" transform="translate(14.424242, 13.222844)">
                    <mask id="mask-16" fill="white">
                        <use xlink:href="#path-15"></use>
                    </mask>
                    <g id="Clip-25"></g>
                    <path d="M11.3634747,0.447717172 C11.7701818,0.624767677 12.135596,1.4039596 12.1138182,1.9209697 L12.1138182,1.9209697 L12.1220202,9.47644444 L12.0985455,9.67894949 L12.0295354,9.86109091 L11.8762424,10.0115556 L5.00012121,13.9640808 L4.63527273,14.103798 L4.20084848,14.1620606 L3.76416162,14.084 L3.38347475,13.8874343 L1.0040404,12.5196768 L0.100969697,12.626303 L0.18779798,12.6763636 L2.08218182,13.7703434 L3.07660606,14.344202 C3.7539798,14.7353535 4.55410101,14.7243232 5.19923232,14.3852121 L5.19923232,14.3852121 L11.9616566,10.480202 L11.9619394,10.480202 C12.1389899,10.3769697 12.2589091,10.2757172 12.3349899,10.1481616 L12.3349899,10.1481616 C12.4113535,10.0200404 12.441899,9.86985859 12.4404848,9.66989899 L12.4404848,9.66989899 L12.4407677,9.66989899 L12.4407677,1.95575758 C12.4534949,0.911555556 11.7814949,0.307151515 11.3906263,0.0568484848 L11.3906263,0.0568484848 C11.4867879,0.304323232 11.3479192,0.21240404 11.3634747,0.447717172" id="Fill-24" fill="url(#linearGradient-17)" mask="url(#mask-16)"></path>
                </g>
                <g id="Group-29" transform="translate(0.000000, 15.768299)">
                    <mask id="mask-19" fill="white">
                        <use xlink:href="#path-18"></use>
                    </mask>
                    <g id="Clip-28"></g>
                    <path d="M0.000565656566,0.208444444 L0.000848484848,7.14113131 C0.0121616162,7.63523232 0.230222222,7.81284848 0.504,7.9539798 L0.504,7.9539798 L6.21882828,11.2248889 L7.21240404,11.7987475 C7.89034343,12.189899 8.69046465,12.1788687 9.33559596,11.8397576 L9.33559596,11.8397576 L21.1145455,5.01511111 C20.9968889,5.02925253 20.2861414,4.99842424 20.2861414,4.99842424 L20.2861414,4.99842424 L9.13648485,11.4186263 L8.77135354,11.5583434 L8.33721212,11.6166061 L7.90024242,11.5385455 L7.51983838,11.3419798 L0.846505051,7.55066667 C0.528323232,7.392 0.490141414,7.17761616 0.489858586,6.92193939 L0.489858586,6.92193939 L0.489575758,0.204484848 L0.000565656566,0.208444444 Z" id="Fill-27" fill="url(#linearGradient-20)" mask="url(#mask-19)"></path>
                </g>
                <g id="Group-33" transform="translate(5.090909, 0.212743)">
                    <mask id="mask-22" fill="white">
                        <use xlink:href="#path-21"></use>
                    </mask>
                    <g id="Clip-32"></g>
                    <path d="M8.34230303,0.0704242424 C8.14969697,0.0647676768 7.98735354,0.146222222 7.83971717,0.241252525 L7.83971717,0.241252525 L1.15931313,4.09846465 C0.481373737,4.48989899 0.0845656566,5.22270707 0.0741010101,5.94618182 L0.0741010101,5.94618182 L0.0741010101,19.5756768 L0.601575758,18.6624242 L0.601575758,6.17385859 C0.601575758,5.50666667 0.853575758,4.89292929 1.43535354,4.55721212 L1.43535354,4.55721212 C2.72250505,3.81450505 3.9740202,3.08339394 5.23119192,2.35737374 L5.23119192,2.35737374 L5.27418182,2.33248485 L5.33329293,2.29826263 L5.36666667,2.27931313 C6.26040404,1.76315152 7.15329293,1.24812121 8.03515152,0.739030303 L8.03515152,0.739030303 C8.06258586,0.723474747 8.08832323,0.709050505 8.11292929,0.696606061 L8.11292929,0.696606061 L8.11575758,0.695191919 L8.11717172,0.694626263 C8.20088889,0.654181818 8.26989899,0.633535354 8.33721212,0.632121212 L8.33721212,0.632121212 L8.33834343,0.632121212 L8.34569697,0.632121212 L8.34739394,0.632121212 C8.41442424,0.633535354 8.48315152,0.654181818 8.56715152,0.694626263 L8.56715152,0.694626263 L8.56884848,0.695191919 L8.57167677,0.696606061 C8.59628283,0.709050505 8.62173737,0.723474747 8.64888889,0.739030303 L8.64888889,0.739030303 C9.53131313,1.24812121 10.4239192,1.76315152 11.3176566,2.27931313 L11.3176566,2.27931313 L11.3513131,2.29826263 L11.4101414,2.33248485 L11.4531313,2.35737374 C12.710303,3.08367677 13.962101,3.80630303 15.2486869,4.54985859 L15.2486869,4.54985859 C15.8310303,4.88585859 16.0779394,5.46650505 16.0779394,6.13482828 L16.0779394,6.13482828 L16.0779394,8.51313131 L16.6054141,9.42638384 L16.6054141,5.94618182 C16.5765657,5.21761616 16.2032323,4.48989899 15.5252929,4.09846465 L15.5252929,4.09846465 L8.84460606,0.241252525 C8.70177778,0.149333333 8.54537374,0.0701414141 8.3609697,0.0701414141 L8.3609697,0.0701414141 C8.35474747,0.0701414141 8.34852525,0.0704242424 8.34230303,0.0704242424" id="Fill-31" fill="url(#linearGradient-23)" mask="url(#mask-22)"></path>
                </g>
                <g id="Group-44" transform="translate(5.090909, 4.172339)" fill="#DB0D2E">
                    <path d="M3.67563636,13.5368687 L3.02173737,13.305798 C2.83365657,12.7443838 2.7290101,12.136303 2.7290101,11.5115354 C2.7290101,8.60406061 4.94129293,6.21218182 7.77410101,5.92737374 L7.77410101,6.46333333 C7.09163636,6.53941414 6.44961616,6.74983838 5.87575758,7.06830303 C5.49761616,7.27844444 5.15030303,7.53270707 4.83919192,7.82882828 C4.54250505,8.11080808 4.27777778,8.4270101 4.05632323,8.77319192 C3.55006061,9.56341414 3.25648485,10.5032525 3.25648485,11.5115354 C3.25648485,12.0472121 3.33963636,12.5636566 3.49321212,13.0484242 C3.54581818,13.2150101 3.60775758,13.3776364 3.67648485,13.536303 L3.67563636,13.5368687 Z" id="Fill-34"></path>
                    <polygon id="Fill-36" points="7.77401616 0.887090909 7.24682424 0.887090909 7.24682424 6.006 7.77401616 6.46333333"></polygon>
                    <polygon id="Fill-38" points="8.26302626 0.650363636 8.52662222 0.19359596 16.0778545 4.55339394 16.6053293 5.46664646"></polygon>
                    <polygon id="Fill-40" points="3.67688081 13.5361899 3.02185051 13.305402 0.601406061 14.7028566 0.0742141414 15.6161091"></polygon>
                    <path d="M8.52667879,0.193680808 L8.26308283,0.650448485 C8.26308283,0.650448485 8.10865859,0.539014141 7.94263838,0.628953535 C7.77661818,0.718610101 7.77407273,0.887175758 7.77407273,0.887175758 L7.24688081,0.887175758 C7.24688081,0.887175758 7.26130505,0.399014141 7.64368889,0.192832323 C8.02607273,-0.0133494949 8.28259798,0.0737616162 8.52667879,0.193680808" id="Fill-42"></path>
                </g>
            </g>
        </g>
    </g>
</svg>