<?xml version="1.0" encoding="UTF-8"?>
<svg width="27px" height="28px" viewBox="0 0 27 28" version="1.1" xmlns="http://www.w3.org/2000/svg" xmlns:xlink="http://www.w3.org/1999/xlink">
    <!-- Generator: Sketch 64 (93537) - https://sketch.com -->
    <title>Group 77</title>
    <desc>Created with Sketch.</desc>
    <defs>
        <polygon id="path-1" points="0.00128791764 0.101008264 6.70397411 0.101008264 6.70397411 11.338843 0.00128791764 11.338843"></polygon>
        <polygon id="path-3" points="0.0571855494 0.146479339 8.2480662 0.146479339 8.2480662 14.9627372 0.0571855494 14.9627372"></polygon>
    </defs>
    <g id="payment" stroke="none" stroke-width="1" fill="none" fill-rule="evenodd">
        <g id="pay" transform="translate(-1202.000000, -402.000000)">
            <g id="Group-77" transform="translate(1202.000000, 402.000000)">
                <path d="M6.74242314,15.0928099 L10.5071504,13.3799504 C12.1820595,8.22471074 10.4671174,4.6062314 6.06348099,3.46355372 C3.88596033,7.80193388 3.49002645,12.2627273 6.74242314,15.0928099" id="Fill-1" fill="#8BCFF2"></path>
                <path d="M6.10879008,16.7219008 L9.09530248,15.8395537 L8.9143438,13.1018017 C8.06994711,8.30315702 5.36991405,7.44695868 1.62925289,8.80299174 C1.54409587,13.1959835 2.93553388,15.9485455 6.10879008,16.7219008" id="Fill-3" fill="#8BCFF2"></path>
                <path d="M6.24460165,18.3055669 L8.12222149,16.1271207 L7.51177521,14.0521124 C4.75875041,11.0146909 2.26999008,11.3428231 0.000138842975,14.4593851 C1.26337851,17.7872198 3.29187438,19.2011041 6.24460165,18.3055669" id="Fill-5" fill="#8BCFF2"></path>
                <path d="M7.1044562,19.391643 L9.09199339,16.1334612 L6.24455537,15.0023537 C2.69596033,14.7346182 0.938902479,16.4011967 0.407365289,19.391643 C2.37546446,21.2398744 4.53262149,21.7679405 7.1044562,19.391643" id="Fill-7" fill="#8BCFF2"></path>
                <path d="M8.64292893,19.9798744 L8.79773884,16.6157091 L6.28630083,16.4928331 C2.73122645,17.9381884 1.8049124,20.465362 2.35287934,23.5999736 C5.14825124,24.3279736 7.41625124,23.5965025 8.64292893,19.9798744" id="Fill-9" fill="#8BCFF2"></path>
                <path d="M10.4076231,19.6632661 L9.45770579,16.8947372 L6.87221818,17.3593983 C3.6531438,20.518076 4.00187107,23.5936793 5.97320992,26.6315636 C9.10897851,25.9354975 10.5786314,23.6561587 10.4076231,19.6632661" id="Fill-11" fill="#8BCFF2"></path>
                <g id="Group-15" transform="translate(6.942149, 16.514678)">
                    <mask id="mask-2" fill="white">
                        <use xlink:href="#path-1"></use>
                    </mask>
                    <g id="Clip-14"></g>
                    <path d="M4.72938512,1.44153719 L1.85556694,0.101008264 L0.16237686,2.87694215 C-0.606119008,6.76523967 1.47999669,9.55690909 4.18951736,11.3389587 C7.19755041,8.66206612 7.66429421,4.54097521 4.72938512,1.44153719" id="Fill-13" fill="#8BCFF2" mask="url(#mask-2)"></path>
                </g>
                <path d="M12.5729719,16.1135603 L9.62880661,16.2452298 L8.64302149,19.9798744 C9.37264132,23.4886678 13.1623603,25.9283702 18.0096,26.3150479 C18.943319,21.7001388 17.9156496,17.9525355 12.5729719,16.1135603" id="Fill-16" fill="#8BCFF2"></path>
                <path d="M12.2629355,14.0973521 L9.09546446,15.8393686 L10.4075306,19.6633355 C12.5554314,22.3603603 18.5321587,22.9694182 24.2996959,19.9798975 C22.1578116,14.5194347 17.2404562,12.3326579 12.2629355,14.0973521" id="Fill-18" fill="#8BCFF2"></path>
                <path d="M9.68358017,14.6855835 L10.1362083,17.4460132 C16.2929686,20.0317322 22.8035471,16.0666083 26.2905884,10.1153355 C20.2705884,6.71761653 12.6571339,9.12353388 9.68358017,14.6855835" id="Fill-20" fill="#8BCFF2"></path>
                <path d="M8.05469752,15.0475934 L10.1361851,16.6313289 C16.9260694,15.9579405 21.4616066,9.43093223 21.7656727,1.74389091 C14.8438876,3.55370909 9.78699504,7.44501488 8.05469752,15.0475934" id="Fill-22" fill="#8BCFF2"></path>
                <g id="Group-26" transform="translate(7.173554, 0.084926)">
                    <mask id="mask-4" fill="white">
                        <use xlink:href="#path-3"></use>
                    </mask>
                    <g id="Clip-25"></g>
                    <path d="M0.338128926,13.9672331 L3.77703802,14.9627372 C9.01095537,9.79754711 9.49366612,4.14987769 6.0397157,0.146340496 C1.81981488,3.45242314 -0.842499174,9.10749752 0.338128926,13.9672331" id="Fill-24" fill="#8BCFF2" mask="url(#mask-4)"></path>
                </g>
                <path d="M9.98368926,16.5153488 L10.1361851,16.6312826 C14.7751603,16.1712496 18.361243,12.978324 20.265243,8.55015868 C15.8981686,8.56751405 11.7118215,10.8922083 9.68355702,14.6856298 L9.98368926,16.5153488 Z" id="Fill-27" fill="#3794CB"></path>
                <path d="M7.51168264,14.0521587 L8.43961653,14.3205884 L10.5069884,13.3799273 C11.711914,9.6712 11.1625587,6.75781157 9.1197157,4.98941488 C7.50080661,7.83083636 6.79224463,11.0892496 7.51168264,14.0521587" id="Fill-29" fill="#3794CB"></path>
                <path d="M8.24859174,14.2654909 L10.9507074,15.0476397 C14.5293851,11.5161686 15.8863438,7.75907769 15.2826083,4.45600331 C11.9196,6.58886281 9.4602281,9.73087934 8.24859174,14.2654909" id="Fill-31" fill="#3794CB"></path>
                <path d="M6.74242314,15.0928099 L8.97872066,14.0755537 L8.91439008,13.1018017 C8.30324959,9.63003306 6.72067107,8.22216529 4.47581157,8.22262799 C4.0900595,10.8685124 4.68870413,13.3059008 6.74242314,15.0928099" id="Fill-33" fill="#3794CB"></path>
                <path d="M6.10879008,16.7219008 L8.12224463,16.1271901 L7.51156694,14.0521818 C5.54717025,11.8846116 3.71698843,11.4312893 2.00528595,12.4818678 C2.60832727,14.7447769 3.94376529,16.1942975 6.10879008,16.7219008" id="Fill-35" fill="#3794CB"></path>
                <path d="M6.24460165,18.3055669 L8.12222149,16.1271207 L7.99587438,15.6980959 L6.24460165,15.0024926 C3.85164298,14.8217653 2.27346116,15.5213025 1.33627107,16.9122777 C2.55346116,18.4245091 4.17121322,18.9345256 6.24460165,18.3055669" id="Fill-37" fill="#3794CB"></path>
                <path d="M7.1044562,19.391643 L8.79764628,16.6157091 L6.28643967,16.4928331 C3.91083636,17.458486 2.70915041,18.9075438 2.33658843,20.6981554 C3.78009256,21.2833785 5.3450843,21.0168 7.1044562,19.391643" id="Fill-39" fill="#3794CB"></path>
                <path d="M8.64292893,19.9798744 L8.77945785,17.0165025 L6.87221818,17.3594446 C4.63962314,19.5501554 4.12382149,21.7008331 4.67433388,23.826519 C6.39482975,23.6460231 7.77793719,22.5304198 8.64292893,19.9798744" id="Fill-41" fill="#3794CB"></path>
                <path d="M10.4076231,19.6632661 L9.46927603,16.9289851 L9.41304463,16.902605 L8.52537521,17.0622744 L7.10454876,19.3915967 C6.62068099,21.8407868 7.26907769,23.8547041 8.49274711,25.4553322 C9.8876562,24.2823405 10.523557,22.3653818 10.4076231,19.6632661" id="Fill-43" fill="#3794CB"></path>
                <path d="M11.6715339,17.9562149 L9.4507405,16.9202149 L8.64290579,19.9798512 C9.10131901,22.1842149 10.7676661,23.9664959 13.1448893,25.0830248 C14.1086909,22.7668926 13.7148397,20.1140661 11.6715339,17.9562149" id="Fill-45" fill="#3794CB"></path>
                <path d="M12.5729719,16.1135603 L9.62880661,16.2452298 L9.45756694,16.8947835 L10.4077157,19.6633124 C11.7820298,21.3891306 14.7245752,22.2601388 18.1769058,21.8799405 C17.7157157,19.335643 16.0674182,17.3164033 12.5729719,16.1135603" id="Fill-47" fill="#3794CB"></path>
                <path d="M12.2629355,14.0973521 L9.80865455,15.4473686 L10.136324,17.4460132 C14.020919,19.0774182 18.045514,18.1004264 21.3636298,15.663038 C18.9000926,13.505881 15.5949355,12.9160298 12.2629355,14.0973521" id="Fill-49" fill="#3794CB"></path>
                <path d="M14.5699736,9.94495207 C12.5185686,11.0038612 10.7855769,12.6269355 9.6859405,14.6815802 L10.9505686,15.0476628 C12.6472298,13.3732165 13.8442876,11.648324 14.5699736,9.94495207" id="Fill-51" fill="#0067A8"></path>
                <path d="M7.51168264,14.0521587 L8.43938512,14.3205884 L8.43961653,14.3205884 L8.97879008,14.0755306 L8.9144595,13.1017785 C8.62612893,11.4648198 8.12212893,10.2869686 7.43439339,9.49880331 C7.14953388,11.0313983 7.15369917,12.5783405 7.51168264,14.0521587" id="Fill-53" fill="#0067A8"></path>
                <path d="M8.24859174,14.2654909 L8.43950083,14.3205653 L10.5071041,13.3799041 C11.1203273,11.4921025 11.2790711,9.81048264 11.0175835,8.38086281 C9.80247603,10.0162017 8.86436033,11.9611603 8.24859174,14.2654909" id="Fill-55" fill="#0067A8"></path>
                <path d="M6.74242314,15.0928099 L7.69095207,14.6612397 L7.51161322,14.0521818 C6.55151405,12.9925785 5.62334876,12.3430248 4.72549752,12.0780661 C5.09019174,13.2029256 5.74460496,14.2245785 6.74242314,15.0928099" id="Fill-57" fill="#0067A8"></path>
                <path d="M6.10879008,16.7219008 L8.12224463,16.1271901 L7.99589752,15.6981653 L6.24462479,15.0023306 C5.16812893,14.9213388 4.25639339,15.0180661 3.49368264,15.2760826 C4.17054215,15.9746942 5.03807934,16.460876 6.10879008,16.7219008" id="Fill-59" fill="#0067A8"></path>
                <path d="M6.24460165,18.3055669 L7.74526281,16.5642446 L6.28648595,16.4927405 C5.03157686,17.0029884 4.10410579,17.6481455 3.45362645,18.4069223 C4.27326281,18.6498975 5.20119669,18.6218975 6.24460165,18.3055669" id="Fill-61" fill="#0067A8"></path>
                <path d="M7.1044562,19.391643 L8.52551405,17.0623207 L6.87212562,17.3594446 C5.67252231,18.5368331 4.96858843,19.7024198 4.6594314,20.8589818 C5.4337124,20.653957 6.2459438,20.1846678 7.1044562,19.391643" id="Fill-63" fill="#0067A8"></path>
                <path d="M8.64292893,19.9798744 L8.77945785,17.0165025 L8.52537521,17.0623207 L7.10454876,19.391643 C6.87036694,20.5757421 6.90137521,21.6582545 7.13393719,22.6412628 C7.73512727,22.0264198 8.24398678,21.1558744 8.64292893,19.9798744" id="Fill-65" fill="#0067A8"></path>
                <path d="M10.4076231,19.6632661 L9.46927603,16.9289851 L9.45076364,16.9201917 L8.64292893,19.9798281 C8.86484628,21.0468364 9.3697719,22.0150347 10.1014744,22.8566545 C10.3581025,21.9507041 10.4601521,20.8873983 10.4076231,19.6632661" id="Fill-67" fill="#0067A8"></path>
                <path d="M11.6715339,17.9562149 L9.46925289,16.9292397 L10.4076,19.6632893 C11.1022777,20.5354545 12.197286,21.1891736 13.5565587,21.5735372 C13.3395008,20.3123802 12.7246579,19.0685785 11.6715339,17.9562149" id="Fill-69" fill="#0067A8"></path>
                <path d="M12.5729719,16.1135603 L9.93703802,16.2315769 L10.1362777,17.4459901 C12.1150215,18.2771967 14.1305587,18.4308496 16.070195,18.0599074 C15.2024264,17.2793785 14.0532694,16.623114 12.5729719,16.1135603" id="Fill-71" fill="#0067A8"></path>
                <path d="M12.2629355,14.0973521 L9.80865455,15.4473686 L9.98359669,16.5153025 L10.136324,16.6312364 C12.7206545,16.3750711 14.9780099,15.2701124 16.8000926,13.5764595 C15.3475636,13.383005 13.8082579,13.5493851 12.2629355,14.0973521" id="Fill-73" fill="#0067A8"></path>
                <path d="M9.07162975,11.8284959 C8.66158017,12.5079008 8.41744793,13.2467769 8.31100165,14.0351736 C7.93265455,13.5492231 7.47701818,13.140562 6.96862149,12.785124 C6.94432397,13.4841983 7.03781157,14.1737851 7.27338182,14.8513388 C6.70458843,14.6777851 6.13533223,14.6162314 5.56584463,14.5951736 C5.85000992,15.1433719 6.2225719,15.603405 6.70204298,15.9565289 C6.11126612,16.1236033 5.57209256,16.3552397 5.06809256,16.6313058 C5.56584463,16.8768264 6.09020826,17.0816198 6.67450579,17.1968595 C6.21077025,17.698314 5.85787769,18.2138843 5.56723306,18.7370909 C6.12167934,18.488562 6.77840661,18.3631405 7.26736529,17.940595 C7.09288595,18.6345785 6.88878678,19.1818512 6.90961322,19.9415537 C7.36039008,19.5252562 7.79242314,19.1031736 8.09070413,18.6433719 C8.22769587,19.3271736 8.46905124,19.9066116 8.75738182,20.4386116 C9.03992727,19.8712066 9.25721653,19.2850579 9.38796033,18.6739174 C9.7646876,19.171438 10.1960264,19.6300826 10.7250182,20.0190744 C10.8016132,19.3510083 10.7699107,18.6926612 10.6081587,18.0465785 C11.2352661,18.3321322 11.8621421,18.509157 12.4892496,18.5771901 C12.0021421,17.9429091 11.453481,17.3613884 10.8148033,16.8573884 C11.6265719,16.7881983 12.3909025,16.5993719 13.1158942,16.3126612 C12.4457455,16.0377521 11.7526876,15.8035702 10.995762,15.6809256 C11.7015471,15.0815868 12.2937124,14.4197686 12.7606876,13.6901488 C11.9371174,13.8720331 11.1679273,14.1737851 10.452886,14.5951736 C10.839795,13.7424463 11.0721256,12.8663471 11.1769521,11.9705785 C10.4589025,12.5312727 9.84429091,13.1745785 9.34329917,13.9095207 C9.39791074,13.2046612 9.29840661,12.5116033 9.07162975,11.8284959" id="Fill-75" fill="#F7F6F6"></path>
            </g>
        </g>
    </g>
</svg>