<?xml version="1.0" encoding="UTF-8"?>
<svg width="25px" height="28px" viewBox="0 0 25 28" version="1.1" xmlns="http://www.w3.org/2000/svg" xmlns:xlink="http://www.w3.org/1999/xlink">
    <!-- Generator: Sketch 64 (93537) - https://sketch.com -->
    <title>Group 27</title>
    <desc>Created with Sketch.</desc>
    <defs>
        <polygon id="path-1" points="0.0831976516 0.0582779661 11.9570085 0.0582779661 11.9570085 23.6101695 0.0831976516 23.6101695"></polygon>
        <polygon id="path-3" points="0 0.0582779661 11.8737752 0.0582779661 11.8737752 23.6101695 0 23.6101695"></polygon>
        <polygon id="path-5" points="0.0288300415 0.0526779661 3.08906297 0.0526779661 3.08906297 4.56888814 0.0288300415 4.56888814"></polygon>
        <polygon id="path-7" points="0.00570970206 0.0526779661 3.06594127 0.0526779661 3.06594127 4.56888814 0.00570970206 4.56888814"></polygon>
    </defs>
    <g id="payment" stroke="none" stroke-width="1" fill="none" fill-rule="evenodd">
        <g id="pay" transform="translate(-1158.000000, -341.000000)">
            <g id="Group-27" transform="translate(1158.000000, 341.000000)">
                <g id="Group-3" transform="translate(12.457627, 4.337153)">
                    <mask id="mask-2" fill="white">
                        <use xlink:href="#path-1"></use>
                    </mask>
                    <g id="Clip-2"></g>
                    <path d="M9.72127966,0.0582779661 C9.78166949,0.0879389831 10.0083983,0.221413559 10.0664153,0.252498305 C11.2476356,0.884277966 11.9470424,1.79510847 11.9570085,3.10482034 L11.9570085,23.600939 L2.44033051,23.6101932 L0.0833474576,23.6016508 L0.0833474576,15.1588203 C0.0745677966,12.1165492 0.451025424,9.53675254 1.3905678,7.63275254 C1.3905678,7.63275254 2.36380508,8.62912542 2.75782203,10.4132949 C3.13629661,9.37836271 3.8545678,8.55948136 4.91287288,7.95712542 C5.61216102,12.0241254 3.97451695,14.0091593 1.27477119,15.0477695 L1.27477119,22.5104814 L10.7915678,22.5013458 L10.7915678,4.14070169 C10.7810085,2.76644746 10.0116017,1.8315322 8.72312712,1.19714237 L9.72127966,0.0582779661 Z" id="Fill-1" fill="#D43E33" mask="url(#mask-2)"></path>
                </g>
                <g id="Group-6" transform="translate(0.000000, 4.337153)">
                    <mask id="mask-4" fill="white">
                        <use xlink:href="#path-3"></use>
                    </mask>
                    <g id="Clip-5"></g>
                    <path d="M2.23581186,0.0582779661 C2.17542203,0.0879389831 1.94869322,0.221413559 1.89055763,0.252498305 C0.709337288,0.884277966 0.0100491525,1.79510847 -3.55932203e-05,3.10482034 L-3.55932203e-05,23.600939 L9.51676102,23.6101932 L11.8736254,23.6016508 L11.8736254,15.1588203 C11.8824051,12.1165492 11.5059475,9.53675254 10.5664051,7.63275254 C10.5664051,7.63275254 9.5931678,8.62912542 9.19926949,10.4132949 C8.82079492,9.37836271 8.10240508,8.55948136 7.04421864,7.95712542 C6.34481186,12.0241254 7.98245593,14.0091593 10.6822017,15.0477695 L10.6822017,22.5104814 L1.16552373,22.5013458 L1.16552373,4.14070169 C1.17608305,2.76644746 1.94537119,1.8315322 3.23384576,1.19714237 L2.23581186,0.0582779661 Z" id="Fill-4" fill="#D43E33" mask="url(#mask-4)"></path>
                </g>
                <path d="M23.3713746,2.63343559 C20.7249,4.81174068 18.9947136,7.50045254 18.7271712,11.1825712 C18.6218153,12.6321644 18.3591373,13.4833169 17.9963237,14.2151136 L17.7884593,11.3642153 C17.1993915,11.5621136 16.7739339,11.8690458 16.4225102,12.2254525 C16.0462898,11.3888932 15.1059169,11.2106898 13.7793576,11.482978 C15.9410525,6.11658814 19.0717136,3.01084237 23.3713746,2.63343559" id="Fill-7" fill="#1A1A18"></path>
                <path d="M14.938261,7.85307458 C15.5638712,6.84531186 16.2954305,5.94314237 17.1814644,5.19544746 C16.8003797,3.83614237 16.6276339,2.39343051 16.5718712,0.903972881 C15.9866,2.66168475 15.0844305,4.12871864 13.7190746,5.17100678 C13.9955153,6.13012542 14.4018712,7.02410847 14.938261,7.85307458" id="Fill-9" fill="#D43E33"></path>
                <path d="M17.6420525,4.77893559 C17.2263237,3.76334237 17.0009,2.68439322 17.1944085,1.46556271 C17.4653915,0.0809864407 21.5543407,1.12647797 20.2423746,2.74395254 L17.6420525,4.77893559 Z" id="Fill-11" fill="#1A1A18"></path>
                <g id="Group-15" transform="translate(12.694915, 0.065966)">
                    <mask id="mask-6" fill="white">
                        <use xlink:href="#path-5"></use>
                    </mask>
                    <g id="Clip-14"></g>
                    <path d="M0.827613559,4.56888814 C1.7977661,3.67751525 2.56527458,2.62858305 3.03985085,1.35161695 C3.54147797,2.37288136e-05 0.0432576271,-0.598416949 0.0291389831,1.05844746 C0.0184610169,2.28404068 0.284579661,3.45422712 0.827613559,4.56888814" id="Fill-13" fill="#1A1A18" mask="url(#mask-6)"></path>
                </g>
                <path d="M0.842088136,2.63343559 C3.48856271,4.81174068 5.21874915,7.50045254 5.48629153,11.1825712 C5.59164746,12.6321644 5.85444407,13.4833169 6.21713898,14.2151136 L6.42500339,11.3642153 C7.01407119,11.5621136 7.43964746,11.8690458 7.79107119,12.2254525 C8.16717288,11.3888932 9.10754576,11.2106898 10.4341051,11.482978 C8.27229153,6.11658814 5.14174915,3.01084237 0.842088136,2.63343559" id="Fill-16" fill="#1A1A18"></path>
                <path d="M9.27526102,7.85307458 C8.6495322,6.84531186 7.91797288,5.94314237 7.03205763,5.19544746 C7.41302373,3.83614237 7.58576949,2.39343051 7.6415322,0.903972881 C8.22680339,2.66168475 9.12897288,4.12871864 10.4943288,5.17100678 C10.2180068,6.13012542 9.81165085,7.02410847 9.27526102,7.85307458" id="Fill-18" fill="#D43E33"></path>
                <path d="M6.57136271,4.77893559 C6.98709153,3.76334237 7.21251525,2.68439322 7.01912542,1.46556271 C6.74814237,0.0809864407 2.65919322,1.12647797 3.97104068,2.74395254 L6.57136271,4.77893559 Z" id="Fill-20" fill="#1A1A18"></path>
                <g id="Group-24" transform="translate(8.423729, 0.065966)">
                    <mask id="mask-8" fill="white">
                        <use xlink:href="#path-7"></use>
                    </mask>
                    <g id="Clip-23"></g>
                    <path d="M2.26715763,4.56888814 C1.29712373,3.67751525 0.52949661,2.62858305 0.054920339,1.35161695 C-0.44670678,2.37288136e-05 3.0516322,-0.598416949 3.0656322,1.05844746 C3.07631017,2.28404068 2.81031017,3.45422712 2.26715763,4.56888814" id="Fill-22" fill="#1A1A18" mask="url(#mask-8)"></path>
                </g>
                <path d="M12.0738254,11.1581424 C12.5825712,11.354261 12.9013678,11.5934475 13.1202661,11.8757017 C13.5018254,10.6976847 13.9459102,9.52678644 14.5851644,8.3776 C13.3214864,6.09797288 12.6189949,3.63136271 12.0738254,1.11231186 C11.5285373,3.63136271 10.8261644,6.09797288 9.5623678,8.3776 C10.2017407,9.52678644 10.6458254,10.6976847 11.0273847,11.8757017 C11.2461644,11.5934475 11.5650797,11.354261 12.0738254,11.1581424" id="Fill-25" fill="#1A1A18"></path>
            </g>
        </g>
    </g>
</svg>