<?xml version="1.0" encoding="UTF-8"?>
<svg width="28px" height="28px" viewBox="0 0 28 28" version="1.1" xmlns="http://www.w3.org/2000/svg" xmlns:xlink="http://www.w3.org/1999/xlink">
    <!-- Generator: Sketch 64 (93537) - https://sketch.com -->
    <title>Group 3</title>
    <desc>Created with Sketch.</desc>
    <defs>
        <polygon id="path-1" points="0 4.86956522e-05 27.8164783 4.86956522e-05 27.8164783 28.0001172 0 28.0001172"></polygon>
    </defs>
    <g id="payment" stroke="none" stroke-width="1" fill="none" fill-rule="evenodd">
        <g id="pay" transform="translate(-1201.000000, -518.000000)">
            <g id="Group-3" transform="translate(1201.000000, 518.000000)">
                <mask id="mask-2" fill="white">
                    <use xlink:href="#path-1"></use>
                </mask>
                <g id="Clip-2"></g>
                <path d="M23.0193296,27.0912661 C23.0801991,27.1442226 23.14046,27.1971183 23.2026078,27.251353 C23.1410687,27.3085096 23.0789817,27.3657878 23.0175643,27.4242226 C22.9706339,27.3712661 22.9249817,27.3177009 22.882373,27.2628574 C22.9232165,27.2019878 22.9719122,27.1466574 23.0193296,27.0912661 M18.6191296,27.227553 C18.6811557,27.1679617 18.7439122,27.1082487 18.806547,27.0492661 C18.8686948,27.1119617 18.9319991,27.1752661 18.9946948,27.2391791 C18.9313904,27.2981617 18.8686948,27.3578748 18.8059383,27.4169183 C18.7432426,27.3536139 18.6811557,27.2908574 18.6191296,27.227553 M17.4978513,26.1830821 C17.588547,26.1818748 17.5977383,26.2908313 17.6311557,26.3546835 C17.7219122,26.6268313 17.7668948,26.9597878 17.5977383,27.2105704 C17.4577383,27.3821617 17.2124339,27.2951791 17.040173,27.2318748 C17.2215035,27.0711791 17.4175643,26.9250922 17.572173,26.7370052 C17.4972426,26.6499617 17.4254774,26.5610922 17.3487817,26.4764226 C17.3968687,26.3772661 17.4406948,26.2768313 17.4978513,26.1830821 M16.8909817,25.9998139 C17.1801122,26.1672052 17.0808948,26.6523965 16.786347,26.7704226 C16.5124339,26.8824226 16.1940252,26.8647704 15.9086078,26.8124835 C15.6450426,26.6730922 15.6973904,26.3120748 15.7765209,26.075353 C15.9104339,26.1508313 15.8294774,26.3747704 16.0028948,26.4058139 C16.2975035,26.4710052 16.6013035,26.41744 16.8995035,26.409527 C16.8490426,26.3522487 16.8002861,26.2944835 16.7521991,26.2359878 C16.7966948,26.1557009 16.8398513,26.075353 16.8909817,25.9998139 M16.0711296,25.8123357 C16.1307209,25.7545704 16.1904339,25.697353 16.2506948,25.6407443 C16.3060252,25.6905965 16.3614165,25.7399617 16.4174165,25.7910922 C16.4746339,25.7417878 16.5325209,25.6943096 16.5909557,25.6468313 C16.6347209,25.711353 16.7339383,25.7576139 16.7315035,25.8440487 C16.6809817,25.9000487 16.6255904,25.9511791 16.5708687,26.0029183 C16.5191296,25.9457009 16.4673296,25.8890922 16.4156513,25.8330922 C16.3596513,25.8872661 16.30426,25.9426574 16.2488687,25.9973791 C16.1891557,25.9359617 16.1301122,25.8738748 16.0711296,25.8123357 M13.7112165,25.6389183 C13.7902861,25.6345965 13.8694774,25.6291183 13.948547,25.6230922 C14.0685209,25.8890922 14.1731557,26.1611791 14.2839383,26.43144 C14.3168078,26.1642226 14.3004339,25.8945704 14.30646,25.6266835 C14.3776774,25.6316139 14.4495643,25.6358748 14.5213904,25.6394661 C14.5165209,26.0777878 14.5207817,26.5166574 14.5189557,26.955527 C14.4477383,26.955527 14.3765209,26.9543096 14.3059122,26.9518748 C14.1555035,26.6858748 14.0715035,26.3888313 13.9370426,26.1149183 C13.9266948,26.3961357 13.934547,26.6779617 13.9279122,26.9591791 C13.8560252,26.9543096 13.7841991,26.9512052 13.7124339,26.9500487 C13.7124339,26.5130052 13.7136513,26.0759009 13.7112165,25.6389183 M13.1730687,26.033353 C13.134173,26.1660487 13.1006339,26.2999617 13.0659383,26.4344835 C13.1310687,26.4381357 13.19626,26.4448313 13.2607817,26.4539009 C13.230347,26.3139009 13.2035035,26.173353 13.1730687,26.033353 M13.0458513,25.6285704 C13.1305209,25.6316139 13.2156774,25.6352661 13.3008948,25.6394661 C13.3940861,26.0844835 13.5175904,26.521527 13.6168078,26.9646574 C13.5571557,26.9646574 13.4373035,26.9640487 13.3769817,26.9640487 C13.3581122,26.877553 13.3386339,26.7905704 13.3197643,26.705353 C13.2168948,26.7046835 13.1140861,26.7046835 13.0117643,26.7046835 C12.9898513,26.7905704 12.968547,26.8757878 12.9479122,26.9622226 C12.8699383,26.9622226 12.7926339,26.9622226 12.7153904,26.9633791 C12.8230687,26.5178748 12.9351296,26.0734661 13.0458513,25.6285704 M12.0385209,26.3967443 C12.0390687,26.5026574 12.0390687,26.6091791 12.0397383,26.7157009 C12.1431557,26.7065704 12.2521122,26.7217878 12.350173,26.679727 C12.4000861,26.5945704 12.3787209,26.4977878 12.3635035,26.4070922 C12.2552165,26.4027704 12.1468078,26.3997878 12.0385209,26.3967443 M12.0415035,26.1246574 C12.1486948,26.1483965 12.2588687,26.1270922 12.3671557,26.1197878 C12.3409817,26.0467443 12.3836513,25.9261617 12.2972165,25.8890922 C12.2132165,25.87564 12.1286078,25.8732052 12.0439383,25.8817878 C12.0354165,25.9620748 12.0348687,26.0437009 12.0415035,26.1246574 M11.8156774,25.6200487 C12.0117383,25.6188313 12.212547,25.5932661 12.4049557,25.6431791 C12.6301122,25.7587704 12.5929817,26.047353 12.5181122,26.245727 C12.6356513,26.4666835 12.6612165,26.817353 12.4006339,26.9470052 C12.2071296,26.9785965 12.0093035,26.9591791 11.81446,26.9591791 C11.8139122,26.5123357 11.8120252,26.0662226 11.8156774,25.6200487 M8.01078174,26.047353 C7.97912957,26.1799878 7.95112957,26.3145096 7.92069478,26.4484226 C7.96634696,26.4503096 8.05643391,26.4545704 8.10141652,26.4563357 C8.07767739,26.3182226 8.05089478,26.1812661 8.01078174,26.047353 M7.90115565,25.6358748 C7.97912957,25.6364835 8.05698174,25.6370313 8.13489478,25.6370313 C8.25359043,26.08144 8.36315565,26.5288313 8.46663391,26.97744 C8.38811217,26.9756139 8.30959043,26.9743965 8.23173826,26.9743965 C8.21037304,26.8885704 8.18852087,26.8027443 8.16654696,26.7174661 C8.06434696,26.7174661 7.96202522,26.7181357 7.86037304,26.7187443 C7.8390687,26.8045704 7.81776435,26.8903357 7.7958513,26.9761617 C7.73808609,26.9768313 7.62237304,26.97744 7.56460783,26.9780487 C7.67776435,26.5306574 7.7818513,26.0807704 7.90115565,25.6358748 M7.11052087,26.7065704 C7.17437304,26.3425096 7.11052087,25.9682226 7.14576435,25.6005704 C7.20480783,25.6030052 7.32234696,25.6090313 7.38078174,25.6120748 C7.37402522,25.9828313 7.40878174,26.3571183 7.36312957,26.7266574 C7.32898174,26.9719617 6.99054696,27.0632661 6.81773826,26.9025096 C6.69721652,26.775353 6.70878174,26.5866574 6.6898513,26.425353 C6.76715565,26.4241357 6.84452087,26.4223096 6.92237304,26.4198748 C6.92724261,26.5288313 6.93034696,26.815527 7.11052087,26.7065704 M5.80724261,25.6407443 C6.05808609,25.6340487 6.3088687,25.6345965 6.55959043,25.6377009 C6.56324261,25.725353 6.56689478,25.8136139 6.57060783,25.9018748 C6.39408609,25.9103965 6.21689478,25.9109443 6.04043391,25.9085096 C6.04043391,25.9889183 6.03976435,26.0692661 6.03799913,26.1502226 C6.19747739,26.1502226 6.35689478,26.1508313 6.51637304,26.1526574 C6.51637304,26.2159617 6.51637304,26.3425096 6.51582522,26.4052052 C6.35932957,26.4077009 6.20167739,26.4016139 6.04530348,26.4150052 C6.03799913,26.511727 6.03799913,26.6097878 6.03672087,26.707727 C6.21932957,26.7083965 6.40254696,26.7083965 6.58515565,26.709553 C6.58582522,26.7972661 6.58582522,26.885527 6.58637304,26.9743965 C6.32524261,26.9761617 6.06472087,26.9810313 5.80426,26.9652661 C5.8090687,26.523353 5.80426,26.0820487 5.80724261,25.6407443 M4.80660783,25.6370313 C5.0670687,25.6352661 5.3276513,25.635867 5.58811217,25.6364835 C5.59359043,25.7247443 5.59912957,25.8130052 5.60454696,25.9018748 C5.50715565,25.905527 5.40982522,25.9085096 5.31243391,25.9116139 C5.3148687,26.2664226 5.3148687,26.6219617 5.31243391,26.97744 C5.25399913,26.9768313 5.1370687,26.9768313 5.07863391,26.9761617 C5.07315565,26.619527 5.07863391,26.2628313 5.07504261,25.9060748 C4.98732957,25.9079617 4.89967739,25.9103965 4.81269478,25.9128313 C4.81080783,25.8209183 4.80904261,25.7290052 4.80660783,25.6370313 M22.52026,25.7484226 C22.5950687,25.6790922 22.6699991,25.6109183 22.7485209,25.545727 C22.7746339,25.8166574 22.7375035,26.0905704 22.7789557,26.359553 C22.7959383,26.471553 22.9274165,26.4271791 23.0059383,26.4405704 C23.116173,26.4417878 23.2257383,26.4302226 23.3358513,26.4192661 C23.2707817,26.3321617 23.1995643,26.2505965 23.1240861,26.173353 C23.1812426,26.0662226 23.2421122,25.9609183 23.3060861,25.8579878 C23.5208948,26.1356139 23.5537643,26.6122226 23.2153904,26.8063357 C23.0151296,26.8720748 22.67846,26.905553 22.5884339,26.6597009 C22.5135035,26.3625965 22.5500252,26.0510052 22.52026,25.7484226 M17.8430426,25.7539009 C17.9178513,25.6839617 17.9933904,25.6157878 18.0713035,25.54944 C18.0986339,25.8312661 18.0706339,26.1160748 18.108373,26.3967443 C18.340347,26.4867704 18.6276513,26.4472661 18.8692426,26.3863965 C18.7311296,26.2603965 18.5569817,26.2804835 18.4206339,26.4022226 C18.4461991,26.2439617 18.440173,26.0223357 18.6227817,25.9560487 C18.8461122,25.9901357 19.0621991,26.0589183 19.2789557,26.1203965 C19.2564339,26.2128574 19.2339122,26.3048313 19.2119383,26.397353 C19.1869817,26.411353 19.13646,26.4381357 19.1108948,26.4514661 C19.2795643,26.4411183 19.4487817,26.437527 19.6167817,26.4179878 C19.5510426,26.3328313 19.4809817,26.2518748 19.4091557,26.1727443 C19.4608948,26.0704226 19.5145209,25.9700487 19.5692426,25.8696139 C19.7920252,26.0930052 19.82246,26.4867704 19.6058252,26.7247704 C19.396373,26.955527 18.9258513,26.8587443 18.9064339,26.5172052 C18.7755035,26.6523965 18.6537643,26.85144 18.4407209,26.8446835 C18.2635904,26.8465096 18.0134774,26.8867443 17.9227817,26.6894661 C17.8417643,26.3857878 17.8606339,26.065553 17.8430426,25.7539009 M14.7344339,25.5743965 C14.8080861,25.5780487 14.8817383,25.5798748 14.9559383,25.5810313 C14.956547,25.7411183 14.9572165,25.9012052 14.9620861,26.061353 C15.0740861,25.9018748 15.1775643,25.7362487 15.2840861,25.5731791 C15.3722861,25.5750052 15.460547,25.5768313 15.5494165,25.5792661 C15.4344339,25.7783096 15.2986339,25.9651791 15.1787209,26.161727 C15.3151296,26.4229183 15.4435035,26.6883096 15.5749817,26.9524835 C15.4812426,26.9530313 15.388173,26.9543096 15.2944339,26.955527 C15.1933904,26.7643965 15.1330687,26.5452052 14.9773035,26.3888313 C14.9541122,26.5750922 14.9559383,26.7637878 14.956547,26.9512052 C14.8817383,26.9518748 14.8074774,26.9543096 14.7331557,26.9579617 C14.7295643,26.4965096 14.7282861,26.0357878 14.7344339,25.5743965 M10.602547,25.5920487 C10.8709817,25.5877878 11.1388078,25.5847443 11.4072426,25.5962487 C11.4018252,25.6821357 11.3962861,25.7679617 11.39026,25.8543965 C11.2982861,25.8525096 11.2064339,25.8519617 11.11446,25.851353 C11.1132426,26.2147443 11.1260252,26.5787443 11.1059383,26.9421357 C11.0511557,26.9384226 10.9409817,26.9311791 10.8861991,26.927527 C10.8856513,26.5696139 10.8807817,26.2123096 10.89046,25.8543965 C10.7948948,25.8525096 10.6993904,25.8507443 10.6037643,25.8489183 C10.6032165,25.7630922 10.602547,25.6772661 10.602547,25.5920487 M10.1326948,25.9840487 C10.10226,26.1288574 10.0730426,26.2743965 10.0395035,26.4185965 C10.0888078,26.4168313 10.1868687,26.4131183 10.2361122,26.411353 C10.2026339,26.2682487 10.1697643,26.1258748 10.1326948,25.9840487 M10.0212426,25.6036139 C10.0991557,25.5908313 10.178347,25.5883965 10.2568687,25.5834661 C10.3786078,26.0302487 10.4795904,26.4825704 10.5953035,26.9311791 C10.514347,26.9305096 10.4333296,26.9299617 10.352373,26.929353 C10.3305209,26.8380487 10.3098252,26.7485704 10.2878513,26.6578748 C10.1868687,26.6572661 10.086373,26.6572661 9.98539043,26.6578748 C9.96463391,26.747353 9.94339043,26.83744 9.92330348,26.927527 C9.8648687,26.9299617 9.74793826,26.9348313 9.68950348,26.9378139 C9.79419913,26.49164 9.8970687,26.0443096 10.0212426,25.6036139 M8.8708687,25.839727 C8.87141652,25.9505704 8.87263391,26.0625704 8.87330348,26.1739617 C9.01567739,26.1636139 9.27193826,26.2073791 9.25428609,25.9877009 C9.23541652,25.7886574 9.00715565,25.8586574 8.8708687,25.839727 M8.63469478,25.5725704 C8.84950348,25.5785965 9.07289478,25.5408574 9.28228609,25.6005704 C9.54219913,25.7265704 9.53611217,26.087527 9.37602522,26.2926574 C9.49167739,26.495353 9.44967739,26.7326835 9.48930348,26.95364 C9.40524261,26.9530313 9.3218513,26.9530313 9.23852087,26.9543096 C9.2068687,26.7838139 9.23237304,26.6024835 9.16730348,26.4399617 C9.06991217,26.4247443 8.97124261,26.4241357 8.87330348,26.4185965 C8.87263391,26.5951791 8.87263391,26.7723096 8.8696513,26.94944 C8.79167739,26.94944 8.71376435,26.9512052 8.63646,26.9543096 C8.63159043,26.493527 8.63402522,26.033353 8.63469478,25.5725704 M20.7069557,25.8092922 C20.71846,25.625527 20.9120861,25.5481617 21.0575643,25.4867443 C21.06846,25.5889443 21.0155035,25.6687443 20.9455643,25.7362487 C20.9906078,25.799553 21.1105209,25.8348574 21.0800861,25.9310313 C21.0855035,26.0911183 20.9193296,26.161727 20.7890687,26.1879617 C20.8189557,26.1100487 20.850547,26.033353 20.8828078,25.9565965 C20.8189557,25.9128313 20.7605209,25.863527 20.7069557,25.8092922 M21.4568078,25.557353 C21.5213904,25.4946574 21.5865209,25.4337878 21.6534774,25.3729183 C21.6826339,25.7033791 21.6674165,26.0345704 21.6595035,26.3650313 C21.8433904,26.4570052 22.0502861,26.4490313 22.2487817,26.4192661 C22.1841991,26.3321617 22.1124339,26.2518748 22.038173,26.1745096 C22.0935035,26.0668313 22.1537643,25.9620748 22.2146339,25.8579878 C22.3626078,26.0662226 22.4477643,26.3522487 22.3235904,26.5921357 C22.2566948,26.7570922 22.0849817,26.8636139 21.9072426,26.849553 C21.73626,26.8837009 21.6607817,26.7041357 21.5767817,26.5939617 C21.4519383,26.9073791 21.0867209,26.8465096 20.8165209,26.8483965 C20.6284339,26.843527 20.3508078,26.8843096 20.2808687,26.6523965 C20.2553035,26.4722226 20.2028948,26.2263096 20.360547,26.0923965 C20.3971296,26.2037878 20.3678513,26.383353 20.5146078,26.4217009 C20.818347,26.4587704 21.1268948,26.4381357 21.4325209,26.4247443 C21.47026,26.13744 21.5146339,25.8446574 21.4568078,25.557353 M19.3799991,25.2481357 C19.4536513,25.2949443 19.5273035,25.3443096 19.6002861,25.393553 C19.6319991,25.3503357 19.6953035,25.2627443 19.7268948,25.2188574 C19.78046,25.2894661 19.8931296,25.3363965 19.8997643,25.4337878 C19.8474774,25.4964835 19.7866078,25.5500487 19.728173,25.6065965 C19.6958513,25.5622226 19.6319991,25.4739617 19.5996774,25.4294661 C19.5308948,25.4812661 19.4627209,25.5336139 19.3939383,25.585353 C19.3355035,25.5280748 19.2782861,25.4703096 19.2211296,25.4130922 C19.2740861,25.3582487 19.3270426,25.3029183 19.3799991,25.2481357 M21.9724339,25.3802226 C21.9699991,25.2937878 22.0667817,25.2530052 22.1129817,25.191527 C22.1659383,25.2457009 22.2201122,25.3004835 22.274347,25.3558139 C22.2238252,25.4124835 22.1726948,25.4678748 22.1233296,25.52564 C22.0716513,25.4782226 22.0186948,25.4319009 21.9724339,25.3802226 M13.8006339,12.1312922 C13.782373,12.229353 13.7629557,12.327353 13.7434165,12.425353 C13.6399991,12.367527 13.5352426,12.3126835 13.4299383,12.2591791 C13.4682861,12.4168313 13.5796774,12.5324835 13.7141991,12.6152661 C13.7154165,12.7777878 13.7093296,12.9403096 13.6989817,13.1027704 C13.4950687,13.027353 13.3361991,12.875727 13.15426,12.7637878 C13.1578513,13.0772661 13.4177643,13.2769183 13.6667817,13.4150922 C13.6673296,13.5532661 13.6692165,13.6920487 13.6697643,13.8302226 C13.4056513,13.7577878 13.1828078,13.5958748 12.9661122,13.4351791 C12.9849817,13.6190052 13.0008687,13.81744 13.1195035,13.9683965 C13.24246,14.13944 13.4329817,14.2386574 13.6174774,14.329353 C13.6216774,14.4632661 13.6228948,14.5983965 13.6211296,14.7329183 C13.2497643,14.6391791 12.9795643,14.3543096 12.7037643,14.1090052 C12.7658513,14.4730052 12.9393296,14.8345704 13.2455643,15.0543096 C13.4914165,15.2229183 13.8170687,15.3099617 14.1032165,15.1937009 C14.57246,15.0463965 14.8513035,14.5716139 14.9255035,14.1083357 C14.6504339,14.3543096 14.3795643,14.6337009 14.0112426,14.7341357 C14.0064339,14.5990052 14.0064339,14.4638748 14.0088687,14.329353 C14.1945209,14.23744 14.3886339,14.1399878 14.5110426,13.9671791 C14.6273035,13.8143965 14.6461122,13.6159617 14.6674165,13.4321357 C14.4477383,13.59344 14.22246,13.7571183 13.9559122,13.8307704 C13.9588948,13.69144 13.9632165,13.5520487 13.9668078,13.4132661 C14.2133904,13.2732661 14.47026,13.07544 14.4768948,12.7643965 C14.2912426,12.873353 14.1329817,13.027353 13.9279122,13.1022226 C13.9168948,12.9397009 13.9120252,12.7765704 13.916347,12.6140487 C14.0520861,12.5312661 14.1621991,12.4137878 14.1993904,12.2549183 C14.0934165,12.3109183 13.9875643,12.3663096 13.8828078,12.425353 C13.8646078,12.3279009 13.8475035,12.2305704 13.8317383,12.1331791 C13.8238252,12.1325704 13.8086078,12.1319617 13.8006339,12.1312922 M13.1475035,11.1604835 C13.414173,11.151353 13.6807817,11.1458748 13.9479383,11.1446574 C13.950373,11.2530052 13.9528078,11.361353 13.9546948,11.4697009 C14.2346948,11.501353 14.50246,11.5908313 14.7691296,11.6790922 C14.8366339,11.5944835 14.90426,11.5092661 14.9724339,11.4252661 C15.1958252,11.5646574 15.4100252,11.7186574 15.6048078,11.8963965 C15.52026,11.975527 15.4355904,12.0546574 15.3504339,12.1331791 C15.60426,12.369353 15.7990426,12.6651791 15.8848078,13.0036139 C15.9999122,12.9908313 16.1155035,12.9798748 16.2311557,12.9707443 C16.2475904,13.2269443 16.2506948,13.4838748 16.2475904,13.7407443 C16.1514774,13.7504835 16.0559122,13.7608313 15.9597383,13.7705704 C15.9420252,14.0797878 15.8556513,14.3792661 15.7375035,14.6641357 C15.8166948,14.7231791 15.8958252,14.7822226 15.974347,14.8424835 C15.78626,15.0323965 15.6115643,15.2350922 15.4167817,15.4182487 C15.3540252,15.3556139 15.2919991,15.293527 15.2298513,15.2307704 C14.986373,15.4645704 14.6906078,15.6398748 14.3655035,15.7317878 C14.3868687,15.8103096 14.4081122,15.8887704 14.4294774,15.967353 C14.1658513,16.0543965 13.8859122,16.0446574 13.614373,16.007527 C13.6155904,15.9606574 13.6174774,15.867527 13.6186948,15.8206574 C13.28446,15.7670313 12.9667817,15.6440748 12.6769817,15.4706574 C12.6295643,15.5430922 12.5820252,15.6160748 12.5339383,15.6885096 C12.3313035,15.55344 12.1455904,15.3951791 11.9727817,15.223527 C12.0287209,15.14744 12.0835035,15.0701357 12.1395035,14.9940487 C11.9258513,14.7700487 11.81026,14.4827443 11.7073904,14.1966574 C11.610547,14.1382226 11.472373,14.1807704 11.3615904,14.1643965 C11.3591557,13.9209183 11.3591557,13.67744 11.3621991,13.4339617 C11.46446,13.4303096 11.5667817,13.4284835 11.6689817,13.4260487 C11.6878513,13.1411791 11.7742861,12.8666574 11.91246,12.6177009 C11.82846,12.5306574 11.7469557,12.4411791 11.6635035,12.3546835 C11.8114774,12.15144 11.9842861,11.9682226 12.1668948,11.7959617 C12.2661122,11.8428313 12.3671557,11.8872661 12.4675904,11.9334661 C12.674547,11.7363096 12.9381122,11.6200487 13.1955904,11.5043965 C13.1749557,11.3899617 13.1602861,11.2749183 13.1475035,11.1604835 M9.1916513,11.2383965 C9.34559043,10.9468313 9.50756435,10.6601357 9.67495565,10.3764226 C10.0413904,10.4939617 10.3535904,10.729527 10.6530687,10.9644835 C11.0651557,11.3144835 11.2027817,11.8842226 11.1881122,12.4052052 C11.2837383,12.4521357 11.3798513,12.4990052 11.4760252,12.5458748 C11.4127209,12.7802226 11.3695035,13.0188313 11.3238513,13.2573791 C11.2179991,13.2568313 11.1120252,13.2561617 11.006173,13.2556139 C10.9671557,13.6920487 11.0182861,14.131527 11.1412426,14.5508574 C11.2410687,14.5229183 11.3409557,14.495527 11.4413904,14.4687443 C11.5424339,14.6720487 11.6677643,14.8631791 11.8151296,15.0365965 C11.720173,15.1145704 11.6264339,15.1937009 11.5332426,15.27344 C11.76826,15.6362226 12.1212426,15.9046574 12.5090426,16.0878139 C12.5747817,16.0063096 12.64046,15.9247443 12.7068687,15.8431183 C12.912547,15.9198748 13.120173,15.9923096 13.32646,16.0671791 C13.3374165,16.1766835 13.3496513,16.28564 13.3629817,16.3946574 C13.7841991,16.4482226 14.216373,16.4311791 14.6260252,16.3143096 C14.5986339,16.1992661 14.578547,16.0823965 14.550547,15.967353 C14.788547,15.8669183 15.0229557,15.7585704 15.2608948,15.6568574 C15.444173,15.9265704 15.6255035,16.1980487 15.8227817,16.4579617 C15.0295904,17.0368313 13.9777643,17.2279009 13.0269817,16.9966574 C12.3160861,16.8262226 11.6470687,16.4664835 11.1235904,15.9557878 C10.4448948,15.223527 10.2532165,14.1741357 10.2787209,13.2063096 C10.2671557,12.7960487 10.3609557,12.3559009 10.1801122,11.9712661 C9.94272087,11.6254661 9.54895565,11.4356139 9.1916513,11.2383965 M11.7006339,10.7849183 C12.2515643,10.2303965 13.0495035,9.97413565 13.820173,9.98752696 C14.9346948,9.98265739 16.0132426,10.5566574 16.6919991,11.429527 C16.9396774,11.7387443 17.1454165,12.0911791 17.2281991,12.4825704 C17.3919991,13.2197009 17.3548078,13.9817878 17.32626,14.7310313 C17.3219383,14.8771791 17.3170687,15.0365965 17.41026,15.1602226 C17.6548948,15.5199009 18.062173,15.7171791 18.4431557,15.9003965 C18.2819122,16.1852661 18.106547,16.4622226 17.9404339,16.7446574 C17.6135035,16.6107443 17.2890687,16.4488313 17.0334165,16.2010922 C16.6651557,15.81944 16.4393296,15.3123965 16.3662861,14.7901357 C16.2713904,14.721353 16.1770426,14.6531791 16.0833035,14.5837878 C16.1788078,14.3633791 16.24826,14.1327443 16.2822861,13.8952922 C16.3973296,13.8770922 16.5111557,13.8503096 16.62626,13.8338748 C16.6414774,13.4284835 16.6104339,13.0212661 16.494173,12.6310313 C16.3900861,12.6676139 16.2866078,12.7047443 16.1830687,12.7406574 C16.0991296,12.4892661 15.9615643,12.2622226 15.7972165,12.0558748 C15.8586339,11.9925704 15.9201122,11.9292661 15.9816513,11.8659617 C15.7320252,11.5299617 15.404547,11.2572661 15.042373,11.0508574 C14.9730426,11.1421617 14.9048078,11.2341357 14.8348078,11.32544 C14.6394165,11.2365704 14.426373,11.2097878 14.2212426,11.1556139 C14.1987209,11.0472661 14.1938513,10.9370922 14.1847209,10.827527 C13.7787209,10.8171791 13.3685209,10.8049443 12.9692165,10.8896139 C12.9807817,11.0186574 12.9959991,11.1470922 13.0112165,11.2761357 C12.7835035,11.39964 12.550373,11.5129183 12.3173035,11.6266835 C12.1133904,11.3449183 11.8954165,11.07344 11.7006339,10.7849183 M9.40469478,0.785266087 C9.81799913,0.653787826 10.2257643,0.505205217 10.6409557,0.379266087 C10.8600252,2.10735304 11.0852426,3.83422261 11.2921991,5.56352696 C10.9190687,5.56048348 10.546547,5.56839652 10.1740861,5.55737913 C9.91532957,3.96691826 9.65480783,2.37694435 9.40469478,0.785266087 M4.52046,24.9060487 C4.52478174,25.795353 4.52654696,26.6840487 4.51924261,27.573353 C10.8996513,27.5843096 17.2799991,27.5769443 23.6602861,27.5769443 C23.6554165,26.6864835 23.6572426,25.795353 23.6591296,24.9048313 C17.2793296,24.9036139 10.9001991,24.9011791 4.52046,24.9060487 M12.1535035,22.0263096 C12.3909557,22.8370313 12.6398513,23.6448313 12.8632426,24.4598748 C12.9034774,24.4641357 12.9849817,24.4720487 13.0252165,24.4763096 C12.802373,23.6600487 12.5832426,22.8425096 12.3593035,22.0269183 C12.3081122,22.0269183 12.2046948,22.0269183 12.1535035,22.0263096 M13.3161122,21.9672052 C13.4056513,22.801727 13.4817383,23.6369183 13.572373,24.47144 C13.6071296,24.47144 13.6776774,24.4720487 13.7129817,24.4720487 C13.6795643,23.6381357 13.60226,22.8065965 13.56446,21.973353 C13.4817383,21.971527 13.3982861,21.9690922 13.3161122,21.9672052 M12.7153904,21.9642226 C12.8931296,22.7353791 13.0489557,23.5120748 13.2108078,24.287553 C13.236373,24.3697878 13.2339383,24.4951791 13.3599991,24.4951791 C13.2461122,23.6484226 13.0873035,22.8084835 12.9569817,21.9647704 C12.8760252,21.9647704 12.7957383,21.9642226 12.7153904,21.9642226 M16.9956774,21.9124835 C16.6121991,22.7670922 16.22026,23.61744 15.8325209,24.4701617 C15.8726948,24.4696139 15.9529817,24.4683965 15.9931557,24.467727 C16.4247209,23.611353 16.8550687,22.7543096 17.2975904,21.903353 C17.1966078,21.9057878 17.0961122,21.9087704 16.9956774,21.9124835 M17.1813904,24.47144 C17.2349557,24.47144 17.3420252,24.4707704 17.3950426,24.4701617 C18.2179383,23.5918748 19.0409557,22.713527 19.8632426,21.8351183 C19.712347,21.8297009 19.5613296,21.8297009 19.410373,21.8253791 C18.6616774,22.7025096 17.9197383,23.5857878 17.1813904,24.47144 M18.3866078,21.8589183 C17.7906948,22.7244835 17.2111557,23.6010052 16.6159122,24.4671791 C16.6926078,24.4671791 16.7692426,24.4690052 16.8466078,24.47144 C17.5021122,23.5967443 18.1711296,22.7323965 18.82846,21.8582487 C18.6806078,21.8582487 18.5339122,21.859527 18.3866078,21.8589183 M17.7146078,21.8601357 C17.2056774,22.7317878 16.6937643,23.6027704 16.2013296,24.4848313 C16.2415035,24.4780748 16.3219122,24.4647443 16.3620861,24.4573791 C16.9226948,23.6064835 17.4400861,22.7238748 17.9872426,21.8625704 C17.8959383,21.861353 17.8053035,21.8606835 17.7146078,21.8601357 M13.936373,21.9690922 C13.9400252,22.8005704 13.9601122,23.6332052 13.9510426,24.4652922 C14.0344339,24.467727 14.1177643,24.4707704 14.2018252,24.4744835 C14.2054774,23.5802487 14.1945209,22.6861357 14.2072426,21.7919009 C14.1171557,21.8503357 14.0228687,21.9039009 13.936373,21.9690922 M16.464347,21.7785704 C16.1593904,22.6799878 15.8355035,23.5747704 15.5220252,24.4732052 C15.5610426,24.47144 15.6395643,24.4671791 15.67846,24.4652922 C15.98646,23.615553 16.2981122,22.7664226 16.622547,21.9228313 C16.5695904,21.8741357 16.5173035,21.8260487 16.464347,21.7785704 M15.9512165,21.4139009 C15.6955643,22.4432661 15.4100252,23.4652661 15.17446,24.4988313 C15.206173,24.4823965 15.2694774,24.4507443 15.3010687,24.4343096 C15.5901991,23.4725704 15.854373,22.5017009 16.1435035,21.539353 C16.0795904,21.497353 16.0151296,21.455353 15.9512165,21.4139009 M14.6138513,21.2964835 C14.5602861,22.3562226 14.5097643,23.4159617 14.4446948,24.4744835 C14.4848078,24.4725965 14.5651557,24.467727 14.6059383,24.4659617 C14.6795904,23.3350052 14.8135035,22.2082487 14.8811296,21.0766835 C14.7708948,21.1132661 14.5986339,21.1443096 14.6138513,21.2964835 M11.3068687,20.9019878 C11.2307817,21.1418748 11.2545209,21.4030052 11.3530687,21.6324226 C11.7414165,22.5443096 12.1200252,23.4603965 12.5053904,24.3739878 C12.5315643,24.4464835 12.5856774,24.4848313 12.6673035,24.4890922 C12.3793904,23.6618748 12.0890426,22.8345965 11.78646,22.0123096 C11.6544339,21.9666574 11.554547,21.8723096 11.5015904,21.7438139 C11.5436513,21.6002226 11.5893035,21.4504835 11.568547,21.2989183 C11.5368948,21.137553 11.4151557,21.0170922 11.3068687,20.9019878 M15.36626,20.7546835 C15.1939383,22.0037878 15.0070687,23.2510052 14.8396774,24.5005965 C14.8652426,24.4848313 14.9157643,24.4525096 14.9413296,24.4361357 C15.2201122,22.9490313 15.4836774,21.457727 15.7533904,19.9682487 C15.5341991,20.1722226 15.3917643,20.4558748 15.36626,20.7546835 M9.06747739,18.6126835 C10.04626,20.459527 11.024373,22.3068574 11.9982861,24.155527 C12.0822861,24.287553 12.1200252,24.5103965 12.3227817,24.4848313 C11.4651296,22.6526574 10.5892165,20.8283357 9.71993826,19.0010922 C9.54950348,18.8136139 9.28417304,18.7399617 9.06747739,18.6126835 M9.43512957,16.1110052 C9.33037304,16.3088313 9.19530348,16.51944 8.94939043,16.5407443 C8.93295565,16.6277878 8.95724261,16.7865965 8.82698174,16.7890922 C8.64315565,16.8043096 8.41002522,16.8469183 8.35226,17.0550922 C8.37356435,17.295527 8.62002522,17.4245096 8.67359043,17.651553 C8.70159043,17.7830922 8.72599913,17.9237009 8.83130348,18.0192052 C9.26341652,18.4812661 9.83741652,18.77344 10.3876774,19.0698748 C10.41026,19.4247443 10.670173,19.6937878 10.7474774,20.0310052 C10.7973296,20.1862226 10.6390687,20.3042487 10.6469817,20.4546574 C10.684173,20.5672661 10.798547,20.6287443 10.8807817,20.7072661 C10.9056774,20.8710052 10.9574165,21.0292661 11.0359383,21.175353 C11.020173,20.9878139 11.0280252,20.7546835 11.2106339,20.6470052 C11.3835035,20.6104835 11.514373,20.7632661 11.6300861,20.8666835 C11.7646078,21.0133791 11.9344339,21.1546574 11.9825209,21.3560748 C11.9209817,21.4888313 11.8327209,21.6063096 11.75846,21.7323096 C12.4646078,21.6604226 13.1742861,21.6811791 13.88226,21.6921357 C14.1549557,21.4991791 14.3947817,21.2526574 14.5865209,20.9763096 C14.6722861,20.8179878 14.8665209,20.8587704 15.01626,20.8290052 C15.0284339,20.5325096 15.3156774,20.3676139 15.3722861,20.0882226 C15.416173,19.9117009 15.5299383,19.747353 15.7010426,19.6754661 C15.8215035,19.6304835 15.9274165,19.7144835 16.0273035,19.7692052 C16.0248687,20.0991791 16.0297383,20.4297009 16.0279122,20.7601617 C16.0358252,20.8746574 15.98226,20.9787443 15.9408078,21.0816139 C16.1167817,21.24164 16.358373,21.2940487 16.5428687,21.4425096 C16.6560861,21.5204226 16.7619383,21.6416139 16.9147817,21.6130052 C18.0919991,21.5752661 19.2697643,21.6026574 20.446373,21.5649183 C20.6849817,21.6032661 20.8974774,21.3999617 20.8317383,21.1577009 C20.6010426,21.1510052 20.3569557,21.1905704 20.1445209,21.0779617 C19.9485209,20.977527 19.72026,21.0207443 19.5169557,20.9562226 C18.8156774,20.6445704 18.0298513,20.7078748 17.2841991,20.6445704 C16.8988948,20.6213791 16.6548078,20.277527 16.4972165,19.9633791 C16.3528948,19.6864835 16.2360861,19.3090313 15.8841991,19.243353 C15.4678513,19.2445704 15.1001991,19.47344 14.7660252,19.69744 C14.3947817,19.873353 13.9479383,19.857527 13.5706078,19.7083357 C13.3453296,19.5531791 13.1719122,19.3097009 12.8991557,19.229353 C12.7549557,19.1928313 12.5699122,19.2561357 12.4718513,19.1143096 C12.2155904,18.835527 11.8559122,18.7027704 11.526547,18.5365965 C11.2641991,18.31144 11.05426,18.0296139 10.8740252,17.7362226 C10.6245209,17.3319878 10.4991296,16.8700487 10.3359383,16.427527 C10.1594165,16.3867443 9.97680783,16.39344 9.79912957,16.3630052 C9.64628609,16.3350052 9.53854696,16.2157009 9.43512957,16.1110052 M5.00376435,6.13874435 C4.92956435,6.58309217 5.05617304,7.02439652 5.13280783,7.45955304 C5.18211217,7.78830957 5.41463391,8.04639652 5.50660783,8.36170087 C5.64898174,8.69648348 5.61732957,9.0860487 5.81947739,9.39709217 C5.98078174,9.6728313 6.21391217,9.89317913 6.42330348,10.1299617 C6.54991217,10.2705704 6.55539043,10.4738748 6.55411217,10.6527704 C6.55539043,11.135527 6.34289478,11.5810313 6.27721652,12.0516139 C6.21993826,12.3924835 6.63391217,12.5343096 6.64602522,12.8532661 C6.66854696,12.9689183 6.68924261,13.0985704 6.78973826,13.1752661 C6.98391217,13.3402226 7.25593826,13.3256139 7.4848687,13.409553 C7.80930348,13.5191791 8.15132957,13.7023965 8.29680783,14.0292661 C8.33332957,14.2581357 8.27739043,14.4943096 8.32547739,14.721353 C8.39912957,14.8667704 8.49828609,15.0001357 8.5488687,15.1577878 C8.63950348,15.4304835 8.59817304,15.7232661 8.65837304,16.00144 C8.69069478,16.1140487 8.74669478,16.2583096 8.88298174,16.2698748 C9.15019913,16.1858748 9.18428609,15.7743965 9.49411217,15.7658139 C9.68226,15.741527 9.65182522,16.0130052 9.80643391,16.0580487 C10.0431557,16.1219617 10.3293035,16.0683965 10.5161122,16.2589183 C10.6390687,16.361727 10.6670687,16.527353 10.70846,16.6740487 C10.8636774,17.2717878 11.1801991,17.8269183 11.6112165,18.26944 C11.7475035,18.4210052 11.960547,18.4465096 12.1328078,18.541527 C12.3593035,18.6450052 12.5211557,18.865353 12.7786339,18.9043096 C13.3179991,19.045527 13.7075643,19.6201357 14.30646,19.5403965 C14.8116774,19.3906574 15.2079991,18.9383965 15.7594165,18.9286574 C16.0053904,18.905527 16.2379122,19.0327443 16.3918513,19.2183965 C16.65426,19.5081357 16.7308948,19.915353 16.9871557,20.207527 C17.0730426,20.3164835 17.2135904,20.3298748 17.3426339,20.3256139 C17.9775643,20.3182487 18.6032426,20.4424835 19.226547,20.55144 C19.5290687,20.5970922 19.7981122,20.7559617 20.09826,20.8143965 C20.2577383,20.2817878 20.2412426,19.6706574 20.6229557,19.227527 C20.8414774,18.9371791 21.2091296,18.835527 21.5560252,18.8166574 C21.3819991,18.7442226 21.1628078,18.7363096 21.0393035,18.5792661 C20.8968687,18.2937878 21.1013296,17.8810313 20.8189557,17.6583096 C20.5559383,17.479353 20.2711296,17.3229183 20.0635035,17.075727 C19.6825209,16.6800748 19.5753904,16.0830052 19.6977383,15.5625704 C19.8632426,15.2977878 20.2089817,15.2204226 20.3855035,14.9648313 C20.4506948,14.861353 20.4372426,14.6811791 20.3075904,14.635527 C20.0246078,14.5210922 19.660547,14.6452661 19.422547,14.4206574 C19.1900861,14.1278748 19.3361122,13.7310052 19.2515643,13.3950052 C19.1931296,13.1521357 19.2241122,12.9031791 19.2320252,12.6572661 C19.2216774,12.3577878 18.8273035,12.2409183 18.8577383,11.92744 C18.8577383,11.345527 19.4591296,11.011353 19.5698513,10.4647443 C19.5741122,10.3027704 19.5041122,10.14944 19.4944339,9.98813565 C19.4608948,9.75987478 19.5260252,9.53648348 19.5833035,9.31857043 C19.6313904,9.2022487 19.5339383,9.09274435 19.4328948,9.05074435 C19.2046339,8.93874435 18.9514774,8.84744 18.8059383,8.6240487 C18.7134774,8.61917913 18.6178513,8.63561391 18.5284339,8.60944 C18.3506948,8.47911826 18.2088687,8.29900522 18.0079991,8.20033565 C17.7346948,8.17057043 17.4546339,8.27830957 17.1844339,8.19248348 C16.7808687,8.07378783 16.4855904,7.7548313 16.2129557,7.45291826 C16.0461122,7.45778783 15.8799991,7.45778783 15.7137643,7.4608313 C15.4069817,7.70187478 14.9754774,7.75178783 14.632173,7.55761391 C14.3679383,7.86622261 14.0928687,8.16691826 13.7975904,8.44570087 C13.7196774,8.53822261 13.5948948,8.50900522 13.4895904,8.51265739 C13.5492426,8.66544 13.5979991,8.8340487 13.5516774,8.99778783 C13.4488687,9.19561391 13.2655904,9.33920522 13.0726339,9.44457043 C13.0026339,9.35996174 12.9387817,9.27109217 12.8821122,9.17735304 C12.56626,9.15544 12.2880861,9.32830957 11.9849557,9.38126609 C11.8394774,9.42630957 11.7055035,9.33439652 11.5661122,9.30822261 C11.3555035,9.3508313 11.1078252,9.44091826 10.924547,9.27535304 C10.6628078,9.03248348 10.4047209,8.73848348 10.030373,8.68309217 C9.66095565,8.61796174 9.24217304,8.55465739 8.98591217,8.24970087 C8.77043391,7.99465739 8.96704261,7.63857043 8.8330687,7.35370087 C8.61759043,7.33294435 8.31932957,7.43648348 8.17695565,7.21857043 C8.07043391,6.86857043 8.19393826,6.49665739 8.13976435,6.13935304 C8.1318513,6.06448348 8.07712957,5.9220487 7.97602522,5.99448348 C7.69912957,6.05352696 7.63034696,6.36146609 7.42819913,6.51917913 C7.16280783,6.73648348 6.84872087,6.90387478 6.51150348,6.97630957 C6.31921652,7.01648348 6.06776435,7.0030313 5.95643391,6.81439652 C5.73115565,6.46196174 5.54312957,6.0468313 5.15593826,5.84230957 C5.08472087,5.92813565 5.01593826,6.02370087 5.00376435,6.13874435 M13.0507209,4.86956522e-05 L13.3319991,4.86956522e-05 C13.4214165,2.73552696 13.5102861,5.47161391 13.6107817,8.20648348 C13.7701991,8.2320487 13.8408078,8.01170087 13.9461122,7.91857043 C14.0617643,7.72987478 14.3284339,7.61172696 14.3211296,7.36770087 C14.3198513,4.91161391 14.3192426,2.45613565 14.3211296,4.86956522e-05 L14.578547,4.86956522e-05 C14.9724339,0.0493530435 15.3686948,0.071266087 15.76246,0.118744348 C15.680347,1.98744 15.5811296,3.85552696 15.4958513,5.72422261 C15.4514774,6.25926609 15.4697383,6.79917913 15.4009557,7.33239652 C15.68826,7.19422261 16.008373,7.14978783 16.32246,7.20578783 C16.5605209,4.9128313 16.7930426,2.61926609 17.0249557,0.32570087 C17.460173,0.440744348 17.8898513,0.574657391 18.32446,0.693961739 C17.9775643,3.09587478 17.6056513,5.49474435 17.2507209,7.89544 C17.5380252,7.86378783 17.8314774,7.82970087 18.1156774,7.90761391 C18.5575904,5.6462487 19.000173,3.38500522 19.4572426,1.12668348 C19.8955643,1.35196174 20.3301122,1.58509217 20.7641122,1.8188313 C20.2588948,3.86891826 19.7506948,5.91900522 19.2441991,7.96909217 C19.1961122,8.17361391 19.1267817,8.37387478 19.1072426,8.58387478 C19.1194774,8.60335304 19.1437643,8.64164 19.1559383,8.66117913 C19.3599122,8.76100522 19.5833035,8.8200487 19.7774165,8.94178783 C20.432373,6.75352696 21.0781991,4.56222261 21.7466078,2.37761391 C22.1099991,2.64787478 22.4666948,2.92726609 22.8330687,3.19326609 C21.7380252,6.42477043 20.6113296,9.64544 19.5096513,12.8745096 C19.4694774,13.0249183 19.5217643,13.1788574 19.534547,13.3298748 C19.5839122,13.6061617 19.5826339,13.8898748 19.6368687,14.1656139 C19.6545209,14.1790052 19.6898252,14.2070052 19.7074774,14.2210052 C19.8431557,13.9799617 19.9271557,13.7151791 20.0325209,13.4607443 C21.2876513,10.3265704 22.5433904,7.19300522 23.7978513,4.0588313 C24.1222861,4.38935304 24.432173,4.73448348 24.7572165,5.06439652 C23.3249557,8.18639652 21.8732165,11.3004835 20.4330426,14.4188313 C20.5656774,14.5910922 20.7519383,14.809553 20.6406078,15.0403096 C20.4634774,15.3232922 20.1159122,15.463353 19.9716513,15.7731791 C19.8918513,15.9959617 19.9673296,16.233353 20.0319122,16.4505965 C20.0890687,16.3611791 20.1456774,16.2710922 20.1968687,16.1779009 C21.95046,12.7869183 23.7078252,9.39709217 25.46026,6.00544 C25.7280252,6.41022261 25.9539122,6.84117913 26.214373,7.2508313 C24.3079991,10.5432661 22.3917643,13.8302226 20.47626,17.1171791 C20.5827817,17.2017878 20.6734774,17.3241357 20.8104339,17.35944 C20.9035035,17.3800748 20.9546339,17.2912661 21.0015643,17.2291183 C22.9165209,14.2843096 24.8368948,11.3418748 26.7579991,8.40059652 C26.910173,8.8200487 27.0975904,9.23396174 27.1993035,9.66796174 C27.0526078,9.91935304 26.8620861,10.1421357 26.6982861,10.3825704 C24.9921122,12.7552052 23.2877643,15.1291183 21.5816513,17.5018139 C21.4069557,17.7440748 21.1567209,17.9930922 21.2407209,18.3223357 C21.252347,18.5086574 21.4927817,18.4648313 21.5615643,18.3387704 C23.5556513,15.8206574 25.5222861,13.279353 27.5279383,10.7709183 C27.6149817,11.2614661 27.7075643,11.7521357 27.796373,12.2427443 C25.372547,15.0250922 22.9445209,17.8025096 20.5206339,20.5849183 C20.4573296,20.6750052 20.3252426,20.8064835 20.4518513,20.9038748 C20.5431557,20.9190922 20.6460861,20.91964 20.7075643,20.8369183 C23.0771557,18.40944 25.4437643,15.9777009 27.8146339,13.5508313 C27.8134774,13.923353 27.8159122,14.2952661 27.8165209,14.6677878 C27.8055643,14.7511791 27.834173,14.8570922 27.7635035,14.9203965 C25.5205209,17.0392661 23.2732165,19.1563096 21.0307209,21.2751183 C20.8481122,21.5600487 20.5468687,21.719527 20.3240861,21.9672052 C19.4730687,22.7981357 18.6276513,23.6344835 17.7839383,24.4725965 C17.8746339,24.4701617 17.966547,24.4683965 18.05846,24.467727 C20.45246,22.3507443 22.8561991,20.2452661 25.2539122,18.1330922 C26.0573296,17.4372922 26.8388948,16.7142226 27.6575904,16.0367443 C27.582173,16.4719617 27.4987817,16.9065704 27.4171557,17.3411791 C27.3855035,17.5347443 27.1828078,17.6187443 27.0513296,17.7392661 C24.222173,19.9883965 21.3776774,22.2192661 18.5575904,24.479353 C18.666547,24.4610922 18.7919991,24.4897009 18.8917643,24.4306574 C21.5961991,22.4937878 24.278173,20.5222226 26.9910687,18.5974661 C26.8760252,18.921353 26.7366339,19.2360487 26.6148948,19.5580487 C26.5553035,19.6943357 26.5162861,19.8568574 26.378173,19.9378139 C25.0006948,20.8490313 23.6201122,21.7565965 22.2408687,22.6660487 C21.3350687,23.2741357 20.4099122,23.8530052 19.5145209,24.4763096 C19.6197643,24.4610922 19.7257383,24.4385704 19.8170426,24.3812922 C20.9352165,23.7123357 22.0673296,23.0665704 23.1879991,22.4018748 C24.1095035,21.8796139 25.0067209,21.3128574 25.9386948,20.8089183 C25.4779122,21.6738748 24.8630687,22.4505704 24.1880252,23.1578748 C23.9847209,23.3806574 23.730347,23.553527 23.54226,23.7903096 C23.662173,24.0149183 23.9019383,24.141527 24.0388948,24.3484226 C24.0632426,25.5640487 24.0419991,26.7826574 24.0493035,27.99944 C17.3876774,28.0005965 10.7255035,28.0001172 4.06393826,27.99944 C4.06582522,26.8446835 4.05724261,25.6899878 4.06515565,24.5347443 C4.2258513,24.38744 4.38350348,24.2358748 4.54176435,24.085527 C3.83512957,23.4263096 3.16312957,22.727527 2.56472087,21.9684835 C2.34260783,21.6805096 2.13011217,21.3840748 1.9590687,21.0627443 C4.12547739,22.1674661 6.27837304,23.3014661 8.43924261,24.4166574 C8.51776435,24.4470922 8.59817304,24.4701617 8.68089478,24.4859878 C8.41246,24.2809183 8.11054696,24.12564 7.82628609,23.9449183 C5.74393826,22.6799878 3.66280783,21.413353 1.5798513,20.1490922 C1.49098174,20.0961357 1.40643391,20.0291183 1.36747739,19.929353 C1.20672087,19.5769183 1.04967739,19.2220487 0.899390435,18.8647443 C2.05159043,19.5970052 3.17956435,20.3682226 4.32452087,21.1120487 C5.97219913,22.2064835 7.62846,23.287527 9.27437304,24.3837878 C9.36634696,24.4507443 9.47956435,24.4690052 9.58973826,24.4853791 C9.33950348,24.2657009 9.06011217,24.0837009 8.79478174,23.88344 C6.03252087,21.8619617 3.27141652,19.8398748 0.509155652,17.8183965 C0.378346957,17.3125704 0.238286087,16.807353 0.155503478,16.2905704 C3.45524261,18.9906835 6.74341652,21.7067443 10.0376774,24.4136139 C10.1339122,24.491527 10.2684339,24.4610922 10.38226,24.4805096 C8.13976435,22.4030313 5.87724261,20.3474661 3.62628609,18.2785704 C2.41747739,17.1762226 1.22139043,16.0592661 0.00211217391,14.9672661 C0.00211217391,14.5490922 -0.00580086957,14.1309183 0.00880782609,13.713353 C0.532955652,14.1930052 1.01315565,14.7177009 1.52452087,15.2107443 C4.60811217,18.2998748 7.69791217,21.3829183 10.7796774,24.4732052 C10.822347,24.47144 10.9075643,24.467727 10.950173,24.4659617 C7.96391217,21.2063357 4.97819913,17.9468313 1.99193826,14.6878139 C1.35834696,13.9848313 0.703329565,13.29944 0.080086087,12.5884835 C0.131155652,12.075353 0.238286087,11.5658139 0.333242609,11.0588313 C3.97628609,15.5290922 7.62060783,19.9986835 11.2617643,24.4707704 L11.4699383,24.4707704 C7.83730348,19.621353 4.19541652,14.7779009 0.557242609,9.93213565 C0.724086087,9.50726609 0.883503478,9.07996174 1.04724261,8.65442261 C2.27437304,10.4269443 3.46376435,12.2263096 4.67628609,14.0091791 C7.03199913,17.4976139 9.38637304,20.9866574 11.7432426,24.4744835 C11.7895035,24.4732052 11.8820252,24.47144 11.928347,24.4701617 C8.45628609,18.8300487 4.98672087,13.1880487 1.51295565,7.54842261 C1.77889478,7.10413565 2.04367739,6.65857043 2.31217304,6.21544 C4.24898174,9.75007478 6.17982522,13.2890922 8.10811217,16.8286574 C8.23715565,16.7184835 8.38269478,16.6308313 8.54028609,16.5669183 C8.04298174,15.603353 7.58037304,14.621527 7.09408609,13.6518139 C6.91567739,13.5830922 6.72278174,13.5203965 6.59367739,13.3706574 C6.45495565,13.2300487 6.41898174,13.0297878 6.37819913,12.8452922 C6.33078174,12.6128313 6.13350348,12.4521357 6.0598513,12.2311791 C6.03130348,11.9371791 6.18280783,11.6114661 5.99289478,11.3461357 C4.9776513,9.34164 3.99393826,7.3208313 2.99573826,5.30787478 C3.30617304,4.95117913 3.59463391,4.57561391 3.91608609,4.2280487 C4.17721652,4.83430957 4.43828609,5.44057043 4.69698174,6.04744 C4.77982522,5.87944 4.85889478,5.67370087 5.04941652,5.6030313 C5.18156435,5.58057043 5.35443391,5.56772696 5.4438513,5.68946609 C5.6648687,5.95674435 5.85167739,6.25013565 6.0696513,6.51978783 C5.65628609,5.46120522 5.25211217,4.39970087 4.84069478,3.34117913 C5.20646,3.05448348 5.56680783,2.76109217 5.93634696,2.47859652 C6.38130348,3.77694435 6.83052087,5.07352696 7.26634696,6.37491826 C7.33080783,6.23430957 7.38254696,6.08578783 7.47330348,5.95917913 C7.58524261,5.81248348 7.77454696,5.76798783 7.9370687,5.70109217 C7.59072087,4.42465739 7.24802522,3.14700522 6.89924261,1.87117913 C7.35211217,1.6368313 7.80376435,1.3988313 8.26339043,1.17665739 C8.56895565,2.70929217 8.87141652,4.24265739 9.17089478,5.77657043 C9.21228609,6.07057043 9.5276513,6.26109217 9.4996513,6.57578783 C9.49898174,6.73161391 9.34924261,6.81987478 9.2530687,6.91964 C9.20376435,6.89961391 9.10576435,6.8600487 9.05712957,6.83996174 C9.10034696,7.23378783 9.10089478,7.63065739 9.14167739,8.02387478 C9.24393826,8.27100522 9.56052087,8.29109217 9.79054696,8.3300487 C10.1247817,8.3580487 10.4412426,8.50230957 10.6914165,8.72387478 C10.8606339,8.85778783 10.9975904,9.04100522 11.2008948,9.12744 C11.3245209,9.09517913 11.440173,9.03613565 11.5655643,9.00996174 C11.7182861,9.03796174 11.8491557,9.12859652 11.9867209,9.19561391 C12.292347,9.11709217 12.5741122,8.97709217 12.8620252,8.85170087 C13.0409817,8.75613565 13.0939383,9.00813565 13.1767209,9.11094435 C13.22846,9.04526609 13.3131296,8.98622261 13.2924339,8.88998783 C13.2820252,8.4980487 13.1359383,8.12187478 13.1511557,7.72744 C13.1347209,7.36100522 13.20046,6.99816174 13.3027817,6.64761391 C13.1530426,6.70239652 12.9661122,6.93430957 12.812173,6.78639652 C12.5924339,6.50822261 12.4560252,6.16120522 12.4670426,5.80335304 C12.3556513,5.78874435 12.2441991,5.77413565 12.1328078,5.76074435 C12.4286339,5.31091826 12.2515643,4.76065739 12.2101122,4.26761391 C12.1109557,2.87857043 12.0208687,1.48891826 11.9221991,0.100483478 C12.2989817,0.071813913 12.6752165,0.0408313043 13.0507209,4.86956522e-05" id="Fill-1" fill="#2E428D" mask="url(#mask-2)"></path>
            </g>
        </g>
    </g>
</svg>