<?xml version="1.0" encoding="UTF-8"?>
<svg width="29px" height="28px" viewBox="0 0 29 28" version="1.1" xmlns="http://www.w3.org/2000/svg" xmlns:xlink="http://www.w3.org/1999/xlink">
    <!-- Generator: Sketch 64 (93537) - https://sketch.com -->
    <title>Group 12</title>
    <desc>Created with Sketch.</desc>
    <defs>
        <polygon id="path-1" points="0 0.102705556 9.98849444 0.102705556 9.98849444 10.0911222 0 10.0911222"></polygon>
    </defs>
    <g id="payment" stroke="none" stroke-width="1" fill="none" fill-rule="evenodd">
        <g id="pay" transform="translate(-1094.000000, -312.000000)">
            <g id="Group-12" transform="translate(1094.000000, 312.000000)">
                <g id="Group-3" transform="translate(0.000000, 0.091778)">
                    <mask id="mask-2" fill="white">
                        <use xlink:href="#path-1"></use>
                    </mask>
                    <g id="Clip-2"></g>
                    <path d="M4.99418889,10.0911222 C7.75199444,10.0911222 9.98849444,7.85462222 9.98849444,5.09681667 C9.98849444,2.33920556 7.75199444,0.102705556 4.99418889,0.102705556 C2.23638333,0.102705556 -0.000116666667,2.33920556 -0.000116666667,5.09681667 C-0.000116666667,7.85462222 2.23638333,10.0911222 4.99418889,10.0911222" id="Fill-1" fill="#5B2281" mask="url(#mask-2)"></path>
                </g>
                <path d="M23.80385,27.8972944 C26.5616556,27.8972944 28.7981556,25.6607944 28.7981556,22.9029889 C28.7981556,20.1453778 26.5616556,17.9088778 23.80385,17.9088778 C21.0460444,17.9088778 18.8095444,20.1453778 18.8095444,22.9029889 C18.8095444,25.6607944 21.0460444,27.8972944 23.80385,27.8972944" id="Fill-4" fill="#5B2281"></path>
                <polygon id="Fill-6" fill="#5B2281" points="14.3749861 27.7383556 14.679875 27.7383556 28.4519861 0.507383333 20.1560139 0.507383333"></polygon>
                <polygon id="Fill-8" fill="#5B2281" points="9.33899167 27.7383556 13.5380194 27.7383556 19.3192417 0.507383333 15.1526861 0.507383333"></polygon>
                <polygon id="Fill-10" fill="#5B2281" points="0.302652778 27.7383556 8.50198611 27.7383556 14.3156806 0.507383333 14.0745694 0.507383333"></polygon>
            </g>
        </g>
    </g>
</svg>