<?xml version="1.0" encoding="UTF-8"?>
<svg width="28px" height="28px" viewBox="0 0 28 28" version="1.1" xmlns="http://www.w3.org/2000/svg" xmlns:xlink="http://www.w3.org/1999/xlink">
    <!-- Generator: Sketch 64 (93537) - https://sketch.com -->
    <title>Group 8</title>
    <desc>Created with Sketch.</desc>
    <defs>
        <polygon id="path-1" points="7.10659899e-06 0.0632771574 27.8486294 0.0632771574 27.8486294 27.8912975 7.10659899e-06 27.8912975"></polygon>
        <polygon id="path-3" points="0.0490876466 0.00988492798 11.1353821 0.00988492798 11.1353821 11.0251134 0.0490876466 11.0251134"></polygon>
    </defs>
    <g id="payment" stroke="none" stroke-width="1" fill="none" fill-rule="evenodd">
        <g id="pay" transform="translate(-846.000000, -347.000000)">
            <g id="Group-8" transform="translate(846.000000, 347.000000)">
                <g id="Group-7">
                    <g id="Group-3" transform="translate(0.000000, 0.007817)">
                        <mask id="mask-2" fill="white">
                            <use xlink:href="#path-1"></use>
                        </mask>
                        <g id="Clip-2"></g>
                        <path d="M7.00995635,21.0000284 C11.6121898,20.9822619 16.215134,20.9935614 20.8180782,20.9943431 C20.6965553,21.1477746 20.5665046,21.293531 20.4265046,21.429267 C18.7465046,23.1085563 17.0672152,24.7878457 15.3879259,26.467135 C14.923865,26.9411452 14.4377736,27.3938355 13.9929005,27.8849015 C13.9644741,27.8862518 13.9069107,27.8898051 13.8784843,27.8912975 C11.6008193,25.5822924 9.28477868,23.3110944 7.00995635,21.0000284 M20.8877228,10.0750538 C20.8941188,9.05660711 20.872799,8.03759188 20.8990934,7.01921624 C23.0197025,9.1767797 25.1758447,11.3002315 27.3092457,13.4457137 C27.4897533,13.6403635 27.7121898,13.8016832 27.8486365,14.0348508 C27.592799,14.2352569 27.3810223,14.4825665 27.1479259,14.7063533 C25.7990934,16.0566071 24.4488396,17.4062213 23.0992964,18.7556934 C22.377266,19.4941401 21.6218345,20.2012467 20.9218345,20.9595208 C20.9026467,20.8593178 20.8912761,20.7590437 20.8863015,20.6574904 C20.8884335,17.1304853 20.8870122,13.6027695 20.8877228,10.0750538 M6.92325584,7.07535838 C6.93675838,7.24662741 6.94173299,7.41860711 6.94031168,7.5905868 C6.9310731,12.0350538 6.95097157,16.4801604 6.92965178,20.9246274 C4.61290051,18.6221604 2.3039665,16.3110944 7.10659899e-06,13.9956934 C2.31675838,11.6981299 4.62071777,9.38642437 6.92325584,7.07535838 M13.9275198,0.0632771574 C15.9968904,2.13342944 18.066403,4.20287107 20.1364843,6.27231269 C20.3845756,6.52672893 20.6482305,6.76693198 20.8820376,7.03556142 C19.1302609,7.06818071 17.3763523,7.04053604 15.6237939,7.04977462 C12.752799,7.04757157 9.88244365,7.05403858 7.01137766,7.04615025 C7.11513401,6.85640406 7.28711371,6.72144975 7.43635228,6.56929746 C9.42548934,4.58023147 11.4139157,2.59038376 13.4030528,0.60195736 C13.5807178,0.42493198 13.7626467,0.25231269 13.9275198,0.0632771574" id="Fill-1" fill="#157215" mask="url(#mask-2)"></path>
                    </g>
                    <g id="Group-6" transform="translate(8.314721, 8.464670)">
                        <mask id="mask-4" fill="white">
                            <use xlink:href="#path-3"></use>
                        </mask>
                        <g id="Clip-5"></g>
                        <path d="M3.02812893,0.670130964 C4.00599695,0.147085279 5.13594619,-0.0795441624 6.23889036,0.0419786802 C6.63188528,0.117237563 7.02630152,0.184750254 7.40579391,0.316222335 C7.48467716,0.35317665 7.56427107,0.388709645 7.64457563,0.42282132 C7.80589543,0.476120812 7.95655533,0.555714721 8.12000711,0.601196954 L8.11147919,0.649521827 C8.18823046,0.678658883 8.26569239,0.709217259 8.34244365,0.739775635 C8.55350964,0.888303553 8.77594619,1.02048629 8.98630152,1.17185685 C9.1284335,1.30475025 9.28193604,1.42414112 9.43259594,1.54779594 C9.47807817,1.59683147 9.52356041,1.64515635 9.56904264,1.69426294 C9.75736751,1.89886193 9.92152995,2.1262731 10.1169614,2.32454721 C10.1141188,2.35162335 10.1077228,2.4062731 10.1048802,2.43398883 L10.1759462,2.42617157 C10.230667,2.54769442 10.3088396,2.65571472 10.3990934,2.75378579 C10.3962508,2.78079086 10.3905655,2.8333797 10.3877228,2.86038477 L10.479398,2.86891269 C10.4737127,2.90444569 10.4623421,2.97480102 10.4566569,3.00962335 L10.5675198,3.00109543 C10.5561492,3.03733909 10.5334081,3.10911574 10.5220376,3.14535939 L10.6293472,3.14535939 C10.6208193,3.18089239 10.6030528,3.2533797 10.5938142,3.28891269 L10.6684335,3.28535939 C10.7160477,3.48079086 10.830464,3.6556132 10.8397025,3.86028325 L10.8823421,3.86099391 C10.9860985,4.29165381 11.1275198,4.72231371 11.1175706,5.1707401 C11.1147279,5.54525787 11.1367584,5.92268934 11.0948294,6.29642538 C11.0287381,6.62688223 10.9605147,6.95876041 10.8460985,7.27713604 C10.8098548,7.39084162 10.7714792,7.50390761 10.7373675,7.61825279 L10.6954386,7.61967411 C10.6762508,7.80728832 10.5668091,7.96647614 10.4815299,8.12921726 C10.4502609,8.20028325 10.4197025,8.2720599 10.3891442,8.34454721 C10.3614284,8.37084162 10.3045756,8.42343046 10.2768599,8.44972487 C10.2662,8.48170457 10.2448802,8.54566396 10.2342203,8.57764365 C10.1141188,8.73327817 9.97980406,8.88038477 9.88670761,9.05520711 L9.85401726,9.04241523 C9.63442335,9.35162335 9.35513401,9.63155228 9.04173299,9.84475025 L9.05018985,9.87886193 C8.87188528,9.98830355 8.70772284,10.1204863 8.52010863,10.2150041 C8.49665685,10.2399482 8.4497533,10.2896234 8.42630152,10.3138569 C8.34670761,10.3407909 8.26782437,10.3677959 8.18894112,10.394801 C8.18680914,10.4083036 8.18254518,10.4360193 8.1804132,10.4495218 C7.97503249,10.5603848 7.73340812,10.5930751 7.54650457,10.7359178 C7.49960102,10.7430244 7.40579391,10.7565269 7.35889036,10.7629228 C6.54021015,11.1026183 5.62985482,11.0933797 4.76000711,11.0152071 C4.24051472,10.9001513 3.71960102,10.7707401 3.24345888,10.5242122 C3.08782437,10.4630244 2.96416954,10.3294203 2.79005787,10.3166284 L2.80427107,10.2690142 C2.64934721,10.2000802 2.50437259,10.1105371 2.35939797,10.0231259 L2.37787513,9.98688223 C2.27482944,9.93997868 2.18883959,9.86685178 2.10427107,9.7942934 C2.03675838,9.74881117 1.97208832,9.70048629 1.91310355,9.64576548 C1.86548934,9.59744061 1.81716447,9.55053706 1.76741827,9.50576548 C1.72122538,9.45601929 1.67645381,9.4062731 1.63239289,9.35581624 C1.56274822,9.31744061 1.51939797,9.25987716 1.50234213,9.18099391 L1.46538782,9.19378579 C1.40711371,9.09002944 1.32965178,8.99913604 1.24792589,8.91378579 C1.22447411,8.82211066 1.16335736,8.75886193 1.07310355,8.72830355 C1.07949949,8.70698376 1.09229137,8.66434416 1.09939797,8.64302437 C0.947316751,8.58261827 0.911783756,8.40353198 0.808738071,8.29195838 C0.810159391,8.26637462 0.81300203,8.21591777 0.81442335,8.19033401 L0.725590863,8.17967411 C0.731986802,8.14485178 0.74335736,8.07662843 0.749753299,8.04251675 L0.642443655,8.04820203 C0.650971574,8.0133797 0.669448731,7.94373503 0.67797665,7.90891269 L0.584169543,7.89683147 C0.590565482,7.8627198 0.602646701,7.79520711 0.60904264,7.76109543 L0.540819289,7.76038477 C0.178382741,6.80810051 -0.0269979695,5.77195838 0.141428426,4.75500406 C0.218179695,4.37977563 0.288535025,4.00099391 0.431377665,3.64353198 C0.569245685,3.26830355 0.750463959,2.9094203 0.961529949,2.57043553 C1.06883959,2.43541015 1.16335736,2.29114619 1.24721523,2.14119695 L1.27990558,2.15043553 C1.38224061,1.9685066 1.54427107,1.83277056 1.68782437,1.6849533 C1.86193604,1.51723756 2.01757056,1.32535939 2.23076853,1.20454721 L2.21868731,1.16972487 C2.49442335,1.0133797 2.73889036,0.803735025 3.02812893,0.670130964" id="Fill-4" fill="#AA7346" mask="url(#mask-4)"></path>
                    </g>
                </g>
            </g>
        </g>
    </g>
</svg>