<?xml version="1.0" encoding="UTF-8"?>
<svg width="28px" height="28px" viewBox="0 0 28 28" version="1.1" xmlns="http://www.w3.org/2000/svg" xmlns:xlink="http://www.w3.org/1999/xlink">
    <!-- Generator: Sketch 64 (93537) - https://sketch.com -->
    <title>Group 23</title>
    <desc>Created with Sketch.</desc>
    <defs>
        <polygon id="path-1" points="0.0459832636 0.242 0.475941423 0.242 0.475941423 0.37495 0.0459832636 0.37495"></polygon>
        <polygon id="path-3" points="0.0078125 0.242 0.4380625 0.242 0.4380625 0.373825 0.0078125 0.373825"></polygon>
        <polygon id="path-5" points="0.0455666667 0.242 0.3819 0.242 0.3819 0.46005 0.0455666667 0.46005"></polygon>
        <polygon id="path-7" points="0 0.106458577 27.6632385 0.106458577 27.6632385 27.7656552 0 27.7656552"></polygon>
        <polygon id="path-9" points="0.106116667 0.242 0.486783333 0.242 0.486783333 0.404975 0.106116667 0.404975"></polygon>
        <polygon id="path-11" points="0.069525 0.242 0.42615 0.242 0.42615 0.4107 0.069525 0.4107"></polygon>
    </defs>
    <g id="payment" stroke="none" stroke-width="1" fill="none" fill-rule="evenodd">
        <g id="pay" transform="translate(-1056.000000, -315.000000)">
            <g id="Group-23" transform="translate(1056.000000, 315.000000)">
                <g id="Group-3" transform="translate(13.355649, 0.003749)">
                    <mask id="mask-2" fill="white">
                        <use xlink:href="#path-1"></use>
                    </mask>
                    <g id="Clip-2"></g>
                    <path d="M0.475941423,0.242075 C0.332075314,0.242075 0.188794979,0.248325 0.0459832636,0.257825 C0.188794979,0.248325 0.331958159,0.242075 0.475941423,0.242075" id="Fill-1" fill="#007F31" mask="url(#mask-2)"></path>
                </g>
                <path d="M15.2027816,0.185549791 C15.2709657,0.19234477 15.3386812,0.200311297 15.4065138,0.208043515 C15.3386812,0.200311297 15.2709657,0.19234477 15.2027816,0.185549791" id="Fill-4" fill="#007F31"></path>
                <g id="Group-8" transform="translate(13.824268, 0.003749)">
                    <mask id="mask-4" fill="white">
                        <use xlink:href="#path-3"></use>
                    </mask>
                    <g id="Clip-7"></g>
                    <path d="M0.0078125,0.242075 C0.1516875,0.242075 0.2951875,0.247325 0.4380625,0.255575 C0.2950625,0.247325 0.1516875,0.242075 0.0078125,0.242075" id="Fill-6" fill="#007F31" mask="url(#mask-4)"></path>
                </g>
                <g id="Group-11" transform="translate(14.761506, 0.003749)">
                    <mask id="mask-6" fill="white">
                        <use xlink:href="#path-5"></use>
                    </mask>
                    <g id="Clip-10"></g>
                    <path d="M0.0455666667,0.315175 C0.158066667,0.326675 0.270066667,0.340425 0.3819,0.354925 C0.270066667,0.340425 0.1579,0.326925 0.0455666667,0.315175" id="Fill-9" fill="#007F31" mask="url(#mask-6)"></path>
                </g>
                <g id="Group-14" transform="translate(0.000000, 0.120904)">
                    <mask id="mask-8" fill="white">
                        <use xlink:href="#path-7"></use>
                    </mask>
                    <g id="Clip-13"></g>
                    <path d="M15.5741506,0.106458577 L16.29641,1.04088536 L17.1521088,2.08286025 C18.3053808,3.46915314 18.9749205,3.61383933 20.7871883,3.686241 C21.4753556,3.714241 21.8742678,3.76496904 22.166569,3.83338745 C22.4225523,3.89419079 22.6122259,3.98615732 22.7634728,4.07870962 C22.9546695,4.19598159 23.0538996,4.30013222 23.2817657,4.58915314 C23.6498661,5.05624937 24.1140335,5.65163013 24.1140335,5.65163013 L22.1038912,7.67161339 C22.1038912,7.67161339 20.9106695,6.17812385 20.897431,6.16172218 C20.8329958,6.07795649 20.5512385,5.7227431 20.2294142,5.35827448 C20.0358745,5.13884351 19.8343682,4.9340569 19.524728,4.79686862 C19.2327782,4.66811548 18.9676569,4.60344603 18.9676569,4.60344603 C17.994569,4.35097741 16.9209623,4.49988117 15.499523,3.86443347 C14.318251,3.33618243 13.9034059,2.59845858 13.4381841,2.03201506 L13.0855481,1.57604854 L11.9622678,0.123914644 C11.3375983,0.209320502 10.7259331,0.336667782 10.1302008,0.503379079 L11.5867866,2.3860569 L12.1321423,3.09062594 C12.3684435,3.3964 12.5628033,3.66995649 12.9137992,4.05551297 C13.6477741,4.86153808 14.1528285,5.13216569 15.7065356,5.3623749 C17.2605941,5.5925841 17.8661674,5.71454226 18.4731464,6.11075983 C18.8569456,6.36100251 19.1163264,6.60281004 19.2672218,6.79365523 C19.7220167,7.37075983 20.8929791,8.89014059 20.8929791,8.89014059 L18.8591715,10.9350778 C18.8591715,10.9350778 17.5407113,9.2131364 16.9289289,8.42281004 C16.5239247,7.89901088 16.229749,7.44691046 15.6664686,7.02105272 C14.6933808,6.28450042 13.5682259,6.36041674 12.3732469,6.21819079 C11.6201757,6.12927029 10.889364,6.11263431 9.75917155,4.66401506 L8.97458577,3.63762176 L7.39604184,1.59760502 C6.90223431,1.85979749 6.42611715,2.15104435 5.96956485,2.46911967 L7.52936402,4.48500251 C7.52936402,4.48500251 7.73778243,4.76312803 8.48136402,5.7227431 C9.22400837,6.68306109 9.58379079,6.76342929 9.58379079,6.76342929 C10.4158243,7.16105272 11.0557238,7.1751113 11.7493975,7.24962176 C12.5570628,7.33549623 13.3494979,7.24048368 14.2399916,7.88061757 C14.6718243,8.19178075 15.2577155,8.95410711 15.6273389,9.44240837 C16.3828703,10.4397473 17.6841088,12.1224418 17.6841088,12.1224418 L15.6519414,14.1666762 C15.6519414,14.1666762 13.673431,11.5699397 13.421431,11.2435464 C12.7372469,10.3580904 12.5790879,10.1402996 11.76041,9.18888536 C11.0782176,8.39539582 9.90280335,8.29288536 7.75031799,7.90393138 C7.75031799,7.90393138 6.71830126,7.80481841 5.987841,7.0729523 C5.70104603,6.78592301 5.54605021,6.57516151 5.2621841,6.21151297 L3.80688703,4.33106109 C3.41816736,4.74192301 3.05428452,5.17680167 2.71734728,5.6327682 L4.03580753,7.33690209 C4.03580753,7.33690209 4.18916318,7.53817406 4.41035146,7.76580586 C5.3498159,8.73315314 6.92414226,8.92634142 6.92414226,8.92634142 C7.35105439,9.0000318 9.21604184,9.08461757 10.0593222,9.79820753 C10.4453473,10.1255381 11.0779833,10.9368351 11.9512552,12.0658561 C12.7324435,13.0761992 14.4932803,15.3299063 14.4932803,15.3299063 L12.3962092,17.4377556 C12.3962092,17.4377556 8.17840167,11.7965172 7.74727197,11.2875967 C7.27724686,10.7309941 6.58579916,9.9131364 4.77845188,9.99783933 C4.77845188,9.99783933 4.58139749,10.0133038 4.30491213,10.0257222 C3.95731381,10.0416552 3.47709623,10.0472787 3.00906276,9.95507782 C2.90280335,9.93445858 2.8018159,9.89896067 2.69989121,9.85795649 C2.56656904,9.80289372 2.37724686,9.68878494 2.22951464,9.56225774 C2.06795816,9.42214059 1.93205858,9.26105272 1.93205858,9.26105272 L1.89046862,9.20973891 L1.17629289,8.28761339 C0.420761506,10.0004167 -5.85774059e-05,11.8928184 -5.85774059e-05,13.8810527 C-5.85774059e-05,21.5284502 6.21348117,27.7656552 13.83159,27.7656552 C21.4498159,27.7656552 27.6632385,21.5284502 27.6632385,13.8810527 C27.6632385,6.8258728 22.3749874,0.971061088 15.5741506,0.106458577" id="Fill-12" fill="#007F31" mask="url(#mask-8)"></path>
                </g>
                <path d="M12.0079113,0.238456904 C12.286154,0.201670293 12.5669741,0.172850209 12.8501372,0.152699582 C12.5669741,0.172733054 12.286154,0.201435983 12.0079113,0.238456904" id="Fill-15" fill="#007F31"></path>
                <g id="Group-19" transform="translate(14.292887, 0.003749)">
                    <mask id="mask-10" fill="white">
                        <use xlink:href="#path-9"></use>
                    </mask>
                    <g id="Clip-18"></g>
                    <path d="M0.106116667,0.266475 C0.23345,0.273725 0.360283333,0.282475 0.486783333,0.293475 C0.360116667,0.282475 0.233283333,0.273975 0.106116667,0.266475" id="Fill-17" fill="#007F31" mask="url(#mask-10)"></path>
                </g>
                <g id="Group-22" transform="translate(12.887029, 0.003749)">
                    <mask id="mask-12" fill="white">
                        <use xlink:href="#path-11"></use>
                    </mask>
                    <g id="Clip-21"></g>
                    <path d="M0.069525,0.30395 C0.188025,0.2887 0.3069,0.2767 0.42615,0.26745 C0.3069,0.2767 0.188025,0.2887 0.069525,0.30395" id="Fill-20" fill="#007F31" mask="url(#mask-12)"></path>
                </g>
            </g>
        </g>
    </g>
</svg>