<?xml version="1.0" encoding="UTF-8"?>
<svg width="29px" height="28px" viewBox="0 0 29 28" version="1.1" xmlns="http://www.w3.org/2000/svg" xmlns:xlink="http://www.w3.org/1999/xlink">
    <!-- Generator: Sketch 64 (93537) - https://sketch.com -->
    <title>Group 6</title>
    <desc>Created with Sketch.</desc>
    <defs>
        <polygon id="path-1" points="1.35986094e-05 0.0284261796 28.5462532 0.0284261796 28.5462532 27.957382 1.35986094e-05 27.957382"></polygon>
    </defs>
    <g id="payment" stroke="none" stroke-width="1" fill="none" fill-rule="evenodd">
        <g id="pay" transform="translate(-364.000000, -118.000000)">
            <g id="Group-6" transform="translate(364.000000, 118.000000)">
                <g id="Group-3" transform="translate(0.000000, 0.014234)">
                    <mask id="mask-2" fill="white">
                        <use xlink:href="#path-1"></use>
                    </mask>
                    <g id="Clip-2"></g>
                    <path d="M16.9598259,20.6882922 C17.7380298,20.3477747 18.4578046,19.8500396 18.9990953,19.1903135 C20.4736341,20.5489315 21.9469796,21.909723 23.4219872,23.2675738 C23.0507848,24.020207 22.669354,24.7672998 22.2951257,25.5181857 C22.0257802,26.0330107 21.7871623,26.5649254 21.503284,27.0716104 C21.123558,27.4279391 20.6675884,27.7139056 20.1680633,27.8685662 C19.9302551,27.9342405 19.677147,27.9896012 19.4316676,27.935519 C18.1497193,27.669583 16.8673449,27.4057352 15.5853967,27.1419726 C15.2921851,25.148688 15.0006356,23.1554886 14.7078928,21.162204 C15.4826874,21.1809985 16.2519416,20.9956104 16.9598259,20.6882922 M9.47270259,18.8246514 C9.93041948,19.4592329 10.5538776,19.9599939 11.2349553,20.337589 C11.9730983,20.7432694 12.7986082,21.0083957 13.6441486,21.0369498 C13.4630222,23.0344536 13.2737985,25.0310624 13.0930983,27.0286088 C11.7331592,27.2872998 10.3732201,27.5447123 9.01370715,27.8042557 C8.87860822,27.8306788 8.74431903,27.7850776 8.61395068,27.7548189 C8.14302222,27.6311842 7.68061735,27.4359939 7.3077102,27.116828 C7.17725662,26.9996286 7.04560974,26.8747154 6.97060213,26.7131933 C6.4003312,25.5267093 5.82588371,24.3423562 5.25480304,23.1562983 C6.66034338,21.7120183 8.06673607,20.2685053 9.47270259,18.8246514 M0.163235312,16.4738021 C0.644392085,15.3278478 1.12384414,14.181382 1.60542709,13.0354277 C3.61827336,13.1313181 5.63065084,13.2280183 7.64353973,13.3243349 C7.41553364,14.3625084 7.55233729,15.4582161 7.91757321,16.4487002 C8.11485175,16.977589 8.39272085,17.4778813 8.75203288,17.9143318 C7.13293394,19.0995373 5.51562496,20.2864049 3.89652603,21.4711842 C2.80341796,20.6235129 1.7098411,19.7766941 0.615411872,18.9311963 C0.506693455,18.8506058 0.453037443,18.7218995 0.390346423,18.6068737 C0.129567123,18.090344 -0.0515592085,17.5103135 0.0132200913,16.9264049 C0.0285625571,16.7657352 0.101822831,16.6204079 0.163235312,16.4738021 M20.9595215,13.6183988 C22.9539994,13.4036043 24.9480938,13.1888097 26.9426143,12.973589 C27.4660055,14.2547275 27.9863282,15.5370594 28.5101455,16.8181553 C28.563418,16.9391903 28.5424925,17.0747154 28.5407878,17.2030381 C28.5097193,17.7800852 28.3771349,18.3754155 28.0289461,18.8485175 C27.9232962,18.9997686 27.7608791,19.0944231 27.6185778,19.2064658 C26.6464621,19.9454612 25.6708944,20.680621 24.700526,21.42179 C23.0034788,20.3332846 21.311972,19.2367245 19.6170557,18.1457047 C20.1305595,17.5874094 20.493281,16.9033912 20.7293419,16.1857473 C20.9978776,15.3627945 21.102249,14.4762983 20.9595215,13.6183988 M17.9779689,8.91384475 C19.0498107,7.21760731 20.1284712,5.52610046 21.2032536,3.83165297 C22.5342551,4.22416438 23.8651714,4.61582344 25.1961729,5.0070137 C25.306937,5.03731507 25.3913632,5.11914155 25.4765991,5.19154947 C25.871625,5.53547641 26.2211349,5.9514277 26.4107848,6.4449863 C26.4619263,6.58728767 26.5100846,6.73521461 26.505354,6.88859665 C26.4733906,8.20975342 26.4401486,9.53133638 26.4098898,10.8529619 C24.5015002,11.49986 22.5905108,12.1399817 20.6808,12.7831294 C20.5537985,11.9652481 20.1987909,11.1956104 19.7248791,10.522204 C19.2641364,9.87228006 18.6777559,9.30162557 17.9779689,8.91384475 M3.50107397,4.64817047 C4.79495525,4.2923105 6.09181979,3.94582648 7.38655342,3.59214003 C8.54831903,5.23842922 9.70795373,6.88689193 10.8697193,8.53326636 C10.2001912,8.84944901 9.62058691,9.33358904 9.13943014,9.89188432 C8.56494003,10.563586 8.1225656,11.3613516 7.92780152,12.2277747 C5.99806027,11.678898 4.06699787,11.1341979 2.1381516,10.5818691 C2.13597808,9.19508067 2.13431598,7.80829224 2.12664475,6.42150381 C2.13516834,6.24127245 2.23787763,6.083586 2.31032816,5.92329985 C2.57882131,5.40425571 2.95428554,4.89369254 3.50107397,4.64817047 M14.0805139,0.0283835616 L14.3877893,0.0283835616 C14.7117285,0.0539969559 15.0556128,0.102964992 15.3262795,0.29734551 C16.3797954,1.07512329 17.4366782,1.84821309 18.4914728,2.62466971 C17.925975,4.55828919 17.3595823,6.49186606 16.7939994,8.4258691 C16.184179,8.12754338 15.5116676,7.97284018 14.8365991,7.92766514 C13.8938898,7.86582648 12.9251836,8.01243227 12.0711196,8.42672146 C11.298456,6.57539726 10.52494,4.72445662 9.75227641,2.8735586 C10.8325991,2.00756164 11.9147117,1.14331202 12.9946082,0.276888889 C13.0901151,0.200986301 13.2115763,0.174989346 13.3270709,0.144730594 C13.5742551,0.0854916286 13.8265108,0.044194825 14.0805139,0.0283835616" id="Fill-1" fill="#0A8992" mask="url(#mask-2)"></path>
                </g>
                <path d="M13.8316505,9.79235008 C14.8318941,9.66961035 15.8721985,9.88696195 16.7343598,10.4103105 C17.705197,10.9911933 18.4459397,11.9449833 18.7608438,13.0321674 C19.0753644,14.0980426 18.9854405,15.2781339 18.5042837,16.2809346 C17.9873279,17.3770685 17.0139336,18.2464749 15.866232,18.6364292 C14.8093065,18.9999604 13.6177084,18.9594734 12.5906155,18.5170989 C11.5383781,18.0708889 10.6693979,17.2129893 10.2099763,16.1671446 C9.73222892,15.0965814 9.69472511,13.8406301 10.1013005,12.7419391 C10.4558819,11.7753638 11.1492761,10.938347 12.0327464,10.4098843 C12.5795349,10.0800213 13.1970691,9.86778387 13.8316505,9.79235008" id="Fill-4" fill="#706F6E"></path>
            </g>
        </g>
    </g>
</svg>