<?xml version="1.0" encoding="UTF-8"?>
<svg width="28px" height="28px" viewBox="0 0 28 28" version="1.1" xmlns="http://www.w3.org/2000/svg" xmlns:xlink="http://www.w3.org/1999/xlink">
    <!-- Generator: Sketch 64 (93537) - https://sketch.com -->
    <title>Fill 1</title>
    <desc>Created with Sketch.</desc>
    <g id="payment" stroke="none" stroke-width="1" fill="none" fill-rule="evenodd">
        <g id="pay" transform="translate(-1039.000000, -435.000000)" fill="#A6884C">
            <path d="M1059.41188,435 L1053,441.411875 L1046.58846,435 L1039,435 L1039,463 L1067,463 L1067,435 L1059.41188,435 Z M1055.26717,443.678713 L1060.73978,438.205438 L1063.79456,438.205438 L1063.79456,445.794229 L1063.79456,459.794229 L1042.2061,459.794229 L1042.2061,452.205771 L1042.2061,438.205438 L1045.26055,438.205438 L1050.73316,443.678713 L1047.67871,446.733162 L1049.94588,449 L1053,445.945218 L1056.05478,449 L1060.58846,449 L1060.58879,449 L1063.79456,445.794229 L1057.38235,445.794229 L1055.26717,443.678713 Z M1053,452.054448 L1049.94555,449 L1045.41188,449 L1042.2061,452.205771 L1048.61765,452.205771 L1053,456.588125 L1058.32129,451.266505 L1056.05478,449 L1053,452.054448 Z" id="Fill-1"></path>
        </g>
    </g>
</svg>