<?xml version="1.0" encoding="UTF-8"?>
<svg width="28px" height="28px" viewBox="0 0 28 28" version="1.1" xmlns="http://www.w3.org/2000/svg" xmlns:xlink="http://www.w3.org/1999/xlink">
    <!-- Generator: Sketch 64 (93537) - https://sketch.com -->
    <title>Group 6</title>
    <desc>Created with Sketch.</desc>
    <defs>
        <polygon id="path-1" points="0 0.119078974 27.4794872 0.119078974 27.4794872 27.7128065 0 27.7128065"></polygon>
    </defs>
    <g id="payment" stroke="none" stroke-width="1" fill="none" fill-rule="evenodd">
        <g id="pay" transform="translate(-853.000000, -263.000000)">
            <g id="Group-6" transform="translate(853.000000, 263.000000)">
                <g id="Group-3" transform="translate(0.000000, 0.024554)">
                    <mask id="mask-2" fill="white">
                        <use xlink:href="#path-1"></use>
                    </mask>
                    <g id="Clip-2"></g>
                    <path d="M25.4573415,14.9576431 C24.5986749,16.3088226 23.4959056,17.5307713 22.1302236,18.3822585 C20.7260595,19.2294379 19.0144697,19.6415405 17.3890338,19.3328226 C15.6370954,18.9250277 14.0735467,18.0060533 12.4854441,17.199079 C10.266839,16.0345662 8.06848,14.7049251 5.58581333,14.1923097 C4.40694154,13.9209251 3.0214441,14.1707713 2.20441846,15.1198995 C1.25241846,16.1738482 1.03129026,17.6456431 0.794367179,18.9939508 C0.713956923,20.5518995 0.789915897,22.1141559 0.755597949,23.6749764 C0.693854359,24.8825662 1.4030441,26.1059508 2.51012103,26.6113867 C3.19662359,26.9545662 3.98478769,26.8526174 4.72585436,26.8612328 C10.7566236,26.8597969 16.7872492,26.8597969 22.8180185,26.8626687 C23.4557005,26.8511815 24.1146338,26.9186687 24.7306338,26.7104636 C25.8952903,26.2854379 26.7408903,25.0677969 26.6690954,23.8185662 C26.6518646,20.2187713 26.6935056,16.6189764 26.6491364,13.0191815 C26.1953928,13.6294379 25.8938544,14.3358995 25.4573415,14.9576431 M2.36653128,1.34102769 C1.3470441,1.86225846 0.729751795,3.00092513 0.756890256,4.13384821 C0.768521026,7.7752841 0.759905641,11.4181559 0.761341538,15.0595918 C1.14889026,14.5311815 1.42616205,13.93672 1.76790564,13.3795918 C2.54185436,12.1389764 3.44632615,10.9572328 4.60380308,10.0483097 C6.11853128,8.81200205 8.15764923,8.19600205 10.0989826,8.54636103 C11.6582236,8.93692513 13.0684185,9.7352841 14.4898133,10.4589764 C16.4413415,11.5014379 18.3609928,12.6300533 20.4416082,13.4011303 C21.6177518,13.7787713 22.9344697,14.1320021 24.13488,13.6509764 C25.2189826,13.2474892 25.8881108,12.1820533 26.2024287,11.1166174 C26.4479672,10.2005149 26.674839,9.26430974 26.6633518,8.30800205 C26.6678031,6.82041231 26.6690954,5.33282256 26.6647877,3.84379692 C26.6762749,2.35333538 25.3281108,0.99497641 23.8331979,1.00933538 C17.4651364,1.01938667 11.0953518,1.01220718 4.72585436,1.01364308 C3.93453128,1.02369436 3.07873641,0.913130256 2.36653128,1.34102769 M2.54472615,0.119078974 L24.8699159,0.119078974 C25.25488,0.298566154 25.6425723,0.473745641 26.0128903,0.681950769 C26.6189826,1.02800205 27.032521,1.63825846 27.2736082,2.28154051 C27.5480082,3.01241231 27.4645826,3.80646359 27.4762133,4.57036103 C27.4775056,11.1754892 27.4733415,17.7820533 27.4762133,24.3871815 C27.4789415,25.5646174 26.9075979,26.8353867 25.7875979,27.3365149 C25.0050338,27.7471815 24.1004185,27.6610277 23.2487877,27.6667713 C17.4563774,27.6610277 11.6655467,27.6667713 5.87457231,27.6638995 C4.70718769,27.6782585 3.52688,27.8017456 2.36940308,27.5906687 C1.03258256,27.2360021 -0.0385969231,25.9436944 0.00749538462,24.535079 C-0.00557128205,17.4948738 0.0118030769,10.4532328 -6.67427775e-05,3.41302769 C-0.00686358974,2.78984821 0.140890256,2.15374564 0.512931282,1.64400205 C1.00242872,0.926053333 1.77781333,0.485232821 2.54472615,0.119078974" id="Fill-1" fill="#CF9D2A" mask="url(#mask-2)"></path>
                </g>
                <path d="M25.4573415,14.9821969 C25.8938544,14.3604533 26.1953928,13.6539918 26.6491364,13.0437354 C26.6935056,16.6435303 26.6518646,20.2433251 26.6690954,23.84312 C26.7408903,25.0923508 25.8952903,26.3099918 24.7306338,26.7350174 C24.1146338,26.9432226 23.4557005,26.8757354 22.8180185,26.8872226 C16.7872492,26.8843508 10.7566236,26.8843508 4.72585436,26.8857867 C3.98478769,26.8771713 3.19662359,26.97912 2.51012103,26.6359405 C1.4030441,26.1305046 0.693854359,24.90712 0.755597949,23.6995303 C0.789915897,22.1387097 0.713956923,20.5764533 0.794367179,19.0185046 C1.03129026,17.6701969 1.25241846,16.1984021 2.20441846,15.1444533 C3.0214441,14.1953251 4.40694154,13.945479 5.58581333,14.2168636 C8.06848,14.729479 10.266839,16.05912 12.4854441,17.2236328 C14.0735467,18.0306072 15.6370954,18.9495815 17.3890338,19.3573764 C19.0144697,19.6660944 20.7260595,19.2539918 22.1302236,18.4068123 C23.4959056,17.5553251 24.5986749,16.3333764 25.4573415,14.9821969 M2.36653128,1.36558154 C3.07873641,0.937684103 3.93453128,1.04824821 4.72585436,1.03819692 C11.0953518,1.03676103 17.4651364,1.04394051 23.8331979,1.03388923 C25.3281108,1.01953026 26.6762749,2.37788923 26.6647877,3.86835077 C26.6690954,5.35737641 26.6678031,6.84496615 26.6633518,8.3325559 C26.674839,9.28886359 26.4479672,10.2250687 26.2024287,11.1411713 C25.8881108,12.2066072 25.2189826,13.2720431 24.13488,13.6755303 C22.9344697,14.1565559 21.6177518,13.8033251 20.4416082,13.4256841 C18.3609928,12.6546072 16.4413415,11.5259918 14.4898133,10.4835303 C13.0684185,9.75983795 11.6582236,8.96147897 10.0989826,8.57091487 C8.15764923,8.2205559 6.11853128,8.8365559 4.60380308,10.0728636 C3.44632615,10.9817867 2.54185436,12.1635303 1.76790564,13.4041456 C1.42616205,13.9612738 1.14889026,14.5557354 0.761341538,15.0841456 C0.759905641,11.4427097 0.768521026,7.79983795 0.756890256,4.15840205 C0.729751795,3.02547897 1.3470441,1.88681231 2.36653128,1.36558154" id="Fill-4" fill="#522D1D"></path>
            </g>
        </g>
    </g>
</svg>