<?xml version="1.0" encoding="UTF-8"?>
<svg width="29px" height="28px" viewBox="0 0 29 28" version="1.1" xmlns="http://www.w3.org/2000/svg" xmlns:xlink="http://www.w3.org/1999/xlink">
    <!-- Generator: Sketch 64 (93537) - https://sketch.com -->
    <title>Group 3</title>
    <desc>Created with Sketch.</desc>
    <defs>
        <polygon id="path-1" points="0 3.22645312e-06 28.756546 3.22645312e-06 28.756546 27.9867461 0 27.9867461"></polygon>
    </defs>
    <g id="payment" stroke="none" stroke-width="1" fill="none" fill-rule="evenodd">
        <g id="pay" transform="translate(-1119.000000, -401.000000)">
            <g id="Group-3" transform="translate(1119.000000, 401.000000)">
                <mask id="mask-2" fill="white">
                    <use xlink:href="#path-1"></use>
                </mask>
                <g id="Clip-2"></g>
                <path d="M3.6699837,19.5886771 C3.93166082,19.8437053 4.18050094,20.1122508 4.45523448,20.3536301 C4.95862006,20.8548652 5.45981129,21.3586458 5.96275799,21.8602759 C8.43097116,21.8589592 10.8991843,21.859837 13.3669586,21.859837 C13.6443254,21.8620313 13.9225699,21.8488652 14.1990589,21.8787085 C14.8060182,21.8923135 15.4134163,21.8668589 16.0199367,21.8914357 C15.7017549,22.2346332 15.3506577,22.5435987 15.0210652,22.8754295 C14.7937298,23.1180815 14.5317235,23.3243511 14.304827,23.5674859 C14.1090903,23.7768276 13.8865824,23.9576426 13.6877737,24.1639122 C12.3233223,24.1639122 10.9593097,24.1634734 9.59485831,24.1643511 C9.44827524,24.1643511 9.30344765,24.140652 9.15730345,24.1415298 C7.32808715,24.1428464 5.49930972,24.1415298 3.67053229,24.1424075 C3.66965455,22.6243511 3.6699837,21.1067335 3.6699837,19.5886771 M19.8144194,19.9898495 C20.3695918,19.3938621 20.9594351,18.831185 21.5321624,18.2518746 C21.5383066,18.6565141 21.5150464,19.0624702 21.5523505,19.466232 C21.5571781,20.1429718 21.5523505,20.8201944 21.5545887,21.4968903 C21.0033223,22.047279 20.4529774,22.5980188 19.9021937,23.1488025 C19.4672721,23.5916238 19.0073348,24.0081129 18.576363,24.454884 C18.2410652,24.8077367 17.8702627,25.1224075 17.5336044,25.4735047 C17.0127078,25.9914169 16.5005009,26.5188966 15.9650777,27.0214044 C15.6596232,27.2996489 15.4134163,27.6560125 15.0329147,27.8398997 C14.6936671,28.0123762 14.2701561,28.047047 13.9260809,27.8675925 C13.7351718,27.7920627 13.6061436,27.6274859 13.4516608,27.500652 C13.014106,27.0762633 12.5800621,26.6488025 12.1341687,26.2331912 C11.856363,25.9409028 11.5447643,25.6842069 11.2726639,25.3862132 C12.3386828,25.3172665 13.4095292,25.3743197 14.4764257,25.3269216 C16.2556545,23.5477367 18.0343567,21.7681129 19.8144194,19.9898495 M22.4748583,12.0857304 C23.0691342,12.6869843 23.6953599,13.254884 24.2900307,13.8556991 C24.4695292,14.0268589 24.6705323,14.1800251 24.8210652,14.378395 C24.8693411,14.518395 24.8377423,14.6711223 24.8460809,14.8163887 C24.8531028,15.2706207 24.8272094,15.7257304 24.8658301,16.1786458 C24.8715354,16.6162006 24.8645135,17.0541944 24.8680245,17.4921881 C24.9114727,18.0473605 24.8789962,18.6047273 24.8908458,19.1612163 C24.9329774,19.7010721 24.9009398,20.2434734 24.9123944,20.7846019 C24.9557987,21.3248966 24.9224445,21.8672978 24.9347329,22.4084263 C24.9838865,23.0149467 24.9312219,23.6241003 24.9672533,24.2310596 C24.6858928,24.2297429 24.4045762,24.2284263 24.1236984,24.2301818 C23.537805,24.2749467 22.9492784,24.2385204 22.3625072,24.2547586 C21.7191216,24.3096176 21.0704696,24.2336928 20.4275229,24.2995235 C20.4187455,24.284163 20.4003129,24.253442 20.3910966,24.2380815 C20.8839492,23.7404451 21.3922063,23.2572038 21.8674602,22.7428464 C22.1145887,22.4966395 22.3611906,22.2495549 22.6078364,22.0029091 C22.6078364,21.7878621 22.6131028,21.5723762 22.5898426,21.3582069 C22.5705323,20.787279 22.609153,20.2149906 22.5635103,19.6448527 C22.5617549,19.2213417 22.5652658,18.7973918 22.5630715,18.373442 C22.5200621,17.8182696 22.5525386,17.2604639 22.5398113,16.7039749 C22.486269,16.075511 22.5525386,15.4426583 22.4994351,14.8141944 C22.4932909,14.3617179 22.5016295,13.9088025 22.4968019,13.4558871 C22.4573034,13.0003386 22.4831969,12.5421567 22.4748583,12.0857304 M0.340375549,13.1973918 C1.12068903,12.421906 1.89354169,11.6389592 2.6764884,10.8665455 C2.6918489,11.6714357 2.67604953,12.4767649 2.68438809,13.2816552 C2.70984263,13.5397116 2.70589279,13.7990846 2.70457618,14.0580188 C3.03855737,14.4012163 3.39887085,14.7172038 3.73021881,15.0634734 C3.99661379,15.2930031 4.23579875,15.5506207 4.48814984,15.795511 C4.80150408,16.0676113 5.07141003,16.386232 5.38827524,16.6548213 C5.77053229,17.0480502 6.1795605,17.4136301 6.56181755,17.8064201 C6.83786771,18.0412163 7.08012476,18.3124389 7.34344765,18.5608401 C7.58658245,18.7710596 7.79943511,19.0124389 8.03379248,19.2318746 C8.31818119,19.4693041 8.55561066,19.756326 8.83473292,19.9994608 C9.04363574,20.1894922 9.23235047,20.4001505 9.43862006,20.5932978 C9.57467022,20.712232 9.71379248,20.8294107 9.82702132,20.9711223 C9.82307147,20.9838495 9.81517179,21.0093041 9.81122194,21.0220313 C8.73379248,21.0325643 7.65636301,21.0215925 6.57893354,21.0272978 C6.44156677,20.8903699 6.30595549,20.7508088 6.15893354,20.6239749 C5.80564201,20.2899937 5.48087712,19.9257304 5.11398056,19.6066708 C4.62990533,19.12479 4.14846332,18.6403197 3.66482696,18.1579561 C2.97141003,17.5211536 2.34250721,16.8167649 1.64557931,16.1834734 C1.30764828,15.8472978 0.977616928,15.5027837 0.624325392,15.1824075 C0.356613793,14.9401505 0.128400627,14.6404013 0.0331655172,14.2871097 C-0.0642639498,13.9026583 0.0573034483,13.4747586 0.340375549,13.1973918 M13.61141,8.04109091 C15.2760495,7.8365768 17.0218803,8.31845768 18.323573,9.382721 C19.5436357,10.3578934 20.3757361,11.8197743 20.5306577,13.3795235 C20.7246389,15.0516238 20.1273348,16.7798997 18.9818803,18.0069843 C17.8750464,19.2090972 16.2775981,19.9419687 14.6440746,19.9955549 C14.3513473,19.9889279 14.0577423,20.0095549 13.7667705,19.9762006 C12.7354226,19.8778934 11.7268959,19.5259185 10.8658301,18.9483636 C9.6365511,18.1210909 8.69736614,16.847047 8.35197429,15.3983323 C8.18125329,14.7518746 8.15930972,14.0755737 8.21021881,13.412 C8.36865141,11.7543824 9.2841373,10.1981442 10.6288395,9.22297179 C11.4951718,8.57388088 12.5388082,8.17363009 13.61141,8.04109091 M18.9199994,7.0088652 C20.0136671,6.99745455 21.1077737,7.00754859 22.2018803,7.00359875 C22.5657047,7.38234483 22.9589335,7.72949216 23.3245135,8.10604389 C23.6058301,8.38165517 23.8731028,8.67174922 24.1715354,8.92980564 C24.7863944,9.54378683 25.4012533,10.1582069 26.0152345,10.7735047 C26.5317862,11.2501191 27.0145448,11.7622821 27.5174915,12.2529404 C27.8080245,12.5017806 28.0634476,12.7883636 28.3412533,13.0512476 C28.6690903,13.3979561 28.8626326,13.9197743 28.6949837,14.3867335 C28.5782439,14.7330031 28.2846389,14.9682382 28.0226326,15.2043511 C27.3722251,15.8521254 26.7248897,16.5038495 26.0740433,17.151185 C26.0740433,16.3730658 26.0762376,15.5949467 26.0727266,14.8168276 C26.0437611,14.528489 26.0538552,14.2392727 26.0512219,13.9500564 C25.7475229,13.6950721 25.4964884,13.3843511 25.1910339,13.1306834 C24.7710339,12.7023448 24.3268959,12.2990219 23.9077737,11.8698056 C23.5913473,11.6029718 23.3232408,11.2852288 23.012037,11.0131285 C22.8000621,10.8147586 22.6038865,10.6001505 22.3923505,10.4013417 C22.0759241,10.1331912 21.8095292,9.81325392 21.4948583,9.54334796 C21.0840746,9.11939812 20.6425699,8.72880251 20.2313473,8.30573041 C19.9021937,8.02090282 19.6208771,7.68604389 19.2895292,7.40472727 C19.1613787,7.27745455 19.0218176,7.15895925 18.9199994,7.0088652 M14.4386828,4.2088652 C14.6226138,4.03156113 14.7994351,3.84767398 14.9815668,3.66817555 C18.3209398,3.66905329 21.659874,3.66861442 24.999247,3.66861442 C24.9996859,5.17789342 24.9988082,6.68761129 24.9996859,8.19689028 C24.5331655,7.78303448 24.1132094,7.32002508 23.6642,6.88773668 C23.3346075,6.60115361 23.0396859,6.27726646 22.7272094,5.97268966 C20.1931655,5.97312853 17.6595605,5.97268966 15.1255605,5.97268966 C14.3030715,5.96654545 13.4806263,5.98497806 12.6590589,5.96347335 C12.8859555,5.70234483 13.1426953,5.46974295 13.3840746,5.22221944 C13.754921,4.90491536 14.0713473,4.53011912 14.4386828,4.2088652 M3.82369843,3.6027837 C4.19717806,3.60497806 4.57065768,3.59839498 4.94369843,3.60541693 C5.27855737,3.63921003 5.61561066,3.61989969 5.95134734,3.62472727 C6.77072038,3.62779937 7.59009342,3.6181442 8.40946646,3.62999373 C8.16062633,3.94861442 7.83981129,4.20096552 7.55761693,4.48842633 C7.0981185,4.96065204 6.6057047,5.3982069 6.14927837,5.8735047 C6.14093981,6.68980564 6.17209969,7.50698433 6.12689592,8.32240752 C6.12865141,9.66754859 6.1273348,11.0126897 6.12777367,12.3578307 C6.1211906,12.7677367 6.14488966,13.1780815 6.10758558,13.5871097 C6.10363574,14.3217806 6.10626897,15.0564514 6.10670784,15.7911223 C5.32946646,15.0173918 4.55573605,14.2401505 3.77937241,13.4655423 C3.78858871,12.8462947 3.75874545,12.2261693 3.80175486,11.6086771 L3.80175486,7.70491536 C3.80921567,7.22347335 3.78288339,6.74071473 3.82238182,6.26015047 C3.82545392,5.37450784 3.82282069,4.48842633 3.82369843,3.6027837 M13.474921,0.353818182 C13.7452658,0.148865204 14.0731028,-0.0170282132 14.4215668,0.00140438871 C14.7594978,-0.000789968652 15.0794351,0.171247649 15.3067705,0.413943574 C15.7017549,0.824288401 16.1278991,1.20259561 16.5242,1.6120627 C16.8401875,1.88065204 17.1109712,2.19620063 17.4194978,2.47268966 C17.4695292,2.51877116 17.5134163,2.57143574 17.5568646,2.62453918 C16.7317862,2.65833229 15.9040746,2.62102821 15.0785574,2.64297179 C14.8275229,2.66974295 14.5747329,2.65701567 14.3232596,2.65877116 C13.0228834,3.95914734 11.7229461,5.25908464 10.4225699,6.55946082 C10.0754226,6.89958621 9.74363574,7.25551097 9.38200564,7.58027586 C8.66971724,8.29080878 7.96050094,9.00397492 7.24689592,9.71319122 C7.24601818,8.62786207 7.24821254,7.54297179 7.24601818,6.45764263 C7.72087712,6.00955486 8.16940376,5.53425705 8.63767962,5.07914734 C9.05460752,4.70830094 9.41974859,4.28303448 9.8410652,3.91701567 C10.3317235,3.41275235 10.8526639,2.94008777 11.3424445,2.43494671 C11.8142313,2.01319122 12.242131,1.54491536 12.6989962,1.1073605 C12.9719743,0.870808777 13.208526,0.596952978 13.474921,0.353818182" id="Fill-1" fill="#2F3394" mask="url(#mask-2)"></path>
            </g>
        </g>
    </g>
</svg>