<?xml version="1.0" encoding="UTF-8"?>
<svg width="141px" height="183px" viewBox="0 0 141 183" version="1.1" xmlns="http://www.w3.org/2000/svg" xmlns:xlink="http://www.w3.org/1999/xlink">
    <!-- Generator: Sketch 64 (93537) - https://sketch.com -->
    <title>Group 24</title>
    <desc>Created with Sketch.</desc>
    <defs>
        <polygon id="path-1" points="0 0.2136 41.8706 0.2136 41.8706 42.0846 0 42.0846"></polygon>
        <polygon id="path-3" points="0.7228 0.5979 42.594 0.5979 42.594 42.4689 0.7228 42.4689"></polygon>
        <polygon id="path-5" points="0.5752 0.7872 14.7872 0.7872 14.7872 15 0.5752 15"></polygon>
    </defs>
    <g id="payment" stroke="none" stroke-width="1" fill="none" fill-rule="evenodd">
        <g id="pay" transform="translate(-1059.000000, -398.000000)">
            <g id="Group-24" transform="translate(1059.000000, 398.000000)">
                <g id="Group-3" transform="translate(0.000000, 42.041000)">
                    <mask id="mask-2" fill="white">
                        <use xlink:href="#path-1"></use>
                    </mask>
                    <g id="Clip-2"></g>
                    <path d="M20.9356,42.0846 C32.4666,42.0846 41.8706,32.6806 41.8706,21.1496 C41.8706,9.6186 32.4666,0.2136 20.9356,0.2136 C9.4046,0.2136 -0.0004,9.6186 -0.0004,21.1496 C-0.0004,32.6806 9.4046,42.0846 20.9356,42.0846" id="Fill-1" fill="#1F488C" mask="url(#mask-2)"></path>
                </g>
                <g id="Group-6" transform="translate(98.000000, 42.041000)">
                    <mask id="mask-4" fill="white">
                        <use xlink:href="#path-3"></use>
                    </mask>
                    <g id="Clip-5"></g>
                    <path d="M21.6588,42.4689 C33.1898,42.4689 42.5948,33.0649 42.5948,21.5339 C42.5948,10.0029 33.1898,0.5979 21.6588,0.5979 C10.1278,0.5979 0.7228,10.0029 0.7228,21.5339 C0.7228,33.0649 10.1278,42.4689 21.6588,42.4689" id="Fill-4" fill="#1F488C" mask="url(#mask-4)"></path>
                </g>
                <path d="M70.4893,112.1681 C82.0203,112.1681 91.4243,102.7631 91.4243,91.2321 C91.4243,79.7021 82.0203,70.2971 70.4893,70.2971 C58.9583,70.2971 49.5533,79.7021 49.5533,91.2321 C49.5533,102.7631 58.9583,112.1681 70.4893,112.1681" id="Fill-7" fill="#1F488C"></path>
                <path d="M70.4893,56.4684 C86.0403,56.4684 98.7233,43.7854 98.7233,28.2344 C98.7233,12.6834 86.0403,0.0004 70.4893,0.0004 C54.9383,0.0004 42.2553,12.6834 42.2553,28.2344 C42.2553,43.7854 54.9383,56.4684 70.4893,56.4684" id="Fill-9" fill="#1F488C"></path>
                <path d="M28.234,125.9962 C35.745,125.9962 41.871,119.8702 41.871,112.3592 C41.871,104.8492 35.745,98.7232 28.234,98.7232 C20.723,98.7232 14.597,104.8492 14.597,112.3592 C14.597,119.8702 20.723,125.9962 28.234,125.9962" id="Fill-11" fill="#1F488C"></path>
                <path d="M112.9366,125.9962 C120.4476,125.9962 126.5736,119.8702 126.5736,112.3592 C126.5736,104.8492 120.4476,98.7232 112.9366,98.7232 C105.4256,98.7232 99.2996,104.8492 99.2996,112.3592 C99.2996,119.8702 105.4256,125.9962 112.9366,125.9962" id="Fill-13" fill="#1F488C"></path>
                <path d="M70.2975,154.423 C77.8085,154.423 83.9345,148.297 83.9345,140.786 C83.9345,133.275 77.8085,127.15 70.2975,127.15 C62.7865,127.15 56.6605,133.275 56.6605,140.786 C56.6605,148.297 62.7865,154.423 70.2975,154.423" id="Fill-15" fill="#1F488C"></path>
                <path d="M35.5328,169.0197 C39.4468,169.0197 42.6388,165.8277 42.6388,161.9137 C42.6388,157.9987 39.4468,154.8067 35.5328,154.8067 C31.6188,154.8067 28.4258,157.9987 28.4258,161.9137 C28.4258,165.8277 31.6188,169.0197 35.5328,169.0197" id="Fill-17" fill="#1F488C"></path>
                <path d="M106.0221,169.0197 C109.9361,169.0197 113.1281,165.8277 113.1281,161.9137 C113.1281,157.9987 109.9361,154.8067 106.0221,154.8067 C102.1081,154.8067 98.9161,157.9987 98.9161,161.9137 C98.9161,165.8277 102.1081,169.0197 106.0221,169.0197" id="Fill-19" fill="#1F488C"></path>
                <g id="Group-23" transform="translate(63.000000, 168.041000)">
                    <mask id="mask-6" fill="white">
                        <use xlink:href="#path-5"></use>
                    </mask>
                    <g id="Clip-22"></g>
                    <path d="M7.6812,15.0002 C11.5952,15.0002 14.7872,11.8082 14.7872,7.8942 C14.7872,3.9792 11.5952,0.7872 7.6812,0.7872 C3.7672,0.7872 0.5752,3.9792 0.5752,7.8942 C0.5752,11.8082 3.7672,15.0002 7.6812,15.0002" id="Fill-21" fill="#1F488C" mask="url(#mask-6)"></path>
                </g>
            </g>
        </g>
    </g>
</svg>