<?xml version="1.0" encoding="UTF-8"?>
<svg width="28px" height="28px" viewBox="0 0 28 28" version="1.1" xmlns="http://www.w3.org/2000/svg" xmlns:xlink="http://www.w3.org/1999/xlink">
    <!-- Generator: Sketch 64 (93537) - https://sketch.com -->
    <title>Group 13</title>
    <desc>Created with Sketch.</desc>
    <defs>
        <polygon id="path-1" points="0.168746667 0.00691492864 15.5519467 0.00691492864 15.5519467 12.1333333 0.168746667 12.1333333"></polygon>
        <polygon id="path-3" points="0 0.19369 12.1265911 0.19369 12.1265911 15.5771233 0 15.5771233"></polygon>
    </defs>
    <g id="payment" stroke="none" stroke-width="1" fill="none" fill-rule="evenodd">
        <g id="pay" transform="translate(-1054.000000, -352.000000)">
            <g id="Group-13" transform="translate(1054.000000, 352.000000)">
                <path d="M9.43630333,13.9738433 C9.43630333,11.49141 11.4490367,9.47751 13.93217,9.47751 C16.4141367,9.47751 18.4273367,11.49141 18.4273367,13.9738433 C18.4273367,16.45721 16.4141367,18.46831 13.9319367,18.46831 C11.4490367,18.46831 9.43630333,16.45581 9.43630333,13.9738433" id="Fill-1" fill="#F7941E"></path>
                <g id="Group-5" transform="translate(10.733333, 15.845433)">
                    <mask id="mask-2" fill="white">
                        <use xlink:href="#path-1"></use>
                    </mask>
                    <g id="Clip-4"></g>
                    <path d="M3.25924667,12.1334267 L0.168746667,9.04362667 L7.91891333,1.26149333 C10.1974133,-1.02680667 14.0803133,-0.0818066667 15.5519467,3.25836 C14.01008,3.12069333 12.5076467,2.88152667 11.23038,4.18166 L3.25924667,12.1334267 Z" id="Fill-3" fill="#00A450" mask="url(#mask-2)"></path>
                </g>
                <g id="Group-8" transform="translate(0.000000, 10.712100)">
                    <mask id="mask-4" fill="white">
                        <use xlink:href="#path-3"></use>
                    </mask>
                    <g id="Clip-7"></g>
                    <path d="M-2.33333333e-05,3.28419 L3.09001,0.19369 L10.87191,7.94409 C13.1604433,10.2228233 12.21521,14.1052567 8.87504333,15.5771233 C9.01271,14.0352567 9.25211,12.53259 7.95197667,11.25579 L-2.33333333e-05,3.28419 Z" id="Fill-6" fill="#00A450" mask="url(#mask-4)"></path>
                </g>
                <path d="M14.0380333,4.66666667e-05 L17.1280667,3.09008 L9.37743333,10.8717467 C7.09963333,13.16028 3.2165,12.2150467 1.7444,8.87534667 C3.28696667,9.01278 4.7894,9.25218 6.0662,7.95204667 L14.0380333,4.66666667e-05 Z" id="Fill-9" fill="#00A450"></path>
                <path d="M28.0104767,13.97578 L24.9204433,17.06628 L17.1385433,9.31611333 C14.8502433,7.03761333 15.7954767,3.15448 19.1351767,1.68284667 C18.9977433,3.22471333 18.7583433,4.72738 20.0584767,6.00441333 L28.0104767,13.97578 Z" id="Fill-11" fill="#00A450"></path>
            </g>
        </g>
    </g>
</svg>