<?xml version="1.0" encoding="UTF-8"?>
<svg width="25px" height="28px" viewBox="0 0 25 28" version="1.1" xmlns="http://www.w3.org/2000/svg" xmlns:xlink="http://www.w3.org/1999/xlink">
    <!-- Generator: Sketch 64 (93537) - https://sketch.com -->
    <title>Group 5</title>
    <desc>Created with Sketch.</desc>
    <g id="payment" stroke="none" stroke-width="1" fill="none" fill-rule="evenodd">
        <g id="pay" transform="translate(-1084.000000, -355.000000)">
            <g id="Group-5" transform="translate(1084.000000, 355.000000)">
                <polygon id="Fill-1" fill="#008AD1" points="12.9184235 8.5606902 17.2312863 11.050651 17.2312863 17.0759059 5.2050902 24.0425725 5.98391373 24.5067294 12.0133255 27.9878275 18.0428157 24.5067294 24.0723843 21.0254745 24.0723843 7.10100392 19.6981098 4.51637647"></polygon>
                <polygon id="Fill-2" fill="#008AD1" points="12.0590118 -3.92156863e-05 6.02944314 3.48105882 3.1372549e-05 6.96231373 3.1372549e-05 13.9245098 3.1372549e-05 20.8867843 4.37430588 23.4714902 11.1539137 19.427098 6.84105098 16.9371373 6.84105098 10.9118824 18.8672471 3.94521569 18.0884235 3.48105882"></polygon>
                <path d="M11.8166353,17.8896706 C13.9745176,17.8896706 15.7345961,16.1296706 15.7345961,13.9717098 C15.7345961,11.8138275 13.9745176,10.0538275 11.8166353,10.0538275 C9.65875294,10.0538275 7.89867451,11.8138275 7.89867451,13.9717098 C7.89867451,16.1296706 9.65875294,17.8896706 11.8166353,17.8896706" id="Fill-3" fill="#E6B500"></path>
            </g>
        </g>
    </g>
</svg>