<?xml version="1.0" encoding="UTF-8"?>
<svg width="27px" height="28px" viewBox="0 0 27 28" version="1.1" xmlns="http://www.w3.org/2000/svg" xmlns:xlink="http://www.w3.org/1999/xlink">
    <!-- Generator: Sketch 64 (93537) - https://sketch.com -->
    <title>Group 6</title>
    <desc>Created with Sketch.</desc>
    <defs>
        <polygon id="path-1" points="1.78343949e-05 0.034188535 26.2320686 0.034188535 26.2320686 27.940552 1.78343949e-05 27.940552"></polygon>
    </defs>
    <g id="payment" stroke="none" stroke-width="1" fill="none" fill-rule="evenodd">
        <g id="pay" transform="translate(-446.000000, -96.000000)">
            <g id="Group-6" transform="translate(446.000000, 96.000000)">
                <g id="Group-3" transform="translate(0.000000, 0.025265)">
                    <mask id="mask-2" fill="white">
                        <use xlink:href="#path-1"></use>
                    </mask>
                    <g id="Clip-2"></g>
                    <path d="M14.1581495,6.18586582 C15.4713554,5.8357172 16.8457928,5.76259618 18.1976399,5.85890191 C19.9536739,5.98849851 21.7252832,6.53304204 23.1020985,7.66255372 C24.4931813,8.78552611 25.3956017,10.4197512 25.84378,12.1324476 C26.1042217,13.1300442 26.2468968,14.1620017 26.2308459,15.1934837 C26.2314403,19.13542 26.2296569,23.0768212 26.2314403,27.018817 C26.2325699,27.2614242 26.1999329,27.5306641 26.0209945,27.7119805 C25.8248161,27.902214 25.533521,27.933127 25.2731389,27.9390718 C20.8139456,27.9384773 16.3547524,27.9390718 11.8949648,27.9390718 C11.3901919,27.9271822 10.8784042,27.9771779 10.3808246,27.8689231 C9.96409427,27.7791567 9.60383949,27.5247193 9.30659958,27.2286684 C8.27993291,26.1954624 7.25980552,25.1557172 6.23194989,24.1242947 C6.16774607,24.0482013 6.03220467,23.9186047 6.1404,23.8264603 C6.31339363,23.7212374 6.52859533,23.7391312 6.72352527,23.7301546 C11.2219541,23.7366938 15.719848,23.7248042 20.2182174,23.7343159 C20.4768756,23.7295601 20.7669817,23.7837172 20.995262,23.630282 C21.2336484,23.4299423 21.2473214,23.0869274 21.2574276,22.7991992 C21.2580221,19.8262055 21.2585571,16.8532119 21.2568331,13.8802183 C21.2086803,11.7127448 19.9435677,9.63563227 18.0805274,8.54178938 C17.1501665,7.99070658 16.0711856,7.69703355 14.9904212,7.69525011 C13.7961113,7.68573843 12.5809945,7.93482548 11.5406548,8.53643907 C10.4141155,9.18026072 9.53725775,10.2241673 9.03432781,11.4143159 C8.83101571,11.7870548 8.63121104,12.1657384 8.51831932,12.5771185 C8.81853163,10.7294752 9.69592442,8.93474055 11.1459202,7.72081274 C12.0143958,6.98484671 13.0613342,6.47775541 14.1581495,6.18586582 M0.222353291,0.251768153 C0.417937155,0.0680738854 0.700909554,0.0359719745 0.957724841,0.034188535 C5.69329172,0.0353774947 10.4289775,0.034188535 15.1646038,0.0347830149 C15.5230752,0.034188535 15.8916527,0.0680738854 16.2209945,0.221449682 C16.5717376,0.383148195 16.8546505,0.654230998 17.1221665,0.92650276 C17.9955168,1.81762803 18.8747524,2.70280849 19.7533936,3.58798896 C19.8859626,3.72471932 20.0440943,3.84599321 20.1320178,4.01958132 C20.1606123,4.21278726 19.8960688,4.20743694 19.7658777,4.23002718 C18.9454361,4.24905053 18.1239244,4.23181062 17.3035423,4.23716093 C13.4007822,4.23478301 9.49796263,4.24310573 5.59585648,4.23359406 C5.40681189,4.23418854 5.20349979,4.31265987 5.11432781,4.48922038 C4.97105817,4.7626811 4.98056985,5.08132229 4.97516008,5.38153461 C4.97640849,8.23503779 4.97516008,11.0891355 4.97581401,13.9432331 C4.97991592,15.9674369 6.03814947,17.9381376 7.67707091,19.1134242 C8.5956017,19.7774582 9.69955074,20.1805155 10.8307864,20.2577979 C12.0780645,20.3309189 13.3620815,20.1323626 14.4779796,19.5521503 C15.6996357,18.9243796 16.6609096,17.8341036 17.1935635,16.5749953 C17.3939032,16.2117682 17.5852662,15.8414072 17.7024382,15.4419168 C17.4146505,17.2800484 16.5175805,19.0587321 15.0772153,20.2601758 C14.305521,20.9099423 13.3930539,21.3819592 12.43178,21.6803881 C11.298107,22.0352926 10.103797,22.1589444 8.91959321,22.1482437 C7.77397113,22.1340357 6.62311762,21.9835728 5.53581401,21.6144008 C4.48596263,21.2624688 3.50685435,20.6917682 2.70549554,19.9260781 C1.3893172,18.6735686 0.601036943,16.9542735 0.243695117,15.1910463 C0.0903193206,14.4479465 0.011907431,13.6899847 1.78343949e-05,12.9314285 C0.000612314225,8.94781911 1.78343949e-05,4.96361529 0.000612314225,0.980005945 C0.00715159236,0.726757537 0.0308713376,0.439623779 0.222353291,0.251768153" id="Fill-1" fill="#095F3C" mask="url(#mask-2)"></path>
                </g>
                <path d="M10.6578582,9.87669979 C11.6619346,9.27151932 12.8925079,9.0628569 14.0416374,9.28816476 C15.1224017,9.49504374 16.1210684,10.091307 16.8208306,10.9396297 C17.8593868,12.1696085 18.2006183,13.9375915 17.7024442,15.4671881 C17.5852722,15.8666786 17.3939091,16.2370395 17.19351,16.6002667 C16.8273104,17.0954684 16.4236586,17.5734301 15.9124654,17.9253622 C14.9333571,18.6310098 13.6825715,18.9401393 12.4876076,18.7777868 C11.3450769,18.6327932 10.2672849,18.0531754 9.50932314,17.1870183 C8.4142913,15.9659567 8.03204076,14.1676552 8.51832527,12.6023898 C8.63121699,12.1910098 8.83102166,11.8123261 9.03427431,11.4395873 C9.46889851,10.8213282 9.99852059,10.2583558 10.6578582,9.87669979" id="Fill-4" fill="#E4E418"></path>
            </g>
        </g>
    </g>
</svg>